%TF.GenerationSoftware,KiCad,Pcbnew,(5.1.6)-1*%
%TF.CreationDate,2020-09-04T23:44:55+02:00*%
%TF.ProjectId,gpioexpander3,6770696f-6578-4706-916e-646572332e6b,rev?*%
%TF.SameCoordinates,Original*%
%TF.FileFunction,Soldermask,Bot*%
%TF.FilePolarity,Negative*%
%FSLAX46Y46*%
G04 Gerber Fmt 4.6, Leading zero omitted, Abs format (unit mm)*
G04 Created by KiCad (PCBNEW (5.1.6)-1) date 2020-09-04 23:44:55*
%MOMM*%
%LPD*%
G01*
G04 APERTURE LIST*
%ADD10O,1.800000X1.800000*%
%ADD11R,1.800000X1.800000*%
%ADD12O,1.700000X1.700000*%
%ADD13R,1.700000X1.700000*%
%ADD14C,2.100000*%
%ADD15C,1.000000*%
%ADD16C,8.700000*%
G04 APERTURE END LIST*
%TO.C,R9*%
G36*
G01*
X152243262Y-74267000D02*
X151286738Y-74267000D01*
G75*
G02*
X151015000Y-73995262I0J271738D01*
G01*
X151015000Y-73288738D01*
G75*
G02*
X151286738Y-73017000I271738J0D01*
G01*
X152243262Y-73017000D01*
G75*
G02*
X152515000Y-73288738I0J-271738D01*
G01*
X152515000Y-73995262D01*
G75*
G02*
X152243262Y-74267000I-271738J0D01*
G01*
G37*
G36*
G01*
X152243262Y-76317000D02*
X151286738Y-76317000D01*
G75*
G02*
X151015000Y-76045262I0J271738D01*
G01*
X151015000Y-75338738D01*
G75*
G02*
X151286738Y-75067000I271738J0D01*
G01*
X152243262Y-75067000D01*
G75*
G02*
X152515000Y-75338738I0J-271738D01*
G01*
X152515000Y-76045262D01*
G75*
G02*
X152243262Y-76317000I-271738J0D01*
G01*
G37*
%TD*%
%TO.C,R8*%
G36*
G01*
X153699738Y-75085000D02*
X154656262Y-75085000D01*
G75*
G02*
X154928000Y-75356738I0J-271738D01*
G01*
X154928000Y-76063262D01*
G75*
G02*
X154656262Y-76335000I-271738J0D01*
G01*
X153699738Y-76335000D01*
G75*
G02*
X153428000Y-76063262I0J271738D01*
G01*
X153428000Y-75356738D01*
G75*
G02*
X153699738Y-75085000I271738J0D01*
G01*
G37*
G36*
G01*
X153699738Y-73035000D02*
X154656262Y-73035000D01*
G75*
G02*
X154928000Y-73306738I0J-271738D01*
G01*
X154928000Y-74013262D01*
G75*
G02*
X154656262Y-74285000I-271738J0D01*
G01*
X153699738Y-74285000D01*
G75*
G02*
X153428000Y-74013262I0J271738D01*
G01*
X153428000Y-73306738D01*
G75*
G02*
X153699738Y-73035000I271738J0D01*
G01*
G37*
%TD*%
%TO.C,R7*%
G36*
G01*
X159355262Y-74267000D02*
X158398738Y-74267000D01*
G75*
G02*
X158127000Y-73995262I0J271738D01*
G01*
X158127000Y-73288738D01*
G75*
G02*
X158398738Y-73017000I271738J0D01*
G01*
X159355262Y-73017000D01*
G75*
G02*
X159627000Y-73288738I0J-271738D01*
G01*
X159627000Y-73995262D01*
G75*
G02*
X159355262Y-74267000I-271738J0D01*
G01*
G37*
G36*
G01*
X159355262Y-76317000D02*
X158398738Y-76317000D01*
G75*
G02*
X158127000Y-76045262I0J271738D01*
G01*
X158127000Y-75338738D01*
G75*
G02*
X158398738Y-75067000I271738J0D01*
G01*
X159355262Y-75067000D01*
G75*
G02*
X159627000Y-75338738I0J-271738D01*
G01*
X159627000Y-76045262D01*
G75*
G02*
X159355262Y-76317000I-271738J0D01*
G01*
G37*
%TD*%
%TO.C,R6*%
G36*
G01*
X156239738Y-75067000D02*
X157196262Y-75067000D01*
G75*
G02*
X157468000Y-75338738I0J-271738D01*
G01*
X157468000Y-76045262D01*
G75*
G02*
X157196262Y-76317000I-271738J0D01*
G01*
X156239738Y-76317000D01*
G75*
G02*
X155968000Y-76045262I0J271738D01*
G01*
X155968000Y-75338738D01*
G75*
G02*
X156239738Y-75067000I271738J0D01*
G01*
G37*
G36*
G01*
X156239738Y-73017000D02*
X157196262Y-73017000D01*
G75*
G02*
X157468000Y-73288738I0J-271738D01*
G01*
X157468000Y-73995262D01*
G75*
G02*
X157196262Y-74267000I-271738J0D01*
G01*
X156239738Y-74267000D01*
G75*
G02*
X155968000Y-73995262I0J271738D01*
G01*
X155968000Y-73288738D01*
G75*
G02*
X156239738Y-73017000I271738J0D01*
G01*
G37*
%TD*%
%TO.C,R5*%
G36*
G01*
X162022262Y-74285000D02*
X161065738Y-74285000D01*
G75*
G02*
X160794000Y-74013262I0J271738D01*
G01*
X160794000Y-73306738D01*
G75*
G02*
X161065738Y-73035000I271738J0D01*
G01*
X162022262Y-73035000D01*
G75*
G02*
X162294000Y-73306738I0J-271738D01*
G01*
X162294000Y-74013262D01*
G75*
G02*
X162022262Y-74285000I-271738J0D01*
G01*
G37*
G36*
G01*
X162022262Y-76335000D02*
X161065738Y-76335000D01*
G75*
G02*
X160794000Y-76063262I0J271738D01*
G01*
X160794000Y-75356738D01*
G75*
G02*
X161065738Y-75085000I271738J0D01*
G01*
X162022262Y-75085000D01*
G75*
G02*
X162294000Y-75356738I0J-271738D01*
G01*
X162294000Y-76063262D01*
G75*
G02*
X162022262Y-76335000I-271738J0D01*
G01*
G37*
%TD*%
%TO.C,R4*%
G36*
G01*
X163351738Y-75085000D02*
X164308262Y-75085000D01*
G75*
G02*
X164580000Y-75356738I0J-271738D01*
G01*
X164580000Y-76063262D01*
G75*
G02*
X164308262Y-76335000I-271738J0D01*
G01*
X163351738Y-76335000D01*
G75*
G02*
X163080000Y-76063262I0J271738D01*
G01*
X163080000Y-75356738D01*
G75*
G02*
X163351738Y-75085000I271738J0D01*
G01*
G37*
G36*
G01*
X163351738Y-73035000D02*
X164308262Y-73035000D01*
G75*
G02*
X164580000Y-73306738I0J-271738D01*
G01*
X164580000Y-74013262D01*
G75*
G02*
X164308262Y-74285000I-271738J0D01*
G01*
X163351738Y-74285000D01*
G75*
G02*
X163080000Y-74013262I0J271738D01*
G01*
X163080000Y-73306738D01*
G75*
G02*
X163351738Y-73035000I271738J0D01*
G01*
G37*
%TD*%
D10*
%TO.C,J7*%
X140843000Y-103378000D03*
X140843000Y-100838000D03*
X140843000Y-98298000D03*
D11*
X140843000Y-95758000D03*
%TD*%
D10*
%TO.C,J1*%
X149352000Y-100965000D03*
D11*
X149352000Y-98425000D03*
%TD*%
D12*
%TO.C,U1*%
X126365000Y-80645000D03*
X159385000Y-88265000D03*
X128905000Y-80645000D03*
X156845000Y-88265000D03*
X131445000Y-80645000D03*
X154305000Y-88265000D03*
X133985000Y-80645000D03*
X151765000Y-88265000D03*
X136525000Y-80645000D03*
X149225000Y-88265000D03*
X139065000Y-80645000D03*
X146685000Y-88265000D03*
X141605000Y-80645000D03*
X144145000Y-88265000D03*
X144145000Y-80645000D03*
X141605000Y-88265000D03*
X146685000Y-80645000D03*
X139065000Y-88265000D03*
X149225000Y-80645000D03*
X136525000Y-88265000D03*
X151765000Y-80645000D03*
X133985000Y-88265000D03*
X154305000Y-80645000D03*
X131445000Y-88265000D03*
X156845000Y-80645000D03*
X128905000Y-88265000D03*
X159385000Y-80645000D03*
D13*
X126365000Y-88265000D03*
%TD*%
D14*
%TO.C,SW1*%
X162560000Y-70000000D03*
X158060000Y-70000000D03*
X162560000Y-63500000D03*
X158060000Y-63500000D03*
%TD*%
D10*
%TO.C,J8*%
X149860000Y-66040000D03*
D11*
X149860000Y-63500000D03*
%TD*%
D10*
%TO.C,J6*%
X133350000Y-103378000D03*
X133350000Y-100838000D03*
X133350000Y-98298000D03*
D11*
X133350000Y-95758000D03*
%TD*%
D10*
%TO.C,J5*%
X126111000Y-103378000D03*
X126111000Y-100838000D03*
X126111000Y-98298000D03*
D11*
X126111000Y-95758000D03*
%TD*%
D10*
%TO.C,J4*%
X137033000Y-70866000D03*
X137033000Y-68326000D03*
X137033000Y-65786000D03*
D11*
X137033000Y-63246000D03*
%TD*%
D10*
%TO.C,J3*%
X143510000Y-70739000D03*
X143510000Y-68199000D03*
X143510000Y-65659000D03*
D11*
X143510000Y-63119000D03*
%TD*%
D10*
%TO.C,J2*%
X156845000Y-93980000D03*
D11*
X159385000Y-93980000D03*
%TD*%
D15*
%TO.C,H2*%
X162935419Y-98684581D03*
X160655000Y-97740000D03*
X158374581Y-98684581D03*
X157430000Y-100965000D03*
X158374581Y-103245419D03*
X160655000Y-104190000D03*
X162935419Y-103245419D03*
X163880000Y-100965000D03*
D16*
X160655000Y-100965000D03*
%TD*%
D15*
%TO.C,H1*%
X131820419Y-64394581D03*
X129540000Y-63450000D03*
X127259581Y-64394581D03*
X126315000Y-66675000D03*
X127259581Y-68955419D03*
X129540000Y-69900000D03*
X131820419Y-68955419D03*
X132765000Y-66675000D03*
D16*
X129540000Y-66675000D03*
%TD*%
M02*
