%TF.GenerationSoftware,KiCad,Pcbnew,(5.1.6)-1*%
%TF.CreationDate,2020-09-04T23:44:55+02:00*%
%TF.ProjectId,gpioexpander3,6770696f-6578-4706-916e-646572332e6b,rev?*%
%TF.SameCoordinates,Original*%
%TF.FileFunction,Paste,Bot*%
%TF.FilePolarity,Positive*%
%FSLAX46Y46*%
G04 Gerber Fmt 4.6, Leading zero omitted, Abs format (unit mm)*
G04 Created by KiCad (PCBNEW (5.1.6)-1) date 2020-09-04 23:44:55*
%MOMM*%
%LPD*%
G01*
G04 APERTURE LIST*
G04 APERTURE END LIST*
%TO.C,R9*%
G36*
G01*
X152215001Y-74217000D02*
X151314999Y-74217000D01*
G75*
G02*
X151065000Y-73967001I0J249999D01*
G01*
X151065000Y-73316999D01*
G75*
G02*
X151314999Y-73067000I249999J0D01*
G01*
X152215001Y-73067000D01*
G75*
G02*
X152465000Y-73316999I0J-249999D01*
G01*
X152465000Y-73967001D01*
G75*
G02*
X152215001Y-74217000I-249999J0D01*
G01*
G37*
G36*
G01*
X152215001Y-76267000D02*
X151314999Y-76267000D01*
G75*
G02*
X151065000Y-76017001I0J249999D01*
G01*
X151065000Y-75366999D01*
G75*
G02*
X151314999Y-75117000I249999J0D01*
G01*
X152215001Y-75117000D01*
G75*
G02*
X152465000Y-75366999I0J-249999D01*
G01*
X152465000Y-76017001D01*
G75*
G02*
X152215001Y-76267000I-249999J0D01*
G01*
G37*
%TD*%
%TO.C,R8*%
G36*
G01*
X153727999Y-75135000D02*
X154628001Y-75135000D01*
G75*
G02*
X154878000Y-75384999I0J-249999D01*
G01*
X154878000Y-76035001D01*
G75*
G02*
X154628001Y-76285000I-249999J0D01*
G01*
X153727999Y-76285000D01*
G75*
G02*
X153478000Y-76035001I0J249999D01*
G01*
X153478000Y-75384999D01*
G75*
G02*
X153727999Y-75135000I249999J0D01*
G01*
G37*
G36*
G01*
X153727999Y-73085000D02*
X154628001Y-73085000D01*
G75*
G02*
X154878000Y-73334999I0J-249999D01*
G01*
X154878000Y-73985001D01*
G75*
G02*
X154628001Y-74235000I-249999J0D01*
G01*
X153727999Y-74235000D01*
G75*
G02*
X153478000Y-73985001I0J249999D01*
G01*
X153478000Y-73334999D01*
G75*
G02*
X153727999Y-73085000I249999J0D01*
G01*
G37*
%TD*%
%TO.C,R7*%
G36*
G01*
X159327001Y-74217000D02*
X158426999Y-74217000D01*
G75*
G02*
X158177000Y-73967001I0J249999D01*
G01*
X158177000Y-73316999D01*
G75*
G02*
X158426999Y-73067000I249999J0D01*
G01*
X159327001Y-73067000D01*
G75*
G02*
X159577000Y-73316999I0J-249999D01*
G01*
X159577000Y-73967001D01*
G75*
G02*
X159327001Y-74217000I-249999J0D01*
G01*
G37*
G36*
G01*
X159327001Y-76267000D02*
X158426999Y-76267000D01*
G75*
G02*
X158177000Y-76017001I0J249999D01*
G01*
X158177000Y-75366999D01*
G75*
G02*
X158426999Y-75117000I249999J0D01*
G01*
X159327001Y-75117000D01*
G75*
G02*
X159577000Y-75366999I0J-249999D01*
G01*
X159577000Y-76017001D01*
G75*
G02*
X159327001Y-76267000I-249999J0D01*
G01*
G37*
%TD*%
%TO.C,R6*%
G36*
G01*
X156267999Y-75117000D02*
X157168001Y-75117000D01*
G75*
G02*
X157418000Y-75366999I0J-249999D01*
G01*
X157418000Y-76017001D01*
G75*
G02*
X157168001Y-76267000I-249999J0D01*
G01*
X156267999Y-76267000D01*
G75*
G02*
X156018000Y-76017001I0J249999D01*
G01*
X156018000Y-75366999D01*
G75*
G02*
X156267999Y-75117000I249999J0D01*
G01*
G37*
G36*
G01*
X156267999Y-73067000D02*
X157168001Y-73067000D01*
G75*
G02*
X157418000Y-73316999I0J-249999D01*
G01*
X157418000Y-73967001D01*
G75*
G02*
X157168001Y-74217000I-249999J0D01*
G01*
X156267999Y-74217000D01*
G75*
G02*
X156018000Y-73967001I0J249999D01*
G01*
X156018000Y-73316999D01*
G75*
G02*
X156267999Y-73067000I249999J0D01*
G01*
G37*
%TD*%
%TO.C,R5*%
G36*
G01*
X161994001Y-74235000D02*
X161093999Y-74235000D01*
G75*
G02*
X160844000Y-73985001I0J249999D01*
G01*
X160844000Y-73334999D01*
G75*
G02*
X161093999Y-73085000I249999J0D01*
G01*
X161994001Y-73085000D01*
G75*
G02*
X162244000Y-73334999I0J-249999D01*
G01*
X162244000Y-73985001D01*
G75*
G02*
X161994001Y-74235000I-249999J0D01*
G01*
G37*
G36*
G01*
X161994001Y-76285000D02*
X161093999Y-76285000D01*
G75*
G02*
X160844000Y-76035001I0J249999D01*
G01*
X160844000Y-75384999D01*
G75*
G02*
X161093999Y-75135000I249999J0D01*
G01*
X161994001Y-75135000D01*
G75*
G02*
X162244000Y-75384999I0J-249999D01*
G01*
X162244000Y-76035001D01*
G75*
G02*
X161994001Y-76285000I-249999J0D01*
G01*
G37*
%TD*%
%TO.C,R4*%
G36*
G01*
X163379999Y-75135000D02*
X164280001Y-75135000D01*
G75*
G02*
X164530000Y-75384999I0J-249999D01*
G01*
X164530000Y-76035001D01*
G75*
G02*
X164280001Y-76285000I-249999J0D01*
G01*
X163379999Y-76285000D01*
G75*
G02*
X163130000Y-76035001I0J249999D01*
G01*
X163130000Y-75384999D01*
G75*
G02*
X163379999Y-75135000I249999J0D01*
G01*
G37*
G36*
G01*
X163379999Y-73085000D02*
X164280001Y-73085000D01*
G75*
G02*
X164530000Y-73334999I0J-249999D01*
G01*
X164530000Y-73985001D01*
G75*
G02*
X164280001Y-74235000I-249999J0D01*
G01*
X163379999Y-74235000D01*
G75*
G02*
X163130000Y-73985001I0J249999D01*
G01*
X163130000Y-73334999D01*
G75*
G02*
X163379999Y-73085000I249999J0D01*
G01*
G37*
%TD*%
M02*
