%TF.GenerationSoftware,KiCad,Pcbnew,(5.1.6)-1*%
%TF.CreationDate,2020-09-04T23:44:55+02:00*%
%TF.ProjectId,gpioexpander3,6770696f-6578-4706-916e-646572332e6b,rev?*%
%TF.SameCoordinates,Original*%
%TF.FileFunction,Copper,L1,Top*%
%TF.FilePolarity,Positive*%
%FSLAX46Y46*%
G04 Gerber Fmt 4.6, Leading zero omitted, Abs format (unit mm)*
G04 Created by KiCad (PCBNEW (5.1.6)-1) date 2020-09-04 23:44:55*
%MOMM*%
%LPD*%
G01*
G04 APERTURE LIST*
%TA.AperFunction,ComponentPad*%
%ADD10O,1.700000X1.700000*%
%TD*%
%TA.AperFunction,ComponentPad*%
%ADD11R,1.700000X1.700000*%
%TD*%
%TA.AperFunction,ComponentPad*%
%ADD12O,1.600000X1.600000*%
%TD*%
%TA.AperFunction,ComponentPad*%
%ADD13R,1.600000X1.600000*%
%TD*%
%TA.AperFunction,ComponentPad*%
%ADD14C,2.000000*%
%TD*%
%TA.AperFunction,ComponentPad*%
%ADD15C,0.900000*%
%TD*%
%TA.AperFunction,ComponentPad*%
%ADD16C,8.600000*%
%TD*%
%TA.AperFunction,ViaPad*%
%ADD17C,0.800000*%
%TD*%
%TA.AperFunction,Conductor*%
%ADD18C,0.250000*%
%TD*%
%TA.AperFunction,Conductor*%
%ADD19C,0.500000*%
%TD*%
G04 APERTURE END LIST*
D10*
%TO.P,J7,4*%
%TO.N,GND*%
X140843000Y-103378000D03*
%TO.P,J7,3*%
%TO.N,Net-(J7-Pad3)*%
X140843000Y-100838000D03*
%TO.P,J7,2*%
%TO.N,Net-(J7-Pad2)*%
X140843000Y-98298000D03*
D11*
%TO.P,J7,1*%
%TO.N,Net-(J7-Pad1)*%
X140843000Y-95758000D03*
%TD*%
%TO.P,R3,2*%
%TO.N,Net-(J8-Pad1)*%
%TA.AperFunction,SMDPad,CuDef*%
G36*
G01*
X153739001Y-69663000D02*
X152838999Y-69663000D01*
G75*
G02*
X152589000Y-69413001I0J249999D01*
G01*
X152589000Y-68762999D01*
G75*
G02*
X152838999Y-68513000I249999J0D01*
G01*
X153739001Y-68513000D01*
G75*
G02*
X153989000Y-68762999I0J-249999D01*
G01*
X153989000Y-69413001D01*
G75*
G02*
X153739001Y-69663000I-249999J0D01*
G01*
G37*
%TD.AperFunction*%
%TO.P,R3,1*%
%TO.N,+3V3*%
%TA.AperFunction,SMDPad,CuDef*%
G36*
G01*
X153739001Y-71713000D02*
X152838999Y-71713000D01*
G75*
G02*
X152589000Y-71463001I0J249999D01*
G01*
X152589000Y-70812999D01*
G75*
G02*
X152838999Y-70563000I249999J0D01*
G01*
X153739001Y-70563000D01*
G75*
G02*
X153989000Y-70812999I0J-249999D01*
G01*
X153989000Y-71463001D01*
G75*
G02*
X153739001Y-71713000I-249999J0D01*
G01*
G37*
%TD.AperFunction*%
%TD*%
%TO.P,R2,2*%
%TO.N,+3V3*%
%TA.AperFunction,SMDPad,CuDef*%
G36*
G01*
X149536999Y-70545000D02*
X150437001Y-70545000D01*
G75*
G02*
X150687000Y-70794999I0J-249999D01*
G01*
X150687000Y-71445001D01*
G75*
G02*
X150437001Y-71695000I-249999J0D01*
G01*
X149536999Y-71695000D01*
G75*
G02*
X149287000Y-71445001I0J249999D01*
G01*
X149287000Y-70794999D01*
G75*
G02*
X149536999Y-70545000I249999J0D01*
G01*
G37*
%TD.AperFunction*%
%TO.P,R2,1*%
%TO.N,Net-(J8-Pad2)*%
%TA.AperFunction,SMDPad,CuDef*%
G36*
G01*
X149536999Y-68495000D02*
X150437001Y-68495000D01*
G75*
G02*
X150687000Y-68744999I0J-249999D01*
G01*
X150687000Y-69395001D01*
G75*
G02*
X150437001Y-69645000I-249999J0D01*
G01*
X149536999Y-69645000D01*
G75*
G02*
X149287000Y-69395001I0J249999D01*
G01*
X149287000Y-68744999D01*
G75*
G02*
X149536999Y-68495000I249999J0D01*
G01*
G37*
%TD.AperFunction*%
%TD*%
%TO.P,R1,2*%
%TO.N,+3V3*%
%TA.AperFunction,SMDPad,CuDef*%
G36*
G01*
X156394999Y-75126000D02*
X157295001Y-75126000D01*
G75*
G02*
X157545000Y-75375999I0J-249999D01*
G01*
X157545000Y-76026001D01*
G75*
G02*
X157295001Y-76276000I-249999J0D01*
G01*
X156394999Y-76276000D01*
G75*
G02*
X156145000Y-76026001I0J249999D01*
G01*
X156145000Y-75375999D01*
G75*
G02*
X156394999Y-75126000I249999J0D01*
G01*
G37*
%TD.AperFunction*%
%TO.P,R1,1*%
%TO.N,/Action*%
%TA.AperFunction,SMDPad,CuDef*%
G36*
G01*
X156394999Y-73076000D02*
X157295001Y-73076000D01*
G75*
G02*
X157545000Y-73325999I0J-249999D01*
G01*
X157545000Y-73976001D01*
G75*
G02*
X157295001Y-74226000I-249999J0D01*
G01*
X156394999Y-74226000D01*
G75*
G02*
X156145000Y-73976001I0J249999D01*
G01*
X156145000Y-73325999D01*
G75*
G02*
X156394999Y-73076000I249999J0D01*
G01*
G37*
%TD.AperFunction*%
%TD*%
D10*
%TO.P,J1,2*%
%TO.N,GND*%
X149352000Y-100965000D03*
D11*
%TO.P,J1,1*%
%TO.N,+3V3*%
X149352000Y-98425000D03*
%TD*%
D12*
%TO.P,U1,28*%
%TO.N,Net-(J5-Pad2)*%
X126365000Y-80645000D03*
%TO.P,U1,14*%
%TO.N,N/C*%
X159385000Y-88265000D03*
%TO.P,U1,27*%
%TO.N,Net-(J5-Pad1)*%
X128905000Y-80645000D03*
%TO.P,U1,13*%
%TO.N,Net-(J2-Pad1)*%
X156845000Y-88265000D03*
%TO.P,U1,26*%
%TO.N,Net-(J4-Pad3)*%
X131445000Y-80645000D03*
%TO.P,U1,12*%
%TO.N,Net-(J2-Pad2)*%
X154305000Y-88265000D03*
%TO.P,U1,25*%
%TO.N,Net-(J4-Pad2)*%
X133985000Y-80645000D03*
%TO.P,U1,11*%
%TO.N,N/C*%
X151765000Y-88265000D03*
%TO.P,U1,24*%
%TO.N,Net-(J4-Pad1)*%
X136525000Y-80645000D03*
%TO.P,U1,10*%
%TO.N,GND*%
X149225000Y-88265000D03*
%TO.P,U1,23*%
%TO.N,Net-(J3-Pad3)*%
X139065000Y-80645000D03*
%TO.P,U1,9*%
%TO.N,+3V3*%
X146685000Y-88265000D03*
%TO.P,U1,22*%
%TO.N,Net-(J3-Pad2)*%
X141605000Y-80645000D03*
%TO.P,U1,8*%
%TO.N,/Action*%
X144145000Y-88265000D03*
%TO.P,U1,21*%
%TO.N,Net-(J3-Pad1)*%
X144145000Y-80645000D03*
%TO.P,U1,7*%
%TO.N,Net-(J7-Pad3)*%
X141605000Y-88265000D03*
%TO.P,U1,20*%
%TO.N,Net-(J8-Pad2)*%
X146685000Y-80645000D03*
%TO.P,U1,6*%
%TO.N,Net-(J7-Pad2)*%
X139065000Y-88265000D03*
%TO.P,U1,19*%
%TO.N,Net-(J8-Pad1)*%
X149225000Y-80645000D03*
%TO.P,U1,5*%
%TO.N,Net-(J7-Pad1)*%
X136525000Y-88265000D03*
%TO.P,U1,18*%
%TO.N,+3V3*%
X151765000Y-80645000D03*
%TO.P,U1,4*%
%TO.N,Net-(J6-Pad3)*%
X133985000Y-88265000D03*
%TO.P,U1,17*%
%TO.N,/A2*%
X154305000Y-80645000D03*
%TO.P,U1,3*%
%TO.N,Net-(J6-Pad2)*%
X131445000Y-88265000D03*
%TO.P,U1,16*%
%TO.N,/A1*%
X156845000Y-80645000D03*
%TO.P,U1,2*%
%TO.N,Net-(J6-Pad1)*%
X128905000Y-88265000D03*
%TO.P,U1,15*%
%TO.N,/A0*%
X159385000Y-80645000D03*
D13*
%TO.P,U1,1*%
%TO.N,Net-(J5-Pad3)*%
X126365000Y-88265000D03*
%TD*%
D14*
%TO.P,SW1,1*%
%TO.N,/Action*%
X162560000Y-70000000D03*
%TO.P,SW1,2*%
%TO.N,GND*%
X158060000Y-70000000D03*
%TO.P,SW1,1*%
%TO.N,/Action*%
X162560000Y-63500000D03*
%TO.P,SW1,2*%
%TO.N,GND*%
X158060000Y-63500000D03*
%TD*%
D10*
%TO.P,J8,2*%
%TO.N,Net-(J8-Pad2)*%
X149860000Y-66040000D03*
D11*
%TO.P,J8,1*%
%TO.N,Net-(J8-Pad1)*%
X149860000Y-63500000D03*
%TD*%
D10*
%TO.P,J6,4*%
%TO.N,GND*%
X133350000Y-103378000D03*
%TO.P,J6,3*%
%TO.N,Net-(J6-Pad3)*%
X133350000Y-100838000D03*
%TO.P,J6,2*%
%TO.N,Net-(J6-Pad2)*%
X133350000Y-98298000D03*
D11*
%TO.P,J6,1*%
%TO.N,Net-(J6-Pad1)*%
X133350000Y-95758000D03*
%TD*%
D10*
%TO.P,J5,4*%
%TO.N,GND*%
X126111000Y-103378000D03*
%TO.P,J5,3*%
%TO.N,Net-(J5-Pad3)*%
X126111000Y-100838000D03*
%TO.P,J5,2*%
%TO.N,Net-(J5-Pad2)*%
X126111000Y-98298000D03*
D11*
%TO.P,J5,1*%
%TO.N,Net-(J5-Pad1)*%
X126111000Y-95758000D03*
%TD*%
D10*
%TO.P,J4,4*%
%TO.N,GND*%
X137033000Y-70866000D03*
%TO.P,J4,3*%
%TO.N,Net-(J4-Pad3)*%
X137033000Y-68326000D03*
%TO.P,J4,2*%
%TO.N,Net-(J4-Pad2)*%
X137033000Y-65786000D03*
D11*
%TO.P,J4,1*%
%TO.N,Net-(J4-Pad1)*%
X137033000Y-63246000D03*
%TD*%
D10*
%TO.P,J3,4*%
%TO.N,GND*%
X143510000Y-70739000D03*
%TO.P,J3,3*%
%TO.N,Net-(J3-Pad3)*%
X143510000Y-68199000D03*
%TO.P,J3,2*%
%TO.N,Net-(J3-Pad2)*%
X143510000Y-65659000D03*
D11*
%TO.P,J3,1*%
%TO.N,Net-(J3-Pad1)*%
X143510000Y-63119000D03*
%TD*%
D10*
%TO.P,J2,2*%
%TO.N,Net-(J2-Pad2)*%
X156845000Y-93980000D03*
D11*
%TO.P,J2,1*%
%TO.N,Net-(J2-Pad1)*%
X159385000Y-93980000D03*
%TD*%
D15*
%TO.P,H2,1*%
%TO.N,GND*%
X162935419Y-98684581D03*
X160655000Y-97740000D03*
X158374581Y-98684581D03*
X157430000Y-100965000D03*
X158374581Y-103245419D03*
X160655000Y-104190000D03*
X162935419Y-103245419D03*
X163880000Y-100965000D03*
D16*
X160655000Y-100965000D03*
%TD*%
D15*
%TO.P,H1,1*%
%TO.N,GND*%
X131820419Y-64394581D03*
X129540000Y-63450000D03*
X127259581Y-64394581D03*
X126315000Y-66675000D03*
X127259581Y-68955419D03*
X129540000Y-69900000D03*
X131820419Y-68955419D03*
X132765000Y-66675000D03*
D16*
X129540000Y-66675000D03*
%TD*%
D17*
%TO.N,+3V3*%
X155448000Y-71755000D03*
X163449000Y-72136000D03*
%TD*%
D18*
%TO.N,+3V3*%
X156845000Y-75701000D02*
X155448000Y-74304000D01*
X155448000Y-74304000D02*
X155448000Y-71755000D01*
X159884000Y-75701000D02*
X156845000Y-75701000D01*
X163449000Y-72136000D02*
X159884000Y-75701000D01*
X156709000Y-75701000D02*
X156845000Y-75701000D01*
X151765000Y-80645000D02*
X156709000Y-75701000D01*
X153906000Y-71755000D02*
X153289000Y-71138000D01*
X155448000Y-71755000D02*
X153906000Y-71755000D01*
X150005000Y-71138000D02*
X149987000Y-71120000D01*
X153289000Y-71138000D02*
X150005000Y-71138000D01*
D19*
X146685000Y-94742000D02*
X146685000Y-88265000D01*
X149352000Y-98425000D02*
X149352000Y-97409000D01*
X149352000Y-97409000D02*
X146685000Y-94742000D01*
D18*
%TO.N,Net-(J2-Pad2)*%
X154305000Y-88265000D02*
X154305000Y-91440000D01*
X154305000Y-91440000D02*
X156845000Y-93980000D01*
%TO.N,Net-(J2-Pad1)*%
X156845000Y-91440000D02*
X159385000Y-93980000D01*
X156845000Y-88265000D02*
X156845000Y-91440000D01*
%TO.N,Net-(J3-Pad3)*%
X142334999Y-77375001D02*
X139065000Y-80645000D01*
X142334999Y-69374001D02*
X142334999Y-77375001D01*
X143510000Y-68199000D02*
X142334999Y-69374001D01*
%TO.N,Net-(J3-Pad2)*%
X143510000Y-65659000D02*
X145288000Y-67437000D01*
X145288000Y-76962000D02*
X141605000Y-80645000D01*
X145288000Y-67437000D02*
X145288000Y-76962000D01*
%TO.N,Net-(J3-Pad1)*%
X143510000Y-63119000D02*
X146431000Y-66040000D01*
X146431000Y-78359000D02*
X144145000Y-80645000D01*
X146431000Y-66040000D02*
X146431000Y-78359000D01*
%TO.N,Net-(J4-Pad3)*%
X135857999Y-69501001D02*
X135857999Y-76232001D01*
X135857999Y-76232001D02*
X131445000Y-80645000D01*
X137033000Y-68326000D02*
X135857999Y-69501001D01*
%TO.N,Net-(J4-Pad2)*%
X137033000Y-65786000D02*
X139573000Y-68326000D01*
X139573000Y-75057000D02*
X133985000Y-80645000D01*
X139573000Y-68326000D02*
X139573000Y-75057000D01*
%TO.N,Net-(J4-Pad1)*%
X137033000Y-63246000D02*
X140843000Y-67056000D01*
X140843000Y-76327000D02*
X136525000Y-80645000D01*
X140843000Y-67056000D02*
X140843000Y-76327000D01*
%TO.N,Net-(J5-Pad3)*%
X126111000Y-100838000D02*
X127381000Y-100838000D01*
X127381000Y-100838000D02*
X128016000Y-100203000D01*
X128016000Y-89916000D02*
X126365000Y-88265000D01*
X128016000Y-100203000D02*
X128016000Y-89916000D01*
%TO.N,Net-(J5-Pad2)*%
X126365000Y-80645000D02*
X123698000Y-83312000D01*
X123698000Y-95885000D02*
X126111000Y-98298000D01*
X123698000Y-83312000D02*
X123698000Y-95885000D01*
%TO.N,Net-(J5-Pad1)*%
X125239999Y-94886999D02*
X125239999Y-84310001D01*
X125239999Y-84310001D02*
X128905000Y-80645000D01*
X126111000Y-95758000D02*
X125239999Y-94886999D01*
%TO.N,Net-(J6-Pad3)*%
X133350000Y-100838000D02*
X135382000Y-98806000D01*
X135382000Y-89662000D02*
X133985000Y-88265000D01*
X135382000Y-98806000D02*
X135382000Y-89662000D01*
%TO.N,Net-(J6-Pad2)*%
X134525001Y-91345001D02*
X131445000Y-88265000D01*
X134525001Y-97122999D02*
X134525001Y-91345001D01*
X133350000Y-98298000D02*
X134525001Y-97122999D01*
%TO.N,Net-(J6-Pad1)*%
X133350000Y-95758000D02*
X130302000Y-95758000D01*
X128905000Y-94361000D02*
X128905000Y-88265000D01*
X130302000Y-95758000D02*
X128905000Y-94361000D01*
%TO.N,Net-(J7-Pad3)*%
X140843000Y-100838000D02*
X143383000Y-98298000D01*
X143383000Y-90043000D02*
X141605000Y-88265000D01*
X143383000Y-98298000D02*
X143383000Y-90043000D01*
%TO.N,Net-(J7-Pad2)*%
X140843000Y-98298000D02*
X142240000Y-98298000D01*
X142240000Y-98298000D02*
X142494000Y-98044000D01*
X142494000Y-91694000D02*
X139065000Y-88265000D01*
X142494000Y-98044000D02*
X142494000Y-91694000D01*
%TO.N,Net-(J7-Pad1)*%
X140843000Y-95758000D02*
X137922000Y-95758000D01*
X136525000Y-94361000D02*
X136525000Y-88265000D01*
X137922000Y-95758000D02*
X136525000Y-94361000D01*
%TO.N,Net-(J8-Pad1)*%
X153289000Y-66929000D02*
X151892000Y-65532000D01*
X153289000Y-69088000D02*
X153289000Y-66929000D01*
X149860000Y-63500000D02*
X151892000Y-65532000D01*
X151892000Y-65532000D02*
X152019000Y-65659000D01*
%TO.N,Net-(J8-Pad2)*%
X149860000Y-68943000D02*
X149987000Y-69070000D01*
X149860000Y-66040000D02*
X149860000Y-68943000D01*
X146685000Y-80645000D02*
X147320000Y-80010000D01*
X147320000Y-68580000D02*
X149860000Y-66040000D01*
X147320000Y-80010000D02*
X147320000Y-68580000D01*
%TO.N,/Action*%
X162560000Y-70000000D02*
X162560000Y-63500000D01*
X162560000Y-70000000D02*
X162560000Y-71755000D01*
X160800000Y-73515000D02*
X156845000Y-73515000D01*
X162560000Y-71755000D02*
X160800000Y-73515000D01*
X144145000Y-88265000D02*
X147447000Y-84963000D01*
X147447000Y-84963000D02*
X160655000Y-84963000D01*
X160655000Y-84963000D02*
X164719000Y-80899000D01*
X164719000Y-72159000D02*
X162560000Y-70000000D01*
X164719000Y-80899000D02*
X164719000Y-72159000D01*
%TD*%
M02*
