%TF.GenerationSoftware,KiCad,Pcbnew,(5.1.6)-1*%
%TF.CreationDate,2020-09-04T23:44:55+02:00*%
%TF.ProjectId,gpioexpander3,6770696f-6578-4706-916e-646572332e6b,rev?*%
%TF.SameCoordinates,Original*%
%TF.FileFunction,Legend,Top*%
%TF.FilePolarity,Positive*%
%FSLAX46Y46*%
G04 Gerber Fmt 4.6, Leading zero omitted, Abs format (unit mm)*
G04 Created by KiCad (PCBNEW (5.1.6)-1) date 2020-09-04 23:44:55*
%MOMM*%
%LPD*%
G01*
G04 APERTURE LIST*
%ADD10C,0.150000*%
%ADD11C,0.120000*%
G04 APERTURE END LIST*
D10*
X147883809Y-96337380D02*
X147883809Y-95337380D01*
X148264761Y-95337380D01*
X148360000Y-95385000D01*
X148407619Y-95432619D01*
X148455238Y-95527857D01*
X148455238Y-95670714D01*
X148407619Y-95765952D01*
X148360000Y-95813571D01*
X148264761Y-95861190D01*
X147883809Y-95861190D01*
X149026666Y-96337380D02*
X148931428Y-96289761D01*
X148883809Y-96242142D01*
X148836190Y-96146904D01*
X148836190Y-95861190D01*
X148883809Y-95765952D01*
X148931428Y-95718333D01*
X149026666Y-95670714D01*
X149169523Y-95670714D01*
X149264761Y-95718333D01*
X149312380Y-95765952D01*
X149360000Y-95861190D01*
X149360000Y-96146904D01*
X149312380Y-96242142D01*
X149264761Y-96289761D01*
X149169523Y-96337380D01*
X149026666Y-96337380D01*
X149693333Y-95670714D02*
X149883809Y-96337380D01*
X150074285Y-95861190D01*
X150264761Y-96337380D01*
X150455238Y-95670714D01*
X151217142Y-96289761D02*
X151121904Y-96337380D01*
X150931428Y-96337380D01*
X150836190Y-96289761D01*
X150788571Y-96194523D01*
X150788571Y-95813571D01*
X150836190Y-95718333D01*
X150931428Y-95670714D01*
X151121904Y-95670714D01*
X151217142Y-95718333D01*
X151264761Y-95813571D01*
X151264761Y-95908809D01*
X150788571Y-96004047D01*
X151693333Y-96337380D02*
X151693333Y-95670714D01*
X151693333Y-95861190D02*
X151740952Y-95765952D01*
X151788571Y-95718333D01*
X151883809Y-95670714D01*
X151979047Y-95670714D01*
X165837619Y-77272619D02*
X165123333Y-77272619D01*
X164980476Y-77225000D01*
X164885238Y-77129761D01*
X164837619Y-76986904D01*
X164837619Y-76891666D01*
X164837619Y-77748809D02*
X165837619Y-77748809D01*
X164837619Y-78320238D01*
X165837619Y-78320238D01*
X164837619Y-78796428D02*
X165837619Y-78796428D01*
X165742380Y-79225000D02*
X165790000Y-79272619D01*
X165837619Y-79367857D01*
X165837619Y-79605952D01*
X165790000Y-79701190D01*
X165742380Y-79748809D01*
X165647142Y-79796428D01*
X165551904Y-79796428D01*
X165409047Y-79748809D01*
X164837619Y-79177380D01*
X164837619Y-79796428D01*
X165837619Y-80415476D02*
X165837619Y-80510714D01*
X165790000Y-80605952D01*
X165742380Y-80653571D01*
X165647142Y-80701190D01*
X165456666Y-80748809D01*
X165218571Y-80748809D01*
X165028095Y-80701190D01*
X164932857Y-80653571D01*
X164885238Y-80605952D01*
X164837619Y-80510714D01*
X164837619Y-80415476D01*
X164885238Y-80320238D01*
X164932857Y-80272619D01*
X165028095Y-80225000D01*
X165218571Y-80177380D01*
X165456666Y-80177380D01*
X165647142Y-80225000D01*
X165742380Y-80272619D01*
X165790000Y-80320238D01*
X165837619Y-80415476D01*
X165742380Y-81129761D02*
X165790000Y-81177380D01*
X165837619Y-81272619D01*
X165837619Y-81510714D01*
X165790000Y-81605952D01*
X165742380Y-81653571D01*
X165647142Y-81701190D01*
X165551904Y-81701190D01*
X165409047Y-81653571D01*
X164837619Y-81082142D01*
X164837619Y-81701190D01*
X165837619Y-82320238D02*
X165837619Y-82415476D01*
X165790000Y-82510714D01*
X165742380Y-82558333D01*
X165647142Y-82605952D01*
X165456666Y-82653571D01*
X165218571Y-82653571D01*
X165028095Y-82605952D01*
X164932857Y-82558333D01*
X164885238Y-82510714D01*
X164837619Y-82415476D01*
X164837619Y-82320238D01*
X164885238Y-82225000D01*
X164932857Y-82177380D01*
X165028095Y-82129761D01*
X165218571Y-82082142D01*
X165456666Y-82082142D01*
X165647142Y-82129761D01*
X165742380Y-82177380D01*
X165790000Y-82225000D01*
X165837619Y-82320238D01*
X165790000Y-84367857D02*
X165837619Y-84272619D01*
X165837619Y-84129761D01*
X165790000Y-83986904D01*
X165694761Y-83891666D01*
X165599523Y-83844047D01*
X165409047Y-83796428D01*
X165266190Y-83796428D01*
X165075714Y-83844047D01*
X164980476Y-83891666D01*
X164885238Y-83986904D01*
X164837619Y-84129761D01*
X164837619Y-84225000D01*
X164885238Y-84367857D01*
X164932857Y-84415476D01*
X165266190Y-84415476D01*
X165266190Y-84225000D01*
X164837619Y-84844047D02*
X165837619Y-84844047D01*
X165837619Y-85225000D01*
X165790000Y-85320238D01*
X165742380Y-85367857D01*
X165647142Y-85415476D01*
X165504285Y-85415476D01*
X165409047Y-85367857D01*
X165361428Y-85320238D01*
X165313809Y-85225000D01*
X165313809Y-84844047D01*
X164837619Y-85844047D02*
X165837619Y-85844047D01*
X165837619Y-86510714D02*
X165837619Y-86701190D01*
X165790000Y-86796428D01*
X165694761Y-86891666D01*
X165504285Y-86939285D01*
X165170952Y-86939285D01*
X164980476Y-86891666D01*
X164885238Y-86796428D01*
X164837619Y-86701190D01*
X164837619Y-86510714D01*
X164885238Y-86415476D01*
X164980476Y-86320238D01*
X165170952Y-86272619D01*
X165504285Y-86272619D01*
X165694761Y-86320238D01*
X165790000Y-86415476D01*
X165837619Y-86510714D01*
X165361428Y-88129761D02*
X165361428Y-88463095D01*
X164837619Y-88605952D02*
X164837619Y-88129761D01*
X165837619Y-88129761D01*
X165837619Y-88605952D01*
X164837619Y-88939285D02*
X165504285Y-89463095D01*
X165504285Y-88939285D02*
X164837619Y-89463095D01*
X165504285Y-89844047D02*
X164504285Y-89844047D01*
X165456666Y-89844047D02*
X165504285Y-89939285D01*
X165504285Y-90129761D01*
X165456666Y-90225000D01*
X165409047Y-90272619D01*
X165313809Y-90320238D01*
X165028095Y-90320238D01*
X164932857Y-90272619D01*
X164885238Y-90225000D01*
X164837619Y-90129761D01*
X164837619Y-89939285D01*
X164885238Y-89844047D01*
X164837619Y-91177380D02*
X165361428Y-91177380D01*
X165456666Y-91129761D01*
X165504285Y-91034523D01*
X165504285Y-90844047D01*
X165456666Y-90748809D01*
X164885238Y-91177380D02*
X164837619Y-91082142D01*
X164837619Y-90844047D01*
X164885238Y-90748809D01*
X164980476Y-90701190D01*
X165075714Y-90701190D01*
X165170952Y-90748809D01*
X165218571Y-90844047D01*
X165218571Y-91082142D01*
X165266190Y-91177380D01*
X165504285Y-91653571D02*
X164837619Y-91653571D01*
X165409047Y-91653571D02*
X165456666Y-91701190D01*
X165504285Y-91796428D01*
X165504285Y-91939285D01*
X165456666Y-92034523D01*
X165361428Y-92082142D01*
X164837619Y-92082142D01*
X164837619Y-92986904D02*
X165837619Y-92986904D01*
X164885238Y-92986904D02*
X164837619Y-92891666D01*
X164837619Y-92701190D01*
X164885238Y-92605952D01*
X164932857Y-92558333D01*
X165028095Y-92510714D01*
X165313809Y-92510714D01*
X165409047Y-92558333D01*
X165456666Y-92605952D01*
X165504285Y-92701190D01*
X165504285Y-92891666D01*
X165456666Y-92986904D01*
X164885238Y-93844047D02*
X164837619Y-93748809D01*
X164837619Y-93558333D01*
X164885238Y-93463095D01*
X164980476Y-93415476D01*
X165361428Y-93415476D01*
X165456666Y-93463095D01*
X165504285Y-93558333D01*
X165504285Y-93748809D01*
X165456666Y-93844047D01*
X165361428Y-93891666D01*
X165266190Y-93891666D01*
X165170952Y-93415476D01*
X164837619Y-94320238D02*
X165504285Y-94320238D01*
X165313809Y-94320238D02*
X165409047Y-94367857D01*
X165456666Y-94415476D01*
X165504285Y-94510714D01*
X165504285Y-94605952D01*
X163187619Y-79058333D02*
X164187619Y-79058333D01*
X163473333Y-79391666D01*
X164187619Y-79725000D01*
X163187619Y-79725000D01*
X163282857Y-80772619D02*
X163235238Y-80725000D01*
X163187619Y-80582142D01*
X163187619Y-80486904D01*
X163235238Y-80344047D01*
X163330476Y-80248809D01*
X163425714Y-80201190D01*
X163616190Y-80153571D01*
X163759047Y-80153571D01*
X163949523Y-80201190D01*
X164044761Y-80248809D01*
X164140000Y-80344047D01*
X164187619Y-80486904D01*
X164187619Y-80582142D01*
X164140000Y-80725000D01*
X164092380Y-80772619D01*
X163187619Y-81201190D02*
X164187619Y-81201190D01*
X164187619Y-81582142D01*
X164140000Y-81677380D01*
X164092380Y-81725000D01*
X163997142Y-81772619D01*
X163854285Y-81772619D01*
X163759047Y-81725000D01*
X163711428Y-81677380D01*
X163663809Y-81582142D01*
X163663809Y-81201190D01*
X164092380Y-82153571D02*
X164140000Y-82201190D01*
X164187619Y-82296428D01*
X164187619Y-82534523D01*
X164140000Y-82629761D01*
X164092380Y-82677380D01*
X163997142Y-82725000D01*
X163901904Y-82725000D01*
X163759047Y-82677380D01*
X163187619Y-82105952D01*
X163187619Y-82725000D01*
X164187619Y-83058333D02*
X164187619Y-83677380D01*
X163806666Y-83344047D01*
X163806666Y-83486904D01*
X163759047Y-83582142D01*
X163711428Y-83629761D01*
X163616190Y-83677380D01*
X163378095Y-83677380D01*
X163282857Y-83629761D01*
X163235238Y-83582142D01*
X163187619Y-83486904D01*
X163187619Y-83201190D01*
X163235238Y-83105952D01*
X163282857Y-83058333D01*
X164187619Y-84296428D02*
X164187619Y-84391666D01*
X164140000Y-84486904D01*
X164092380Y-84534523D01*
X163997142Y-84582142D01*
X163806666Y-84629761D01*
X163568571Y-84629761D01*
X163378095Y-84582142D01*
X163282857Y-84534523D01*
X163235238Y-84486904D01*
X163187619Y-84391666D01*
X163187619Y-84296428D01*
X163235238Y-84201190D01*
X163282857Y-84153571D01*
X163378095Y-84105952D01*
X163568571Y-84058333D01*
X163806666Y-84058333D01*
X163997142Y-84105952D01*
X164092380Y-84153571D01*
X164140000Y-84201190D01*
X164187619Y-84296428D01*
X163187619Y-85582142D02*
X163187619Y-85010714D01*
X163187619Y-85296428D02*
X164187619Y-85296428D01*
X164044761Y-85201190D01*
X163949523Y-85105952D01*
X163901904Y-85010714D01*
X164187619Y-85915476D02*
X164187619Y-86582142D01*
X163187619Y-86153571D01*
X163568571Y-87725000D02*
X163568571Y-88486904D01*
X163854285Y-89629761D02*
X163187619Y-89867857D01*
X163854285Y-90105952D01*
X163187619Y-91010714D02*
X163187619Y-90439285D01*
X163187619Y-90725000D02*
X164187619Y-90725000D01*
X164044761Y-90629761D01*
X163949523Y-90534523D01*
X163901904Y-90439285D01*
X163282857Y-91439285D02*
X163235238Y-91486904D01*
X163187619Y-91439285D01*
X163235238Y-91391666D01*
X163282857Y-91439285D01*
X163187619Y-91439285D01*
X164187619Y-92105952D02*
X164187619Y-92201190D01*
X164140000Y-92296428D01*
X164092380Y-92344047D01*
X163997142Y-92391666D01*
X163806666Y-92439285D01*
X163568571Y-92439285D01*
X163378095Y-92391666D01*
X163282857Y-92344047D01*
X163235238Y-92296428D01*
X163187619Y-92201190D01*
X163187619Y-92105952D01*
X163235238Y-92010714D01*
X163282857Y-91963095D01*
X163378095Y-91915476D01*
X163568571Y-91867857D01*
X163806666Y-91867857D01*
X163997142Y-91915476D01*
X164092380Y-91963095D01*
X164140000Y-92010714D01*
X164187619Y-92105952D01*
X151392142Y-62585000D02*
X151868333Y-62585000D01*
X151630238Y-63952380D02*
X151630238Y-62952380D01*
X151868333Y-62585000D02*
X152915952Y-62585000D01*
X152106428Y-63952380D02*
X152106428Y-62952380D01*
X152677857Y-63952380D01*
X152677857Y-62952380D01*
X152915952Y-62585000D02*
X153677857Y-62585000D01*
X153011190Y-62952380D02*
X153582619Y-62952380D01*
X153296904Y-63952380D02*
X153296904Y-62952380D01*
X153677857Y-62585000D02*
X154677857Y-62585000D01*
X154249285Y-63428571D02*
X154392142Y-63476190D01*
X154439761Y-63523809D01*
X154487380Y-63619047D01*
X154487380Y-63761904D01*
X154439761Y-63857142D01*
X154392142Y-63904761D01*
X154296904Y-63952380D01*
X153915952Y-63952380D01*
X153915952Y-62952380D01*
X154249285Y-62952380D01*
X154344523Y-63000000D01*
X154392142Y-63047619D01*
X154439761Y-63142857D01*
X154439761Y-63238095D01*
X154392142Y-63333333D01*
X154344523Y-63380952D01*
X154249285Y-63428571D01*
X153915952Y-63428571D01*
X151463571Y-65506000D02*
X151939761Y-65506000D01*
X151701666Y-66873380D02*
X151701666Y-65873380D01*
X151939761Y-65506000D02*
X152987380Y-65506000D01*
X152177857Y-66873380D02*
X152177857Y-65873380D01*
X152749285Y-66873380D01*
X152749285Y-65873380D01*
X152987380Y-65506000D02*
X153749285Y-65506000D01*
X153082619Y-65873380D02*
X153654047Y-65873380D01*
X153368333Y-66873380D02*
X153368333Y-65873380D01*
X153749285Y-65506000D02*
X154606428Y-65506000D01*
X153939761Y-66587666D02*
X154415952Y-66587666D01*
X153844523Y-66873380D02*
X154177857Y-65873380D01*
X154511190Y-66873380D01*
X145923095Y-70620000D02*
X145827857Y-70572380D01*
X145685000Y-70572380D01*
X145542142Y-70620000D01*
X145446904Y-70715238D01*
X145399285Y-70810476D01*
X145351666Y-71000952D01*
X145351666Y-71143809D01*
X145399285Y-71334285D01*
X145446904Y-71429523D01*
X145542142Y-71524761D01*
X145685000Y-71572380D01*
X145780238Y-71572380D01*
X145923095Y-71524761D01*
X145970714Y-71477142D01*
X145970714Y-71143809D01*
X145780238Y-71143809D01*
X146399285Y-71572380D02*
X146399285Y-70572380D01*
X146970714Y-71572380D01*
X146970714Y-70572380D01*
X147446904Y-71572380D02*
X147446904Y-70572380D01*
X147685000Y-70572380D01*
X147827857Y-70620000D01*
X147923095Y-70715238D01*
X147970714Y-70810476D01*
X148018333Y-71000952D01*
X148018333Y-71143809D01*
X147970714Y-71334285D01*
X147923095Y-71429523D01*
X147827857Y-71524761D01*
X147685000Y-71572380D01*
X147446904Y-71572380D01*
X139573095Y-70620000D02*
X139477857Y-70572380D01*
X139335000Y-70572380D01*
X139192142Y-70620000D01*
X139096904Y-70715238D01*
X139049285Y-70810476D01*
X139001666Y-71000952D01*
X139001666Y-71143809D01*
X139049285Y-71334285D01*
X139096904Y-71429523D01*
X139192142Y-71524761D01*
X139335000Y-71572380D01*
X139430238Y-71572380D01*
X139573095Y-71524761D01*
X139620714Y-71477142D01*
X139620714Y-71143809D01*
X139430238Y-71143809D01*
X140049285Y-71572380D02*
X140049285Y-70572380D01*
X140620714Y-71572380D01*
X140620714Y-70572380D01*
X141096904Y-71572380D02*
X141096904Y-70572380D01*
X141335000Y-70572380D01*
X141477857Y-70620000D01*
X141573095Y-70715238D01*
X141620714Y-70810476D01*
X141668333Y-71000952D01*
X141668333Y-71143809D01*
X141620714Y-71334285D01*
X141573095Y-71429523D01*
X141477857Y-71524761D01*
X141335000Y-71572380D01*
X141096904Y-71572380D01*
X128778095Y-103005000D02*
X128682857Y-102957380D01*
X128540000Y-102957380D01*
X128397142Y-103005000D01*
X128301904Y-103100238D01*
X128254285Y-103195476D01*
X128206666Y-103385952D01*
X128206666Y-103528809D01*
X128254285Y-103719285D01*
X128301904Y-103814523D01*
X128397142Y-103909761D01*
X128540000Y-103957380D01*
X128635238Y-103957380D01*
X128778095Y-103909761D01*
X128825714Y-103862142D01*
X128825714Y-103528809D01*
X128635238Y-103528809D01*
X129254285Y-103957380D02*
X129254285Y-102957380D01*
X129825714Y-103957380D01*
X129825714Y-102957380D01*
X130301904Y-103957380D02*
X130301904Y-102957380D01*
X130540000Y-102957380D01*
X130682857Y-103005000D01*
X130778095Y-103100238D01*
X130825714Y-103195476D01*
X130873333Y-103385952D01*
X130873333Y-103528809D01*
X130825714Y-103719285D01*
X130778095Y-103814523D01*
X130682857Y-103909761D01*
X130540000Y-103957380D01*
X130301904Y-103957380D01*
X136398095Y-103005000D02*
X136302857Y-102957380D01*
X136160000Y-102957380D01*
X136017142Y-103005000D01*
X135921904Y-103100238D01*
X135874285Y-103195476D01*
X135826666Y-103385952D01*
X135826666Y-103528809D01*
X135874285Y-103719285D01*
X135921904Y-103814523D01*
X136017142Y-103909761D01*
X136160000Y-103957380D01*
X136255238Y-103957380D01*
X136398095Y-103909761D01*
X136445714Y-103862142D01*
X136445714Y-103528809D01*
X136255238Y-103528809D01*
X136874285Y-103957380D02*
X136874285Y-102957380D01*
X137445714Y-103957380D01*
X137445714Y-102957380D01*
X137921904Y-103957380D02*
X137921904Y-102957380D01*
X138160000Y-102957380D01*
X138302857Y-103005000D01*
X138398095Y-103100238D01*
X138445714Y-103195476D01*
X138493333Y-103385952D01*
X138493333Y-103528809D01*
X138445714Y-103719285D01*
X138398095Y-103814523D01*
X138302857Y-103909761D01*
X138160000Y-103957380D01*
X137921904Y-103957380D01*
X144018095Y-103005000D02*
X143922857Y-102957380D01*
X143780000Y-102957380D01*
X143637142Y-103005000D01*
X143541904Y-103100238D01*
X143494285Y-103195476D01*
X143446666Y-103385952D01*
X143446666Y-103528809D01*
X143494285Y-103719285D01*
X143541904Y-103814523D01*
X143637142Y-103909761D01*
X143780000Y-103957380D01*
X143875238Y-103957380D01*
X144018095Y-103909761D01*
X144065714Y-103862142D01*
X144065714Y-103528809D01*
X143875238Y-103528809D01*
X144494285Y-103957380D02*
X144494285Y-102957380D01*
X145065714Y-103957380D01*
X145065714Y-102957380D01*
X145541904Y-103957380D02*
X145541904Y-102957380D01*
X145780000Y-102957380D01*
X145922857Y-103005000D01*
X146018095Y-103100238D01*
X146065714Y-103195476D01*
X146113333Y-103385952D01*
X146113333Y-103528809D01*
X146065714Y-103719285D01*
X146018095Y-103814523D01*
X145922857Y-103909761D01*
X145780000Y-103957380D01*
X145541904Y-103957380D01*
X152019095Y-100465000D02*
X151923857Y-100417380D01*
X151781000Y-100417380D01*
X151638142Y-100465000D01*
X151542904Y-100560238D01*
X151495285Y-100655476D01*
X151447666Y-100845952D01*
X151447666Y-100988809D01*
X151495285Y-101179285D01*
X151542904Y-101274523D01*
X151638142Y-101369761D01*
X151781000Y-101417380D01*
X151876238Y-101417380D01*
X152019095Y-101369761D01*
X152066714Y-101322142D01*
X152066714Y-100988809D01*
X151876238Y-100988809D01*
X152495285Y-101417380D02*
X152495285Y-100417380D01*
X153066714Y-101417380D01*
X153066714Y-100417380D01*
X153542904Y-101417380D02*
X153542904Y-100417380D01*
X153781000Y-100417380D01*
X153923857Y-100465000D01*
X154019095Y-100560238D01*
X154066714Y-100655476D01*
X154114333Y-100845952D01*
X154114333Y-100988809D01*
X154066714Y-101179285D01*
X154019095Y-101274523D01*
X153923857Y-101369761D01*
X153781000Y-101417380D01*
X153542904Y-101417380D01*
X152693809Y-94432380D02*
X152693809Y-93432380D01*
X153122380Y-93527619D02*
X153170000Y-93480000D01*
X153265238Y-93432380D01*
X153503333Y-93432380D01*
X153598571Y-93480000D01*
X153646190Y-93527619D01*
X153693809Y-93622857D01*
X153693809Y-93718095D01*
X153646190Y-93860952D01*
X153074761Y-94432380D01*
X153693809Y-94432380D01*
X154693809Y-94337142D02*
X154646190Y-94384761D01*
X154503333Y-94432380D01*
X154408095Y-94432380D01*
X154265238Y-94384761D01*
X154170000Y-94289523D01*
X154122380Y-94194285D01*
X154074761Y-94003809D01*
X154074761Y-93860952D01*
X154122380Y-93670476D01*
X154170000Y-93575238D01*
X154265238Y-93480000D01*
X154408095Y-93432380D01*
X154503333Y-93432380D01*
X154646190Y-93480000D01*
X154693809Y-93527619D01*
X138549333Y-93162380D02*
X138549333Y-92162380D01*
X138930285Y-92162380D01*
X139025523Y-92210000D01*
X139073142Y-92257619D01*
X139120761Y-92352857D01*
X139120761Y-92495714D01*
X139073142Y-92590952D01*
X139025523Y-92638571D01*
X138930285Y-92686190D01*
X138549333Y-92686190D01*
X139692190Y-93162380D02*
X139596952Y-93114761D01*
X139549333Y-93067142D01*
X139501714Y-92971904D01*
X139501714Y-92686190D01*
X139549333Y-92590952D01*
X139596952Y-92543333D01*
X139692190Y-92495714D01*
X139835047Y-92495714D01*
X139930285Y-92543333D01*
X139977904Y-92590952D01*
X140025523Y-92686190D01*
X140025523Y-92971904D01*
X139977904Y-93067142D01*
X139930285Y-93114761D01*
X139835047Y-93162380D01*
X139692190Y-93162380D01*
X140454095Y-93162380D02*
X140454095Y-92495714D01*
X140454095Y-92686190D02*
X140501714Y-92590952D01*
X140549333Y-92543333D01*
X140644571Y-92495714D01*
X140739809Y-92495714D01*
X140930285Y-92495714D02*
X141311238Y-92495714D01*
X141073142Y-92162380D02*
X141073142Y-93019523D01*
X141120761Y-93114761D01*
X141216000Y-93162380D01*
X141311238Y-93162380D01*
X142882666Y-92162380D02*
X142406476Y-92162380D01*
X142358857Y-92638571D01*
X142406476Y-92590952D01*
X142501714Y-92543333D01*
X142739809Y-92543333D01*
X142835047Y-92590952D01*
X142882666Y-92638571D01*
X142930285Y-92733809D01*
X142930285Y-92971904D01*
X142882666Y-93067142D01*
X142835047Y-93114761D01*
X142739809Y-93162380D01*
X142501714Y-93162380D01*
X142406476Y-93114761D01*
X142358857Y-93067142D01*
X131183333Y-93162380D02*
X131183333Y-92162380D01*
X131564285Y-92162380D01*
X131659523Y-92210000D01*
X131707142Y-92257619D01*
X131754761Y-92352857D01*
X131754761Y-92495714D01*
X131707142Y-92590952D01*
X131659523Y-92638571D01*
X131564285Y-92686190D01*
X131183333Y-92686190D01*
X132326190Y-93162380D02*
X132230952Y-93114761D01*
X132183333Y-93067142D01*
X132135714Y-92971904D01*
X132135714Y-92686190D01*
X132183333Y-92590952D01*
X132230952Y-92543333D01*
X132326190Y-92495714D01*
X132469047Y-92495714D01*
X132564285Y-92543333D01*
X132611904Y-92590952D01*
X132659523Y-92686190D01*
X132659523Y-92971904D01*
X132611904Y-93067142D01*
X132564285Y-93114761D01*
X132469047Y-93162380D01*
X132326190Y-93162380D01*
X133088095Y-93162380D02*
X133088095Y-92495714D01*
X133088095Y-92686190D02*
X133135714Y-92590952D01*
X133183333Y-92543333D01*
X133278571Y-92495714D01*
X133373809Y-92495714D01*
X133564285Y-92495714D02*
X133945238Y-92495714D01*
X133707142Y-92162380D02*
X133707142Y-93019523D01*
X133754761Y-93114761D01*
X133850000Y-93162380D01*
X133945238Y-93162380D01*
X135469047Y-92495714D02*
X135469047Y-93162380D01*
X135230952Y-92114761D02*
X134992857Y-92829047D01*
X135611904Y-92829047D01*
X123817333Y-93162380D02*
X123817333Y-92162380D01*
X124198285Y-92162380D01*
X124293523Y-92210000D01*
X124341142Y-92257619D01*
X124388761Y-92352857D01*
X124388761Y-92495714D01*
X124341142Y-92590952D01*
X124293523Y-92638571D01*
X124198285Y-92686190D01*
X123817333Y-92686190D01*
X124960190Y-93162380D02*
X124864952Y-93114761D01*
X124817333Y-93067142D01*
X124769714Y-92971904D01*
X124769714Y-92686190D01*
X124817333Y-92590952D01*
X124864952Y-92543333D01*
X124960190Y-92495714D01*
X125103047Y-92495714D01*
X125198285Y-92543333D01*
X125245904Y-92590952D01*
X125293523Y-92686190D01*
X125293523Y-92971904D01*
X125245904Y-93067142D01*
X125198285Y-93114761D01*
X125103047Y-93162380D01*
X124960190Y-93162380D01*
X125722095Y-93162380D02*
X125722095Y-92495714D01*
X125722095Y-92686190D02*
X125769714Y-92590952D01*
X125817333Y-92543333D01*
X125912571Y-92495714D01*
X126007809Y-92495714D01*
X126198285Y-92495714D02*
X126579238Y-92495714D01*
X126341142Y-92162380D02*
X126341142Y-93019523D01*
X126388761Y-93114761D01*
X126484000Y-93162380D01*
X126579238Y-93162380D01*
X127579238Y-92162380D02*
X128198285Y-92162380D01*
X127864952Y-92543333D01*
X128007809Y-92543333D01*
X128103047Y-92590952D01*
X128150666Y-92638571D01*
X128198285Y-92733809D01*
X128198285Y-92971904D01*
X128150666Y-93067142D01*
X128103047Y-93114761D01*
X128007809Y-93162380D01*
X127722095Y-93162380D01*
X127626857Y-93114761D01*
X127579238Y-93067142D01*
X134866333Y-73985380D02*
X134866333Y-72985380D01*
X135247285Y-72985380D01*
X135342523Y-73033000D01*
X135390142Y-73080619D01*
X135437761Y-73175857D01*
X135437761Y-73318714D01*
X135390142Y-73413952D01*
X135342523Y-73461571D01*
X135247285Y-73509190D01*
X134866333Y-73509190D01*
X136009190Y-73985380D02*
X135913952Y-73937761D01*
X135866333Y-73890142D01*
X135818714Y-73794904D01*
X135818714Y-73509190D01*
X135866333Y-73413952D01*
X135913952Y-73366333D01*
X136009190Y-73318714D01*
X136152047Y-73318714D01*
X136247285Y-73366333D01*
X136294904Y-73413952D01*
X136342523Y-73509190D01*
X136342523Y-73794904D01*
X136294904Y-73890142D01*
X136247285Y-73937761D01*
X136152047Y-73985380D01*
X136009190Y-73985380D01*
X136771095Y-73985380D02*
X136771095Y-73318714D01*
X136771095Y-73509190D02*
X136818714Y-73413952D01*
X136866333Y-73366333D01*
X136961571Y-73318714D01*
X137056809Y-73318714D01*
X137247285Y-73318714D02*
X137628238Y-73318714D01*
X137390142Y-72985380D02*
X137390142Y-73842523D01*
X137437761Y-73937761D01*
X137533000Y-73985380D01*
X137628238Y-73985380D01*
X138675857Y-73080619D02*
X138723476Y-73033000D01*
X138818714Y-72985380D01*
X139056809Y-72985380D01*
X139152047Y-73033000D01*
X139199666Y-73080619D01*
X139247285Y-73175857D01*
X139247285Y-73271095D01*
X139199666Y-73413952D01*
X138628238Y-73985380D01*
X139247285Y-73985380D01*
X141343333Y-73985380D02*
X141343333Y-72985380D01*
X141724285Y-72985380D01*
X141819523Y-73033000D01*
X141867142Y-73080619D01*
X141914761Y-73175857D01*
X141914761Y-73318714D01*
X141867142Y-73413952D01*
X141819523Y-73461571D01*
X141724285Y-73509190D01*
X141343333Y-73509190D01*
X142486190Y-73985380D02*
X142390952Y-73937761D01*
X142343333Y-73890142D01*
X142295714Y-73794904D01*
X142295714Y-73509190D01*
X142343333Y-73413952D01*
X142390952Y-73366333D01*
X142486190Y-73318714D01*
X142629047Y-73318714D01*
X142724285Y-73366333D01*
X142771904Y-73413952D01*
X142819523Y-73509190D01*
X142819523Y-73794904D01*
X142771904Y-73890142D01*
X142724285Y-73937761D01*
X142629047Y-73985380D01*
X142486190Y-73985380D01*
X143248095Y-73985380D02*
X143248095Y-73318714D01*
X143248095Y-73509190D02*
X143295714Y-73413952D01*
X143343333Y-73366333D01*
X143438571Y-73318714D01*
X143533809Y-73318714D01*
X143724285Y-73318714D02*
X144105238Y-73318714D01*
X143867142Y-72985380D02*
X143867142Y-73842523D01*
X143914761Y-73937761D01*
X144010000Y-73985380D01*
X144105238Y-73985380D01*
X145724285Y-73985380D02*
X145152857Y-73985380D01*
X145438571Y-73985380D02*
X145438571Y-72985380D01*
X145343333Y-73128238D01*
X145248095Y-73223476D01*
X145152857Y-73271095D01*
X130905714Y-84907380D02*
X130905714Y-83907380D01*
X131239047Y-84621666D01*
X131572380Y-83907380D01*
X131572380Y-84907380D01*
X132620000Y-84812142D02*
X132572380Y-84859761D01*
X132429523Y-84907380D01*
X132334285Y-84907380D01*
X132191428Y-84859761D01*
X132096190Y-84764523D01*
X132048571Y-84669285D01*
X132000952Y-84478809D01*
X132000952Y-84335952D01*
X132048571Y-84145476D01*
X132096190Y-84050238D01*
X132191428Y-83955000D01*
X132334285Y-83907380D01*
X132429523Y-83907380D01*
X132572380Y-83955000D01*
X132620000Y-84002619D01*
X133048571Y-84907380D02*
X133048571Y-83907380D01*
X133429523Y-83907380D01*
X133524761Y-83955000D01*
X133572380Y-84002619D01*
X133620000Y-84097857D01*
X133620000Y-84240714D01*
X133572380Y-84335952D01*
X133524761Y-84383571D01*
X133429523Y-84431190D01*
X133048571Y-84431190D01*
X134000952Y-84002619D02*
X134048571Y-83955000D01*
X134143809Y-83907380D01*
X134381904Y-83907380D01*
X134477142Y-83955000D01*
X134524761Y-84002619D01*
X134572380Y-84097857D01*
X134572380Y-84193095D01*
X134524761Y-84335952D01*
X133953333Y-84907380D01*
X134572380Y-84907380D01*
X134905714Y-83907380D02*
X135524761Y-83907380D01*
X135191428Y-84288333D01*
X135334285Y-84288333D01*
X135429523Y-84335952D01*
X135477142Y-84383571D01*
X135524761Y-84478809D01*
X135524761Y-84716904D01*
X135477142Y-84812142D01*
X135429523Y-84859761D01*
X135334285Y-84907380D01*
X135048571Y-84907380D01*
X134953333Y-84859761D01*
X134905714Y-84812142D01*
X136143809Y-83907380D02*
X136239047Y-83907380D01*
X136334285Y-83955000D01*
X136381904Y-84002619D01*
X136429523Y-84097857D01*
X136477142Y-84288333D01*
X136477142Y-84526428D01*
X136429523Y-84716904D01*
X136381904Y-84812142D01*
X136334285Y-84859761D01*
X136239047Y-84907380D01*
X136143809Y-84907380D01*
X136048571Y-84859761D01*
X136000952Y-84812142D01*
X135953333Y-84716904D01*
X135905714Y-84526428D01*
X135905714Y-84288333D01*
X135953333Y-84097857D01*
X136000952Y-84002619D01*
X136048571Y-83955000D01*
X136143809Y-83907380D01*
X137429523Y-84907380D02*
X136858095Y-84907380D01*
X137143809Y-84907380D02*
X137143809Y-83907380D01*
X137048571Y-84050238D01*
X136953333Y-84145476D01*
X136858095Y-84193095D01*
X137762857Y-83907380D02*
X138429523Y-83907380D01*
X138000952Y-84907380D01*
X154995714Y-91844761D02*
X155138571Y-91892380D01*
X155376666Y-91892380D01*
X155471904Y-91844761D01*
X155519523Y-91797142D01*
X155567142Y-91701904D01*
X155567142Y-91606666D01*
X155519523Y-91511428D01*
X155471904Y-91463809D01*
X155376666Y-91416190D01*
X155186190Y-91368571D01*
X155090952Y-91320952D01*
X155043333Y-91273333D01*
X154995714Y-91178095D01*
X154995714Y-91082857D01*
X155043333Y-90987619D01*
X155090952Y-90940000D01*
X155186190Y-90892380D01*
X155424285Y-90892380D01*
X155567142Y-90940000D01*
X155995714Y-91892380D02*
X155995714Y-90892380D01*
X156233809Y-90892380D01*
X156376666Y-90940000D01*
X156471904Y-91035238D01*
X156519523Y-91130476D01*
X156567142Y-91320952D01*
X156567142Y-91463809D01*
X156519523Y-91654285D01*
X156471904Y-91749523D01*
X156376666Y-91844761D01*
X156233809Y-91892380D01*
X155995714Y-91892380D01*
X156948095Y-91606666D02*
X157424285Y-91606666D01*
X156852857Y-91892380D02*
X157186190Y-90892380D01*
X157519523Y-91892380D01*
X158829523Y-91844761D02*
X158972380Y-91892380D01*
X159210476Y-91892380D01*
X159305714Y-91844761D01*
X159353333Y-91797142D01*
X159400952Y-91701904D01*
X159400952Y-91606666D01*
X159353333Y-91511428D01*
X159305714Y-91463809D01*
X159210476Y-91416190D01*
X159020000Y-91368571D01*
X158924761Y-91320952D01*
X158877142Y-91273333D01*
X158829523Y-91178095D01*
X158829523Y-91082857D01*
X158877142Y-90987619D01*
X158924761Y-90940000D01*
X159020000Y-90892380D01*
X159258095Y-90892380D01*
X159400952Y-90940000D01*
X160400952Y-91797142D02*
X160353333Y-91844761D01*
X160210476Y-91892380D01*
X160115238Y-91892380D01*
X159972380Y-91844761D01*
X159877142Y-91749523D01*
X159829523Y-91654285D01*
X159781904Y-91463809D01*
X159781904Y-91320952D01*
X159829523Y-91130476D01*
X159877142Y-91035238D01*
X159972380Y-90940000D01*
X160115238Y-90892380D01*
X160210476Y-90892380D01*
X160353333Y-90940000D01*
X160400952Y-90987619D01*
X161305714Y-91892380D02*
X160829523Y-91892380D01*
X160829523Y-90892380D01*
X151209523Y-97877380D02*
X151828571Y-97877380D01*
X151495238Y-98258333D01*
X151638095Y-98258333D01*
X151733333Y-98305952D01*
X151780952Y-98353571D01*
X151828571Y-98448809D01*
X151828571Y-98686904D01*
X151780952Y-98782142D01*
X151733333Y-98829761D01*
X151638095Y-98877380D01*
X151352380Y-98877380D01*
X151257142Y-98829761D01*
X151209523Y-98782142D01*
X152161904Y-98210714D02*
X152400000Y-98877380D01*
X152638095Y-98210714D01*
X152923809Y-97877380D02*
X153542857Y-97877380D01*
X153209523Y-98258333D01*
X153352380Y-98258333D01*
X153447619Y-98305952D01*
X153495238Y-98353571D01*
X153542857Y-98448809D01*
X153542857Y-98686904D01*
X153495238Y-98782142D01*
X153447619Y-98829761D01*
X153352380Y-98877380D01*
X153066666Y-98877380D01*
X152971428Y-98829761D01*
X152923809Y-98782142D01*
X165266666Y-68770238D02*
X165266666Y-68294047D01*
X165552380Y-68865476D02*
X164552380Y-68532142D01*
X165552380Y-68198809D01*
X165504761Y-67436904D02*
X165552380Y-67532142D01*
X165552380Y-67722619D01*
X165504761Y-67817857D01*
X165457142Y-67865476D01*
X165361904Y-67913095D01*
X165076190Y-67913095D01*
X164980952Y-67865476D01*
X164933333Y-67817857D01*
X164885714Y-67722619D01*
X164885714Y-67532142D01*
X164933333Y-67436904D01*
X164885714Y-67151190D02*
X164885714Y-66770238D01*
X164552380Y-67008333D02*
X165409523Y-67008333D01*
X165504761Y-66960714D01*
X165552380Y-66865476D01*
X165552380Y-66770238D01*
X165552380Y-66436904D02*
X164885714Y-66436904D01*
X164552380Y-66436904D02*
X164600000Y-66484523D01*
X164647619Y-66436904D01*
X164600000Y-66389285D01*
X164552380Y-66436904D01*
X164647619Y-66436904D01*
X165552380Y-65817857D02*
X165504761Y-65913095D01*
X165457142Y-65960714D01*
X165361904Y-66008333D01*
X165076190Y-66008333D01*
X164980952Y-65960714D01*
X164933333Y-65913095D01*
X164885714Y-65817857D01*
X164885714Y-65675000D01*
X164933333Y-65579761D01*
X164980952Y-65532142D01*
X165076190Y-65484523D01*
X165361904Y-65484523D01*
X165457142Y-65532142D01*
X165504761Y-65579761D01*
X165552380Y-65675000D01*
X165552380Y-65817857D01*
X164885714Y-65055952D02*
X165552380Y-65055952D01*
X164980952Y-65055952D02*
X164933333Y-65008333D01*
X164885714Y-64913095D01*
X164885714Y-64770238D01*
X164933333Y-64675000D01*
X165028571Y-64627380D01*
X165552380Y-64627380D01*
X125095000Y-90170000D02*
G75*
G03*
X125095000Y-90170000I-635000J0D01*
G01*
D11*
%TO.C,J7*%
X139513000Y-94428000D02*
X140843000Y-94428000D01*
X139513000Y-95758000D02*
X139513000Y-94428000D01*
X139513000Y-97028000D02*
X142173000Y-97028000D01*
X142173000Y-97028000D02*
X142173000Y-104708000D01*
X139513000Y-97028000D02*
X139513000Y-104708000D01*
X139513000Y-104708000D02*
X142173000Y-104708000D01*
%TO.C,R3*%
X153999000Y-70374252D02*
X153999000Y-69851748D01*
X152579000Y-70374252D02*
X152579000Y-69851748D01*
%TO.C,R2*%
X149277000Y-69833748D02*
X149277000Y-70356252D01*
X150697000Y-69833748D02*
X150697000Y-70356252D01*
%TO.C,R1*%
X156135000Y-74414748D02*
X156135000Y-74937252D01*
X157555000Y-74414748D02*
X157555000Y-74937252D01*
%TO.C,J1*%
X148022000Y-97095000D02*
X149352000Y-97095000D01*
X148022000Y-98425000D02*
X148022000Y-97095000D01*
X148022000Y-99695000D02*
X150682000Y-99695000D01*
X150682000Y-99695000D02*
X150682000Y-102295000D01*
X148022000Y-99695000D02*
X148022000Y-102295000D01*
X148022000Y-102295000D02*
X150682000Y-102295000D01*
%TO.C,U1*%
X124975000Y-79315000D02*
X124975000Y-89595000D01*
X160775000Y-79315000D02*
X124975000Y-79315000D01*
X160775000Y-89595000D02*
X160775000Y-79315000D01*
X124975000Y-89595000D02*
X160775000Y-89595000D01*
X125035000Y-81805000D02*
X125035000Y-83455000D01*
X160715000Y-81805000D02*
X125035000Y-81805000D01*
X160715000Y-87105000D02*
X160715000Y-81805000D01*
X125035000Y-87105000D02*
X160715000Y-87105000D01*
X125035000Y-85455000D02*
X125035000Y-87105000D01*
X125035000Y-83455000D02*
G75*
G02*
X125035000Y-85455000I0J-1000000D01*
G01*
%TO.C,SW1*%
X159560000Y-70250000D02*
X161060000Y-70250000D01*
X163560000Y-69000000D02*
X163560000Y-64500000D01*
X161060000Y-63250000D02*
X159560000Y-63250000D01*
X157060000Y-64500000D02*
X157060000Y-69000000D01*
%TO.C,J8*%
X148530000Y-62170000D02*
X149860000Y-62170000D01*
X148530000Y-63500000D02*
X148530000Y-62170000D01*
X148530000Y-64770000D02*
X151190000Y-64770000D01*
X151190000Y-64770000D02*
X151190000Y-67370000D01*
X148530000Y-64770000D02*
X148530000Y-67370000D01*
X148530000Y-67370000D02*
X151190000Y-67370000D01*
%TO.C,J6*%
X132020000Y-94428000D02*
X133350000Y-94428000D01*
X132020000Y-95758000D02*
X132020000Y-94428000D01*
X132020000Y-97028000D02*
X134680000Y-97028000D01*
X134680000Y-97028000D02*
X134680000Y-104708000D01*
X132020000Y-97028000D02*
X132020000Y-104708000D01*
X132020000Y-104708000D02*
X134680000Y-104708000D01*
%TO.C,J5*%
X124781000Y-94428000D02*
X126111000Y-94428000D01*
X124781000Y-95758000D02*
X124781000Y-94428000D01*
X124781000Y-97028000D02*
X127441000Y-97028000D01*
X127441000Y-97028000D02*
X127441000Y-104708000D01*
X124781000Y-97028000D02*
X124781000Y-104708000D01*
X124781000Y-104708000D02*
X127441000Y-104708000D01*
%TO.C,J4*%
X135703000Y-61916000D02*
X137033000Y-61916000D01*
X135703000Y-63246000D02*
X135703000Y-61916000D01*
X135703000Y-64516000D02*
X138363000Y-64516000D01*
X138363000Y-64516000D02*
X138363000Y-72196000D01*
X135703000Y-64516000D02*
X135703000Y-72196000D01*
X135703000Y-72196000D02*
X138363000Y-72196000D01*
%TO.C,J3*%
X142180000Y-61789000D02*
X143510000Y-61789000D01*
X142180000Y-63119000D02*
X142180000Y-61789000D01*
X142180000Y-64389000D02*
X144840000Y-64389000D01*
X144840000Y-64389000D02*
X144840000Y-72069000D01*
X142180000Y-64389000D02*
X142180000Y-72069000D01*
X142180000Y-72069000D02*
X144840000Y-72069000D01*
%TO.C,J2*%
X160715000Y-92650000D02*
X160715000Y-93980000D01*
X159385000Y-92650000D02*
X160715000Y-92650000D01*
X158115000Y-92650000D02*
X158115000Y-95310000D01*
X158115000Y-95310000D02*
X155515000Y-95310000D01*
X158115000Y-92650000D02*
X155515000Y-92650000D01*
X155515000Y-92650000D02*
X155515000Y-95310000D01*
%TO.C,J7*%
D10*
X143176666Y-99147380D02*
X143176666Y-99861666D01*
X143129047Y-100004523D01*
X143033809Y-100099761D01*
X142890952Y-100147380D01*
X142795714Y-100147380D01*
X143557619Y-99147380D02*
X144224285Y-99147380D01*
X143795714Y-100147380D01*
%TO.C,R3*%
X155519380Y-70270666D02*
X155043190Y-70604000D01*
X155519380Y-70842095D02*
X154519380Y-70842095D01*
X154519380Y-70461142D01*
X154567000Y-70365904D01*
X154614619Y-70318285D01*
X154709857Y-70270666D01*
X154852714Y-70270666D01*
X154947952Y-70318285D01*
X154995571Y-70365904D01*
X155043190Y-70461142D01*
X155043190Y-70842095D01*
X154519380Y-69937333D02*
X154519380Y-69318285D01*
X154900333Y-69651619D01*
X154900333Y-69508761D01*
X154947952Y-69413523D01*
X154995571Y-69365904D01*
X155090809Y-69318285D01*
X155328904Y-69318285D01*
X155424142Y-69365904D01*
X155471761Y-69413523D01*
X155519380Y-69508761D01*
X155519380Y-69794476D01*
X155471761Y-69889714D01*
X155424142Y-69937333D01*
%TO.C,R2*%
X152090380Y-70270666D02*
X151614190Y-70604000D01*
X152090380Y-70842095D02*
X151090380Y-70842095D01*
X151090380Y-70461142D01*
X151138000Y-70365904D01*
X151185619Y-70318285D01*
X151280857Y-70270666D01*
X151423714Y-70270666D01*
X151518952Y-70318285D01*
X151566571Y-70365904D01*
X151614190Y-70461142D01*
X151614190Y-70842095D01*
X151185619Y-69889714D02*
X151138000Y-69842095D01*
X151090380Y-69746857D01*
X151090380Y-69508761D01*
X151138000Y-69413523D01*
X151185619Y-69365904D01*
X151280857Y-69318285D01*
X151376095Y-69318285D01*
X151518952Y-69365904D01*
X152090380Y-69937333D01*
X152090380Y-69318285D01*
%TO.C,R1*%
X158947380Y-74842666D02*
X158471190Y-75176000D01*
X158947380Y-75414095D02*
X157947380Y-75414095D01*
X157947380Y-75033142D01*
X157995000Y-74937904D01*
X158042619Y-74890285D01*
X158137857Y-74842666D01*
X158280714Y-74842666D01*
X158375952Y-74890285D01*
X158423571Y-74937904D01*
X158471190Y-75033142D01*
X158471190Y-75414095D01*
X158947380Y-73890285D02*
X158947380Y-74461714D01*
X158947380Y-74176000D02*
X157947380Y-74176000D01*
X158090238Y-74271238D01*
X158185476Y-74366476D01*
X158233095Y-74461714D01*
%TO.C,J1*%
X148256666Y-102957380D02*
X148256666Y-103671666D01*
X148209047Y-103814523D01*
X148113809Y-103909761D01*
X147970952Y-103957380D01*
X147875714Y-103957380D01*
X149256666Y-103957380D02*
X148685238Y-103957380D01*
X148970952Y-103957380D02*
X148970952Y-102957380D01*
X148875714Y-103100238D01*
X148780476Y-103195476D01*
X148685238Y-103243095D01*
%TO.C,U1*%
X123487380Y-85216904D02*
X124296904Y-85216904D01*
X124392142Y-85169285D01*
X124439761Y-85121666D01*
X124487380Y-85026428D01*
X124487380Y-84835952D01*
X124439761Y-84740714D01*
X124392142Y-84693095D01*
X124296904Y-84645476D01*
X123487380Y-84645476D01*
X124487380Y-83645476D02*
X124487380Y-84216904D01*
X124487380Y-83931190D02*
X123487380Y-83931190D01*
X123630238Y-84026428D01*
X123725476Y-84121666D01*
X123773095Y-84216904D01*
%TO.C,SW1*%
X161059761Y-68083333D02*
X161107380Y-67940476D01*
X161107380Y-67702380D01*
X161059761Y-67607142D01*
X161012142Y-67559523D01*
X160916904Y-67511904D01*
X160821666Y-67511904D01*
X160726428Y-67559523D01*
X160678809Y-67607142D01*
X160631190Y-67702380D01*
X160583571Y-67892857D01*
X160535952Y-67988095D01*
X160488333Y-68035714D01*
X160393095Y-68083333D01*
X160297857Y-68083333D01*
X160202619Y-68035714D01*
X160155000Y-67988095D01*
X160107380Y-67892857D01*
X160107380Y-67654761D01*
X160155000Y-67511904D01*
X160107380Y-67178571D02*
X161107380Y-66940476D01*
X160393095Y-66750000D01*
X161107380Y-66559523D01*
X160107380Y-66321428D01*
X161107380Y-65416666D02*
X161107380Y-65988095D01*
X161107380Y-65702380D02*
X160107380Y-65702380D01*
X160250238Y-65797619D01*
X160345476Y-65892857D01*
X160393095Y-65988095D01*
%TO.C,J8*%
X146986666Y-62317380D02*
X146986666Y-63031666D01*
X146939047Y-63174523D01*
X146843809Y-63269761D01*
X146700952Y-63317380D01*
X146605714Y-63317380D01*
X147605714Y-62745952D02*
X147510476Y-62698333D01*
X147462857Y-62650714D01*
X147415238Y-62555476D01*
X147415238Y-62507857D01*
X147462857Y-62412619D01*
X147510476Y-62365000D01*
X147605714Y-62317380D01*
X147796190Y-62317380D01*
X147891428Y-62365000D01*
X147939047Y-62412619D01*
X147986666Y-62507857D01*
X147986666Y-62555476D01*
X147939047Y-62650714D01*
X147891428Y-62698333D01*
X147796190Y-62745952D01*
X147605714Y-62745952D01*
X147510476Y-62793571D01*
X147462857Y-62841190D01*
X147415238Y-62936428D01*
X147415238Y-63126904D01*
X147462857Y-63222142D01*
X147510476Y-63269761D01*
X147605714Y-63317380D01*
X147796190Y-63317380D01*
X147891428Y-63269761D01*
X147939047Y-63222142D01*
X147986666Y-63126904D01*
X147986666Y-62936428D01*
X147939047Y-62841190D01*
X147891428Y-62793571D01*
X147796190Y-62745952D01*
%TO.C,J6*%
X135556666Y-99147380D02*
X135556666Y-99861666D01*
X135509047Y-100004523D01*
X135413809Y-100099761D01*
X135270952Y-100147380D01*
X135175714Y-100147380D01*
X136461428Y-99147380D02*
X136270952Y-99147380D01*
X136175714Y-99195000D01*
X136128095Y-99242619D01*
X136032857Y-99385476D01*
X135985238Y-99575952D01*
X135985238Y-99956904D01*
X136032857Y-100052142D01*
X136080476Y-100099761D01*
X136175714Y-100147380D01*
X136366190Y-100147380D01*
X136461428Y-100099761D01*
X136509047Y-100052142D01*
X136556666Y-99956904D01*
X136556666Y-99718809D01*
X136509047Y-99623571D01*
X136461428Y-99575952D01*
X136366190Y-99528333D01*
X136175714Y-99528333D01*
X136080476Y-99575952D01*
X136032857Y-99623571D01*
X135985238Y-99718809D01*
%TO.C,J5*%
X127936666Y-99147380D02*
X127936666Y-99861666D01*
X127889047Y-100004523D01*
X127793809Y-100099761D01*
X127650952Y-100147380D01*
X127555714Y-100147380D01*
X128889047Y-99147380D02*
X128412857Y-99147380D01*
X128365238Y-99623571D01*
X128412857Y-99575952D01*
X128508095Y-99528333D01*
X128746190Y-99528333D01*
X128841428Y-99575952D01*
X128889047Y-99623571D01*
X128936666Y-99718809D01*
X128936666Y-99956904D01*
X128889047Y-100052142D01*
X128841428Y-100099761D01*
X128746190Y-100147380D01*
X128508095Y-100147380D01*
X128412857Y-100099761D01*
X128365238Y-100052142D01*
%TO.C,J4*%
X139366666Y-66762380D02*
X139366666Y-67476666D01*
X139319047Y-67619523D01*
X139223809Y-67714761D01*
X139080952Y-67762380D01*
X138985714Y-67762380D01*
X140271428Y-67095714D02*
X140271428Y-67762380D01*
X140033333Y-66714761D02*
X139795238Y-67429047D01*
X140414285Y-67429047D01*
%TO.C,J3*%
X145716666Y-66762380D02*
X145716666Y-67476666D01*
X145669047Y-67619523D01*
X145573809Y-67714761D01*
X145430952Y-67762380D01*
X145335714Y-67762380D01*
X146097619Y-66762380D02*
X146716666Y-66762380D01*
X146383333Y-67143333D01*
X146526190Y-67143333D01*
X146621428Y-67190952D01*
X146669047Y-67238571D01*
X146716666Y-67333809D01*
X146716666Y-67571904D01*
X146669047Y-67667142D01*
X146621428Y-67714761D01*
X146526190Y-67762380D01*
X146240476Y-67762380D01*
X146145238Y-67714761D01*
X146097619Y-67667142D01*
%TO.C,J2*%
X161591666Y-93432380D02*
X161591666Y-94146666D01*
X161544047Y-94289523D01*
X161448809Y-94384761D01*
X161305952Y-94432380D01*
X161210714Y-94432380D01*
X162020238Y-93527619D02*
X162067857Y-93480000D01*
X162163095Y-93432380D01*
X162401190Y-93432380D01*
X162496428Y-93480000D01*
X162544047Y-93527619D01*
X162591666Y-93622857D01*
X162591666Y-93718095D01*
X162544047Y-93860952D01*
X161972619Y-94432380D01*
X162591666Y-94432380D01*
%TO.C,H2*%
X155448095Y-105227380D02*
X155448095Y-104227380D01*
X155448095Y-104703571D02*
X156019523Y-104703571D01*
X156019523Y-105227380D02*
X156019523Y-104227380D01*
X156448095Y-104322619D02*
X156495714Y-104275000D01*
X156590952Y-104227380D01*
X156829047Y-104227380D01*
X156924285Y-104275000D01*
X156971904Y-104322619D01*
X157019523Y-104417857D01*
X157019523Y-104513095D01*
X156971904Y-104655952D01*
X156400476Y-105227380D01*
X157019523Y-105227380D01*
%TO.C,H1*%
X124968095Y-71572380D02*
X124968095Y-70572380D01*
X124968095Y-71048571D02*
X125539523Y-71048571D01*
X125539523Y-71572380D02*
X125539523Y-70572380D01*
X126539523Y-71572380D02*
X125968095Y-71572380D01*
X126253809Y-71572380D02*
X126253809Y-70572380D01*
X126158571Y-70715238D01*
X126063333Y-70810476D01*
X125968095Y-70858095D01*
%TD*%
M02*
