M48
; DRILL file {KiCad (5.1.6)-1} date 09/04/20 23:44:57
; FORMAT={-:-/ absolute / inch / decimal}
; #@! TF.CreationDate,2020-09-04T23:44:57+02:00
; #@! TF.GenerationSoftware,Kicad,Pcbnew,(5.1.6)-1
; #@! TF.FileFunction,Plated,1,2,PTH
FMAT,2
INCH
T1C0.0157
T2C0.0236
T3C0.0315
T4C0.0394
T5C0.0433
T6C0.1693
%
G90
G05
T1
X6.12Y-2.825
X6.435Y-2.84
T2
X6.198Y-3.975
X6.2352Y-3.8852
X6.2352Y-4.0648
X6.325Y-3.848
X6.325Y-4.102
X6.4148Y-3.8852
X6.4148Y-4.0648
X6.452Y-3.975
X4.973Y-2.625
X5.0102Y-2.5352
X5.0102Y-2.7148
X5.1Y-2.498
X5.1Y-2.752
X5.1898Y-2.5352
X5.1898Y-2.7148
X5.227Y-2.625
T3
X4.975Y-3.175
X4.975Y-3.475
X5.075Y-3.175
X5.075Y-3.475
X5.175Y-3.175
X5.175Y-3.475
X5.275Y-3.175
X5.275Y-3.475
X5.375Y-3.175
X5.375Y-3.475
X5.475Y-3.175
X5.475Y-3.475
X5.575Y-3.175
X5.575Y-3.475
X5.675Y-3.175
X5.675Y-3.475
X5.775Y-3.175
X5.775Y-3.475
X5.875Y-3.175
X5.875Y-3.475
X5.975Y-3.175
X5.975Y-3.475
X6.075Y-3.175
X6.075Y-3.475
X6.175Y-3.175
X6.175Y-3.475
X6.275Y-3.175
X6.275Y-3.475
T4
X5.88Y-3.875
X5.88Y-3.975
X5.545Y-3.77
X5.545Y-3.87
X5.545Y-3.97
X5.545Y-4.07
X6.175Y-3.7
X6.275Y-3.7
X5.25Y-3.77
X5.25Y-3.87
X5.25Y-3.97
X5.25Y-4.07
X5.395Y-2.49
X5.395Y-2.59
X5.395Y-2.69
X5.395Y-2.79
X5.9Y-2.5
X5.9Y-2.6
X5.65Y-2.485
X5.65Y-2.585
X5.65Y-2.685
X5.65Y-2.785
X4.965Y-3.77
X4.965Y-3.87
X4.965Y-3.97
X4.965Y-4.07
T5
X6.2228Y-2.5
X6.2228Y-2.7559
X6.4Y-2.5
X6.4Y-2.7559
T6
X6.325Y-3.975
X5.1Y-2.625
T0
M30
