%TF.GenerationSoftware,KiCad,Pcbnew,(5.1.6)-1*%
%TF.CreationDate,2020-09-04T23:44:55+02:00*%
%TF.ProjectId,gpioexpander3,6770696f-6578-4706-916e-646572332e6b,rev?*%
%TF.SameCoordinates,Original*%
%TF.FileFunction,Paste,Top*%
%TF.FilePolarity,Positive*%
%FSLAX46Y46*%
G04 Gerber Fmt 4.6, Leading zero omitted, Abs format (unit mm)*
G04 Created by KiCad (PCBNEW (5.1.6)-1) date 2020-09-04 23:44:55*
%MOMM*%
%LPD*%
G01*
G04 APERTURE LIST*
G04 APERTURE END LIST*
%TO.C,R3*%
G36*
G01*
X153739001Y-69663000D02*
X152838999Y-69663000D01*
G75*
G02*
X152589000Y-69413001I0J249999D01*
G01*
X152589000Y-68762999D01*
G75*
G02*
X152838999Y-68513000I249999J0D01*
G01*
X153739001Y-68513000D01*
G75*
G02*
X153989000Y-68762999I0J-249999D01*
G01*
X153989000Y-69413001D01*
G75*
G02*
X153739001Y-69663000I-249999J0D01*
G01*
G37*
G36*
G01*
X153739001Y-71713000D02*
X152838999Y-71713000D01*
G75*
G02*
X152589000Y-71463001I0J249999D01*
G01*
X152589000Y-70812999D01*
G75*
G02*
X152838999Y-70563000I249999J0D01*
G01*
X153739001Y-70563000D01*
G75*
G02*
X153989000Y-70812999I0J-249999D01*
G01*
X153989000Y-71463001D01*
G75*
G02*
X153739001Y-71713000I-249999J0D01*
G01*
G37*
%TD*%
%TO.C,R2*%
G36*
G01*
X149536999Y-70545000D02*
X150437001Y-70545000D01*
G75*
G02*
X150687000Y-70794999I0J-249999D01*
G01*
X150687000Y-71445001D01*
G75*
G02*
X150437001Y-71695000I-249999J0D01*
G01*
X149536999Y-71695000D01*
G75*
G02*
X149287000Y-71445001I0J249999D01*
G01*
X149287000Y-70794999D01*
G75*
G02*
X149536999Y-70545000I249999J0D01*
G01*
G37*
G36*
G01*
X149536999Y-68495000D02*
X150437001Y-68495000D01*
G75*
G02*
X150687000Y-68744999I0J-249999D01*
G01*
X150687000Y-69395001D01*
G75*
G02*
X150437001Y-69645000I-249999J0D01*
G01*
X149536999Y-69645000D01*
G75*
G02*
X149287000Y-69395001I0J249999D01*
G01*
X149287000Y-68744999D01*
G75*
G02*
X149536999Y-68495000I249999J0D01*
G01*
G37*
%TD*%
%TO.C,R1*%
G36*
G01*
X156394999Y-75126000D02*
X157295001Y-75126000D01*
G75*
G02*
X157545000Y-75375999I0J-249999D01*
G01*
X157545000Y-76026001D01*
G75*
G02*
X157295001Y-76276000I-249999J0D01*
G01*
X156394999Y-76276000D01*
G75*
G02*
X156145000Y-76026001I0J249999D01*
G01*
X156145000Y-75375999D01*
G75*
G02*
X156394999Y-75126000I249999J0D01*
G01*
G37*
G36*
G01*
X156394999Y-73076000D02*
X157295001Y-73076000D01*
G75*
G02*
X157545000Y-73325999I0J-249999D01*
G01*
X157545000Y-73976001D01*
G75*
G02*
X157295001Y-74226000I-249999J0D01*
G01*
X156394999Y-74226000D01*
G75*
G02*
X156145000Y-73976001I0J249999D01*
G01*
X156145000Y-73325999D01*
G75*
G02*
X156394999Y-73076000I249999J0D01*
G01*
G37*
%TD*%
M02*
