%TF.GenerationSoftware,KiCad,Pcbnew,(5.1.6)-1*%
%TF.CreationDate,2020-09-17T22:35:37+02:00*%
%TF.ProjectId,gpioexpander4,6770696f-6578-4706-916e-646572342e6b,rev?*%
%TF.SameCoordinates,Original*%
%TF.FileFunction,Soldermask,Top*%
%TF.FilePolarity,Negative*%
%FSLAX46Y46*%
G04 Gerber Fmt 4.6, Leading zero omitted, Abs format (unit mm)*
G04 Created by KiCad (PCBNEW (5.1.6)-1) date 2020-09-17 22:35:37*
%MOMM*%
%LPD*%
G01*
G04 APERTURE LIST*
%ADD10O,1.800000X1.800000*%
%ADD11R,1.800000X1.800000*%
%ADD12C,6.500000*%
%ADD13C,2.100000*%
%ADD14O,1.700000X1.700000*%
%ADD15R,1.700000X1.700000*%
G04 APERTURE END LIST*
%TO.C,R10*%
G36*
G01*
X118392000Y-76932262D02*
X118392000Y-75975738D01*
G75*
G02*
X118663738Y-75704000I271738J0D01*
G01*
X119370262Y-75704000D01*
G75*
G02*
X119642000Y-75975738I0J-271738D01*
G01*
X119642000Y-76932262D01*
G75*
G02*
X119370262Y-77204000I-271738J0D01*
G01*
X118663738Y-77204000D01*
G75*
G02*
X118392000Y-76932262I0J271738D01*
G01*
G37*
G36*
G01*
X116342000Y-76932262D02*
X116342000Y-75975738D01*
G75*
G02*
X116613738Y-75704000I271738J0D01*
G01*
X117320262Y-75704000D01*
G75*
G02*
X117592000Y-75975738I0J-271738D01*
G01*
X117592000Y-76932262D01*
G75*
G02*
X117320262Y-77204000I-271738J0D01*
G01*
X116613738Y-77204000D01*
G75*
G02*
X116342000Y-76932262I0J271738D01*
G01*
G37*
%TD*%
D10*
%TO.C,J9*%
X109728000Y-76327000D03*
D11*
X112268000Y-76327000D03*
%TD*%
D12*
%TO.C,H2*%
X111379000Y-82804000D03*
%TD*%
%TO.C,H1*%
X139700000Y-53213000D03*
%TD*%
D13*
%TO.C,SW1*%
X142644000Y-61468000D03*
X142644000Y-65968000D03*
X136144000Y-61468000D03*
X136144000Y-65968000D03*
%TD*%
D14*
%TO.C,U1*%
X131445000Y-51155000D03*
X123825000Y-84175000D03*
X131445000Y-53695000D03*
X123825000Y-81635000D03*
X131445000Y-56235000D03*
X123825000Y-79095000D03*
X131445000Y-58775000D03*
X123825000Y-76555000D03*
X131445000Y-61315000D03*
X123825000Y-74015000D03*
X131445000Y-63855000D03*
X123825000Y-71475000D03*
X131445000Y-66395000D03*
X123825000Y-68935000D03*
X131445000Y-68935000D03*
X123825000Y-66395000D03*
X131445000Y-71475000D03*
X123825000Y-63855000D03*
X131445000Y-74015000D03*
X123825000Y-61315000D03*
X131445000Y-76555000D03*
X123825000Y-58775000D03*
X131445000Y-79095000D03*
X123825000Y-56235000D03*
X131445000Y-81635000D03*
X123825000Y-53695000D03*
X131445000Y-84175000D03*
D15*
X123825000Y-51155000D03*
%TD*%
D10*
%TO.C,J8*%
X141732000Y-70612000D03*
D11*
X141732000Y-73152000D03*
%TD*%
D10*
%TO.C,J7*%
X109855000Y-71755000D03*
X112395000Y-71755000D03*
X114935000Y-71755000D03*
D11*
X117475000Y-71755000D03*
%TD*%
D10*
%TO.C,J6*%
X109855000Y-66675000D03*
X112395000Y-66675000D03*
X114935000Y-66675000D03*
D11*
X117475000Y-66675000D03*
%TD*%
D10*
%TO.C,J5*%
X109855000Y-61595000D03*
X112395000Y-61595000D03*
X114935000Y-61595000D03*
D11*
X117475000Y-61595000D03*
%TD*%
D10*
%TO.C,J4*%
X109855000Y-56515000D03*
X112395000Y-56515000D03*
X114935000Y-56515000D03*
D11*
X117475000Y-56515000D03*
%TD*%
D10*
%TO.C,J3*%
X109728000Y-51435000D03*
X112268000Y-51435000D03*
X114808000Y-51435000D03*
D11*
X117348000Y-51435000D03*
%TD*%
D10*
%TO.C,J2*%
X118872000Y-81788000D03*
D11*
X118872000Y-84328000D03*
%TD*%
D10*
%TO.C,J1*%
X140716000Y-83820000D03*
D11*
X138176000Y-83820000D03*
%TD*%
M02*
