M48
; DRILL file {KiCad (5.1.6)-1} date 09/17/20 22:35:39
; FORMAT={-:-/ absolute / inch / decimal}
; #@! TF.CreationDate,2020-09-17T22:35:39+02:00
; #@! TF.GenerationSoftware,Kicad,Pcbnew,(5.1.6)-1
; #@! TF.FileFunction,Plated,1,2,PTH
FMAT,2
INCH
T1C0.0315
T2C0.0394
T3C0.0433
T4C0.1260
%
G90
G05
T1
X4.875Y-2.014
X4.875Y-2.114
X4.875Y-2.214
X4.875Y-2.314
X4.875Y-2.414
X4.875Y-2.514
X4.875Y-2.614
X4.875Y-2.714
X4.875Y-2.814
X4.875Y-2.914
X4.875Y-3.014
X4.875Y-3.114
X4.875Y-3.214
X4.875Y-3.314
X5.175Y-2.014
X5.175Y-2.114
X5.175Y-2.214
X5.175Y-2.314
X5.175Y-2.414
X5.175Y-2.514
X5.175Y-2.614
X5.175Y-2.714
X5.175Y-2.814
X5.175Y-2.914
X5.175Y-3.014
X5.175Y-3.114
X5.175Y-3.214
X5.175Y-3.314
T2
X4.325Y-2.625
X4.425Y-2.625
X4.525Y-2.625
X4.625Y-2.625
X5.58Y-2.78
X5.58Y-2.88
X4.325Y-2.825
X4.425Y-2.825
X4.525Y-2.825
X4.625Y-2.825
X4.325Y-2.225
X4.425Y-2.225
X4.525Y-2.225
X4.625Y-2.225
X4.68Y-3.22
X4.68Y-3.32
X5.44Y-3.3
X5.54Y-3.3
X4.32Y-3.005
X4.42Y-3.005
X4.32Y-2.025
X4.42Y-2.025
X4.52Y-2.025
X4.62Y-2.025
X4.325Y-2.425
X4.425Y-2.425
X4.525Y-2.425
X4.625Y-2.425
T3
X5.36Y-2.42
X5.36Y-2.5972
X5.6159Y-2.42
X5.6159Y-2.5972
T4
X4.385Y-3.26
X5.5Y-2.095
T0
M30
