%TF.GenerationSoftware,KiCad,Pcbnew,(5.1.6)-1*%
%TF.CreationDate,2020-09-06T00:09:38+02:00*%
%TF.ProjectId,gpioexpander4,6770696f-6578-4706-916e-646572342e6b,rev?*%
%TF.SameCoordinates,Original*%
%TF.FileFunction,Legend,Top*%
%TF.FilePolarity,Positive*%
%FSLAX46Y46*%
G04 Gerber Fmt 4.6, Leading zero omitted, Abs format (unit mm)*
G04 Created by KiCad (PCBNEW (5.1.6)-1) date 2020-09-06 00:09:38*
%MOMM*%
%LPD*%
G01*
G04 APERTURE LIST*
%ADD10C,0.120000*%
%ADD11C,0.150000*%
G04 APERTURE END LIST*
D10*
X122428000Y-49276000D02*
G75*
G03*
X122428000Y-49276000I-508000J0D01*
G01*
D11*
X117633714Y-49728380D02*
X117062285Y-49728380D01*
X117348000Y-49728380D02*
X117348000Y-48728380D01*
X117252761Y-48871238D01*
X117157523Y-48966476D01*
X117062285Y-49014095D01*
X117633714Y-54808380D02*
X117062285Y-54808380D01*
X117348000Y-54808380D02*
X117348000Y-53808380D01*
X117252761Y-53951238D01*
X117157523Y-54046476D01*
X117062285Y-54094095D01*
X117633714Y-59888380D02*
X117062285Y-59888380D01*
X117348000Y-59888380D02*
X117348000Y-58888380D01*
X117252761Y-59031238D01*
X117157523Y-59126476D01*
X117062285Y-59174095D01*
X117633714Y-64968380D02*
X117062285Y-64968380D01*
X117348000Y-64968380D02*
X117348000Y-63968380D01*
X117252761Y-64111238D01*
X117157523Y-64206476D01*
X117062285Y-64254095D01*
X117633714Y-70048380D02*
X117062285Y-70048380D01*
X117348000Y-70048380D02*
X117348000Y-69048380D01*
X117252761Y-69191238D01*
X117157523Y-69286476D01*
X117062285Y-69334095D01*
X106688000Y-72389904D02*
X106640380Y-72485142D01*
X106640380Y-72628000D01*
X106688000Y-72770857D01*
X106783238Y-72866095D01*
X106878476Y-72913714D01*
X107068952Y-72961333D01*
X107211809Y-72961333D01*
X107402285Y-72913714D01*
X107497523Y-72866095D01*
X107592761Y-72770857D01*
X107640380Y-72628000D01*
X107640380Y-72532761D01*
X107592761Y-72389904D01*
X107545142Y-72342285D01*
X107211809Y-72342285D01*
X107211809Y-72532761D01*
X107640380Y-71913714D02*
X106640380Y-71913714D01*
X107640380Y-71342285D01*
X106640380Y-71342285D01*
X107640380Y-70866095D02*
X106640380Y-70866095D01*
X106640380Y-70628000D01*
X106688000Y-70485142D01*
X106783238Y-70389904D01*
X106878476Y-70342285D01*
X107068952Y-70294666D01*
X107211809Y-70294666D01*
X107402285Y-70342285D01*
X107497523Y-70389904D01*
X107592761Y-70485142D01*
X107640380Y-70628000D01*
X107640380Y-70866095D01*
X106688000Y-67309904D02*
X106640380Y-67405142D01*
X106640380Y-67548000D01*
X106688000Y-67690857D01*
X106783238Y-67786095D01*
X106878476Y-67833714D01*
X107068952Y-67881333D01*
X107211809Y-67881333D01*
X107402285Y-67833714D01*
X107497523Y-67786095D01*
X107592761Y-67690857D01*
X107640380Y-67548000D01*
X107640380Y-67452761D01*
X107592761Y-67309904D01*
X107545142Y-67262285D01*
X107211809Y-67262285D01*
X107211809Y-67452761D01*
X107640380Y-66833714D02*
X106640380Y-66833714D01*
X107640380Y-66262285D01*
X106640380Y-66262285D01*
X107640380Y-65786095D02*
X106640380Y-65786095D01*
X106640380Y-65548000D01*
X106688000Y-65405142D01*
X106783238Y-65309904D01*
X106878476Y-65262285D01*
X107068952Y-65214666D01*
X107211809Y-65214666D01*
X107402285Y-65262285D01*
X107497523Y-65309904D01*
X107592761Y-65405142D01*
X107640380Y-65548000D01*
X107640380Y-65786095D01*
X106688000Y-62229904D02*
X106640380Y-62325142D01*
X106640380Y-62468000D01*
X106688000Y-62610857D01*
X106783238Y-62706095D01*
X106878476Y-62753714D01*
X107068952Y-62801333D01*
X107211809Y-62801333D01*
X107402285Y-62753714D01*
X107497523Y-62706095D01*
X107592761Y-62610857D01*
X107640380Y-62468000D01*
X107640380Y-62372761D01*
X107592761Y-62229904D01*
X107545142Y-62182285D01*
X107211809Y-62182285D01*
X107211809Y-62372761D01*
X107640380Y-61753714D02*
X106640380Y-61753714D01*
X107640380Y-61182285D01*
X106640380Y-61182285D01*
X107640380Y-60706095D02*
X106640380Y-60706095D01*
X106640380Y-60468000D01*
X106688000Y-60325142D01*
X106783238Y-60229904D01*
X106878476Y-60182285D01*
X107068952Y-60134666D01*
X107211809Y-60134666D01*
X107402285Y-60182285D01*
X107497523Y-60229904D01*
X107592761Y-60325142D01*
X107640380Y-60468000D01*
X107640380Y-60706095D01*
X106688000Y-57149904D02*
X106640380Y-57245142D01*
X106640380Y-57388000D01*
X106688000Y-57530857D01*
X106783238Y-57626095D01*
X106878476Y-57673714D01*
X107068952Y-57721333D01*
X107211809Y-57721333D01*
X107402285Y-57673714D01*
X107497523Y-57626095D01*
X107592761Y-57530857D01*
X107640380Y-57388000D01*
X107640380Y-57292761D01*
X107592761Y-57149904D01*
X107545142Y-57102285D01*
X107211809Y-57102285D01*
X107211809Y-57292761D01*
X107640380Y-56673714D02*
X106640380Y-56673714D01*
X107640380Y-56102285D01*
X106640380Y-56102285D01*
X107640380Y-55626095D02*
X106640380Y-55626095D01*
X106640380Y-55388000D01*
X106688000Y-55245142D01*
X106783238Y-55149904D01*
X106878476Y-55102285D01*
X107068952Y-55054666D01*
X107211809Y-55054666D01*
X107402285Y-55102285D01*
X107497523Y-55149904D01*
X107592761Y-55245142D01*
X107640380Y-55388000D01*
X107640380Y-55626095D01*
X106688000Y-52069904D02*
X106640380Y-52165142D01*
X106640380Y-52308000D01*
X106688000Y-52450857D01*
X106783238Y-52546095D01*
X106878476Y-52593714D01*
X107068952Y-52641333D01*
X107211809Y-52641333D01*
X107402285Y-52593714D01*
X107497523Y-52546095D01*
X107592761Y-52450857D01*
X107640380Y-52308000D01*
X107640380Y-52212761D01*
X107592761Y-52069904D01*
X107545142Y-52022285D01*
X107211809Y-52022285D01*
X107211809Y-52212761D01*
X107640380Y-51593714D02*
X106640380Y-51593714D01*
X107640380Y-51022285D01*
X106640380Y-51022285D01*
X107640380Y-50546095D02*
X106640380Y-50546095D01*
X106640380Y-50308000D01*
X106688000Y-50165142D01*
X106783238Y-50069904D01*
X106878476Y-50022285D01*
X107068952Y-49974666D01*
X107211809Y-49974666D01*
X107402285Y-50022285D01*
X107497523Y-50069904D01*
X107592761Y-50165142D01*
X107640380Y-50308000D01*
X107640380Y-50546095D01*
X136652380Y-81732380D02*
X136652380Y-80732380D01*
X137033333Y-80732380D01*
X137128571Y-80780000D01*
X137176190Y-80827619D01*
X137223809Y-80922857D01*
X137223809Y-81065714D01*
X137176190Y-81160952D01*
X137128571Y-81208571D01*
X137033333Y-81256190D01*
X136652380Y-81256190D01*
X137795238Y-81732380D02*
X137700000Y-81684761D01*
X137652380Y-81637142D01*
X137604761Y-81541904D01*
X137604761Y-81256190D01*
X137652380Y-81160952D01*
X137700000Y-81113333D01*
X137795238Y-81065714D01*
X137938095Y-81065714D01*
X138033333Y-81113333D01*
X138080952Y-81160952D01*
X138128571Y-81256190D01*
X138128571Y-81541904D01*
X138080952Y-81637142D01*
X138033333Y-81684761D01*
X137938095Y-81732380D01*
X137795238Y-81732380D01*
X138461904Y-81065714D02*
X138652380Y-81732380D01*
X138842857Y-81256190D01*
X139033333Y-81732380D01*
X139223809Y-81065714D01*
X139985714Y-81684761D02*
X139890476Y-81732380D01*
X139700000Y-81732380D01*
X139604761Y-81684761D01*
X139557142Y-81589523D01*
X139557142Y-81208571D01*
X139604761Y-81113333D01*
X139700000Y-81065714D01*
X139890476Y-81065714D01*
X139985714Y-81113333D01*
X140033333Y-81208571D01*
X140033333Y-81303809D01*
X139557142Y-81399047D01*
X140461904Y-81732380D02*
X140461904Y-81065714D01*
X140461904Y-81256190D02*
X140509523Y-81160952D01*
X140557142Y-81113333D01*
X140652380Y-81065714D01*
X140747619Y-81065714D01*
X141842857Y-81732380D02*
X141842857Y-80732380D01*
X142319047Y-81065714D02*
X142319047Y-81732380D01*
X142319047Y-81160952D02*
X142366666Y-81113333D01*
X142461904Y-81065714D01*
X142604761Y-81065714D01*
X142700000Y-81113333D01*
X142747619Y-81208571D01*
X142747619Y-81732380D01*
X139954095Y-85860000D02*
X139858857Y-85812380D01*
X139716000Y-85812380D01*
X139573142Y-85860000D01*
X139477904Y-85955238D01*
X139430285Y-86050476D01*
X139382666Y-86240952D01*
X139382666Y-86383809D01*
X139430285Y-86574285D01*
X139477904Y-86669523D01*
X139573142Y-86764761D01*
X139716000Y-86812380D01*
X139811238Y-86812380D01*
X139954095Y-86764761D01*
X140001714Y-86717142D01*
X140001714Y-86383809D01*
X139811238Y-86383809D01*
X140430285Y-86812380D02*
X140430285Y-85812380D01*
X141001714Y-86812380D01*
X141001714Y-85812380D01*
X141477904Y-86812380D02*
X141477904Y-85812380D01*
X141716000Y-85812380D01*
X141858857Y-85860000D01*
X141954095Y-85955238D01*
X142001714Y-86050476D01*
X142049333Y-86240952D01*
X142049333Y-86383809D01*
X142001714Y-86574285D01*
X141954095Y-86669523D01*
X141858857Y-86764761D01*
X141716000Y-86812380D01*
X141477904Y-86812380D01*
X135064761Y-59094666D02*
X135540952Y-59094666D01*
X134969523Y-59380380D02*
X135302857Y-58380380D01*
X135636190Y-59380380D01*
X136398095Y-59332761D02*
X136302857Y-59380380D01*
X136112380Y-59380380D01*
X136017142Y-59332761D01*
X135969523Y-59285142D01*
X135921904Y-59189904D01*
X135921904Y-58904190D01*
X135969523Y-58808952D01*
X136017142Y-58761333D01*
X136112380Y-58713714D01*
X136302857Y-58713714D01*
X136398095Y-58761333D01*
X136683809Y-58713714D02*
X137064761Y-58713714D01*
X136826666Y-58380380D02*
X136826666Y-59237523D01*
X136874285Y-59332761D01*
X136969523Y-59380380D01*
X137064761Y-59380380D01*
X137398095Y-59380380D02*
X137398095Y-58713714D01*
X137398095Y-58380380D02*
X137350476Y-58428000D01*
X137398095Y-58475619D01*
X137445714Y-58428000D01*
X137398095Y-58380380D01*
X137398095Y-58475619D01*
X138017142Y-59380380D02*
X137921904Y-59332761D01*
X137874285Y-59285142D01*
X137826666Y-59189904D01*
X137826666Y-58904190D01*
X137874285Y-58808952D01*
X137921904Y-58761333D01*
X138017142Y-58713714D01*
X138160000Y-58713714D01*
X138255238Y-58761333D01*
X138302857Y-58808952D01*
X138350476Y-58904190D01*
X138350476Y-59189904D01*
X138302857Y-59285142D01*
X138255238Y-59332761D01*
X138160000Y-59380380D01*
X138017142Y-59380380D01*
X138779047Y-58713714D02*
X138779047Y-59380380D01*
X138779047Y-58808952D02*
X138826666Y-58761333D01*
X138921904Y-58713714D01*
X139064761Y-58713714D01*
X139160000Y-58761333D01*
X139207619Y-58856571D01*
X139207619Y-59380380D01*
X127960380Y-60610285D02*
X126960380Y-60610285D01*
X127674666Y-60276952D01*
X126960380Y-59943619D01*
X127960380Y-59943619D01*
X127865142Y-58896000D02*
X127912761Y-58943619D01*
X127960380Y-59086476D01*
X127960380Y-59181714D01*
X127912761Y-59324571D01*
X127817523Y-59419809D01*
X127722285Y-59467428D01*
X127531809Y-59515047D01*
X127388952Y-59515047D01*
X127198476Y-59467428D01*
X127103238Y-59419809D01*
X127008000Y-59324571D01*
X126960380Y-59181714D01*
X126960380Y-59086476D01*
X127008000Y-58943619D01*
X127055619Y-58896000D01*
X127960380Y-58467428D02*
X126960380Y-58467428D01*
X126960380Y-58086476D01*
X127008000Y-57991238D01*
X127055619Y-57943619D01*
X127150857Y-57896000D01*
X127293714Y-57896000D01*
X127388952Y-57943619D01*
X127436571Y-57991238D01*
X127484190Y-58086476D01*
X127484190Y-58467428D01*
X127055619Y-57515047D02*
X127008000Y-57467428D01*
X126960380Y-57372190D01*
X126960380Y-57134095D01*
X127008000Y-57038857D01*
X127055619Y-56991238D01*
X127150857Y-56943619D01*
X127246095Y-56943619D01*
X127388952Y-56991238D01*
X127960380Y-57562666D01*
X127960380Y-56943619D01*
X126960380Y-56610285D02*
X126960380Y-55991238D01*
X127341333Y-56324571D01*
X127341333Y-56181714D01*
X127388952Y-56086476D01*
X127436571Y-56038857D01*
X127531809Y-55991238D01*
X127769904Y-55991238D01*
X127865142Y-56038857D01*
X127912761Y-56086476D01*
X127960380Y-56181714D01*
X127960380Y-56467428D01*
X127912761Y-56562666D01*
X127865142Y-56610285D01*
X126960380Y-55372190D02*
X126960380Y-55276952D01*
X127008000Y-55181714D01*
X127055619Y-55134095D01*
X127150857Y-55086476D01*
X127341333Y-55038857D01*
X127579428Y-55038857D01*
X127769904Y-55086476D01*
X127865142Y-55134095D01*
X127912761Y-55181714D01*
X127960380Y-55276952D01*
X127960380Y-55372190D01*
X127912761Y-55467428D01*
X127865142Y-55515047D01*
X127769904Y-55562666D01*
X127579428Y-55610285D01*
X127341333Y-55610285D01*
X127150857Y-55562666D01*
X127055619Y-55515047D01*
X127008000Y-55467428D01*
X126960380Y-55372190D01*
X127960380Y-54086476D02*
X127960380Y-54657904D01*
X127960380Y-54372190D02*
X126960380Y-54372190D01*
X127103238Y-54467428D01*
X127198476Y-54562666D01*
X127246095Y-54657904D01*
X126960380Y-53753142D02*
X126960380Y-53086476D01*
X127960380Y-53515047D01*
X108276190Y-74367000D02*
X108180952Y-74319380D01*
X108038095Y-74319380D01*
X107895238Y-74367000D01*
X107800000Y-74462238D01*
X107752380Y-74557476D01*
X107704761Y-74747952D01*
X107704761Y-74890809D01*
X107752380Y-75081285D01*
X107800000Y-75176523D01*
X107895238Y-75271761D01*
X108038095Y-75319380D01*
X108133333Y-75319380D01*
X108276190Y-75271761D01*
X108323809Y-75224142D01*
X108323809Y-74890809D01*
X108133333Y-74890809D01*
X108752380Y-75319380D02*
X108752380Y-74319380D01*
X109133333Y-74319380D01*
X109228571Y-74367000D01*
X109276190Y-74414619D01*
X109323809Y-74509857D01*
X109323809Y-74652714D01*
X109276190Y-74747952D01*
X109228571Y-74795571D01*
X109133333Y-74843190D01*
X108752380Y-74843190D01*
X109752380Y-75319380D02*
X109752380Y-74319380D01*
X110419047Y-74319380D02*
X110609523Y-74319380D01*
X110704761Y-74367000D01*
X110800000Y-74462238D01*
X110847619Y-74652714D01*
X110847619Y-74986047D01*
X110800000Y-75176523D01*
X110704761Y-75271761D01*
X110609523Y-75319380D01*
X110419047Y-75319380D01*
X110323809Y-75271761D01*
X110228571Y-75176523D01*
X110180952Y-74986047D01*
X110180952Y-74652714D01*
X110228571Y-74462238D01*
X110323809Y-74367000D01*
X110419047Y-74319380D01*
X112038095Y-74795571D02*
X112371428Y-74795571D01*
X112514285Y-75319380D02*
X112038095Y-75319380D01*
X112038095Y-74319380D01*
X112514285Y-74319380D01*
X112847619Y-75319380D02*
X113371428Y-74652714D01*
X112847619Y-74652714D02*
X113371428Y-75319380D01*
X113752380Y-74652714D02*
X113752380Y-75652714D01*
X113752380Y-74700333D02*
X113847619Y-74652714D01*
X114038095Y-74652714D01*
X114133333Y-74700333D01*
X114180952Y-74747952D01*
X114228571Y-74843190D01*
X114228571Y-75128904D01*
X114180952Y-75224142D01*
X114133333Y-75271761D01*
X114038095Y-75319380D01*
X113847619Y-75319380D01*
X113752380Y-75271761D01*
X115085714Y-75319380D02*
X115085714Y-74795571D01*
X115038095Y-74700333D01*
X114942857Y-74652714D01*
X114752380Y-74652714D01*
X114657142Y-74700333D01*
X115085714Y-75271761D02*
X114990476Y-75319380D01*
X114752380Y-75319380D01*
X114657142Y-75271761D01*
X114609523Y-75176523D01*
X114609523Y-75081285D01*
X114657142Y-74986047D01*
X114752380Y-74938428D01*
X114990476Y-74938428D01*
X115085714Y-74890809D01*
X115561904Y-74652714D02*
X115561904Y-75319380D01*
X115561904Y-74747952D02*
X115609523Y-74700333D01*
X115704761Y-74652714D01*
X115847619Y-74652714D01*
X115942857Y-74700333D01*
X115990476Y-74795571D01*
X115990476Y-75319380D01*
X116895238Y-75319380D02*
X116895238Y-74319380D01*
X116895238Y-75271761D02*
X116800000Y-75319380D01*
X116609523Y-75319380D01*
X116514285Y-75271761D01*
X116466666Y-75224142D01*
X116419047Y-75128904D01*
X116419047Y-74843190D01*
X116466666Y-74747952D01*
X116514285Y-74700333D01*
X116609523Y-74652714D01*
X116800000Y-74652714D01*
X116895238Y-74700333D01*
X117752380Y-75271761D02*
X117657142Y-75319380D01*
X117466666Y-75319380D01*
X117371428Y-75271761D01*
X117323809Y-75176523D01*
X117323809Y-74795571D01*
X117371428Y-74700333D01*
X117466666Y-74652714D01*
X117657142Y-74652714D01*
X117752380Y-74700333D01*
X117800000Y-74795571D01*
X117800000Y-74890809D01*
X117323809Y-74986047D01*
X118228571Y-75319380D02*
X118228571Y-74652714D01*
X118228571Y-74843190D02*
X118276190Y-74747952D01*
X118323809Y-74700333D01*
X118419047Y-74652714D01*
X118514285Y-74652714D01*
X119514285Y-74652714D02*
X119752380Y-75319380D01*
X119990476Y-74652714D01*
X120800000Y-74652714D02*
X120800000Y-75319380D01*
X120561904Y-74271761D02*
X120323809Y-74986047D01*
X120942857Y-74986047D01*
X112014285Y-75969380D02*
X112014285Y-76683666D01*
X111966666Y-76826523D01*
X111871428Y-76921761D01*
X111728571Y-76969380D01*
X111633333Y-76969380D01*
X112490476Y-76969380D02*
X112490476Y-75969380D01*
X113061904Y-76969380D01*
X113061904Y-75969380D01*
X113490476Y-76064619D02*
X113538095Y-76017000D01*
X113633333Y-75969380D01*
X113871428Y-75969380D01*
X113966666Y-76017000D01*
X114014285Y-76064619D01*
X114061904Y-76159857D01*
X114061904Y-76255095D01*
X114014285Y-76397952D01*
X113442857Y-76969380D01*
X114061904Y-76969380D01*
X114680952Y-75969380D02*
X114776190Y-75969380D01*
X114871428Y-76017000D01*
X114919047Y-76064619D01*
X114966666Y-76159857D01*
X115014285Y-76350333D01*
X115014285Y-76588428D01*
X114966666Y-76778904D01*
X114919047Y-76874142D01*
X114871428Y-76921761D01*
X114776190Y-76969380D01*
X114680952Y-76969380D01*
X114585714Y-76921761D01*
X114538095Y-76874142D01*
X114490476Y-76778904D01*
X114442857Y-76588428D01*
X114442857Y-76350333D01*
X114490476Y-76159857D01*
X114538095Y-76064619D01*
X114585714Y-76017000D01*
X114680952Y-75969380D01*
X115395238Y-76064619D02*
X115442857Y-76017000D01*
X115538095Y-75969380D01*
X115776190Y-75969380D01*
X115871428Y-76017000D01*
X115919047Y-76064619D01*
X115966666Y-76159857D01*
X115966666Y-76255095D01*
X115919047Y-76397952D01*
X115347619Y-76969380D01*
X115966666Y-76969380D01*
X116585714Y-75969380D02*
X116680952Y-75969380D01*
X116776190Y-76017000D01*
X116823809Y-76064619D01*
X116871428Y-76159857D01*
X116919047Y-76350333D01*
X116919047Y-76588428D01*
X116871428Y-76778904D01*
X116823809Y-76874142D01*
X116776190Y-76921761D01*
X116680952Y-76969380D01*
X116585714Y-76969380D01*
X116490476Y-76921761D01*
X116442857Y-76874142D01*
X116395238Y-76778904D01*
X116347619Y-76588428D01*
X116347619Y-76350333D01*
X116395238Y-76159857D01*
X116442857Y-76064619D01*
X116490476Y-76017000D01*
X116585714Y-75969380D01*
X140089142Y-75285000D02*
X140565333Y-75285000D01*
X140327238Y-76652380D02*
X140327238Y-75652380D01*
X140565333Y-75285000D02*
X141612952Y-75285000D01*
X140803428Y-76652380D02*
X140803428Y-75652380D01*
X141374857Y-76652380D01*
X141374857Y-75652380D01*
X141612952Y-75285000D02*
X142374857Y-75285000D01*
X141708190Y-75652380D02*
X142279619Y-75652380D01*
X141993904Y-76652380D02*
X141993904Y-75652380D01*
X142374857Y-75285000D02*
X143374857Y-75285000D01*
X142946285Y-76128571D02*
X143089142Y-76176190D01*
X143136761Y-76223809D01*
X143184380Y-76319047D01*
X143184380Y-76461904D01*
X143136761Y-76557142D01*
X143089142Y-76604761D01*
X142993904Y-76652380D01*
X142612952Y-76652380D01*
X142612952Y-75652380D01*
X142946285Y-75652380D01*
X143041523Y-75700000D01*
X143089142Y-75747619D01*
X143136761Y-75842857D01*
X143136761Y-75938095D01*
X143089142Y-76033333D01*
X143041523Y-76080952D01*
X142946285Y-76128571D01*
X142612952Y-76128571D01*
X140160571Y-67665000D02*
X140636761Y-67665000D01*
X140398666Y-69032380D02*
X140398666Y-68032380D01*
X140636761Y-67665000D02*
X141684380Y-67665000D01*
X140874857Y-69032380D02*
X140874857Y-68032380D01*
X141446285Y-69032380D01*
X141446285Y-68032380D01*
X141684380Y-67665000D02*
X142446285Y-67665000D01*
X141779619Y-68032380D02*
X142351047Y-68032380D01*
X142065333Y-69032380D02*
X142065333Y-68032380D01*
X142446285Y-67665000D02*
X143303428Y-67665000D01*
X142636761Y-68746666D02*
X143112952Y-68746666D01*
X142541523Y-69032380D02*
X142874857Y-68032380D01*
X143208190Y-69032380D01*
X136477523Y-85812380D02*
X137096571Y-85812380D01*
X136763238Y-86193333D01*
X136906095Y-86193333D01*
X137001333Y-86240952D01*
X137048952Y-86288571D01*
X137096571Y-86383809D01*
X137096571Y-86621904D01*
X137048952Y-86717142D01*
X137001333Y-86764761D01*
X136906095Y-86812380D01*
X136620380Y-86812380D01*
X136525142Y-86764761D01*
X136477523Y-86717142D01*
X137429904Y-86145714D02*
X137668000Y-86812380D01*
X137906095Y-86145714D01*
X138191809Y-85812380D02*
X138810857Y-85812380D01*
X138477523Y-86193333D01*
X138620380Y-86193333D01*
X138715619Y-86240952D01*
X138763238Y-86288571D01*
X138810857Y-86383809D01*
X138810857Y-86621904D01*
X138763238Y-86717142D01*
X138715619Y-86764761D01*
X138620380Y-86812380D01*
X138334666Y-86812380D01*
X138239428Y-86764761D01*
X138191809Y-86717142D01*
X117657714Y-87272761D02*
X117800571Y-87320380D01*
X118038666Y-87320380D01*
X118133904Y-87272761D01*
X118181523Y-87225142D01*
X118229142Y-87129904D01*
X118229142Y-87034666D01*
X118181523Y-86939428D01*
X118133904Y-86891809D01*
X118038666Y-86844190D01*
X117848190Y-86796571D01*
X117752952Y-86748952D01*
X117705333Y-86701333D01*
X117657714Y-86606095D01*
X117657714Y-86510857D01*
X117705333Y-86415619D01*
X117752952Y-86368000D01*
X117848190Y-86320380D01*
X118086285Y-86320380D01*
X118229142Y-86368000D01*
X118657714Y-87320380D02*
X118657714Y-86320380D01*
X118895809Y-86320380D01*
X119038666Y-86368000D01*
X119133904Y-86463238D01*
X119181523Y-86558476D01*
X119229142Y-86748952D01*
X119229142Y-86891809D01*
X119181523Y-87082285D01*
X119133904Y-87177523D01*
X119038666Y-87272761D01*
X118895809Y-87320380D01*
X118657714Y-87320380D01*
X119610095Y-87034666D02*
X120086285Y-87034666D01*
X119514857Y-87320380D02*
X119848190Y-86320380D01*
X120181523Y-87320380D01*
X117586285Y-79652761D02*
X117729142Y-79700380D01*
X117967238Y-79700380D01*
X118062476Y-79652761D01*
X118110095Y-79605142D01*
X118157714Y-79509904D01*
X118157714Y-79414666D01*
X118110095Y-79319428D01*
X118062476Y-79271809D01*
X117967238Y-79224190D01*
X117776761Y-79176571D01*
X117681523Y-79128952D01*
X117633904Y-79081333D01*
X117586285Y-78986095D01*
X117586285Y-78890857D01*
X117633904Y-78795619D01*
X117681523Y-78748000D01*
X117776761Y-78700380D01*
X118014857Y-78700380D01*
X118157714Y-78748000D01*
X119157714Y-79605142D02*
X119110095Y-79652761D01*
X118967238Y-79700380D01*
X118872000Y-79700380D01*
X118729142Y-79652761D01*
X118633904Y-79557523D01*
X118586285Y-79462285D01*
X118538666Y-79271809D01*
X118538666Y-79128952D01*
X118586285Y-78938476D01*
X118633904Y-78843238D01*
X118729142Y-78748000D01*
X118872000Y-78700380D01*
X118967238Y-78700380D01*
X119110095Y-78748000D01*
X119157714Y-78795619D01*
X119586285Y-79700380D02*
X119586285Y-78700380D01*
X120157714Y-79700380D02*
X119729142Y-79128952D01*
X120157714Y-78700380D02*
X119586285Y-79271809D01*
X108450285Y-69540380D02*
X108450285Y-68540380D01*
X108831238Y-68540380D01*
X108926476Y-68588000D01*
X108974095Y-68635619D01*
X109021714Y-68730857D01*
X109021714Y-68873714D01*
X108974095Y-68968952D01*
X108926476Y-69016571D01*
X108831238Y-69064190D01*
X108450285Y-69064190D01*
X109593142Y-69540380D02*
X109497904Y-69492761D01*
X109450285Y-69445142D01*
X109402666Y-69349904D01*
X109402666Y-69064190D01*
X109450285Y-68968952D01*
X109497904Y-68921333D01*
X109593142Y-68873714D01*
X109736000Y-68873714D01*
X109831238Y-68921333D01*
X109878857Y-68968952D01*
X109926476Y-69064190D01*
X109926476Y-69349904D01*
X109878857Y-69445142D01*
X109831238Y-69492761D01*
X109736000Y-69540380D01*
X109593142Y-69540380D01*
X110355047Y-69540380D02*
X110355047Y-68873714D01*
X110355047Y-69064190D02*
X110402666Y-68968952D01*
X110450285Y-68921333D01*
X110545523Y-68873714D01*
X110640761Y-68873714D01*
X110831238Y-68873714D02*
X111212190Y-68873714D01*
X110974095Y-68540380D02*
X110974095Y-69397523D01*
X111021714Y-69492761D01*
X111116952Y-69540380D01*
X111212190Y-69540380D01*
X112021714Y-68540380D02*
X111545523Y-68540380D01*
X111497904Y-69016571D01*
X111545523Y-68968952D01*
X111640761Y-68921333D01*
X111878857Y-68921333D01*
X111974095Y-68968952D01*
X112021714Y-69016571D01*
X112069333Y-69111809D01*
X112069333Y-69349904D01*
X112021714Y-69445142D01*
X111974095Y-69492761D01*
X111878857Y-69540380D01*
X111640761Y-69540380D01*
X111545523Y-69492761D01*
X111497904Y-69445142D01*
X108450285Y-64460380D02*
X108450285Y-63460380D01*
X108831238Y-63460380D01*
X108926476Y-63508000D01*
X108974095Y-63555619D01*
X109021714Y-63650857D01*
X109021714Y-63793714D01*
X108974095Y-63888952D01*
X108926476Y-63936571D01*
X108831238Y-63984190D01*
X108450285Y-63984190D01*
X109593142Y-64460380D02*
X109497904Y-64412761D01*
X109450285Y-64365142D01*
X109402666Y-64269904D01*
X109402666Y-63984190D01*
X109450285Y-63888952D01*
X109497904Y-63841333D01*
X109593142Y-63793714D01*
X109736000Y-63793714D01*
X109831238Y-63841333D01*
X109878857Y-63888952D01*
X109926476Y-63984190D01*
X109926476Y-64269904D01*
X109878857Y-64365142D01*
X109831238Y-64412761D01*
X109736000Y-64460380D01*
X109593142Y-64460380D01*
X110355047Y-64460380D02*
X110355047Y-63793714D01*
X110355047Y-63984190D02*
X110402666Y-63888952D01*
X110450285Y-63841333D01*
X110545523Y-63793714D01*
X110640761Y-63793714D01*
X110831238Y-63793714D02*
X111212190Y-63793714D01*
X110974095Y-63460380D02*
X110974095Y-64317523D01*
X111021714Y-64412761D01*
X111116952Y-64460380D01*
X111212190Y-64460380D01*
X111974095Y-63793714D02*
X111974095Y-64460380D01*
X111736000Y-63412761D02*
X111497904Y-64127047D01*
X112116952Y-64127047D01*
X108450285Y-59380380D02*
X108450285Y-58380380D01*
X108831238Y-58380380D01*
X108926476Y-58428000D01*
X108974095Y-58475619D01*
X109021714Y-58570857D01*
X109021714Y-58713714D01*
X108974095Y-58808952D01*
X108926476Y-58856571D01*
X108831238Y-58904190D01*
X108450285Y-58904190D01*
X109593142Y-59380380D02*
X109497904Y-59332761D01*
X109450285Y-59285142D01*
X109402666Y-59189904D01*
X109402666Y-58904190D01*
X109450285Y-58808952D01*
X109497904Y-58761333D01*
X109593142Y-58713714D01*
X109736000Y-58713714D01*
X109831238Y-58761333D01*
X109878857Y-58808952D01*
X109926476Y-58904190D01*
X109926476Y-59189904D01*
X109878857Y-59285142D01*
X109831238Y-59332761D01*
X109736000Y-59380380D01*
X109593142Y-59380380D01*
X110355047Y-59380380D02*
X110355047Y-58713714D01*
X110355047Y-58904190D02*
X110402666Y-58808952D01*
X110450285Y-58761333D01*
X110545523Y-58713714D01*
X110640761Y-58713714D01*
X110831238Y-58713714D02*
X111212190Y-58713714D01*
X110974095Y-58380380D02*
X110974095Y-59237523D01*
X111021714Y-59332761D01*
X111116952Y-59380380D01*
X111212190Y-59380380D01*
X111450285Y-58380380D02*
X112069333Y-58380380D01*
X111736000Y-58761333D01*
X111878857Y-58761333D01*
X111974095Y-58808952D01*
X112021714Y-58856571D01*
X112069333Y-58951809D01*
X112069333Y-59189904D01*
X112021714Y-59285142D01*
X111974095Y-59332761D01*
X111878857Y-59380380D01*
X111593142Y-59380380D01*
X111497904Y-59332761D01*
X111450285Y-59285142D01*
X108450285Y-54300380D02*
X108450285Y-53300380D01*
X108831238Y-53300380D01*
X108926476Y-53348000D01*
X108974095Y-53395619D01*
X109021714Y-53490857D01*
X109021714Y-53633714D01*
X108974095Y-53728952D01*
X108926476Y-53776571D01*
X108831238Y-53824190D01*
X108450285Y-53824190D01*
X109593142Y-54300380D02*
X109497904Y-54252761D01*
X109450285Y-54205142D01*
X109402666Y-54109904D01*
X109402666Y-53824190D01*
X109450285Y-53728952D01*
X109497904Y-53681333D01*
X109593142Y-53633714D01*
X109736000Y-53633714D01*
X109831238Y-53681333D01*
X109878857Y-53728952D01*
X109926476Y-53824190D01*
X109926476Y-54109904D01*
X109878857Y-54205142D01*
X109831238Y-54252761D01*
X109736000Y-54300380D01*
X109593142Y-54300380D01*
X110355047Y-54300380D02*
X110355047Y-53633714D01*
X110355047Y-53824190D02*
X110402666Y-53728952D01*
X110450285Y-53681333D01*
X110545523Y-53633714D01*
X110640761Y-53633714D01*
X110831238Y-53633714D02*
X111212190Y-53633714D01*
X110974095Y-53300380D02*
X110974095Y-54157523D01*
X111021714Y-54252761D01*
X111116952Y-54300380D01*
X111212190Y-54300380D01*
X111497904Y-53395619D02*
X111545523Y-53348000D01*
X111640761Y-53300380D01*
X111878857Y-53300380D01*
X111974095Y-53348000D01*
X112021714Y-53395619D01*
X112069333Y-53490857D01*
X112069333Y-53586095D01*
X112021714Y-53728952D01*
X111450285Y-54300380D01*
X112069333Y-54300380D01*
X108450285Y-49220380D02*
X108450285Y-48220380D01*
X108831238Y-48220380D01*
X108926476Y-48268000D01*
X108974095Y-48315619D01*
X109021714Y-48410857D01*
X109021714Y-48553714D01*
X108974095Y-48648952D01*
X108926476Y-48696571D01*
X108831238Y-48744190D01*
X108450285Y-48744190D01*
X109593142Y-49220380D02*
X109497904Y-49172761D01*
X109450285Y-49125142D01*
X109402666Y-49029904D01*
X109402666Y-48744190D01*
X109450285Y-48648952D01*
X109497904Y-48601333D01*
X109593142Y-48553714D01*
X109736000Y-48553714D01*
X109831238Y-48601333D01*
X109878857Y-48648952D01*
X109926476Y-48744190D01*
X109926476Y-49029904D01*
X109878857Y-49125142D01*
X109831238Y-49172761D01*
X109736000Y-49220380D01*
X109593142Y-49220380D01*
X110355047Y-49220380D02*
X110355047Y-48553714D01*
X110355047Y-48744190D02*
X110402666Y-48648952D01*
X110450285Y-48601333D01*
X110545523Y-48553714D01*
X110640761Y-48553714D01*
X110831238Y-48553714D02*
X111212190Y-48553714D01*
X110974095Y-48220380D02*
X110974095Y-49077523D01*
X111021714Y-49172761D01*
X111116952Y-49220380D01*
X111212190Y-49220380D01*
X112069333Y-49220380D02*
X111497904Y-49220380D01*
X111783619Y-49220380D02*
X111783619Y-48220380D01*
X111688380Y-48363238D01*
X111593142Y-48458476D01*
X111497904Y-48506095D01*
X121864380Y-85304190D02*
X120864380Y-85304190D01*
X120959619Y-84875619D02*
X120912000Y-84828000D01*
X120864380Y-84732761D01*
X120864380Y-84494666D01*
X120912000Y-84399428D01*
X120959619Y-84351809D01*
X121054857Y-84304190D01*
X121150095Y-84304190D01*
X121292952Y-84351809D01*
X121864380Y-84923238D01*
X121864380Y-84304190D01*
X121769142Y-83304190D02*
X121816761Y-83351809D01*
X121864380Y-83494666D01*
X121864380Y-83589904D01*
X121816761Y-83732761D01*
X121721523Y-83828000D01*
X121626285Y-83875619D01*
X121435809Y-83923238D01*
X121292952Y-83923238D01*
X121102476Y-83875619D01*
X121007238Y-83828000D01*
X120912000Y-83732761D01*
X120864380Y-83589904D01*
X120864380Y-83494666D01*
X120912000Y-83351809D01*
X120959619Y-83304190D01*
D10*
%TO.C,SW1*%
X137144000Y-66968000D02*
X141644000Y-66968000D01*
X135894000Y-62968000D02*
X135894000Y-64468000D01*
X141644000Y-60468000D02*
X137144000Y-60468000D01*
X142894000Y-64468000D02*
X142894000Y-62968000D01*
%TO.C,U1*%
X128635000Y-49825000D02*
G75*
G02*
X126635000Y-49825000I-1000000J0D01*
G01*
X126635000Y-49825000D02*
X124985000Y-49825000D01*
X124985000Y-49825000D02*
X124985000Y-85505000D01*
X124985000Y-85505000D02*
X130285000Y-85505000D01*
X130285000Y-85505000D02*
X130285000Y-49825000D01*
X130285000Y-49825000D02*
X128635000Y-49825000D01*
X122495000Y-49765000D02*
X122495000Y-85565000D01*
X122495000Y-85565000D02*
X132775000Y-85565000D01*
X132775000Y-85565000D02*
X132775000Y-49765000D01*
X132775000Y-49765000D02*
X122495000Y-49765000D01*
%TO.C,J8*%
X143062000Y-69282000D02*
X140402000Y-69282000D01*
X143062000Y-71882000D02*
X143062000Y-69282000D01*
X140402000Y-71882000D02*
X140402000Y-69282000D01*
X143062000Y-71882000D02*
X140402000Y-71882000D01*
X143062000Y-73152000D02*
X143062000Y-74482000D01*
X143062000Y-74482000D02*
X141732000Y-74482000D01*
%TO.C,J7*%
X108525000Y-70425000D02*
X108525000Y-73085000D01*
X116205000Y-70425000D02*
X108525000Y-70425000D01*
X116205000Y-73085000D02*
X108525000Y-73085000D01*
X116205000Y-70425000D02*
X116205000Y-73085000D01*
X117475000Y-70425000D02*
X118805000Y-70425000D01*
X118805000Y-70425000D02*
X118805000Y-71755000D01*
%TO.C,J6*%
X108525000Y-65345000D02*
X108525000Y-68005000D01*
X116205000Y-65345000D02*
X108525000Y-65345000D01*
X116205000Y-68005000D02*
X108525000Y-68005000D01*
X116205000Y-65345000D02*
X116205000Y-68005000D01*
X117475000Y-65345000D02*
X118805000Y-65345000D01*
X118805000Y-65345000D02*
X118805000Y-66675000D01*
%TO.C,J5*%
X108525000Y-60265000D02*
X108525000Y-62925000D01*
X116205000Y-60265000D02*
X108525000Y-60265000D01*
X116205000Y-62925000D02*
X108525000Y-62925000D01*
X116205000Y-60265000D02*
X116205000Y-62925000D01*
X117475000Y-60265000D02*
X118805000Y-60265000D01*
X118805000Y-60265000D02*
X118805000Y-61595000D01*
%TO.C,J4*%
X108525000Y-55185000D02*
X108525000Y-57845000D01*
X116205000Y-55185000D02*
X108525000Y-55185000D01*
X116205000Y-57845000D02*
X108525000Y-57845000D01*
X116205000Y-55185000D02*
X116205000Y-57845000D01*
X117475000Y-55185000D02*
X118805000Y-55185000D01*
X118805000Y-55185000D02*
X118805000Y-56515000D01*
%TO.C,J3*%
X108398000Y-50105000D02*
X108398000Y-52765000D01*
X116078000Y-50105000D02*
X108398000Y-50105000D01*
X116078000Y-52765000D02*
X108398000Y-52765000D01*
X116078000Y-50105000D02*
X116078000Y-52765000D01*
X117348000Y-50105000D02*
X118678000Y-50105000D01*
X118678000Y-50105000D02*
X118678000Y-51435000D01*
%TO.C,J2*%
X120202000Y-80458000D02*
X117542000Y-80458000D01*
X120202000Y-83058000D02*
X120202000Y-80458000D01*
X117542000Y-83058000D02*
X117542000Y-80458000D01*
X120202000Y-83058000D02*
X117542000Y-83058000D01*
X120202000Y-84328000D02*
X120202000Y-85658000D01*
X120202000Y-85658000D02*
X118872000Y-85658000D01*
%TO.C,J1*%
X142046000Y-85150000D02*
X142046000Y-82490000D01*
X139446000Y-85150000D02*
X142046000Y-85150000D01*
X139446000Y-82490000D02*
X142046000Y-82490000D01*
X139446000Y-85150000D02*
X139446000Y-82490000D01*
X138176000Y-85150000D02*
X136846000Y-85150000D01*
X136846000Y-85150000D02*
X136846000Y-83820000D01*
%TO.C,SW1*%
D11*
X134810666Y-68476761D02*
X134953523Y-68524380D01*
X135191619Y-68524380D01*
X135286857Y-68476761D01*
X135334476Y-68429142D01*
X135382095Y-68333904D01*
X135382095Y-68238666D01*
X135334476Y-68143428D01*
X135286857Y-68095809D01*
X135191619Y-68048190D01*
X135001142Y-68000571D01*
X134905904Y-67952952D01*
X134858285Y-67905333D01*
X134810666Y-67810095D01*
X134810666Y-67714857D01*
X134858285Y-67619619D01*
X134905904Y-67572000D01*
X135001142Y-67524380D01*
X135239238Y-67524380D01*
X135382095Y-67572000D01*
X135715428Y-67524380D02*
X135953523Y-68524380D01*
X136144000Y-67810095D01*
X136334476Y-68524380D01*
X136572571Y-67524380D01*
X137477333Y-68524380D02*
X136905904Y-68524380D01*
X137191619Y-68524380D02*
X137191619Y-67524380D01*
X137096380Y-67667238D01*
X137001142Y-67762476D01*
X136905904Y-67810095D01*
%TO.C,H2*%
X106934095Y-79192380D02*
X106934095Y-78192380D01*
X106934095Y-78668571D02*
X107505523Y-78668571D01*
X107505523Y-79192380D02*
X107505523Y-78192380D01*
X107934095Y-78287619D02*
X107981714Y-78240000D01*
X108076952Y-78192380D01*
X108315047Y-78192380D01*
X108410285Y-78240000D01*
X108457904Y-78287619D01*
X108505523Y-78382857D01*
X108505523Y-78478095D01*
X108457904Y-78620952D01*
X107886476Y-79192380D01*
X108505523Y-79192380D01*
%TO.C,H1*%
X143002095Y-58364380D02*
X143002095Y-57364380D01*
X143002095Y-57840571D02*
X143573523Y-57840571D01*
X143573523Y-58364380D02*
X143573523Y-57364380D01*
X144573523Y-58364380D02*
X144002095Y-58364380D01*
X144287809Y-58364380D02*
X144287809Y-57364380D01*
X144192571Y-57507238D01*
X144097333Y-57602476D01*
X144002095Y-57650095D01*
%TO.C,U1*%
X126873095Y-48277380D02*
X126873095Y-49086904D01*
X126920714Y-49182142D01*
X126968333Y-49229761D01*
X127063571Y-49277380D01*
X127254047Y-49277380D01*
X127349285Y-49229761D01*
X127396904Y-49182142D01*
X127444523Y-49086904D01*
X127444523Y-48277380D01*
X128444523Y-49277380D02*
X127873095Y-49277380D01*
X128158809Y-49277380D02*
X128158809Y-48277380D01*
X128063571Y-48420238D01*
X127968333Y-48515476D01*
X127873095Y-48563095D01*
%TO.C,J8*%
X138858666Y-69556380D02*
X138858666Y-70270666D01*
X138811047Y-70413523D01*
X138715809Y-70508761D01*
X138572952Y-70556380D01*
X138477714Y-70556380D01*
X139477714Y-69984952D02*
X139382476Y-69937333D01*
X139334857Y-69889714D01*
X139287238Y-69794476D01*
X139287238Y-69746857D01*
X139334857Y-69651619D01*
X139382476Y-69604000D01*
X139477714Y-69556380D01*
X139668190Y-69556380D01*
X139763428Y-69604000D01*
X139811047Y-69651619D01*
X139858666Y-69746857D01*
X139858666Y-69794476D01*
X139811047Y-69889714D01*
X139763428Y-69937333D01*
X139668190Y-69984952D01*
X139477714Y-69984952D01*
X139382476Y-70032571D01*
X139334857Y-70080190D01*
X139287238Y-70175428D01*
X139287238Y-70365904D01*
X139334857Y-70461142D01*
X139382476Y-70508761D01*
X139477714Y-70556380D01*
X139668190Y-70556380D01*
X139763428Y-70508761D01*
X139811047Y-70461142D01*
X139858666Y-70365904D01*
X139858666Y-70175428D01*
X139811047Y-70080190D01*
X139763428Y-70032571D01*
X139668190Y-69984952D01*
%TO.C,J7*%
X119471666Y-71207380D02*
X119471666Y-71921666D01*
X119424047Y-72064523D01*
X119328809Y-72159761D01*
X119185952Y-72207380D01*
X119090714Y-72207380D01*
X119852619Y-71207380D02*
X120519285Y-71207380D01*
X120090714Y-72207380D01*
%TO.C,J6*%
X119471666Y-66127380D02*
X119471666Y-66841666D01*
X119424047Y-66984523D01*
X119328809Y-67079761D01*
X119185952Y-67127380D01*
X119090714Y-67127380D01*
X120376428Y-66127380D02*
X120185952Y-66127380D01*
X120090714Y-66175000D01*
X120043095Y-66222619D01*
X119947857Y-66365476D01*
X119900238Y-66555952D01*
X119900238Y-66936904D01*
X119947857Y-67032142D01*
X119995476Y-67079761D01*
X120090714Y-67127380D01*
X120281190Y-67127380D01*
X120376428Y-67079761D01*
X120424047Y-67032142D01*
X120471666Y-66936904D01*
X120471666Y-66698809D01*
X120424047Y-66603571D01*
X120376428Y-66555952D01*
X120281190Y-66508333D01*
X120090714Y-66508333D01*
X119995476Y-66555952D01*
X119947857Y-66603571D01*
X119900238Y-66698809D01*
%TO.C,J5*%
X119471666Y-61047380D02*
X119471666Y-61761666D01*
X119424047Y-61904523D01*
X119328809Y-61999761D01*
X119185952Y-62047380D01*
X119090714Y-62047380D01*
X120424047Y-61047380D02*
X119947857Y-61047380D01*
X119900238Y-61523571D01*
X119947857Y-61475952D01*
X120043095Y-61428333D01*
X120281190Y-61428333D01*
X120376428Y-61475952D01*
X120424047Y-61523571D01*
X120471666Y-61618809D01*
X120471666Y-61856904D01*
X120424047Y-61952142D01*
X120376428Y-61999761D01*
X120281190Y-62047380D01*
X120043095Y-62047380D01*
X119947857Y-61999761D01*
X119900238Y-61952142D01*
%TO.C,J4*%
X119471666Y-55967380D02*
X119471666Y-56681666D01*
X119424047Y-56824523D01*
X119328809Y-56919761D01*
X119185952Y-56967380D01*
X119090714Y-56967380D01*
X120376428Y-56300714D02*
X120376428Y-56967380D01*
X120138333Y-55919761D02*
X119900238Y-56634047D01*
X120519285Y-56634047D01*
%TO.C,J3*%
X119344666Y-50887380D02*
X119344666Y-51601666D01*
X119297047Y-51744523D01*
X119201809Y-51839761D01*
X119058952Y-51887380D01*
X118963714Y-51887380D01*
X119725619Y-50887380D02*
X120344666Y-50887380D01*
X120011333Y-51268333D01*
X120154190Y-51268333D01*
X120249428Y-51315952D01*
X120297047Y-51363571D01*
X120344666Y-51458809D01*
X120344666Y-51696904D01*
X120297047Y-51792142D01*
X120249428Y-51839761D01*
X120154190Y-51887380D01*
X119868476Y-51887380D01*
X119773238Y-51839761D01*
X119725619Y-51792142D01*
%TO.C,J2*%
X121078666Y-80732380D02*
X121078666Y-81446666D01*
X121031047Y-81589523D01*
X120935809Y-81684761D01*
X120792952Y-81732380D01*
X120697714Y-81732380D01*
X121507238Y-80827619D02*
X121554857Y-80780000D01*
X121650095Y-80732380D01*
X121888190Y-80732380D01*
X121983428Y-80780000D01*
X122031047Y-80827619D01*
X122078666Y-80922857D01*
X122078666Y-81018095D01*
X122031047Y-81160952D01*
X121459619Y-81732380D01*
X122078666Y-81732380D01*
%TO.C,J1*%
X135302666Y-83272380D02*
X135302666Y-83986666D01*
X135255047Y-84129523D01*
X135159809Y-84224761D01*
X135016952Y-84272380D01*
X134921714Y-84272380D01*
X136302666Y-84272380D02*
X135731238Y-84272380D01*
X136016952Y-84272380D02*
X136016952Y-83272380D01*
X135921714Y-83415238D01*
X135826476Y-83510476D01*
X135731238Y-83558095D01*
%TD*%
M02*
