%TF.GenerationSoftware,KiCad,Pcbnew,(5.1.6)-1*%
%TF.CreationDate,2020-09-17T22:35:37+02:00*%
%TF.ProjectId,gpioexpander4,6770696f-6578-4706-916e-646572342e6b,rev?*%
%TF.SameCoordinates,Original*%
%TF.FileFunction,Legend,Bot*%
%TF.FilePolarity,Positive*%
%FSLAX46Y46*%
G04 Gerber Fmt 4.6, Leading zero omitted, Abs format (unit mm)*
G04 Created by KiCad (PCBNEW (5.1.6)-1) date 2020-09-17 22:35:37*
%MOMM*%
%LPD*%
G01*
G04 APERTURE LIST*
%ADD10C,0.150000*%
%ADD11C,0.120000*%
G04 APERTURE END LIST*
D10*
X129492285Y-76747666D02*
X129016095Y-76747666D01*
X129587523Y-77033380D02*
X129254190Y-76033380D01*
X128920857Y-77033380D01*
X128635142Y-76128619D02*
X128587523Y-76081000D01*
X128492285Y-76033380D01*
X128254190Y-76033380D01*
X128158952Y-76081000D01*
X128111333Y-76128619D01*
X128063714Y-76223857D01*
X128063714Y-76319095D01*
X128111333Y-76461952D01*
X128682761Y-77033380D01*
X128063714Y-77033380D01*
X129492285Y-79922666D02*
X129016095Y-79922666D01*
X129587523Y-80208380D02*
X129254190Y-79208380D01*
X128920857Y-80208380D01*
X128063714Y-80208380D02*
X128635142Y-80208380D01*
X128349428Y-80208380D02*
X128349428Y-79208380D01*
X128444666Y-79351238D01*
X128539904Y-79446476D01*
X128635142Y-79494095D01*
X129492285Y-82970666D02*
X129016095Y-82970666D01*
X129587523Y-83256380D02*
X129254190Y-82256380D01*
X128920857Y-83256380D01*
X128397047Y-82256380D02*
X128301809Y-82256380D01*
X128206571Y-82304000D01*
X128158952Y-82351619D01*
X128111333Y-82446857D01*
X128063714Y-82637333D01*
X128063714Y-82875428D01*
X128111333Y-83065904D01*
X128158952Y-83161142D01*
X128206571Y-83208761D01*
X128301809Y-83256380D01*
X128397047Y-83256380D01*
X128492285Y-83208761D01*
X128539904Y-83161142D01*
X128587523Y-83065904D01*
X128635142Y-82875428D01*
X128635142Y-82637333D01*
X128587523Y-82446857D01*
X128539904Y-82351619D01*
X128492285Y-82304000D01*
X128397047Y-82256380D01*
X129888952Y-75636380D02*
X129888952Y-74636380D01*
X129412761Y-75636380D02*
X129412761Y-74636380D01*
X129174666Y-74636380D01*
X129031809Y-74684000D01*
X128936571Y-74779238D01*
X128888952Y-74874476D01*
X128841333Y-75064952D01*
X128841333Y-75207809D01*
X128888952Y-75398285D01*
X128936571Y-75493523D01*
X129031809Y-75588761D01*
X129174666Y-75636380D01*
X129412761Y-75636380D01*
X128650857Y-75731619D02*
X127888952Y-75731619D01*
X127174666Y-75636380D02*
X127650857Y-75636380D01*
X127650857Y-74636380D01*
X126650857Y-74636380D02*
X126460380Y-74636380D01*
X126365142Y-74684000D01*
X126269904Y-74779238D01*
X126222285Y-74969714D01*
X126222285Y-75303047D01*
X126269904Y-75493523D01*
X126365142Y-75588761D01*
X126460380Y-75636380D01*
X126650857Y-75636380D01*
X126746095Y-75588761D01*
X126841333Y-75493523D01*
X126888952Y-75303047D01*
X126888952Y-74969714D01*
X126841333Y-74779238D01*
X126746095Y-74684000D01*
X126650857Y-74636380D01*
X125888952Y-74636380D02*
X125650857Y-75636380D01*
X125460380Y-74922095D01*
X125269904Y-75636380D01*
X125031809Y-74636380D01*
X142446285Y-80430666D02*
X141970095Y-80430666D01*
X142541523Y-80716380D02*
X142208190Y-79716380D01*
X141874857Y-80716380D01*
X141351047Y-79716380D02*
X141255809Y-79716380D01*
X141160571Y-79764000D01*
X141112952Y-79811619D01*
X141065333Y-79906857D01*
X141017714Y-80097333D01*
X141017714Y-80335428D01*
X141065333Y-80525904D01*
X141112952Y-80621142D01*
X141160571Y-80668761D01*
X141255809Y-80716380D01*
X141351047Y-80716380D01*
X141446285Y-80668761D01*
X141493904Y-80621142D01*
X141541523Y-80525904D01*
X141589142Y-80335428D01*
X141589142Y-80097333D01*
X141541523Y-79906857D01*
X141493904Y-79811619D01*
X141446285Y-79764000D01*
X141351047Y-79716380D01*
X142446285Y-78398666D02*
X141970095Y-78398666D01*
X142541523Y-78684380D02*
X142208190Y-77684380D01*
X141874857Y-78684380D01*
X141017714Y-78684380D02*
X141589142Y-78684380D01*
X141303428Y-78684380D02*
X141303428Y-77684380D01*
X141398666Y-77827238D01*
X141493904Y-77922476D01*
X141589142Y-77970095D01*
X142446285Y-76366666D02*
X141970095Y-76366666D01*
X142541523Y-76652380D02*
X142208190Y-75652380D01*
X141874857Y-76652380D01*
X141589142Y-75747619D02*
X141541523Y-75700000D01*
X141446285Y-75652380D01*
X141208190Y-75652380D01*
X141112952Y-75700000D01*
X141065333Y-75747619D01*
X141017714Y-75842857D01*
X141017714Y-75938095D01*
X141065333Y-76080952D01*
X141636761Y-76652380D01*
X141017714Y-76652380D01*
X143811047Y-57999380D02*
X143811047Y-58713666D01*
X143858666Y-58856523D01*
X143953904Y-58951761D01*
X144096761Y-58999380D01*
X144192000Y-58999380D01*
X142858666Y-58999380D02*
X143334857Y-58999380D01*
X143334857Y-57999380D01*
X141953904Y-58904142D02*
X142001523Y-58951761D01*
X142144380Y-58999380D01*
X142239619Y-58999380D01*
X142382476Y-58951761D01*
X142477714Y-58856523D01*
X142525333Y-58761285D01*
X142572952Y-58570809D01*
X142572952Y-58427952D01*
X142525333Y-58237476D01*
X142477714Y-58142238D01*
X142382476Y-58047000D01*
X142239619Y-57999380D01*
X142144380Y-57999380D01*
X142001523Y-58047000D01*
X141953904Y-58094619D01*
X141239619Y-57999380D02*
X141239619Y-58713666D01*
X141287238Y-58856523D01*
X141382476Y-58951761D01*
X141525333Y-58999380D01*
X141620571Y-58999380D01*
X140287238Y-58999380D02*
X140763428Y-58999380D01*
X140763428Y-57999380D01*
X139382476Y-58904142D02*
X139430095Y-58951761D01*
X139572952Y-58999380D01*
X139668190Y-58999380D01*
X139811047Y-58951761D01*
X139906285Y-58856523D01*
X139953904Y-58761285D01*
X140001523Y-58570809D01*
X140001523Y-58427952D01*
X139953904Y-58237476D01*
X139906285Y-58142238D01*
X139811047Y-58047000D01*
X139668190Y-57999380D01*
X139572952Y-57999380D01*
X139430095Y-58047000D01*
X139382476Y-58094619D01*
X138668190Y-57999380D02*
X138668190Y-58713666D01*
X138715809Y-58856523D01*
X138811047Y-58951761D01*
X138953904Y-58999380D01*
X139049142Y-58999380D01*
X137715809Y-58999380D02*
X138192000Y-58999380D01*
X138192000Y-57999380D01*
X136811047Y-58904142D02*
X136858666Y-58951761D01*
X137001523Y-58999380D01*
X137096761Y-58999380D01*
X137239619Y-58951761D01*
X137334857Y-58856523D01*
X137382476Y-58761285D01*
X137430095Y-58570809D01*
X137430095Y-58427952D01*
X137382476Y-58237476D01*
X137334857Y-58142238D01*
X137239619Y-58047000D01*
X137096761Y-57999380D01*
X137001523Y-57999380D01*
X136858666Y-58047000D01*
X136811047Y-58094619D01*
X136096761Y-57999380D02*
X136096761Y-58713666D01*
X136144380Y-58856523D01*
X136239619Y-58951761D01*
X136382476Y-58999380D01*
X136477714Y-58999380D01*
X135144380Y-58999380D02*
X135620571Y-58999380D01*
X135620571Y-57999380D01*
X134239619Y-58904142D02*
X134287238Y-58951761D01*
X134430095Y-58999380D01*
X134525333Y-58999380D01*
X134668190Y-58951761D01*
X134763428Y-58856523D01*
X134811047Y-58761285D01*
X134858666Y-58570809D01*
X134858666Y-58427952D01*
X134811047Y-58237476D01*
X134763428Y-58142238D01*
X134668190Y-58047000D01*
X134525333Y-57999380D01*
X134430095Y-57999380D01*
X134287238Y-58047000D01*
X134239619Y-58094619D01*
X120150000Y-51666428D02*
X120102380Y-51571190D01*
X120102380Y-51428333D01*
X120150000Y-51285476D01*
X120245238Y-51190238D01*
X120340476Y-51142619D01*
X120530952Y-51095000D01*
X120673809Y-51095000D01*
X120864285Y-51142619D01*
X120959523Y-51190238D01*
X121054761Y-51285476D01*
X121102380Y-51428333D01*
X121102380Y-51523571D01*
X121054761Y-51666428D01*
X121007142Y-51714047D01*
X120673809Y-51714047D01*
X120673809Y-51523571D01*
X121102380Y-52142619D02*
X120102380Y-52142619D01*
X120102380Y-52523571D01*
X120150000Y-52618809D01*
X120197619Y-52666428D01*
X120292857Y-52714047D01*
X120435714Y-52714047D01*
X120530952Y-52666428D01*
X120578571Y-52618809D01*
X120626190Y-52523571D01*
X120626190Y-52142619D01*
X121102380Y-53142619D02*
X120102380Y-53142619D01*
X120102380Y-53809285D02*
X120102380Y-53999761D01*
X120150000Y-54095000D01*
X120245238Y-54190238D01*
X120435714Y-54237857D01*
X120769047Y-54237857D01*
X120959523Y-54190238D01*
X121054761Y-54095000D01*
X121102380Y-53999761D01*
X121102380Y-53809285D01*
X121054761Y-53714047D01*
X120959523Y-53618809D01*
X120769047Y-53571190D01*
X120435714Y-53571190D01*
X120245238Y-53618809D01*
X120150000Y-53714047D01*
X120102380Y-53809285D01*
X120578571Y-55428333D02*
X120578571Y-55761666D01*
X121102380Y-55904523D02*
X121102380Y-55428333D01*
X120102380Y-55428333D01*
X120102380Y-55904523D01*
X121102380Y-56237857D02*
X120435714Y-56761666D01*
X120435714Y-56237857D02*
X121102380Y-56761666D01*
X120435714Y-57142619D02*
X121435714Y-57142619D01*
X120483333Y-57142619D02*
X120435714Y-57237857D01*
X120435714Y-57428333D01*
X120483333Y-57523571D01*
X120530952Y-57571190D01*
X120626190Y-57618809D01*
X120911904Y-57618809D01*
X121007142Y-57571190D01*
X121054761Y-57523571D01*
X121102380Y-57428333D01*
X121102380Y-57237857D01*
X121054761Y-57142619D01*
X121102380Y-58475952D02*
X120578571Y-58475952D01*
X120483333Y-58428333D01*
X120435714Y-58333095D01*
X120435714Y-58142619D01*
X120483333Y-58047380D01*
X121054761Y-58475952D02*
X121102380Y-58380714D01*
X121102380Y-58142619D01*
X121054761Y-58047380D01*
X120959523Y-57999761D01*
X120864285Y-57999761D01*
X120769047Y-58047380D01*
X120721428Y-58142619D01*
X120721428Y-58380714D01*
X120673809Y-58475952D01*
X120435714Y-58952142D02*
X121102380Y-58952142D01*
X120530952Y-58952142D02*
X120483333Y-58999761D01*
X120435714Y-59095000D01*
X120435714Y-59237857D01*
X120483333Y-59333095D01*
X120578571Y-59380714D01*
X121102380Y-59380714D01*
X121102380Y-60285476D02*
X120102380Y-60285476D01*
X121054761Y-60285476D02*
X121102380Y-60190238D01*
X121102380Y-59999761D01*
X121054761Y-59904523D01*
X121007142Y-59856904D01*
X120911904Y-59809285D01*
X120626190Y-59809285D01*
X120530952Y-59856904D01*
X120483333Y-59904523D01*
X120435714Y-59999761D01*
X120435714Y-60190238D01*
X120483333Y-60285476D01*
X121054761Y-61142619D02*
X121102380Y-61047380D01*
X121102380Y-60856904D01*
X121054761Y-60761666D01*
X120959523Y-60714047D01*
X120578571Y-60714047D01*
X120483333Y-60761666D01*
X120435714Y-60856904D01*
X120435714Y-61047380D01*
X120483333Y-61142619D01*
X120578571Y-61190238D01*
X120673809Y-61190238D01*
X120769047Y-60714047D01*
X121102380Y-61618809D02*
X120435714Y-61618809D01*
X120626190Y-61618809D02*
X120530952Y-61666428D01*
X120483333Y-61714047D01*
X120435714Y-61809285D01*
X120435714Y-61904523D01*
X120435714Y-62904523D02*
X121102380Y-63142619D01*
X120435714Y-63380714D01*
X120435714Y-64190238D02*
X121102380Y-64190238D01*
X120054761Y-63952142D02*
X120769047Y-63714047D01*
X120769047Y-64333095D01*
X121007142Y-64714047D02*
X121054761Y-64761666D01*
X121102380Y-64714047D01*
X121054761Y-64666428D01*
X121007142Y-64714047D01*
X121102380Y-64714047D01*
X121102380Y-65714047D02*
X121102380Y-65142619D01*
X121102380Y-65428333D02*
X120102380Y-65428333D01*
X120245238Y-65333095D01*
X120340476Y-65237857D01*
X120388095Y-65142619D01*
X120102380Y-67190238D02*
X120816666Y-67190238D01*
X120959523Y-67142619D01*
X121054761Y-67047380D01*
X121102380Y-66904523D01*
X121102380Y-66809285D01*
X121102380Y-67666428D02*
X120102380Y-67666428D01*
X121102380Y-68237857D01*
X120102380Y-68237857D01*
X120197619Y-68666428D02*
X120150000Y-68714047D01*
X120102380Y-68809285D01*
X120102380Y-69047380D01*
X120150000Y-69142619D01*
X120197619Y-69190238D01*
X120292857Y-69237857D01*
X120388095Y-69237857D01*
X120530952Y-69190238D01*
X121102380Y-68618809D01*
X121102380Y-69237857D01*
X120102380Y-69856904D02*
X120102380Y-69952142D01*
X120150000Y-70047380D01*
X120197619Y-70095000D01*
X120292857Y-70142619D01*
X120483333Y-70190238D01*
X120721428Y-70190238D01*
X120911904Y-70142619D01*
X121007142Y-70095000D01*
X121054761Y-70047380D01*
X121102380Y-69952142D01*
X121102380Y-69856904D01*
X121054761Y-69761666D01*
X121007142Y-69714047D01*
X120911904Y-69666428D01*
X120721428Y-69618809D01*
X120483333Y-69618809D01*
X120292857Y-69666428D01*
X120197619Y-69714047D01*
X120150000Y-69761666D01*
X120102380Y-69856904D01*
X120197619Y-70571190D02*
X120150000Y-70618809D01*
X120102380Y-70714047D01*
X120102380Y-70952142D01*
X120150000Y-71047380D01*
X120197619Y-71095000D01*
X120292857Y-71142619D01*
X120388095Y-71142619D01*
X120530952Y-71095000D01*
X121102380Y-70523571D01*
X121102380Y-71142619D01*
X120102380Y-71761666D02*
X120102380Y-71856904D01*
X120150000Y-71952142D01*
X120197619Y-71999761D01*
X120292857Y-72047380D01*
X120483333Y-72095000D01*
X120721428Y-72095000D01*
X120911904Y-72047380D01*
X121007142Y-71999761D01*
X121054761Y-71952142D01*
X121102380Y-71856904D01*
X121102380Y-71761666D01*
X121054761Y-71666428D01*
X121007142Y-71618809D01*
X120911904Y-71571190D01*
X120721428Y-71523571D01*
X120483333Y-71523571D01*
X120292857Y-71571190D01*
X120197619Y-71618809D01*
X120150000Y-71666428D01*
X120102380Y-71761666D01*
X143057619Y-80898666D02*
X144057619Y-80898666D01*
X143057619Y-80422476D02*
X144057619Y-80422476D01*
X144057619Y-80184380D01*
X144010000Y-80041523D01*
X143914761Y-79946285D01*
X143819523Y-79898666D01*
X143629047Y-79851047D01*
X143486190Y-79851047D01*
X143295714Y-79898666D01*
X143200476Y-79946285D01*
X143105238Y-80041523D01*
X143057619Y-80184380D01*
X143057619Y-80422476D01*
X142962380Y-79660571D02*
X142962380Y-78898666D01*
X143057619Y-78660571D02*
X144057619Y-78660571D01*
X143581428Y-78660571D02*
X143581428Y-78089142D01*
X143057619Y-78089142D02*
X144057619Y-78089142D01*
X143057619Y-77612952D02*
X144057619Y-77612952D01*
X144010000Y-76612952D02*
X144057619Y-76708190D01*
X144057619Y-76851047D01*
X144010000Y-76993904D01*
X143914761Y-77089142D01*
X143819523Y-77136761D01*
X143629047Y-77184380D01*
X143486190Y-77184380D01*
X143295714Y-77136761D01*
X143200476Y-77089142D01*
X143105238Y-76993904D01*
X143057619Y-76851047D01*
X143057619Y-76755809D01*
X143105238Y-76612952D01*
X143152857Y-76565333D01*
X143486190Y-76565333D01*
X143486190Y-76755809D01*
X143057619Y-76136761D02*
X144057619Y-76136761D01*
X143581428Y-76136761D02*
X143581428Y-75565333D01*
X143057619Y-75565333D02*
X144057619Y-75565333D01*
D11*
%TO.C,R9*%
X127778252Y-77522000D02*
X127255748Y-77522000D01*
X127778252Y-78942000D02*
X127255748Y-78942000D01*
%TO.C,R8*%
X139453252Y-75490000D02*
X138930748Y-75490000D01*
X139453252Y-76910000D02*
X138930748Y-76910000D01*
%TO.C,R7*%
X127760252Y-80570000D02*
X127237748Y-80570000D01*
X127760252Y-81990000D02*
X127237748Y-81990000D01*
%TO.C,R6*%
X139462252Y-77522000D02*
X138939748Y-77522000D01*
X139462252Y-78942000D02*
X138939748Y-78942000D01*
%TO.C,R5*%
X127769252Y-83618000D02*
X127246748Y-83618000D01*
X127769252Y-85038000D02*
X127246748Y-85038000D01*
%TO.C,R4*%
X139444252Y-79554000D02*
X138921748Y-79554000D01*
X139444252Y-80974000D02*
X138921748Y-80974000D01*
%TO.C,R3*%
X136381748Y-73862000D02*
X136904252Y-73862000D01*
X136381748Y-72442000D02*
X136904252Y-72442000D01*
%TO.C,R2*%
X136381748Y-71322000D02*
X136904252Y-71322000D01*
X136381748Y-69902000D02*
X136904252Y-69902000D01*
%TO.C,R1*%
X127306000Y-67801748D02*
X127306000Y-68324252D01*
X128726000Y-67801748D02*
X128726000Y-68324252D01*
%TO.C,R9*%
D10*
X126658666Y-77034380D02*
X126992000Y-76558190D01*
X127230095Y-77034380D02*
X127230095Y-76034380D01*
X126849142Y-76034380D01*
X126753904Y-76082000D01*
X126706285Y-76129619D01*
X126658666Y-76224857D01*
X126658666Y-76367714D01*
X126706285Y-76462952D01*
X126753904Y-76510571D01*
X126849142Y-76558190D01*
X127230095Y-76558190D01*
X126182476Y-77034380D02*
X125992000Y-77034380D01*
X125896761Y-76986761D01*
X125849142Y-76939142D01*
X125753904Y-76796285D01*
X125706285Y-76605809D01*
X125706285Y-76224857D01*
X125753904Y-76129619D01*
X125801523Y-76082000D01*
X125896761Y-76034380D01*
X126087238Y-76034380D01*
X126182476Y-76082000D01*
X126230095Y-76129619D01*
X126277714Y-76224857D01*
X126277714Y-76462952D01*
X126230095Y-76558190D01*
X126182476Y-76605809D01*
X126087238Y-76653428D01*
X125896761Y-76653428D01*
X125801523Y-76605809D01*
X125753904Y-76558190D01*
X125706285Y-76462952D01*
%TO.C,R8*%
X136310666Y-76652380D02*
X136644000Y-76176190D01*
X136882095Y-76652380D02*
X136882095Y-75652380D01*
X136501142Y-75652380D01*
X136405904Y-75700000D01*
X136358285Y-75747619D01*
X136310666Y-75842857D01*
X136310666Y-75985714D01*
X136358285Y-76080952D01*
X136405904Y-76128571D01*
X136501142Y-76176190D01*
X136882095Y-76176190D01*
X135739238Y-76080952D02*
X135834476Y-76033333D01*
X135882095Y-75985714D01*
X135929714Y-75890476D01*
X135929714Y-75842857D01*
X135882095Y-75747619D01*
X135834476Y-75700000D01*
X135739238Y-75652380D01*
X135548761Y-75652380D01*
X135453523Y-75700000D01*
X135405904Y-75747619D01*
X135358285Y-75842857D01*
X135358285Y-75890476D01*
X135405904Y-75985714D01*
X135453523Y-76033333D01*
X135548761Y-76080952D01*
X135739238Y-76080952D01*
X135834476Y-76128571D01*
X135882095Y-76176190D01*
X135929714Y-76271428D01*
X135929714Y-76461904D01*
X135882095Y-76557142D01*
X135834476Y-76604761D01*
X135739238Y-76652380D01*
X135548761Y-76652380D01*
X135453523Y-76604761D01*
X135405904Y-76557142D01*
X135358285Y-76461904D01*
X135358285Y-76271428D01*
X135405904Y-76176190D01*
X135453523Y-76128571D01*
X135548761Y-76080952D01*
%TO.C,R7*%
X126658666Y-80208380D02*
X126992000Y-79732190D01*
X127230095Y-80208380D02*
X127230095Y-79208380D01*
X126849142Y-79208380D01*
X126753904Y-79256000D01*
X126706285Y-79303619D01*
X126658666Y-79398857D01*
X126658666Y-79541714D01*
X126706285Y-79636952D01*
X126753904Y-79684571D01*
X126849142Y-79732190D01*
X127230095Y-79732190D01*
X126325333Y-79208380D02*
X125658666Y-79208380D01*
X126087238Y-80208380D01*
%TO.C,R6*%
X136310666Y-78684380D02*
X136644000Y-78208190D01*
X136882095Y-78684380D02*
X136882095Y-77684380D01*
X136501142Y-77684380D01*
X136405904Y-77732000D01*
X136358285Y-77779619D01*
X136310666Y-77874857D01*
X136310666Y-78017714D01*
X136358285Y-78112952D01*
X136405904Y-78160571D01*
X136501142Y-78208190D01*
X136882095Y-78208190D01*
X135453523Y-77684380D02*
X135644000Y-77684380D01*
X135739238Y-77732000D01*
X135786857Y-77779619D01*
X135882095Y-77922476D01*
X135929714Y-78112952D01*
X135929714Y-78493904D01*
X135882095Y-78589142D01*
X135834476Y-78636761D01*
X135739238Y-78684380D01*
X135548761Y-78684380D01*
X135453523Y-78636761D01*
X135405904Y-78589142D01*
X135358285Y-78493904D01*
X135358285Y-78255809D01*
X135405904Y-78160571D01*
X135453523Y-78112952D01*
X135548761Y-78065333D01*
X135739238Y-78065333D01*
X135834476Y-78112952D01*
X135882095Y-78160571D01*
X135929714Y-78255809D01*
%TO.C,R5*%
X126658666Y-83256380D02*
X126992000Y-82780190D01*
X127230095Y-83256380D02*
X127230095Y-82256380D01*
X126849142Y-82256380D01*
X126753904Y-82304000D01*
X126706285Y-82351619D01*
X126658666Y-82446857D01*
X126658666Y-82589714D01*
X126706285Y-82684952D01*
X126753904Y-82732571D01*
X126849142Y-82780190D01*
X127230095Y-82780190D01*
X125753904Y-82256380D02*
X126230095Y-82256380D01*
X126277714Y-82732571D01*
X126230095Y-82684952D01*
X126134857Y-82637333D01*
X125896761Y-82637333D01*
X125801523Y-82684952D01*
X125753904Y-82732571D01*
X125706285Y-82827809D01*
X125706285Y-83065904D01*
X125753904Y-83161142D01*
X125801523Y-83208761D01*
X125896761Y-83256380D01*
X126134857Y-83256380D01*
X126230095Y-83208761D01*
X126277714Y-83161142D01*
%TO.C,R4*%
X136310666Y-80716380D02*
X136644000Y-80240190D01*
X136882095Y-80716380D02*
X136882095Y-79716380D01*
X136501142Y-79716380D01*
X136405904Y-79764000D01*
X136358285Y-79811619D01*
X136310666Y-79906857D01*
X136310666Y-80049714D01*
X136358285Y-80144952D01*
X136405904Y-80192571D01*
X136501142Y-80240190D01*
X136882095Y-80240190D01*
X135453523Y-80049714D02*
X135453523Y-80716380D01*
X135691619Y-79668761D02*
X135929714Y-80383047D01*
X135310666Y-80383047D01*
%TO.C,R3*%
X134278666Y-73604380D02*
X134612000Y-73128190D01*
X134850095Y-73604380D02*
X134850095Y-72604380D01*
X134469142Y-72604380D01*
X134373904Y-72652000D01*
X134326285Y-72699619D01*
X134278666Y-72794857D01*
X134278666Y-72937714D01*
X134326285Y-73032952D01*
X134373904Y-73080571D01*
X134469142Y-73128190D01*
X134850095Y-73128190D01*
X133945333Y-72604380D02*
X133326285Y-72604380D01*
X133659619Y-72985333D01*
X133516761Y-72985333D01*
X133421523Y-73032952D01*
X133373904Y-73080571D01*
X133326285Y-73175809D01*
X133326285Y-73413904D01*
X133373904Y-73509142D01*
X133421523Y-73556761D01*
X133516761Y-73604380D01*
X133802476Y-73604380D01*
X133897714Y-73556761D01*
X133945333Y-73509142D01*
%TO.C,R2*%
X134278666Y-71064380D02*
X134612000Y-70588190D01*
X134850095Y-71064380D02*
X134850095Y-70064380D01*
X134469142Y-70064380D01*
X134373904Y-70112000D01*
X134326285Y-70159619D01*
X134278666Y-70254857D01*
X134278666Y-70397714D01*
X134326285Y-70492952D01*
X134373904Y-70540571D01*
X134469142Y-70588190D01*
X134850095Y-70588190D01*
X133897714Y-70159619D02*
X133850095Y-70112000D01*
X133754857Y-70064380D01*
X133516761Y-70064380D01*
X133421523Y-70112000D01*
X133373904Y-70159619D01*
X133326285Y-70254857D01*
X133326285Y-70350095D01*
X133373904Y-70492952D01*
X133945333Y-71064380D01*
X133326285Y-71064380D01*
%TO.C,R1*%
X126818380Y-67896333D02*
X126342190Y-67563000D01*
X126818380Y-67324904D02*
X125818380Y-67324904D01*
X125818380Y-67705857D01*
X125866000Y-67801095D01*
X125913619Y-67848714D01*
X126008857Y-67896333D01*
X126151714Y-67896333D01*
X126246952Y-67848714D01*
X126294571Y-67801095D01*
X126342190Y-67705857D01*
X126342190Y-67324904D01*
X126818380Y-68848714D02*
X126818380Y-68277285D01*
X126818380Y-68563000D02*
X125818380Y-68563000D01*
X125961238Y-68467761D01*
X126056476Y-68372523D01*
X126104095Y-68277285D01*
%TD*%
M02*
