%TF.GenerationSoftware,KiCad,Pcbnew,(5.1.6)-1*%
%TF.CreationDate,2020-09-06T00:09:38+02:00*%
%TF.ProjectId,gpioexpander4,6770696f-6578-4706-916e-646572342e6b,rev?*%
%TF.SameCoordinates,Original*%
%TF.FileFunction,Legend,Bot*%
%TF.FilePolarity,Positive*%
%FSLAX46Y46*%
G04 Gerber Fmt 4.6, Leading zero omitted, Abs format (unit mm)*
G04 Created by KiCad (PCBNEW (5.1.6)-1) date 2020-09-06 00:09:38*
%MOMM*%
%LPD*%
G01*
G04 APERTURE LIST*
%ADD10C,0.150000*%
%ADD11C,0.120000*%
G04 APERTURE END LIST*
D10*
X129492285Y-82970666D02*
X129016095Y-82970666D01*
X129587523Y-83256380D02*
X129254190Y-82256380D01*
X128920857Y-83256380D01*
X128397047Y-82256380D02*
X128301809Y-82256380D01*
X128206571Y-82304000D01*
X128158952Y-82351619D01*
X128111333Y-82446857D01*
X128063714Y-82637333D01*
X128063714Y-82875428D01*
X128111333Y-83065904D01*
X128158952Y-83161142D01*
X128206571Y-83208761D01*
X128301809Y-83256380D01*
X128397047Y-83256380D01*
X128492285Y-83208761D01*
X128539904Y-83161142D01*
X128587523Y-83065904D01*
X128635142Y-82875428D01*
X128635142Y-82637333D01*
X128587523Y-82446857D01*
X128539904Y-82351619D01*
X128492285Y-82304000D01*
X128397047Y-82256380D01*
X129492285Y-79922666D02*
X129016095Y-79922666D01*
X129587523Y-80208380D02*
X129254190Y-79208380D01*
X128920857Y-80208380D01*
X128063714Y-80208380D02*
X128635142Y-80208380D01*
X128349428Y-80208380D02*
X128349428Y-79208380D01*
X128444666Y-79351238D01*
X128539904Y-79446476D01*
X128635142Y-79494095D01*
X129492285Y-76747666D02*
X129016095Y-76747666D01*
X129587523Y-77033380D02*
X129254190Y-76033380D01*
X128920857Y-77033380D01*
X128635142Y-76128619D02*
X128587523Y-76081000D01*
X128492285Y-76033380D01*
X128254190Y-76033380D01*
X128158952Y-76081000D01*
X128111333Y-76128619D01*
X128063714Y-76223857D01*
X128063714Y-76319095D01*
X128111333Y-76461952D01*
X128682761Y-77033380D01*
X128063714Y-77033380D01*
X142446285Y-80430666D02*
X141970095Y-80430666D01*
X142541523Y-80716380D02*
X142208190Y-79716380D01*
X141874857Y-80716380D01*
X141351047Y-79716380D02*
X141255809Y-79716380D01*
X141160571Y-79764000D01*
X141112952Y-79811619D01*
X141065333Y-79906857D01*
X141017714Y-80097333D01*
X141017714Y-80335428D01*
X141065333Y-80525904D01*
X141112952Y-80621142D01*
X141160571Y-80668761D01*
X141255809Y-80716380D01*
X141351047Y-80716380D01*
X141446285Y-80668761D01*
X141493904Y-80621142D01*
X141541523Y-80525904D01*
X141589142Y-80335428D01*
X141589142Y-80097333D01*
X141541523Y-79906857D01*
X141493904Y-79811619D01*
X141446285Y-79764000D01*
X141351047Y-79716380D01*
X142446285Y-78398666D02*
X141970095Y-78398666D01*
X142541523Y-78684380D02*
X142208190Y-77684380D01*
X141874857Y-78684380D01*
X141017714Y-78684380D02*
X141589142Y-78684380D01*
X141303428Y-78684380D02*
X141303428Y-77684380D01*
X141398666Y-77827238D01*
X141493904Y-77922476D01*
X141589142Y-77970095D01*
X142446285Y-76366666D02*
X141970095Y-76366666D01*
X142541523Y-76652380D02*
X142208190Y-75652380D01*
X141874857Y-76652380D01*
X141589142Y-75747619D02*
X141541523Y-75700000D01*
X141446285Y-75652380D01*
X141208190Y-75652380D01*
X141112952Y-75700000D01*
X141065333Y-75747619D01*
X141017714Y-75842857D01*
X141017714Y-75938095D01*
X141065333Y-76080952D01*
X141636761Y-76652380D01*
X141017714Y-76652380D01*
X118411047Y-74128380D02*
X118411047Y-74842666D01*
X118458666Y-74985523D01*
X118553904Y-75080761D01*
X118696761Y-75128380D01*
X118792000Y-75128380D01*
X117458666Y-75128380D02*
X117934857Y-75128380D01*
X117934857Y-74128380D01*
X116553904Y-75033142D02*
X116601523Y-75080761D01*
X116744380Y-75128380D01*
X116839619Y-75128380D01*
X116982476Y-75080761D01*
X117077714Y-74985523D01*
X117125333Y-74890285D01*
X117172952Y-74699809D01*
X117172952Y-74556952D01*
X117125333Y-74366476D01*
X117077714Y-74271238D01*
X116982476Y-74176000D01*
X116839619Y-74128380D01*
X116744380Y-74128380D01*
X116601523Y-74176000D01*
X116553904Y-74223619D01*
X115839619Y-74128380D02*
X115839619Y-74842666D01*
X115887238Y-74985523D01*
X115982476Y-75080761D01*
X116125333Y-75128380D01*
X116220571Y-75128380D01*
X114887238Y-75128380D02*
X115363428Y-75128380D01*
X115363428Y-74128380D01*
X113982476Y-75033142D02*
X114030095Y-75080761D01*
X114172952Y-75128380D01*
X114268190Y-75128380D01*
X114411047Y-75080761D01*
X114506285Y-74985523D01*
X114553904Y-74890285D01*
X114601523Y-74699809D01*
X114601523Y-74556952D01*
X114553904Y-74366476D01*
X114506285Y-74271238D01*
X114411047Y-74176000D01*
X114268190Y-74128380D01*
X114172952Y-74128380D01*
X114030095Y-74176000D01*
X113982476Y-74223619D01*
X113268190Y-74128380D02*
X113268190Y-74842666D01*
X113315809Y-74985523D01*
X113411047Y-75080761D01*
X113553904Y-75128380D01*
X113649142Y-75128380D01*
X112315809Y-75128380D02*
X112792000Y-75128380D01*
X112792000Y-74128380D01*
X111411047Y-75033142D02*
X111458666Y-75080761D01*
X111601523Y-75128380D01*
X111696761Y-75128380D01*
X111839619Y-75080761D01*
X111934857Y-74985523D01*
X111982476Y-74890285D01*
X112030095Y-74699809D01*
X112030095Y-74556952D01*
X111982476Y-74366476D01*
X111934857Y-74271238D01*
X111839619Y-74176000D01*
X111696761Y-74128380D01*
X111601523Y-74128380D01*
X111458666Y-74176000D01*
X111411047Y-74223619D01*
X110696761Y-74128380D02*
X110696761Y-74842666D01*
X110744380Y-74985523D01*
X110839619Y-75080761D01*
X110982476Y-75128380D01*
X111077714Y-75128380D01*
X109744380Y-75128380D02*
X110220571Y-75128380D01*
X110220571Y-74128380D01*
X108839619Y-75033142D02*
X108887238Y-75080761D01*
X109030095Y-75128380D01*
X109125333Y-75128380D01*
X109268190Y-75080761D01*
X109363428Y-74985523D01*
X109411047Y-74890285D01*
X109458666Y-74699809D01*
X109458666Y-74556952D01*
X109411047Y-74366476D01*
X109363428Y-74271238D01*
X109268190Y-74176000D01*
X109125333Y-74128380D01*
X109030095Y-74128380D01*
X108887238Y-74176000D01*
X108839619Y-74223619D01*
X143057619Y-80898666D02*
X144057619Y-80898666D01*
X143057619Y-80422476D02*
X144057619Y-80422476D01*
X144057619Y-80184380D01*
X144010000Y-80041523D01*
X143914761Y-79946285D01*
X143819523Y-79898666D01*
X143629047Y-79851047D01*
X143486190Y-79851047D01*
X143295714Y-79898666D01*
X143200476Y-79946285D01*
X143105238Y-80041523D01*
X143057619Y-80184380D01*
X143057619Y-80422476D01*
X142962380Y-79660571D02*
X142962380Y-78898666D01*
X143057619Y-78660571D02*
X144057619Y-78660571D01*
X143581428Y-78660571D02*
X143581428Y-78089142D01*
X143057619Y-78089142D02*
X144057619Y-78089142D01*
X143057619Y-77612952D02*
X144057619Y-77612952D01*
X144010000Y-76612952D02*
X144057619Y-76708190D01*
X144057619Y-76851047D01*
X144010000Y-76993904D01*
X143914761Y-77089142D01*
X143819523Y-77136761D01*
X143629047Y-77184380D01*
X143486190Y-77184380D01*
X143295714Y-77136761D01*
X143200476Y-77089142D01*
X143105238Y-76993904D01*
X143057619Y-76851047D01*
X143057619Y-76755809D01*
X143105238Y-76612952D01*
X143152857Y-76565333D01*
X143486190Y-76565333D01*
X143486190Y-76755809D01*
X143057619Y-76136761D02*
X144057619Y-76136761D01*
X143581428Y-76136761D02*
X143581428Y-75565333D01*
X143057619Y-75565333D02*
X144057619Y-75565333D01*
X129888952Y-75636380D02*
X129888952Y-74636380D01*
X129412761Y-75636380D02*
X129412761Y-74636380D01*
X129174666Y-74636380D01*
X129031809Y-74684000D01*
X128936571Y-74779238D01*
X128888952Y-74874476D01*
X128841333Y-75064952D01*
X128841333Y-75207809D01*
X128888952Y-75398285D01*
X128936571Y-75493523D01*
X129031809Y-75588761D01*
X129174666Y-75636380D01*
X129412761Y-75636380D01*
X128650857Y-75731619D02*
X127888952Y-75731619D01*
X127174666Y-75636380D02*
X127650857Y-75636380D01*
X127650857Y-74636380D01*
X126650857Y-74636380D02*
X126460380Y-74636380D01*
X126365142Y-74684000D01*
X126269904Y-74779238D01*
X126222285Y-74969714D01*
X126222285Y-75303047D01*
X126269904Y-75493523D01*
X126365142Y-75588761D01*
X126460380Y-75636380D01*
X126650857Y-75636380D01*
X126746095Y-75588761D01*
X126841333Y-75493523D01*
X126888952Y-75303047D01*
X126888952Y-74969714D01*
X126841333Y-74779238D01*
X126746095Y-74684000D01*
X126650857Y-74636380D01*
X125888952Y-74636380D02*
X125650857Y-75636380D01*
X125460380Y-74922095D01*
X125269904Y-75636380D01*
X125031809Y-74636380D01*
D11*
%TO.C,R9*%
X127778252Y-77522000D02*
X127255748Y-77522000D01*
X127778252Y-78942000D02*
X127255748Y-78942000D01*
%TO.C,R8*%
X139453252Y-75490000D02*
X138930748Y-75490000D01*
X139453252Y-76910000D02*
X138930748Y-76910000D01*
%TO.C,R7*%
X127760252Y-80570000D02*
X127237748Y-80570000D01*
X127760252Y-81990000D02*
X127237748Y-81990000D01*
%TO.C,R6*%
X139462252Y-77522000D02*
X138939748Y-77522000D01*
X139462252Y-78942000D02*
X138939748Y-78942000D01*
%TO.C,R5*%
X127769252Y-83618000D02*
X127246748Y-83618000D01*
X127769252Y-85038000D02*
X127246748Y-85038000D01*
%TO.C,R4*%
X139444252Y-79554000D02*
X138921748Y-79554000D01*
X139444252Y-80974000D02*
X138921748Y-80974000D01*
%TO.C,R3*%
X136381748Y-73862000D02*
X136904252Y-73862000D01*
X136381748Y-72442000D02*
X136904252Y-72442000D01*
%TO.C,R2*%
X136381748Y-71322000D02*
X136904252Y-71322000D01*
X136381748Y-69902000D02*
X136904252Y-69902000D01*
%TO.C,R1*%
X127306000Y-67801748D02*
X127306000Y-68324252D01*
X128726000Y-67801748D02*
X128726000Y-68324252D01*
%TO.C,R9*%
D10*
X126658666Y-77034380D02*
X126992000Y-76558190D01*
X127230095Y-77034380D02*
X127230095Y-76034380D01*
X126849142Y-76034380D01*
X126753904Y-76082000D01*
X126706285Y-76129619D01*
X126658666Y-76224857D01*
X126658666Y-76367714D01*
X126706285Y-76462952D01*
X126753904Y-76510571D01*
X126849142Y-76558190D01*
X127230095Y-76558190D01*
X126182476Y-77034380D02*
X125992000Y-77034380D01*
X125896761Y-76986761D01*
X125849142Y-76939142D01*
X125753904Y-76796285D01*
X125706285Y-76605809D01*
X125706285Y-76224857D01*
X125753904Y-76129619D01*
X125801523Y-76082000D01*
X125896761Y-76034380D01*
X126087238Y-76034380D01*
X126182476Y-76082000D01*
X126230095Y-76129619D01*
X126277714Y-76224857D01*
X126277714Y-76462952D01*
X126230095Y-76558190D01*
X126182476Y-76605809D01*
X126087238Y-76653428D01*
X125896761Y-76653428D01*
X125801523Y-76605809D01*
X125753904Y-76558190D01*
X125706285Y-76462952D01*
%TO.C,R8*%
X136310666Y-76652380D02*
X136644000Y-76176190D01*
X136882095Y-76652380D02*
X136882095Y-75652380D01*
X136501142Y-75652380D01*
X136405904Y-75700000D01*
X136358285Y-75747619D01*
X136310666Y-75842857D01*
X136310666Y-75985714D01*
X136358285Y-76080952D01*
X136405904Y-76128571D01*
X136501142Y-76176190D01*
X136882095Y-76176190D01*
X135739238Y-76080952D02*
X135834476Y-76033333D01*
X135882095Y-75985714D01*
X135929714Y-75890476D01*
X135929714Y-75842857D01*
X135882095Y-75747619D01*
X135834476Y-75700000D01*
X135739238Y-75652380D01*
X135548761Y-75652380D01*
X135453523Y-75700000D01*
X135405904Y-75747619D01*
X135358285Y-75842857D01*
X135358285Y-75890476D01*
X135405904Y-75985714D01*
X135453523Y-76033333D01*
X135548761Y-76080952D01*
X135739238Y-76080952D01*
X135834476Y-76128571D01*
X135882095Y-76176190D01*
X135929714Y-76271428D01*
X135929714Y-76461904D01*
X135882095Y-76557142D01*
X135834476Y-76604761D01*
X135739238Y-76652380D01*
X135548761Y-76652380D01*
X135453523Y-76604761D01*
X135405904Y-76557142D01*
X135358285Y-76461904D01*
X135358285Y-76271428D01*
X135405904Y-76176190D01*
X135453523Y-76128571D01*
X135548761Y-76080952D01*
%TO.C,R7*%
X126658666Y-80208380D02*
X126992000Y-79732190D01*
X127230095Y-80208380D02*
X127230095Y-79208380D01*
X126849142Y-79208380D01*
X126753904Y-79256000D01*
X126706285Y-79303619D01*
X126658666Y-79398857D01*
X126658666Y-79541714D01*
X126706285Y-79636952D01*
X126753904Y-79684571D01*
X126849142Y-79732190D01*
X127230095Y-79732190D01*
X126325333Y-79208380D02*
X125658666Y-79208380D01*
X126087238Y-80208380D01*
%TO.C,R6*%
X136310666Y-78684380D02*
X136644000Y-78208190D01*
X136882095Y-78684380D02*
X136882095Y-77684380D01*
X136501142Y-77684380D01*
X136405904Y-77732000D01*
X136358285Y-77779619D01*
X136310666Y-77874857D01*
X136310666Y-78017714D01*
X136358285Y-78112952D01*
X136405904Y-78160571D01*
X136501142Y-78208190D01*
X136882095Y-78208190D01*
X135453523Y-77684380D02*
X135644000Y-77684380D01*
X135739238Y-77732000D01*
X135786857Y-77779619D01*
X135882095Y-77922476D01*
X135929714Y-78112952D01*
X135929714Y-78493904D01*
X135882095Y-78589142D01*
X135834476Y-78636761D01*
X135739238Y-78684380D01*
X135548761Y-78684380D01*
X135453523Y-78636761D01*
X135405904Y-78589142D01*
X135358285Y-78493904D01*
X135358285Y-78255809D01*
X135405904Y-78160571D01*
X135453523Y-78112952D01*
X135548761Y-78065333D01*
X135739238Y-78065333D01*
X135834476Y-78112952D01*
X135882095Y-78160571D01*
X135929714Y-78255809D01*
%TO.C,R5*%
X126658666Y-83256380D02*
X126992000Y-82780190D01*
X127230095Y-83256380D02*
X127230095Y-82256380D01*
X126849142Y-82256380D01*
X126753904Y-82304000D01*
X126706285Y-82351619D01*
X126658666Y-82446857D01*
X126658666Y-82589714D01*
X126706285Y-82684952D01*
X126753904Y-82732571D01*
X126849142Y-82780190D01*
X127230095Y-82780190D01*
X125753904Y-82256380D02*
X126230095Y-82256380D01*
X126277714Y-82732571D01*
X126230095Y-82684952D01*
X126134857Y-82637333D01*
X125896761Y-82637333D01*
X125801523Y-82684952D01*
X125753904Y-82732571D01*
X125706285Y-82827809D01*
X125706285Y-83065904D01*
X125753904Y-83161142D01*
X125801523Y-83208761D01*
X125896761Y-83256380D01*
X126134857Y-83256380D01*
X126230095Y-83208761D01*
X126277714Y-83161142D01*
%TO.C,R4*%
X136310666Y-80716380D02*
X136644000Y-80240190D01*
X136882095Y-80716380D02*
X136882095Y-79716380D01*
X136501142Y-79716380D01*
X136405904Y-79764000D01*
X136358285Y-79811619D01*
X136310666Y-79906857D01*
X136310666Y-80049714D01*
X136358285Y-80144952D01*
X136405904Y-80192571D01*
X136501142Y-80240190D01*
X136882095Y-80240190D01*
X135453523Y-80049714D02*
X135453523Y-80716380D01*
X135691619Y-79668761D02*
X135929714Y-80383047D01*
X135310666Y-80383047D01*
%TO.C,R3*%
X134278666Y-73604380D02*
X134612000Y-73128190D01*
X134850095Y-73604380D02*
X134850095Y-72604380D01*
X134469142Y-72604380D01*
X134373904Y-72652000D01*
X134326285Y-72699619D01*
X134278666Y-72794857D01*
X134278666Y-72937714D01*
X134326285Y-73032952D01*
X134373904Y-73080571D01*
X134469142Y-73128190D01*
X134850095Y-73128190D01*
X133945333Y-72604380D02*
X133326285Y-72604380D01*
X133659619Y-72985333D01*
X133516761Y-72985333D01*
X133421523Y-73032952D01*
X133373904Y-73080571D01*
X133326285Y-73175809D01*
X133326285Y-73413904D01*
X133373904Y-73509142D01*
X133421523Y-73556761D01*
X133516761Y-73604380D01*
X133802476Y-73604380D01*
X133897714Y-73556761D01*
X133945333Y-73509142D01*
%TO.C,R2*%
X134278666Y-71064380D02*
X134612000Y-70588190D01*
X134850095Y-71064380D02*
X134850095Y-70064380D01*
X134469142Y-70064380D01*
X134373904Y-70112000D01*
X134326285Y-70159619D01*
X134278666Y-70254857D01*
X134278666Y-70397714D01*
X134326285Y-70492952D01*
X134373904Y-70540571D01*
X134469142Y-70588190D01*
X134850095Y-70588190D01*
X133897714Y-70159619D02*
X133850095Y-70112000D01*
X133754857Y-70064380D01*
X133516761Y-70064380D01*
X133421523Y-70112000D01*
X133373904Y-70159619D01*
X133326285Y-70254857D01*
X133326285Y-70350095D01*
X133373904Y-70492952D01*
X133945333Y-71064380D01*
X133326285Y-71064380D01*
%TO.C,R1*%
X126818380Y-67896333D02*
X126342190Y-67563000D01*
X126818380Y-67324904D02*
X125818380Y-67324904D01*
X125818380Y-67705857D01*
X125866000Y-67801095D01*
X125913619Y-67848714D01*
X126008857Y-67896333D01*
X126151714Y-67896333D01*
X126246952Y-67848714D01*
X126294571Y-67801095D01*
X126342190Y-67705857D01*
X126342190Y-67324904D01*
X126818380Y-68848714D02*
X126818380Y-68277285D01*
X126818380Y-68563000D02*
X125818380Y-68563000D01*
X125961238Y-68467761D01*
X126056476Y-68372523D01*
X126104095Y-68277285D01*
%TD*%
M02*
