%TF.GenerationSoftware,KiCad,Pcbnew,(5.1.6)-1*%
%TF.CreationDate,2020-09-06T00:09:38+02:00*%
%TF.ProjectId,gpioexpander4,6770696f-6578-4706-916e-646572342e6b,rev?*%
%TF.SameCoordinates,Original*%
%TF.FileFunction,Copper,L2,Bot*%
%TF.FilePolarity,Positive*%
%FSLAX46Y46*%
G04 Gerber Fmt 4.6, Leading zero omitted, Abs format (unit mm)*
G04 Created by KiCad (PCBNEW (5.1.6)-1) date 2020-09-06 00:09:38*
%MOMM*%
%LPD*%
G01*
G04 APERTURE LIST*
%TA.AperFunction,ComponentPad*%
%ADD10C,2.000000*%
%TD*%
%TA.AperFunction,ComponentPad*%
%ADD11C,8.600000*%
%TD*%
%TA.AperFunction,ComponentPad*%
%ADD12O,1.600000X1.600000*%
%TD*%
%TA.AperFunction,ComponentPad*%
%ADD13R,1.600000X1.600000*%
%TD*%
%TA.AperFunction,ComponentPad*%
%ADD14O,1.700000X1.700000*%
%TD*%
%TA.AperFunction,ComponentPad*%
%ADD15R,1.700000X1.700000*%
%TD*%
%TA.AperFunction,Conductor*%
%ADD16C,0.250000*%
%TD*%
%TA.AperFunction,Conductor*%
%ADD17C,0.254000*%
%TD*%
G04 APERTURE END LIST*
D10*
%TO.P,SW1,1*%
%TO.N,/Action*%
X142644000Y-61468000D03*
%TO.P,SW1,2*%
%TO.N,GND*%
X142644000Y-65968000D03*
%TO.P,SW1,1*%
%TO.N,/Action*%
X136144000Y-61468000D03*
%TO.P,SW1,2*%
%TO.N,GND*%
X136144000Y-65968000D03*
%TD*%
D11*
%TO.P,H2,1*%
%TO.N,GND*%
X111760000Y-82544400D03*
%TD*%
%TO.P,H1,1*%
%TO.N,GND*%
X139192000Y-53848000D03*
%TD*%
D12*
%TO.P,U1,28*%
%TO.N,/P3_2*%
X131445000Y-51155000D03*
%TO.P,U1,14*%
%TO.N,N/C*%
X123825000Y-84175000D03*
%TO.P,U1,27*%
%TO.N,/P3_1*%
X131445000Y-53695000D03*
%TO.P,U1,13*%
%TO.N,/SDA*%
X123825000Y-81635000D03*
%TO.P,U1,26*%
%TO.N,/P2_3*%
X131445000Y-56235000D03*
%TO.P,U1,12*%
%TO.N,/SCK*%
X123825000Y-79095000D03*
%TO.P,U1,25*%
%TO.N,/P2_2*%
X131445000Y-58775000D03*
%TO.P,U1,11*%
%TO.N,N/C*%
X123825000Y-76555000D03*
%TO.P,U1,24*%
%TO.N,/P2_1*%
X131445000Y-61315000D03*
%TO.P,U1,10*%
%TO.N,GND*%
X123825000Y-74015000D03*
%TO.P,U1,23*%
%TO.N,/P1_3*%
X131445000Y-63855000D03*
%TO.P,U1,9*%
%TO.N,+3V3*%
X123825000Y-71475000D03*
%TO.P,U1,22*%
%TO.N,/P1_2*%
X131445000Y-66395000D03*
%TO.P,U1,8*%
%TO.N,/Action*%
X123825000Y-68935000D03*
%TO.P,U1,21*%
%TO.N,/P1_1*%
X131445000Y-68935000D03*
%TO.P,U1,7*%
%TO.N,/P5_3*%
X123825000Y-66395000D03*
%TO.P,U1,20*%
%TO.N,/INTA*%
X131445000Y-71475000D03*
%TO.P,U1,6*%
%TO.N,/P5_2*%
X123825000Y-63855000D03*
%TO.P,U1,19*%
%TO.N,/INTB*%
X131445000Y-74015000D03*
%TO.P,U1,5*%
%TO.N,/P5_1*%
X123825000Y-61315000D03*
%TO.P,U1,18*%
%TO.N,+3V3*%
X131445000Y-76555000D03*
%TO.P,U1,4*%
%TO.N,/P4_3*%
X123825000Y-58775000D03*
%TO.P,U1,17*%
%TO.N,/A2*%
X131445000Y-79095000D03*
%TO.P,U1,3*%
%TO.N,/P4_2*%
X123825000Y-56235000D03*
%TO.P,U1,16*%
%TO.N,/A1*%
X131445000Y-81635000D03*
%TO.P,U1,2*%
%TO.N,/P4_1*%
X123825000Y-53695000D03*
%TO.P,U1,15*%
%TO.N,/A0*%
X131445000Y-84175000D03*
D13*
%TO.P,U1,1*%
%TO.N,/P3_3*%
X123825000Y-51155000D03*
%TD*%
%TO.P,R9,2*%
%TO.N,GND*%
%TA.AperFunction,SMDPad,CuDef*%
G36*
G01*
X127067000Y-77781999D02*
X127067000Y-78682001D01*
G75*
G02*
X126817001Y-78932000I-249999J0D01*
G01*
X126166999Y-78932000D01*
G75*
G02*
X125917000Y-78682001I0J249999D01*
G01*
X125917000Y-77781999D01*
G75*
G02*
X126166999Y-77532000I249999J0D01*
G01*
X126817001Y-77532000D01*
G75*
G02*
X127067000Y-77781999I0J-249999D01*
G01*
G37*
%TD.AperFunction*%
%TO.P,R9,1*%
%TO.N,/A2*%
%TA.AperFunction,SMDPad,CuDef*%
G36*
G01*
X129117000Y-77781999D02*
X129117000Y-78682001D01*
G75*
G02*
X128867001Y-78932000I-249999J0D01*
G01*
X128216999Y-78932000D01*
G75*
G02*
X127967000Y-78682001I0J249999D01*
G01*
X127967000Y-77781999D01*
G75*
G02*
X128216999Y-77532000I249999J0D01*
G01*
X128867001Y-77532000D01*
G75*
G02*
X129117000Y-77781999I0J-249999D01*
G01*
G37*
%TD.AperFunction*%
%TD*%
%TO.P,R8,2*%
%TO.N,/A2*%
%TA.AperFunction,SMDPad,CuDef*%
G36*
G01*
X138742000Y-75749999D02*
X138742000Y-76650001D01*
G75*
G02*
X138492001Y-76900000I-249999J0D01*
G01*
X137841999Y-76900000D01*
G75*
G02*
X137592000Y-76650001I0J249999D01*
G01*
X137592000Y-75749999D01*
G75*
G02*
X137841999Y-75500000I249999J0D01*
G01*
X138492001Y-75500000D01*
G75*
G02*
X138742000Y-75749999I0J-249999D01*
G01*
G37*
%TD.AperFunction*%
%TO.P,R8,1*%
%TO.N,+3V3*%
%TA.AperFunction,SMDPad,CuDef*%
G36*
G01*
X140792000Y-75749999D02*
X140792000Y-76650001D01*
G75*
G02*
X140542001Y-76900000I-249999J0D01*
G01*
X139891999Y-76900000D01*
G75*
G02*
X139642000Y-76650001I0J249999D01*
G01*
X139642000Y-75749999D01*
G75*
G02*
X139891999Y-75500000I249999J0D01*
G01*
X140542001Y-75500000D01*
G75*
G02*
X140792000Y-75749999I0J-249999D01*
G01*
G37*
%TD.AperFunction*%
%TD*%
%TO.P,R7,2*%
%TO.N,GND*%
%TA.AperFunction,SMDPad,CuDef*%
G36*
G01*
X127049000Y-80829999D02*
X127049000Y-81730001D01*
G75*
G02*
X126799001Y-81980000I-249999J0D01*
G01*
X126148999Y-81980000D01*
G75*
G02*
X125899000Y-81730001I0J249999D01*
G01*
X125899000Y-80829999D01*
G75*
G02*
X126148999Y-80580000I249999J0D01*
G01*
X126799001Y-80580000D01*
G75*
G02*
X127049000Y-80829999I0J-249999D01*
G01*
G37*
%TD.AperFunction*%
%TO.P,R7,1*%
%TO.N,/A1*%
%TA.AperFunction,SMDPad,CuDef*%
G36*
G01*
X129099000Y-80829999D02*
X129099000Y-81730001D01*
G75*
G02*
X128849001Y-81980000I-249999J0D01*
G01*
X128198999Y-81980000D01*
G75*
G02*
X127949000Y-81730001I0J249999D01*
G01*
X127949000Y-80829999D01*
G75*
G02*
X128198999Y-80580000I249999J0D01*
G01*
X128849001Y-80580000D01*
G75*
G02*
X129099000Y-80829999I0J-249999D01*
G01*
G37*
%TD.AperFunction*%
%TD*%
%TO.P,R6,2*%
%TO.N,/A1*%
%TA.AperFunction,SMDPad,CuDef*%
G36*
G01*
X138751000Y-77781999D02*
X138751000Y-78682001D01*
G75*
G02*
X138501001Y-78932000I-249999J0D01*
G01*
X137850999Y-78932000D01*
G75*
G02*
X137601000Y-78682001I0J249999D01*
G01*
X137601000Y-77781999D01*
G75*
G02*
X137850999Y-77532000I249999J0D01*
G01*
X138501001Y-77532000D01*
G75*
G02*
X138751000Y-77781999I0J-249999D01*
G01*
G37*
%TD.AperFunction*%
%TO.P,R6,1*%
%TO.N,+3V3*%
%TA.AperFunction,SMDPad,CuDef*%
G36*
G01*
X140801000Y-77781999D02*
X140801000Y-78682001D01*
G75*
G02*
X140551001Y-78932000I-249999J0D01*
G01*
X139900999Y-78932000D01*
G75*
G02*
X139651000Y-78682001I0J249999D01*
G01*
X139651000Y-77781999D01*
G75*
G02*
X139900999Y-77532000I249999J0D01*
G01*
X140551001Y-77532000D01*
G75*
G02*
X140801000Y-77781999I0J-249999D01*
G01*
G37*
%TD.AperFunction*%
%TD*%
%TO.P,R5,2*%
%TO.N,GND*%
%TA.AperFunction,SMDPad,CuDef*%
G36*
G01*
X127058000Y-83877999D02*
X127058000Y-84778001D01*
G75*
G02*
X126808001Y-85028000I-249999J0D01*
G01*
X126157999Y-85028000D01*
G75*
G02*
X125908000Y-84778001I0J249999D01*
G01*
X125908000Y-83877999D01*
G75*
G02*
X126157999Y-83628000I249999J0D01*
G01*
X126808001Y-83628000D01*
G75*
G02*
X127058000Y-83877999I0J-249999D01*
G01*
G37*
%TD.AperFunction*%
%TO.P,R5,1*%
%TO.N,/A0*%
%TA.AperFunction,SMDPad,CuDef*%
G36*
G01*
X129108000Y-83877999D02*
X129108000Y-84778001D01*
G75*
G02*
X128858001Y-85028000I-249999J0D01*
G01*
X128207999Y-85028000D01*
G75*
G02*
X127958000Y-84778001I0J249999D01*
G01*
X127958000Y-83877999D01*
G75*
G02*
X128207999Y-83628000I249999J0D01*
G01*
X128858001Y-83628000D01*
G75*
G02*
X129108000Y-83877999I0J-249999D01*
G01*
G37*
%TD.AperFunction*%
%TD*%
%TO.P,R4,2*%
%TO.N,/A0*%
%TA.AperFunction,SMDPad,CuDef*%
G36*
G01*
X138733000Y-79813999D02*
X138733000Y-80714001D01*
G75*
G02*
X138483001Y-80964000I-249999J0D01*
G01*
X137832999Y-80964000D01*
G75*
G02*
X137583000Y-80714001I0J249999D01*
G01*
X137583000Y-79813999D01*
G75*
G02*
X137832999Y-79564000I249999J0D01*
G01*
X138483001Y-79564000D01*
G75*
G02*
X138733000Y-79813999I0J-249999D01*
G01*
G37*
%TD.AperFunction*%
%TO.P,R4,1*%
%TO.N,+3V3*%
%TA.AperFunction,SMDPad,CuDef*%
G36*
G01*
X140783000Y-79813999D02*
X140783000Y-80714001D01*
G75*
G02*
X140533001Y-80964000I-249999J0D01*
G01*
X139882999Y-80964000D01*
G75*
G02*
X139633000Y-80714001I0J249999D01*
G01*
X139633000Y-79813999D01*
G75*
G02*
X139882999Y-79564000I249999J0D01*
G01*
X140533001Y-79564000D01*
G75*
G02*
X140783000Y-79813999I0J-249999D01*
G01*
G37*
%TD.AperFunction*%
%TD*%
%TO.P,R3,2*%
%TO.N,+3V3*%
%TA.AperFunction,SMDPad,CuDef*%
G36*
G01*
X137093000Y-73602001D02*
X137093000Y-72701999D01*
G75*
G02*
X137342999Y-72452000I249999J0D01*
G01*
X137993001Y-72452000D01*
G75*
G02*
X138243000Y-72701999I0J-249999D01*
G01*
X138243000Y-73602001D01*
G75*
G02*
X137993001Y-73852000I-249999J0D01*
G01*
X137342999Y-73852000D01*
G75*
G02*
X137093000Y-73602001I0J249999D01*
G01*
G37*
%TD.AperFunction*%
%TO.P,R3,1*%
%TO.N,/INTB*%
%TA.AperFunction,SMDPad,CuDef*%
G36*
G01*
X135043000Y-73602001D02*
X135043000Y-72701999D01*
G75*
G02*
X135292999Y-72452000I249999J0D01*
G01*
X135943001Y-72452000D01*
G75*
G02*
X136193000Y-72701999I0J-249999D01*
G01*
X136193000Y-73602001D01*
G75*
G02*
X135943001Y-73852000I-249999J0D01*
G01*
X135292999Y-73852000D01*
G75*
G02*
X135043000Y-73602001I0J249999D01*
G01*
G37*
%TD.AperFunction*%
%TD*%
%TO.P,R2,2*%
%TO.N,+3V3*%
%TA.AperFunction,SMDPad,CuDef*%
G36*
G01*
X137093000Y-71062001D02*
X137093000Y-70161999D01*
G75*
G02*
X137342999Y-69912000I249999J0D01*
G01*
X137993001Y-69912000D01*
G75*
G02*
X138243000Y-70161999I0J-249999D01*
G01*
X138243000Y-71062001D01*
G75*
G02*
X137993001Y-71312000I-249999J0D01*
G01*
X137342999Y-71312000D01*
G75*
G02*
X137093000Y-71062001I0J249999D01*
G01*
G37*
%TD.AperFunction*%
%TO.P,R2,1*%
%TO.N,/INTA*%
%TA.AperFunction,SMDPad,CuDef*%
G36*
G01*
X135043000Y-71062001D02*
X135043000Y-70161999D01*
G75*
G02*
X135292999Y-69912000I249999J0D01*
G01*
X135943001Y-69912000D01*
G75*
G02*
X136193000Y-70161999I0J-249999D01*
G01*
X136193000Y-71062001D01*
G75*
G02*
X135943001Y-71312000I-249999J0D01*
G01*
X135292999Y-71312000D01*
G75*
G02*
X135043000Y-71062001I0J249999D01*
G01*
G37*
%TD.AperFunction*%
%TD*%
%TO.P,R1,2*%
%TO.N,+3V3*%
%TA.AperFunction,SMDPad,CuDef*%
G36*
G01*
X127565999Y-68513000D02*
X128466001Y-68513000D01*
G75*
G02*
X128716000Y-68762999I0J-249999D01*
G01*
X128716000Y-69413001D01*
G75*
G02*
X128466001Y-69663000I-249999J0D01*
G01*
X127565999Y-69663000D01*
G75*
G02*
X127316000Y-69413001I0J249999D01*
G01*
X127316000Y-68762999D01*
G75*
G02*
X127565999Y-68513000I249999J0D01*
G01*
G37*
%TD.AperFunction*%
%TO.P,R1,1*%
%TO.N,/Action*%
%TA.AperFunction,SMDPad,CuDef*%
G36*
G01*
X127565999Y-66463000D02*
X128466001Y-66463000D01*
G75*
G02*
X128716000Y-66712999I0J-249999D01*
G01*
X128716000Y-67363001D01*
G75*
G02*
X128466001Y-67613000I-249999J0D01*
G01*
X127565999Y-67613000D01*
G75*
G02*
X127316000Y-67363001I0J249999D01*
G01*
X127316000Y-66712999D01*
G75*
G02*
X127565999Y-66463000I249999J0D01*
G01*
G37*
%TD.AperFunction*%
%TD*%
D14*
%TO.P,J8,2*%
%TO.N,/INTA*%
X141732000Y-70612000D03*
D15*
%TO.P,J8,1*%
%TO.N,/INTB*%
X141732000Y-73152000D03*
%TD*%
D14*
%TO.P,J7,4*%
%TO.N,GND*%
X109855000Y-71755000D03*
%TO.P,J7,3*%
%TO.N,/P5_3*%
X112395000Y-71755000D03*
%TO.P,J7,2*%
%TO.N,/P5_2*%
X114935000Y-71755000D03*
D15*
%TO.P,J7,1*%
%TO.N,/P5_1*%
X117475000Y-71755000D03*
%TD*%
D14*
%TO.P,J6,4*%
%TO.N,GND*%
X109855000Y-66675000D03*
%TO.P,J6,3*%
%TO.N,/P4_3*%
X112395000Y-66675000D03*
%TO.P,J6,2*%
%TO.N,/P4_2*%
X114935000Y-66675000D03*
D15*
%TO.P,J6,1*%
%TO.N,/P4_1*%
X117475000Y-66675000D03*
%TD*%
D14*
%TO.P,J5,4*%
%TO.N,GND*%
X109855000Y-61595000D03*
%TO.P,J5,3*%
%TO.N,/P3_3*%
X112395000Y-61595000D03*
%TO.P,J5,2*%
%TO.N,/P3_2*%
X114935000Y-61595000D03*
D15*
%TO.P,J5,1*%
%TO.N,/P3_1*%
X117475000Y-61595000D03*
%TD*%
D14*
%TO.P,J4,4*%
%TO.N,GND*%
X109855000Y-56515000D03*
%TO.P,J4,3*%
%TO.N,/P2_3*%
X112395000Y-56515000D03*
%TO.P,J4,2*%
%TO.N,/P2_2*%
X114935000Y-56515000D03*
D15*
%TO.P,J4,1*%
%TO.N,/P2_1*%
X117475000Y-56515000D03*
%TD*%
D14*
%TO.P,J3,4*%
%TO.N,GND*%
X109728000Y-51435000D03*
%TO.P,J3,3*%
%TO.N,/P1_3*%
X112268000Y-51435000D03*
%TO.P,J3,2*%
%TO.N,/P1_2*%
X114808000Y-51435000D03*
D15*
%TO.P,J3,1*%
%TO.N,/P1_1*%
X117348000Y-51435000D03*
%TD*%
D14*
%TO.P,J2,2*%
%TO.N,/SCK*%
X118872000Y-81788000D03*
D15*
%TO.P,J2,1*%
%TO.N,/SDA*%
X118872000Y-84328000D03*
%TD*%
D14*
%TO.P,J1,2*%
%TO.N,GND*%
X140716000Y-83820000D03*
D15*
%TO.P,J1,1*%
%TO.N,+3V3*%
X138176000Y-83820000D03*
%TD*%
D16*
%TO.N,+3V3*%
X123825000Y-71475000D02*
X124950300Y-71475000D01*
X124950300Y-71475000D02*
X127337300Y-69088000D01*
X127337300Y-69088000D02*
X128016000Y-69088000D01*
X130291400Y-70063100D02*
X133591400Y-70063100D01*
X133591400Y-70063100D02*
X134119600Y-69534900D01*
X134119600Y-69534900D02*
X136590900Y-69534900D01*
X136590900Y-69534900D02*
X137668000Y-70612000D01*
X128016000Y-69088000D02*
X128991100Y-70063100D01*
X128991100Y-70063100D02*
X130291400Y-70063100D01*
X132007700Y-76555000D02*
X131445000Y-76555000D01*
%TO.N,GND*%
X140208000Y-84328000D02*
X140217000Y-84319000D01*
%TO.N,+3V3*%
X130403000Y-76555000D02*
X131445000Y-76555000D01*
X130048000Y-70104000D02*
X130048000Y-76200000D01*
X130048000Y-76200000D02*
X130403000Y-76555000D01*
X130291400Y-70063100D02*
X130088900Y-70063100D01*
X130088900Y-70063100D02*
X130048000Y-70104000D01*
X140217000Y-78223000D02*
X140226000Y-78232000D01*
X140217000Y-76200000D02*
X140217000Y-78223000D01*
X140208000Y-78250000D02*
X140226000Y-78232000D01*
X140208000Y-80264000D02*
X140208000Y-78250000D01*
X140208000Y-81788000D02*
X138176000Y-83820000D01*
X140208000Y-80264000D02*
X140208000Y-81788000D01*
X137668000Y-70612000D02*
X137668000Y-73152000D01*
X137668000Y-73651000D02*
X140217000Y-76200000D01*
X137668000Y-73152000D02*
X137668000Y-73651000D01*
%TO.N,/Action*%
X124950300Y-68935000D02*
X126847300Y-67038000D01*
X126847300Y-67038000D02*
X128016000Y-67038000D01*
X123825000Y-68935000D02*
X124950300Y-68935000D01*
X136144000Y-61468000D02*
X142644000Y-61468000D01*
X134112000Y-65393002D02*
X134112000Y-63500000D01*
X128016000Y-67038000D02*
X128034000Y-67056000D01*
X134112000Y-63500000D02*
X136144000Y-61468000D01*
X131941002Y-67564000D02*
X134112000Y-65393002D01*
X129540000Y-67056000D02*
X130048000Y-67564000D01*
X128034000Y-67056000D02*
X129540000Y-67056000D01*
X130048000Y-67564000D02*
X131941002Y-67564000D01*
%TO.N,/A0*%
X131445000Y-84175000D02*
X130319700Y-84175000D01*
X128533000Y-84328000D02*
X130166700Y-84328000D01*
X130166700Y-84328000D02*
X130319700Y-84175000D01*
X131445000Y-84175000D02*
X132741000Y-84175000D01*
X136652000Y-80264000D02*
X138158000Y-80264000D01*
X132741000Y-84175000D02*
X136652000Y-80264000D01*
%TO.N,/A1*%
X131445000Y-81635000D02*
X130319700Y-81635000D01*
X128524000Y-81280000D02*
X129964700Y-81280000D01*
X129964700Y-81280000D02*
X130319700Y-81635000D01*
X131445000Y-81635000D02*
X132741000Y-81635000D01*
X136144000Y-78232000D02*
X138176000Y-78232000D01*
X132741000Y-81635000D02*
X136144000Y-78232000D01*
%TO.N,/A2*%
X131445000Y-79095000D02*
X130319700Y-79095000D01*
X128542000Y-78232000D02*
X129456700Y-78232000D01*
X129456700Y-78232000D02*
X130319700Y-79095000D01*
X131445000Y-79095000D02*
X132741000Y-79095000D01*
X135636000Y-76200000D02*
X138167000Y-76200000D01*
X132741000Y-79095000D02*
X135636000Y-76200000D01*
%TO.N,/P2_3*%
X130319700Y-56235000D02*
X131445000Y-56235000D01*
X112395000Y-56515000D02*
X113800300Y-55109700D01*
X129194400Y-55109700D02*
X130319700Y-56235000D01*
X113800300Y-55109700D02*
X129194400Y-55109700D01*
%TO.N,/P2_1*%
X131445000Y-61315000D02*
X130319700Y-61315000D01*
X117475000Y-56515000D02*
X118650300Y-56515000D01*
X118650300Y-56515000D02*
X119785000Y-57649700D01*
X119785000Y-57649700D02*
X126654400Y-57649700D01*
X126654400Y-57649700D02*
X130319700Y-61315000D01*
%TO.N,/P3_2*%
X130319700Y-51155000D02*
X131445000Y-51155000D01*
X129194400Y-52280300D02*
X130319700Y-51155000D01*
X121113100Y-52280300D02*
X129194400Y-52280300D01*
X120752100Y-52641300D02*
X121113100Y-52280300D01*
X114935000Y-60787000D02*
X111219400Y-57071400D01*
X114935000Y-61595000D02*
X114935000Y-60787000D01*
X111219400Y-56000500D02*
X114578600Y-52641300D01*
X111219400Y-57071400D02*
X111219400Y-56000500D01*
X114578600Y-52641300D02*
X120752100Y-52641300D01*
%TO.N,/P3_1*%
X131927000Y-53695000D02*
X131445000Y-53695000D01*
X133096000Y-54864000D02*
X131927000Y-53695000D01*
X118650300Y-61595000D02*
X119531800Y-62476500D01*
X117475000Y-61595000D02*
X118650300Y-61595000D01*
X119531800Y-62476500D02*
X131927700Y-62476500D01*
X131927700Y-62476500D02*
X133096000Y-61308200D01*
X133096000Y-61308200D02*
X133096000Y-54864000D01*
%TO.N,/P4_3*%
X116299600Y-60592800D02*
X118117400Y-58775000D01*
X116299600Y-61962400D02*
X116299600Y-60592800D01*
X118117400Y-58775000D02*
X123825000Y-58775000D01*
X112395000Y-66675000D02*
X112395000Y-65867000D01*
X112395000Y-65867000D02*
X116299600Y-61962400D01*
%TO.N,/P5_2*%
X123825000Y-63855000D02*
X122699700Y-63855000D01*
X114935000Y-71755000D02*
X116110300Y-71755000D01*
X116110300Y-71755000D02*
X116110300Y-70444400D01*
X116110300Y-70444400D02*
X122699700Y-63855000D01*
%TO.N,/INTA*%
X131445000Y-71475000D02*
X132570300Y-71475000D01*
X132570300Y-71475000D02*
X133433300Y-70612000D01*
X133433300Y-70612000D02*
X135618000Y-70612000D01*
%TO.N,/INTB*%
X132308000Y-73152000D02*
X131445000Y-74015000D01*
X135618000Y-73152000D02*
X132308000Y-73152000D01*
%TD*%
D17*
%TO.N,GND*%
G36*
X142293886Y-48470258D02*
G01*
X142834376Y-48633442D01*
X143332867Y-48898494D01*
X143770388Y-49255326D01*
X144130271Y-49690350D01*
X144398799Y-50186983D01*
X144565749Y-50726315D01*
X144628000Y-51318596D01*
X144628001Y-84803712D01*
X144569742Y-85397886D01*
X144406559Y-85938374D01*
X144141506Y-86436867D01*
X143784669Y-86874393D01*
X143349653Y-87234269D01*
X142853019Y-87502798D01*
X142313690Y-87669749D01*
X141721404Y-87732000D01*
X109252278Y-87732000D01*
X108658114Y-87673742D01*
X108117626Y-87510559D01*
X107619133Y-87245506D01*
X107181607Y-86888669D01*
X106821731Y-86453653D01*
X106591159Y-86027218D01*
X108456787Y-86027218D01*
X108948946Y-86629549D01*
X109799933Y-87099463D01*
X110726243Y-87394329D01*
X111692281Y-87502814D01*
X112660921Y-87420751D01*
X113594938Y-87151293D01*
X114458440Y-86704794D01*
X114571054Y-86629549D01*
X115063213Y-86027218D01*
X111760000Y-82724005D01*
X108456787Y-86027218D01*
X106591159Y-86027218D01*
X106553202Y-85957019D01*
X106386251Y-85417690D01*
X106324000Y-84825404D01*
X106324000Y-82476681D01*
X106801586Y-82476681D01*
X106883649Y-83445321D01*
X107153107Y-84379338D01*
X107599606Y-85242840D01*
X107674851Y-85355454D01*
X108277182Y-85847613D01*
X111580395Y-82544400D01*
X111939605Y-82544400D01*
X115242818Y-85847613D01*
X115845149Y-85355454D01*
X116315063Y-84504467D01*
X116609929Y-83578157D01*
X116621176Y-83478000D01*
X117383928Y-83478000D01*
X117383928Y-85178000D01*
X117396188Y-85302482D01*
X117432498Y-85422180D01*
X117491463Y-85532494D01*
X117570815Y-85629185D01*
X117667506Y-85708537D01*
X117777820Y-85767502D01*
X117897518Y-85803812D01*
X118022000Y-85816072D01*
X119722000Y-85816072D01*
X119846482Y-85803812D01*
X119966180Y-85767502D01*
X120076494Y-85708537D01*
X120173185Y-85629185D01*
X120252537Y-85532494D01*
X120311502Y-85422180D01*
X120347812Y-85302482D01*
X120360072Y-85178000D01*
X120360072Y-83478000D01*
X120347812Y-83353518D01*
X120311502Y-83233820D01*
X120252537Y-83123506D01*
X120173185Y-83026815D01*
X120076494Y-82947463D01*
X119966180Y-82888498D01*
X119893620Y-82866487D01*
X120025475Y-82734632D01*
X120187990Y-82491411D01*
X120299932Y-82221158D01*
X120357000Y-81934260D01*
X120357000Y-81641740D01*
X120299932Y-81354842D01*
X120187990Y-81084589D01*
X120025475Y-80841368D01*
X119818632Y-80634525D01*
X119575411Y-80472010D01*
X119305158Y-80360068D01*
X119018260Y-80303000D01*
X118725740Y-80303000D01*
X118438842Y-80360068D01*
X118168589Y-80472010D01*
X117925368Y-80634525D01*
X117718525Y-80841368D01*
X117556010Y-81084589D01*
X117444068Y-81354842D01*
X117387000Y-81641740D01*
X117387000Y-81934260D01*
X117444068Y-82221158D01*
X117556010Y-82491411D01*
X117718525Y-82734632D01*
X117850380Y-82866487D01*
X117777820Y-82888498D01*
X117667506Y-82947463D01*
X117570815Y-83026815D01*
X117491463Y-83123506D01*
X117432498Y-83233820D01*
X117396188Y-83353518D01*
X117383928Y-83478000D01*
X116621176Y-83478000D01*
X116718414Y-82612119D01*
X116636351Y-81643479D01*
X116366893Y-80709462D01*
X115920394Y-79845960D01*
X115845149Y-79733346D01*
X115242818Y-79241187D01*
X111939605Y-82544400D01*
X111580395Y-82544400D01*
X108277182Y-79241187D01*
X107674851Y-79733346D01*
X107204937Y-80584333D01*
X106910071Y-81510643D01*
X106801586Y-82476681D01*
X106324000Y-82476681D01*
X106324000Y-79061582D01*
X108456787Y-79061582D01*
X111760000Y-82364795D01*
X115063213Y-79061582D01*
X114571054Y-78459251D01*
X113720067Y-77989337D01*
X112793757Y-77694471D01*
X111827719Y-77585986D01*
X110859079Y-77668049D01*
X109925062Y-77937507D01*
X109061560Y-78384006D01*
X108948946Y-78459251D01*
X108456787Y-79061582D01*
X106324000Y-79061582D01*
X106324000Y-76413665D01*
X122390000Y-76413665D01*
X122390000Y-76696335D01*
X122445147Y-76973574D01*
X122553320Y-77234727D01*
X122710363Y-77469759D01*
X122910241Y-77669637D01*
X123142759Y-77825000D01*
X122910241Y-77980363D01*
X122710363Y-78180241D01*
X122553320Y-78415273D01*
X122445147Y-78676426D01*
X122390000Y-78953665D01*
X122390000Y-79236335D01*
X122445147Y-79513574D01*
X122553320Y-79774727D01*
X122710363Y-80009759D01*
X122910241Y-80209637D01*
X123142759Y-80365000D01*
X122910241Y-80520363D01*
X122710363Y-80720241D01*
X122553320Y-80955273D01*
X122445147Y-81216426D01*
X122390000Y-81493665D01*
X122390000Y-81776335D01*
X122445147Y-82053574D01*
X122553320Y-82314727D01*
X122710363Y-82549759D01*
X122910241Y-82749637D01*
X123142759Y-82905000D01*
X122910241Y-83060363D01*
X122710363Y-83260241D01*
X122553320Y-83495273D01*
X122445147Y-83756426D01*
X122390000Y-84033665D01*
X122390000Y-84316335D01*
X122445147Y-84593574D01*
X122553320Y-84854727D01*
X122710363Y-85089759D01*
X122910241Y-85289637D01*
X123145273Y-85446680D01*
X123406426Y-85554853D01*
X123683665Y-85610000D01*
X123966335Y-85610000D01*
X124243574Y-85554853D01*
X124504727Y-85446680D01*
X124739759Y-85289637D01*
X124939637Y-85089759D01*
X124980902Y-85028000D01*
X125269928Y-85028000D01*
X125282188Y-85152482D01*
X125318498Y-85272180D01*
X125377463Y-85382494D01*
X125456815Y-85479185D01*
X125553506Y-85558537D01*
X125663820Y-85617502D01*
X125783518Y-85653812D01*
X125908000Y-85666072D01*
X126197250Y-85663000D01*
X126356000Y-85504250D01*
X126356000Y-84455000D01*
X125431750Y-84455000D01*
X125273000Y-84613750D01*
X125269928Y-85028000D01*
X124980902Y-85028000D01*
X125096680Y-84854727D01*
X125204853Y-84593574D01*
X125260000Y-84316335D01*
X125260000Y-84033665D01*
X125204853Y-83756426D01*
X125151658Y-83628000D01*
X125269928Y-83628000D01*
X125273000Y-84042250D01*
X125431750Y-84201000D01*
X126356000Y-84201000D01*
X126356000Y-83151750D01*
X126197250Y-82993000D01*
X125908000Y-82989928D01*
X125783518Y-83002188D01*
X125663820Y-83038498D01*
X125553506Y-83097463D01*
X125456815Y-83176815D01*
X125377463Y-83273506D01*
X125318498Y-83383820D01*
X125282188Y-83503518D01*
X125269928Y-83628000D01*
X125151658Y-83628000D01*
X125096680Y-83495273D01*
X124939637Y-83260241D01*
X124739759Y-83060363D01*
X124507241Y-82905000D01*
X124739759Y-82749637D01*
X124939637Y-82549759D01*
X125096680Y-82314727D01*
X125204853Y-82053574D01*
X125219487Y-81980000D01*
X125260928Y-81980000D01*
X125273188Y-82104482D01*
X125309498Y-82224180D01*
X125368463Y-82334494D01*
X125447815Y-82431185D01*
X125544506Y-82510537D01*
X125654820Y-82569502D01*
X125774518Y-82605812D01*
X125899000Y-82618072D01*
X126188250Y-82615000D01*
X126347000Y-82456250D01*
X126347000Y-81407000D01*
X125422750Y-81407000D01*
X125264000Y-81565750D01*
X125260928Y-81980000D01*
X125219487Y-81980000D01*
X125260000Y-81776335D01*
X125260000Y-81493665D01*
X125204853Y-81216426D01*
X125096680Y-80955273D01*
X124939637Y-80720241D01*
X124799396Y-80580000D01*
X125260928Y-80580000D01*
X125264000Y-80994250D01*
X125422750Y-81153000D01*
X126347000Y-81153000D01*
X126347000Y-80103750D01*
X126188250Y-79945000D01*
X125899000Y-79941928D01*
X125774518Y-79954188D01*
X125654820Y-79990498D01*
X125544506Y-80049463D01*
X125447815Y-80128815D01*
X125368463Y-80225506D01*
X125309498Y-80335820D01*
X125273188Y-80455518D01*
X125260928Y-80580000D01*
X124799396Y-80580000D01*
X124739759Y-80520363D01*
X124507241Y-80365000D01*
X124739759Y-80209637D01*
X124939637Y-80009759D01*
X125096680Y-79774727D01*
X125204853Y-79513574D01*
X125260000Y-79236335D01*
X125260000Y-78953665D01*
X125255691Y-78932000D01*
X125278928Y-78932000D01*
X125291188Y-79056482D01*
X125327498Y-79176180D01*
X125386463Y-79286494D01*
X125465815Y-79383185D01*
X125562506Y-79462537D01*
X125672820Y-79521502D01*
X125792518Y-79557812D01*
X125917000Y-79570072D01*
X126206250Y-79567000D01*
X126365000Y-79408250D01*
X126365000Y-78359000D01*
X125440750Y-78359000D01*
X125282000Y-78517750D01*
X125278928Y-78932000D01*
X125255691Y-78932000D01*
X125204853Y-78676426D01*
X125096680Y-78415273D01*
X124939637Y-78180241D01*
X124739759Y-77980363D01*
X124507241Y-77825000D01*
X124739759Y-77669637D01*
X124877396Y-77532000D01*
X125278928Y-77532000D01*
X125282000Y-77946250D01*
X125440750Y-78105000D01*
X126365000Y-78105000D01*
X126365000Y-77055750D01*
X126206250Y-76897000D01*
X125917000Y-76893928D01*
X125792518Y-76906188D01*
X125672820Y-76942498D01*
X125562506Y-77001463D01*
X125465815Y-77080815D01*
X125386463Y-77177506D01*
X125327498Y-77287820D01*
X125291188Y-77407518D01*
X125278928Y-77532000D01*
X124877396Y-77532000D01*
X124939637Y-77469759D01*
X125096680Y-77234727D01*
X125204853Y-76973574D01*
X125260000Y-76696335D01*
X125260000Y-76413665D01*
X125204853Y-76136426D01*
X125096680Y-75875273D01*
X124939637Y-75640241D01*
X124739759Y-75440363D01*
X124504727Y-75283320D01*
X124494135Y-75278933D01*
X124680131Y-75167385D01*
X124888519Y-74978414D01*
X125056037Y-74752420D01*
X125176246Y-74498087D01*
X125216904Y-74364039D01*
X125094915Y-74142000D01*
X123952000Y-74142000D01*
X123952000Y-74162000D01*
X123698000Y-74162000D01*
X123698000Y-74142000D01*
X122555085Y-74142000D01*
X122433096Y-74364039D01*
X122473754Y-74498087D01*
X122593963Y-74752420D01*
X122761481Y-74978414D01*
X122969869Y-75167385D01*
X123155865Y-75278933D01*
X123145273Y-75283320D01*
X122910241Y-75440363D01*
X122710363Y-75640241D01*
X122553320Y-75875273D01*
X122445147Y-76136426D01*
X122390000Y-76413665D01*
X106324000Y-76413665D01*
X106324000Y-72111891D01*
X108413519Y-72111891D01*
X108510843Y-72386252D01*
X108659822Y-72636355D01*
X108854731Y-72852588D01*
X109088080Y-73026641D01*
X109350901Y-73151825D01*
X109498110Y-73196476D01*
X109728000Y-73075155D01*
X109728000Y-71882000D01*
X108534186Y-71882000D01*
X108413519Y-72111891D01*
X106324000Y-72111891D01*
X106324000Y-71398109D01*
X108413519Y-71398109D01*
X108534186Y-71628000D01*
X109728000Y-71628000D01*
X109728000Y-70434845D01*
X109498110Y-70313524D01*
X109350901Y-70358175D01*
X109088080Y-70483359D01*
X108854731Y-70657412D01*
X108659822Y-70873645D01*
X108510843Y-71123748D01*
X108413519Y-71398109D01*
X106324000Y-71398109D01*
X106324000Y-67031891D01*
X108413519Y-67031891D01*
X108510843Y-67306252D01*
X108659822Y-67556355D01*
X108854731Y-67772588D01*
X109088080Y-67946641D01*
X109350901Y-68071825D01*
X109498110Y-68116476D01*
X109728000Y-67995155D01*
X109728000Y-66802000D01*
X108534186Y-66802000D01*
X108413519Y-67031891D01*
X106324000Y-67031891D01*
X106324000Y-66318109D01*
X108413519Y-66318109D01*
X108534186Y-66548000D01*
X109728000Y-66548000D01*
X109728000Y-65354845D01*
X109498110Y-65233524D01*
X109350901Y-65278175D01*
X109088080Y-65403359D01*
X108854731Y-65577412D01*
X108659822Y-65793645D01*
X108510843Y-66043748D01*
X108413519Y-66318109D01*
X106324000Y-66318109D01*
X106324000Y-61951891D01*
X108413519Y-61951891D01*
X108510843Y-62226252D01*
X108659822Y-62476355D01*
X108854731Y-62692588D01*
X109088080Y-62866641D01*
X109350901Y-62991825D01*
X109498110Y-63036476D01*
X109728000Y-62915155D01*
X109728000Y-61722000D01*
X108534186Y-61722000D01*
X108413519Y-61951891D01*
X106324000Y-61951891D01*
X106324000Y-61238109D01*
X108413519Y-61238109D01*
X108534186Y-61468000D01*
X109728000Y-61468000D01*
X109728000Y-60274845D01*
X109498110Y-60153524D01*
X109350901Y-60198175D01*
X109088080Y-60323359D01*
X108854731Y-60497412D01*
X108659822Y-60713645D01*
X108510843Y-60963748D01*
X108413519Y-61238109D01*
X106324000Y-61238109D01*
X106324000Y-56871891D01*
X108413519Y-56871891D01*
X108510843Y-57146252D01*
X108659822Y-57396355D01*
X108854731Y-57612588D01*
X109088080Y-57786641D01*
X109350901Y-57911825D01*
X109498110Y-57956476D01*
X109728000Y-57835155D01*
X109728000Y-56642000D01*
X108534186Y-56642000D01*
X108413519Y-56871891D01*
X106324000Y-56871891D01*
X106324000Y-56158109D01*
X108413519Y-56158109D01*
X108534186Y-56388000D01*
X109728000Y-56388000D01*
X109728000Y-55194845D01*
X109498110Y-55073524D01*
X109350901Y-55118175D01*
X109088080Y-55243359D01*
X108854731Y-55417412D01*
X108659822Y-55633645D01*
X108510843Y-55883748D01*
X108413519Y-56158109D01*
X106324000Y-56158109D01*
X106324000Y-51791891D01*
X108286519Y-51791891D01*
X108383843Y-52066252D01*
X108532822Y-52316355D01*
X108727731Y-52532588D01*
X108961080Y-52706641D01*
X109223901Y-52831825D01*
X109371110Y-52876476D01*
X109601000Y-52755155D01*
X109601000Y-51562000D01*
X108407186Y-51562000D01*
X108286519Y-51791891D01*
X106324000Y-51791891D01*
X106324000Y-51340278D01*
X106349705Y-51078109D01*
X108286519Y-51078109D01*
X108407186Y-51308000D01*
X109601000Y-51308000D01*
X109601000Y-50114845D01*
X109855000Y-50114845D01*
X109855000Y-51308000D01*
X109875000Y-51308000D01*
X109875000Y-51562000D01*
X109855000Y-51562000D01*
X109855000Y-52755155D01*
X110084890Y-52876476D01*
X110232099Y-52831825D01*
X110494920Y-52706641D01*
X110728269Y-52532588D01*
X110923178Y-52316355D01*
X110992805Y-52199466D01*
X111114525Y-52381632D01*
X111321368Y-52588475D01*
X111564589Y-52750990D01*
X111834842Y-52862932D01*
X112121740Y-52920000D01*
X112414260Y-52920000D01*
X112701158Y-52862932D01*
X112971411Y-52750990D01*
X113214632Y-52588475D01*
X113421475Y-52381632D01*
X113538000Y-52207240D01*
X113654525Y-52381632D01*
X113708996Y-52436103D01*
X110782193Y-55362906D01*
X110621920Y-55243359D01*
X110359099Y-55118175D01*
X110211890Y-55073524D01*
X109982000Y-55194845D01*
X109982000Y-56388000D01*
X110002000Y-56388000D01*
X110002000Y-56642000D01*
X109982000Y-56642000D01*
X109982000Y-57835155D01*
X110211890Y-57956476D01*
X110359099Y-57911825D01*
X110621920Y-57786641D01*
X110758194Y-57684995D01*
X113757509Y-60684311D01*
X113665000Y-60822760D01*
X113548475Y-60648368D01*
X113341632Y-60441525D01*
X113098411Y-60279010D01*
X112828158Y-60167068D01*
X112541260Y-60110000D01*
X112248740Y-60110000D01*
X111961842Y-60167068D01*
X111691589Y-60279010D01*
X111448368Y-60441525D01*
X111241525Y-60648368D01*
X111119805Y-60830534D01*
X111050178Y-60713645D01*
X110855269Y-60497412D01*
X110621920Y-60323359D01*
X110359099Y-60198175D01*
X110211890Y-60153524D01*
X109982000Y-60274845D01*
X109982000Y-61468000D01*
X110002000Y-61468000D01*
X110002000Y-61722000D01*
X109982000Y-61722000D01*
X109982000Y-62915155D01*
X110211890Y-63036476D01*
X110359099Y-62991825D01*
X110621920Y-62866641D01*
X110855269Y-62692588D01*
X111050178Y-62476355D01*
X111119805Y-62359466D01*
X111241525Y-62541632D01*
X111448368Y-62748475D01*
X111691589Y-62910990D01*
X111961842Y-63022932D01*
X112248740Y-63080000D01*
X112541260Y-63080000D01*
X112828158Y-63022932D01*
X113098411Y-62910990D01*
X113341632Y-62748475D01*
X113548475Y-62541632D01*
X113665000Y-62367240D01*
X113781525Y-62541632D01*
X113988368Y-62748475D01*
X114231589Y-62910990D01*
X114263140Y-62924059D01*
X111924779Y-65262420D01*
X111691589Y-65359010D01*
X111448368Y-65521525D01*
X111241525Y-65728368D01*
X111119805Y-65910534D01*
X111050178Y-65793645D01*
X110855269Y-65577412D01*
X110621920Y-65403359D01*
X110359099Y-65278175D01*
X110211890Y-65233524D01*
X109982000Y-65354845D01*
X109982000Y-66548000D01*
X110002000Y-66548000D01*
X110002000Y-66802000D01*
X109982000Y-66802000D01*
X109982000Y-67995155D01*
X110211890Y-68116476D01*
X110359099Y-68071825D01*
X110621920Y-67946641D01*
X110855269Y-67772588D01*
X111050178Y-67556355D01*
X111119805Y-67439466D01*
X111241525Y-67621632D01*
X111448368Y-67828475D01*
X111691589Y-67990990D01*
X111961842Y-68102932D01*
X112248740Y-68160000D01*
X112541260Y-68160000D01*
X112828158Y-68102932D01*
X113098411Y-67990990D01*
X113341632Y-67828475D01*
X113548475Y-67621632D01*
X113665000Y-67447240D01*
X113781525Y-67621632D01*
X113988368Y-67828475D01*
X114231589Y-67990990D01*
X114501842Y-68102932D01*
X114788740Y-68160000D01*
X115081260Y-68160000D01*
X115368158Y-68102932D01*
X115638411Y-67990990D01*
X115881632Y-67828475D01*
X116013487Y-67696620D01*
X116035498Y-67769180D01*
X116094463Y-67879494D01*
X116173815Y-67976185D01*
X116270506Y-68055537D01*
X116380820Y-68114502D01*
X116500518Y-68150812D01*
X116625000Y-68163072D01*
X117316827Y-68163072D01*
X115599298Y-69880601D01*
X115570300Y-69904399D01*
X115546502Y-69933397D01*
X115546501Y-69933398D01*
X115475326Y-70020124D01*
X115404754Y-70152154D01*
X115361298Y-70295415D01*
X115358372Y-70325121D01*
X115081260Y-70270000D01*
X114788740Y-70270000D01*
X114501842Y-70327068D01*
X114231589Y-70439010D01*
X113988368Y-70601525D01*
X113781525Y-70808368D01*
X113665000Y-70982760D01*
X113548475Y-70808368D01*
X113341632Y-70601525D01*
X113098411Y-70439010D01*
X112828158Y-70327068D01*
X112541260Y-70270000D01*
X112248740Y-70270000D01*
X111961842Y-70327068D01*
X111691589Y-70439010D01*
X111448368Y-70601525D01*
X111241525Y-70808368D01*
X111119805Y-70990534D01*
X111050178Y-70873645D01*
X110855269Y-70657412D01*
X110621920Y-70483359D01*
X110359099Y-70358175D01*
X110211890Y-70313524D01*
X109982000Y-70434845D01*
X109982000Y-71628000D01*
X110002000Y-71628000D01*
X110002000Y-71882000D01*
X109982000Y-71882000D01*
X109982000Y-73075155D01*
X110211890Y-73196476D01*
X110359099Y-73151825D01*
X110621920Y-73026641D01*
X110855269Y-72852588D01*
X111050178Y-72636355D01*
X111119805Y-72519466D01*
X111241525Y-72701632D01*
X111448368Y-72908475D01*
X111691589Y-73070990D01*
X111961842Y-73182932D01*
X112248740Y-73240000D01*
X112541260Y-73240000D01*
X112828158Y-73182932D01*
X113098411Y-73070990D01*
X113341632Y-72908475D01*
X113548475Y-72701632D01*
X113665000Y-72527240D01*
X113781525Y-72701632D01*
X113988368Y-72908475D01*
X114231589Y-73070990D01*
X114501842Y-73182932D01*
X114788740Y-73240000D01*
X115081260Y-73240000D01*
X115368158Y-73182932D01*
X115638411Y-73070990D01*
X115881632Y-72908475D01*
X116013487Y-72776620D01*
X116035498Y-72849180D01*
X116094463Y-72959494D01*
X116173815Y-73056185D01*
X116270506Y-73135537D01*
X116380820Y-73194502D01*
X116500518Y-73230812D01*
X116625000Y-73243072D01*
X118325000Y-73243072D01*
X118449482Y-73230812D01*
X118569180Y-73194502D01*
X118679494Y-73135537D01*
X118776185Y-73056185D01*
X118855537Y-72959494D01*
X118914502Y-72849180D01*
X118950812Y-72729482D01*
X118963072Y-72605000D01*
X118963072Y-70905000D01*
X118950812Y-70780518D01*
X118914502Y-70660820D01*
X118855537Y-70550506D01*
X118776185Y-70453815D01*
X118679494Y-70374463D01*
X118569180Y-70315498D01*
X118449482Y-70279188D01*
X118325000Y-70266928D01*
X117362573Y-70266928D01*
X122785053Y-64844449D01*
X122910241Y-64969637D01*
X123142759Y-65125000D01*
X122910241Y-65280363D01*
X122710363Y-65480241D01*
X122553320Y-65715273D01*
X122445147Y-65976426D01*
X122390000Y-66253665D01*
X122390000Y-66536335D01*
X122445147Y-66813574D01*
X122553320Y-67074727D01*
X122710363Y-67309759D01*
X122910241Y-67509637D01*
X123142759Y-67665000D01*
X122910241Y-67820363D01*
X122710363Y-68020241D01*
X122553320Y-68255273D01*
X122445147Y-68516426D01*
X122390000Y-68793665D01*
X122390000Y-69076335D01*
X122445147Y-69353574D01*
X122553320Y-69614727D01*
X122710363Y-69849759D01*
X122910241Y-70049637D01*
X123142759Y-70205000D01*
X122910241Y-70360363D01*
X122710363Y-70560241D01*
X122553320Y-70795273D01*
X122445147Y-71056426D01*
X122390000Y-71333665D01*
X122390000Y-71616335D01*
X122445147Y-71893574D01*
X122553320Y-72154727D01*
X122710363Y-72389759D01*
X122910241Y-72589637D01*
X123145273Y-72746680D01*
X123155865Y-72751067D01*
X122969869Y-72862615D01*
X122761481Y-73051586D01*
X122593963Y-73277580D01*
X122473754Y-73531913D01*
X122433096Y-73665961D01*
X122555085Y-73888000D01*
X123698000Y-73888000D01*
X123698000Y-73868000D01*
X123952000Y-73868000D01*
X123952000Y-73888000D01*
X125094915Y-73888000D01*
X125216904Y-73665961D01*
X125176246Y-73531913D01*
X125056037Y-73277580D01*
X124888519Y-73051586D01*
X124680131Y-72862615D01*
X124494135Y-72751067D01*
X124504727Y-72746680D01*
X124739759Y-72589637D01*
X124939637Y-72389759D01*
X125046947Y-72229158D01*
X125099286Y-72224003D01*
X125242547Y-72180546D01*
X125374576Y-72109974D01*
X125490301Y-72015001D01*
X125514104Y-71985997D01*
X127257208Y-70242894D01*
X127392745Y-70284008D01*
X127565999Y-70301072D01*
X128154270Y-70301072D01*
X128427300Y-70574102D01*
X128451099Y-70603101D01*
X128566824Y-70698074D01*
X128698853Y-70768646D01*
X128842114Y-70812103D01*
X128953767Y-70823100D01*
X128953775Y-70823100D01*
X128991100Y-70826776D01*
X129028425Y-70823100D01*
X129288000Y-70823100D01*
X129288001Y-76162667D01*
X129284324Y-76200000D01*
X129288001Y-76237333D01*
X129298998Y-76348986D01*
X129312180Y-76392442D01*
X129342454Y-76492246D01*
X129413026Y-76624276D01*
X129472164Y-76696335D01*
X129508000Y-76740001D01*
X129536998Y-76763799D01*
X129839196Y-77065997D01*
X129862999Y-77095001D01*
X129978724Y-77189974D01*
X130110753Y-77260546D01*
X130210862Y-77290913D01*
X130330363Y-77469759D01*
X130530241Y-77669637D01*
X130762759Y-77825000D01*
X130530241Y-77980363D01*
X130405053Y-78105551D01*
X130020503Y-77721002D01*
X129996701Y-77691999D01*
X129880976Y-77597026D01*
X129748947Y-77526454D01*
X129709407Y-77514460D01*
X129687472Y-77442149D01*
X129605405Y-77288613D01*
X129494962Y-77154038D01*
X129360387Y-77043595D01*
X129206851Y-76961528D01*
X129040255Y-76910992D01*
X128867001Y-76893928D01*
X128216999Y-76893928D01*
X128043745Y-76910992D01*
X127877149Y-76961528D01*
X127723613Y-77043595D01*
X127589038Y-77154038D01*
X127583658Y-77160594D01*
X127518185Y-77080815D01*
X127421494Y-77001463D01*
X127311180Y-76942498D01*
X127191482Y-76906188D01*
X127067000Y-76893928D01*
X126777750Y-76897000D01*
X126619000Y-77055750D01*
X126619000Y-78105000D01*
X126639000Y-78105000D01*
X126639000Y-78359000D01*
X126619000Y-78359000D01*
X126619000Y-79408250D01*
X126777750Y-79567000D01*
X127067000Y-79570072D01*
X127191482Y-79557812D01*
X127311180Y-79521502D01*
X127421494Y-79462537D01*
X127518185Y-79383185D01*
X127583658Y-79303406D01*
X127589038Y-79309962D01*
X127723613Y-79420405D01*
X127877149Y-79502472D01*
X128043745Y-79553008D01*
X128216999Y-79570072D01*
X128867001Y-79570072D01*
X129040255Y-79553008D01*
X129206851Y-79502472D01*
X129360387Y-79420405D01*
X129475683Y-79325784D01*
X129755901Y-79606003D01*
X129779699Y-79635001D01*
X129895424Y-79729974D01*
X130027453Y-79800546D01*
X130170714Y-79844003D01*
X130223053Y-79849158D01*
X130330363Y-80009759D01*
X130530241Y-80209637D01*
X130762759Y-80365000D01*
X130530241Y-80520363D01*
X130398095Y-80652509D01*
X130388976Y-80645026D01*
X130256947Y-80574454D01*
X130113686Y-80530997D01*
X130002033Y-80520000D01*
X130002022Y-80520000D01*
X129964700Y-80516324D01*
X129927378Y-80520000D01*
X129678527Y-80520000D01*
X129669472Y-80490149D01*
X129587405Y-80336613D01*
X129476962Y-80202038D01*
X129342387Y-80091595D01*
X129188851Y-80009528D01*
X129022255Y-79958992D01*
X128849001Y-79941928D01*
X128198999Y-79941928D01*
X128025745Y-79958992D01*
X127859149Y-80009528D01*
X127705613Y-80091595D01*
X127571038Y-80202038D01*
X127565658Y-80208594D01*
X127500185Y-80128815D01*
X127403494Y-80049463D01*
X127293180Y-79990498D01*
X127173482Y-79954188D01*
X127049000Y-79941928D01*
X126759750Y-79945000D01*
X126601000Y-80103750D01*
X126601000Y-81153000D01*
X126621000Y-81153000D01*
X126621000Y-81407000D01*
X126601000Y-81407000D01*
X126601000Y-82456250D01*
X126759750Y-82615000D01*
X127049000Y-82618072D01*
X127173482Y-82605812D01*
X127293180Y-82569502D01*
X127403494Y-82510537D01*
X127500185Y-82431185D01*
X127565658Y-82351406D01*
X127571038Y-82357962D01*
X127705613Y-82468405D01*
X127859149Y-82550472D01*
X128025745Y-82601008D01*
X128198999Y-82618072D01*
X128849001Y-82618072D01*
X129022255Y-82601008D01*
X129188851Y-82550472D01*
X129342387Y-82468405D01*
X129476962Y-82357962D01*
X129587405Y-82223387D01*
X129669472Y-82069851D01*
X129671864Y-82061965D01*
X129755896Y-82145997D01*
X129779699Y-82175001D01*
X129895424Y-82269974D01*
X130027453Y-82340546D01*
X130170714Y-82384003D01*
X130223053Y-82389158D01*
X130330363Y-82549759D01*
X130530241Y-82749637D01*
X130762759Y-82905000D01*
X130530241Y-83060363D01*
X130330363Y-83260241D01*
X130223053Y-83420842D01*
X130170714Y-83425997D01*
X130027453Y-83469454D01*
X129895424Y-83540026D01*
X129861338Y-83568000D01*
X129687527Y-83568000D01*
X129678472Y-83538149D01*
X129596405Y-83384613D01*
X129485962Y-83250038D01*
X129351387Y-83139595D01*
X129197851Y-83057528D01*
X129031255Y-83006992D01*
X128858001Y-82989928D01*
X128207999Y-82989928D01*
X128034745Y-83006992D01*
X127868149Y-83057528D01*
X127714613Y-83139595D01*
X127580038Y-83250038D01*
X127574658Y-83256594D01*
X127509185Y-83176815D01*
X127412494Y-83097463D01*
X127302180Y-83038498D01*
X127182482Y-83002188D01*
X127058000Y-82989928D01*
X126768750Y-82993000D01*
X126610000Y-83151750D01*
X126610000Y-84201000D01*
X126630000Y-84201000D01*
X126630000Y-84455000D01*
X126610000Y-84455000D01*
X126610000Y-85504250D01*
X126768750Y-85663000D01*
X127058000Y-85666072D01*
X127182482Y-85653812D01*
X127302180Y-85617502D01*
X127412494Y-85558537D01*
X127509185Y-85479185D01*
X127574658Y-85399406D01*
X127580038Y-85405962D01*
X127714613Y-85516405D01*
X127868149Y-85598472D01*
X128034745Y-85649008D01*
X128207999Y-85666072D01*
X128858001Y-85666072D01*
X129031255Y-85649008D01*
X129197851Y-85598472D01*
X129351387Y-85516405D01*
X129485962Y-85405962D01*
X129596405Y-85271387D01*
X129678472Y-85117851D01*
X129687527Y-85088000D01*
X130129378Y-85088000D01*
X130166700Y-85091676D01*
X130204022Y-85088000D01*
X130204033Y-85088000D01*
X130315686Y-85077003D01*
X130320803Y-85075451D01*
X130330363Y-85089759D01*
X130530241Y-85289637D01*
X130765273Y-85446680D01*
X131026426Y-85554853D01*
X131303665Y-85610000D01*
X131586335Y-85610000D01*
X131863574Y-85554853D01*
X132124727Y-85446680D01*
X132359759Y-85289637D01*
X132559637Y-85089759D01*
X132663043Y-84935000D01*
X132703678Y-84935000D01*
X132741000Y-84938676D01*
X132778322Y-84935000D01*
X132778333Y-84935000D01*
X132889986Y-84924003D01*
X133033247Y-84880546D01*
X133165276Y-84809974D01*
X133281001Y-84715001D01*
X133304804Y-84685997D01*
X136966802Y-81024000D01*
X137003473Y-81024000D01*
X137012528Y-81053851D01*
X137094595Y-81207387D01*
X137205038Y-81341962D01*
X137339613Y-81452405D01*
X137493149Y-81534472D01*
X137659745Y-81585008D01*
X137832999Y-81602072D01*
X138483001Y-81602072D01*
X138656255Y-81585008D01*
X138822851Y-81534472D01*
X138976387Y-81452405D01*
X139110962Y-81341962D01*
X139183000Y-81254184D01*
X139255038Y-81341962D01*
X139389613Y-81452405D01*
X139441213Y-81479986D01*
X138589271Y-82331928D01*
X137326000Y-82331928D01*
X137201518Y-82344188D01*
X137081820Y-82380498D01*
X136971506Y-82439463D01*
X136874815Y-82518815D01*
X136795463Y-82615506D01*
X136736498Y-82725820D01*
X136700188Y-82845518D01*
X136687928Y-82970000D01*
X136687928Y-84670000D01*
X136700188Y-84794482D01*
X136736498Y-84914180D01*
X136795463Y-85024494D01*
X136874815Y-85121185D01*
X136971506Y-85200537D01*
X137081820Y-85259502D01*
X137201518Y-85295812D01*
X137326000Y-85308072D01*
X139026000Y-85308072D01*
X139150482Y-85295812D01*
X139270180Y-85259502D01*
X139380494Y-85200537D01*
X139477185Y-85121185D01*
X139556537Y-85024494D01*
X139615502Y-84914180D01*
X139639966Y-84833534D01*
X139715731Y-84917588D01*
X139949080Y-85091641D01*
X140211901Y-85216825D01*
X140359110Y-85261476D01*
X140589000Y-85140155D01*
X140589000Y-83947000D01*
X140843000Y-83947000D01*
X140843000Y-85140155D01*
X141072890Y-85261476D01*
X141220099Y-85216825D01*
X141482920Y-85091641D01*
X141716269Y-84917588D01*
X141911178Y-84701355D01*
X142060157Y-84451252D01*
X142157481Y-84176891D01*
X142036814Y-83947000D01*
X140843000Y-83947000D01*
X140589000Y-83947000D01*
X140569000Y-83947000D01*
X140569000Y-83693000D01*
X140589000Y-83693000D01*
X140589000Y-83673000D01*
X140843000Y-83673000D01*
X140843000Y-83693000D01*
X142036814Y-83693000D01*
X142157481Y-83463109D01*
X142060157Y-83188748D01*
X141911178Y-82938645D01*
X141716269Y-82722412D01*
X141482920Y-82548359D01*
X141220099Y-82423175D01*
X141072890Y-82378524D01*
X140843002Y-82499844D01*
X140843002Y-82335000D01*
X140739473Y-82335000D01*
X140748001Y-82328001D01*
X140833205Y-82224180D01*
X140842974Y-82212277D01*
X140913546Y-82080247D01*
X140957003Y-81936986D01*
X140968000Y-81825333D01*
X140968000Y-81825323D01*
X140971676Y-81788000D01*
X140968000Y-81750677D01*
X140968000Y-81483614D01*
X141026387Y-81452405D01*
X141160962Y-81341962D01*
X141271405Y-81207387D01*
X141353472Y-81053851D01*
X141404008Y-80887255D01*
X141421072Y-80714001D01*
X141421072Y-79813999D01*
X141404008Y-79640745D01*
X141353472Y-79474149D01*
X141271405Y-79320613D01*
X141220813Y-79258967D01*
X141289405Y-79175387D01*
X141371472Y-79021851D01*
X141422008Y-78855255D01*
X141439072Y-78682001D01*
X141439072Y-77781999D01*
X141422008Y-77608745D01*
X141371472Y-77442149D01*
X141289405Y-77288613D01*
X141225313Y-77210517D01*
X141280405Y-77143387D01*
X141362472Y-76989851D01*
X141413008Y-76823255D01*
X141430072Y-76650001D01*
X141430072Y-75749999D01*
X141413008Y-75576745D01*
X141362472Y-75410149D01*
X141280405Y-75256613D01*
X141169962Y-75122038D01*
X141035387Y-75011595D01*
X140881851Y-74929528D01*
X140715255Y-74878992D01*
X140542001Y-74861928D01*
X139953730Y-74861928D01*
X138864281Y-73772480D01*
X138881072Y-73602001D01*
X138881072Y-72701999D01*
X138864008Y-72528745D01*
X138813472Y-72362149D01*
X138781322Y-72302000D01*
X140243928Y-72302000D01*
X140243928Y-74002000D01*
X140256188Y-74126482D01*
X140292498Y-74246180D01*
X140351463Y-74356494D01*
X140430815Y-74453185D01*
X140527506Y-74532537D01*
X140637820Y-74591502D01*
X140757518Y-74627812D01*
X140882000Y-74640072D01*
X142582000Y-74640072D01*
X142706482Y-74627812D01*
X142826180Y-74591502D01*
X142936494Y-74532537D01*
X143033185Y-74453185D01*
X143112537Y-74356494D01*
X143171502Y-74246180D01*
X143207812Y-74126482D01*
X143220072Y-74002000D01*
X143220072Y-72302000D01*
X143207812Y-72177518D01*
X143171502Y-72057820D01*
X143112537Y-71947506D01*
X143033185Y-71850815D01*
X142936494Y-71771463D01*
X142826180Y-71712498D01*
X142753620Y-71690487D01*
X142885475Y-71558632D01*
X143047990Y-71315411D01*
X143159932Y-71045158D01*
X143217000Y-70758260D01*
X143217000Y-70465740D01*
X143159932Y-70178842D01*
X143047990Y-69908589D01*
X142885475Y-69665368D01*
X142678632Y-69458525D01*
X142435411Y-69296010D01*
X142165158Y-69184068D01*
X141878260Y-69127000D01*
X141585740Y-69127000D01*
X141298842Y-69184068D01*
X141028589Y-69296010D01*
X140785368Y-69458525D01*
X140578525Y-69665368D01*
X140416010Y-69908589D01*
X140304068Y-70178842D01*
X140247000Y-70465740D01*
X140247000Y-70758260D01*
X140304068Y-71045158D01*
X140416010Y-71315411D01*
X140578525Y-71558632D01*
X140710380Y-71690487D01*
X140637820Y-71712498D01*
X140527506Y-71771463D01*
X140430815Y-71850815D01*
X140351463Y-71947506D01*
X140292498Y-72057820D01*
X140256188Y-72177518D01*
X140243928Y-72302000D01*
X138781322Y-72302000D01*
X138731405Y-72208613D01*
X138620962Y-72074038D01*
X138486387Y-71963595D01*
X138428000Y-71932386D01*
X138428000Y-71831614D01*
X138486387Y-71800405D01*
X138620962Y-71689962D01*
X138731405Y-71555387D01*
X138813472Y-71401851D01*
X138864008Y-71235255D01*
X138881072Y-71062001D01*
X138881072Y-70161999D01*
X138864008Y-69988745D01*
X138813472Y-69822149D01*
X138731405Y-69668613D01*
X138620962Y-69534038D01*
X138486387Y-69423595D01*
X138332851Y-69341528D01*
X138166255Y-69290992D01*
X137993001Y-69273928D01*
X137404730Y-69273928D01*
X137154703Y-69023902D01*
X137130901Y-68994899D01*
X137015176Y-68899926D01*
X136883147Y-68829354D01*
X136739886Y-68785897D01*
X136628233Y-68774900D01*
X136628222Y-68774900D01*
X136590900Y-68771224D01*
X136553578Y-68774900D01*
X134156933Y-68774900D01*
X134119600Y-68771223D01*
X134082267Y-68774900D01*
X133970614Y-68785897D01*
X133827353Y-68829354D01*
X133695324Y-68899926D01*
X133579599Y-68994899D01*
X133555800Y-69023898D01*
X133276599Y-69303100D01*
X132834893Y-69303100D01*
X132880000Y-69076335D01*
X132880000Y-68793665D01*
X132824853Y-68516426D01*
X132716680Y-68255273D01*
X132559637Y-68020241D01*
X132559600Y-68020204D01*
X133476391Y-67103413D01*
X135188192Y-67103413D01*
X135283956Y-67367814D01*
X135573571Y-67508704D01*
X135885108Y-67590384D01*
X136206595Y-67609718D01*
X136525675Y-67565961D01*
X136830088Y-67460795D01*
X137004044Y-67367814D01*
X137099808Y-67103413D01*
X141688192Y-67103413D01*
X141783956Y-67367814D01*
X142073571Y-67508704D01*
X142385108Y-67590384D01*
X142706595Y-67609718D01*
X143025675Y-67565961D01*
X143330088Y-67460795D01*
X143504044Y-67367814D01*
X143599808Y-67103413D01*
X142644000Y-66147605D01*
X141688192Y-67103413D01*
X137099808Y-67103413D01*
X136144000Y-66147605D01*
X135188192Y-67103413D01*
X133476391Y-67103413D01*
X134507941Y-66071863D01*
X134546039Y-66349675D01*
X134651205Y-66654088D01*
X134744186Y-66828044D01*
X135008587Y-66923808D01*
X135964395Y-65968000D01*
X136323605Y-65968000D01*
X137279413Y-66923808D01*
X137543814Y-66828044D01*
X137684704Y-66538429D01*
X137766384Y-66226892D01*
X137778189Y-66030595D01*
X141002282Y-66030595D01*
X141046039Y-66349675D01*
X141151205Y-66654088D01*
X141244186Y-66828044D01*
X141508587Y-66923808D01*
X142464395Y-65968000D01*
X142823605Y-65968000D01*
X143779413Y-66923808D01*
X144043814Y-66828044D01*
X144184704Y-66538429D01*
X144266384Y-66226892D01*
X144285718Y-65905405D01*
X144241961Y-65586325D01*
X144136795Y-65281912D01*
X144043814Y-65107956D01*
X143779413Y-65012192D01*
X142823605Y-65968000D01*
X142464395Y-65968000D01*
X141508587Y-65012192D01*
X141244186Y-65107956D01*
X141103296Y-65397571D01*
X141021616Y-65709108D01*
X141002282Y-66030595D01*
X137778189Y-66030595D01*
X137785718Y-65905405D01*
X137741961Y-65586325D01*
X137636795Y-65281912D01*
X137543814Y-65107956D01*
X137279413Y-65012192D01*
X136323605Y-65968000D01*
X135964395Y-65968000D01*
X135008587Y-65012192D01*
X134872000Y-65061663D01*
X134872000Y-64832587D01*
X135188192Y-64832587D01*
X136144000Y-65788395D01*
X137099808Y-64832587D01*
X141688192Y-64832587D01*
X142644000Y-65788395D01*
X143599808Y-64832587D01*
X143504044Y-64568186D01*
X143214429Y-64427296D01*
X142902892Y-64345616D01*
X142581405Y-64326282D01*
X142262325Y-64370039D01*
X141957912Y-64475205D01*
X141783956Y-64568186D01*
X141688192Y-64832587D01*
X137099808Y-64832587D01*
X137004044Y-64568186D01*
X136714429Y-64427296D01*
X136402892Y-64345616D01*
X136081405Y-64326282D01*
X135762325Y-64370039D01*
X135457912Y-64475205D01*
X135283956Y-64568186D01*
X135188192Y-64832587D01*
X134872000Y-64832587D01*
X134872000Y-63814801D01*
X135652624Y-63034177D01*
X135667088Y-63040168D01*
X135982967Y-63103000D01*
X136305033Y-63103000D01*
X136620912Y-63040168D01*
X136918463Y-62916918D01*
X137186252Y-62737987D01*
X137413987Y-62510252D01*
X137592918Y-62242463D01*
X137598909Y-62228000D01*
X141189091Y-62228000D01*
X141195082Y-62242463D01*
X141374013Y-62510252D01*
X141601748Y-62737987D01*
X141869537Y-62916918D01*
X142167088Y-63040168D01*
X142482967Y-63103000D01*
X142805033Y-63103000D01*
X143120912Y-63040168D01*
X143418463Y-62916918D01*
X143686252Y-62737987D01*
X143913987Y-62510252D01*
X144092918Y-62242463D01*
X144216168Y-61944912D01*
X144279000Y-61629033D01*
X144279000Y-61306967D01*
X144216168Y-60991088D01*
X144092918Y-60693537D01*
X143913987Y-60425748D01*
X143686252Y-60198013D01*
X143418463Y-60019082D01*
X143120912Y-59895832D01*
X142805033Y-59833000D01*
X142482967Y-59833000D01*
X142167088Y-59895832D01*
X141869537Y-60019082D01*
X141601748Y-60198013D01*
X141374013Y-60425748D01*
X141195082Y-60693537D01*
X141189091Y-60708000D01*
X137598909Y-60708000D01*
X137592918Y-60693537D01*
X137413987Y-60425748D01*
X137186252Y-60198013D01*
X136918463Y-60019082D01*
X136620912Y-59895832D01*
X136305033Y-59833000D01*
X135982967Y-59833000D01*
X135667088Y-59895832D01*
X135369537Y-60019082D01*
X135101748Y-60198013D01*
X134874013Y-60425748D01*
X134695082Y-60693537D01*
X134571832Y-60991088D01*
X134509000Y-61306967D01*
X134509000Y-61629033D01*
X134571832Y-61944912D01*
X134577823Y-61959376D01*
X133600998Y-62936201D01*
X133572000Y-62959999D01*
X133548202Y-62988997D01*
X133548201Y-62988998D01*
X133477026Y-63075724D01*
X133406454Y-63207754D01*
X133362998Y-63351015D01*
X133348324Y-63500000D01*
X133352001Y-63537332D01*
X133352000Y-65078200D01*
X132715978Y-65714222D01*
X132559637Y-65480241D01*
X132359759Y-65280363D01*
X132127241Y-65125000D01*
X132359759Y-64969637D01*
X132559637Y-64769759D01*
X132716680Y-64534727D01*
X132824853Y-64273574D01*
X132880000Y-63996335D01*
X132880000Y-63713665D01*
X132824853Y-63436426D01*
X132716680Y-63175273D01*
X132559637Y-62940241D01*
X132549199Y-62929803D01*
X133607004Y-61871998D01*
X133636001Y-61848201D01*
X133730974Y-61732476D01*
X133801546Y-61600447D01*
X133845003Y-61457186D01*
X133856000Y-61345533D01*
X133856000Y-61345525D01*
X133859676Y-61308200D01*
X133856000Y-61270875D01*
X133856000Y-57330818D01*
X135888787Y-57330818D01*
X136380946Y-57933149D01*
X137231933Y-58403063D01*
X138158243Y-58697929D01*
X139124281Y-58806414D01*
X140092921Y-58724351D01*
X141026938Y-58454893D01*
X141890440Y-58008394D01*
X142003054Y-57933149D01*
X142495213Y-57330818D01*
X139192000Y-54027605D01*
X135888787Y-57330818D01*
X133856000Y-57330818D01*
X133856000Y-54901325D01*
X133859676Y-54864000D01*
X133856000Y-54826675D01*
X133856000Y-54826667D01*
X133845003Y-54715014D01*
X133801546Y-54571753D01*
X133730974Y-54439724D01*
X133636001Y-54323999D01*
X133607003Y-54300201D01*
X133087083Y-53780281D01*
X134233586Y-53780281D01*
X134315649Y-54748921D01*
X134585107Y-55682938D01*
X135031606Y-56546440D01*
X135106851Y-56659054D01*
X135709182Y-57151213D01*
X139012395Y-53848000D01*
X139371605Y-53848000D01*
X142674818Y-57151213D01*
X143277149Y-56659054D01*
X143747063Y-55808067D01*
X144041929Y-54881757D01*
X144150414Y-53915719D01*
X144068351Y-52947079D01*
X143798893Y-52013062D01*
X143352394Y-51149560D01*
X143277149Y-51036946D01*
X142674818Y-50544787D01*
X139371605Y-53848000D01*
X139012395Y-53848000D01*
X135709182Y-50544787D01*
X135106851Y-51036946D01*
X134636937Y-51887933D01*
X134342071Y-52814243D01*
X134233586Y-53780281D01*
X133087083Y-53780281D01*
X132880000Y-53573199D01*
X132880000Y-53553665D01*
X132824853Y-53276426D01*
X132716680Y-53015273D01*
X132559637Y-52780241D01*
X132359759Y-52580363D01*
X132127241Y-52425000D01*
X132359759Y-52269637D01*
X132559637Y-52069759D01*
X132716680Y-51834727D01*
X132824853Y-51573574D01*
X132880000Y-51296335D01*
X132880000Y-51013665D01*
X132824853Y-50736426D01*
X132716680Y-50475273D01*
X132643120Y-50365182D01*
X135888787Y-50365182D01*
X139192000Y-53668395D01*
X142495213Y-50365182D01*
X142003054Y-49762851D01*
X141152067Y-49292937D01*
X140225757Y-48998071D01*
X139259719Y-48889586D01*
X138291079Y-48971649D01*
X137357062Y-49241107D01*
X136493560Y-49687606D01*
X136380946Y-49762851D01*
X135888787Y-50365182D01*
X132643120Y-50365182D01*
X132559637Y-50240241D01*
X132359759Y-50040363D01*
X132124727Y-49883320D01*
X131863574Y-49775147D01*
X131586335Y-49720000D01*
X131303665Y-49720000D01*
X131026426Y-49775147D01*
X130765273Y-49883320D01*
X130530241Y-50040363D01*
X130330363Y-50240241D01*
X130223053Y-50400842D01*
X130170714Y-50405997D01*
X130027453Y-50449454D01*
X129895424Y-50520026D01*
X129779699Y-50614999D01*
X129755901Y-50643997D01*
X128879599Y-51520300D01*
X125263072Y-51520300D01*
X125263072Y-50355000D01*
X125250812Y-50230518D01*
X125214502Y-50110820D01*
X125155537Y-50000506D01*
X125076185Y-49903815D01*
X124979494Y-49824463D01*
X124869180Y-49765498D01*
X124749482Y-49729188D01*
X124625000Y-49716928D01*
X123025000Y-49716928D01*
X122900518Y-49729188D01*
X122780820Y-49765498D01*
X122670506Y-49824463D01*
X122573815Y-49903815D01*
X122494463Y-50000506D01*
X122435498Y-50110820D01*
X122399188Y-50230518D01*
X122386928Y-50355000D01*
X122386928Y-51520300D01*
X121150422Y-51520300D01*
X121113099Y-51516624D01*
X121075776Y-51520300D01*
X121075767Y-51520300D01*
X120964114Y-51531297D01*
X120820853Y-51574754D01*
X120688824Y-51645326D01*
X120573099Y-51740299D01*
X120549296Y-51769303D01*
X120437299Y-51881300D01*
X118836072Y-51881300D01*
X118836072Y-50585000D01*
X118823812Y-50460518D01*
X118787502Y-50340820D01*
X118728537Y-50230506D01*
X118649185Y-50133815D01*
X118552494Y-50054463D01*
X118442180Y-49995498D01*
X118322482Y-49959188D01*
X118198000Y-49946928D01*
X116498000Y-49946928D01*
X116373518Y-49959188D01*
X116253820Y-49995498D01*
X116143506Y-50054463D01*
X116046815Y-50133815D01*
X115967463Y-50230506D01*
X115908498Y-50340820D01*
X115886487Y-50413380D01*
X115754632Y-50281525D01*
X115511411Y-50119010D01*
X115241158Y-50007068D01*
X114954260Y-49950000D01*
X114661740Y-49950000D01*
X114374842Y-50007068D01*
X114104589Y-50119010D01*
X113861368Y-50281525D01*
X113654525Y-50488368D01*
X113538000Y-50662760D01*
X113421475Y-50488368D01*
X113214632Y-50281525D01*
X112971411Y-50119010D01*
X112701158Y-50007068D01*
X112414260Y-49950000D01*
X112121740Y-49950000D01*
X111834842Y-50007068D01*
X111564589Y-50119010D01*
X111321368Y-50281525D01*
X111114525Y-50488368D01*
X110992805Y-50670534D01*
X110923178Y-50553645D01*
X110728269Y-50337412D01*
X110494920Y-50163359D01*
X110232099Y-50038175D01*
X110084890Y-49993524D01*
X109855000Y-50114845D01*
X109601000Y-50114845D01*
X109371110Y-49993524D01*
X109223901Y-50038175D01*
X108961080Y-50163359D01*
X108727731Y-50337412D01*
X108532822Y-50553645D01*
X108383843Y-50803748D01*
X108286519Y-51078109D01*
X106349705Y-51078109D01*
X106382258Y-50746114D01*
X106545442Y-50205624D01*
X106810494Y-49707133D01*
X107167326Y-49269612D01*
X107602350Y-48909729D01*
X108098983Y-48641201D01*
X108638315Y-48474251D01*
X109230596Y-48412000D01*
X141699722Y-48412000D01*
X142293886Y-48470258D01*
G37*
X142293886Y-48470258D02*
X142834376Y-48633442D01*
X143332867Y-48898494D01*
X143770388Y-49255326D01*
X144130271Y-49690350D01*
X144398799Y-50186983D01*
X144565749Y-50726315D01*
X144628000Y-51318596D01*
X144628001Y-84803712D01*
X144569742Y-85397886D01*
X144406559Y-85938374D01*
X144141506Y-86436867D01*
X143784669Y-86874393D01*
X143349653Y-87234269D01*
X142853019Y-87502798D01*
X142313690Y-87669749D01*
X141721404Y-87732000D01*
X109252278Y-87732000D01*
X108658114Y-87673742D01*
X108117626Y-87510559D01*
X107619133Y-87245506D01*
X107181607Y-86888669D01*
X106821731Y-86453653D01*
X106591159Y-86027218D01*
X108456787Y-86027218D01*
X108948946Y-86629549D01*
X109799933Y-87099463D01*
X110726243Y-87394329D01*
X111692281Y-87502814D01*
X112660921Y-87420751D01*
X113594938Y-87151293D01*
X114458440Y-86704794D01*
X114571054Y-86629549D01*
X115063213Y-86027218D01*
X111760000Y-82724005D01*
X108456787Y-86027218D01*
X106591159Y-86027218D01*
X106553202Y-85957019D01*
X106386251Y-85417690D01*
X106324000Y-84825404D01*
X106324000Y-82476681D01*
X106801586Y-82476681D01*
X106883649Y-83445321D01*
X107153107Y-84379338D01*
X107599606Y-85242840D01*
X107674851Y-85355454D01*
X108277182Y-85847613D01*
X111580395Y-82544400D01*
X111939605Y-82544400D01*
X115242818Y-85847613D01*
X115845149Y-85355454D01*
X116315063Y-84504467D01*
X116609929Y-83578157D01*
X116621176Y-83478000D01*
X117383928Y-83478000D01*
X117383928Y-85178000D01*
X117396188Y-85302482D01*
X117432498Y-85422180D01*
X117491463Y-85532494D01*
X117570815Y-85629185D01*
X117667506Y-85708537D01*
X117777820Y-85767502D01*
X117897518Y-85803812D01*
X118022000Y-85816072D01*
X119722000Y-85816072D01*
X119846482Y-85803812D01*
X119966180Y-85767502D01*
X120076494Y-85708537D01*
X120173185Y-85629185D01*
X120252537Y-85532494D01*
X120311502Y-85422180D01*
X120347812Y-85302482D01*
X120360072Y-85178000D01*
X120360072Y-83478000D01*
X120347812Y-83353518D01*
X120311502Y-83233820D01*
X120252537Y-83123506D01*
X120173185Y-83026815D01*
X120076494Y-82947463D01*
X119966180Y-82888498D01*
X119893620Y-82866487D01*
X120025475Y-82734632D01*
X120187990Y-82491411D01*
X120299932Y-82221158D01*
X120357000Y-81934260D01*
X120357000Y-81641740D01*
X120299932Y-81354842D01*
X120187990Y-81084589D01*
X120025475Y-80841368D01*
X119818632Y-80634525D01*
X119575411Y-80472010D01*
X119305158Y-80360068D01*
X119018260Y-80303000D01*
X118725740Y-80303000D01*
X118438842Y-80360068D01*
X118168589Y-80472010D01*
X117925368Y-80634525D01*
X117718525Y-80841368D01*
X117556010Y-81084589D01*
X117444068Y-81354842D01*
X117387000Y-81641740D01*
X117387000Y-81934260D01*
X117444068Y-82221158D01*
X117556010Y-82491411D01*
X117718525Y-82734632D01*
X117850380Y-82866487D01*
X117777820Y-82888498D01*
X117667506Y-82947463D01*
X117570815Y-83026815D01*
X117491463Y-83123506D01*
X117432498Y-83233820D01*
X117396188Y-83353518D01*
X117383928Y-83478000D01*
X116621176Y-83478000D01*
X116718414Y-82612119D01*
X116636351Y-81643479D01*
X116366893Y-80709462D01*
X115920394Y-79845960D01*
X115845149Y-79733346D01*
X115242818Y-79241187D01*
X111939605Y-82544400D01*
X111580395Y-82544400D01*
X108277182Y-79241187D01*
X107674851Y-79733346D01*
X107204937Y-80584333D01*
X106910071Y-81510643D01*
X106801586Y-82476681D01*
X106324000Y-82476681D01*
X106324000Y-79061582D01*
X108456787Y-79061582D01*
X111760000Y-82364795D01*
X115063213Y-79061582D01*
X114571054Y-78459251D01*
X113720067Y-77989337D01*
X112793757Y-77694471D01*
X111827719Y-77585986D01*
X110859079Y-77668049D01*
X109925062Y-77937507D01*
X109061560Y-78384006D01*
X108948946Y-78459251D01*
X108456787Y-79061582D01*
X106324000Y-79061582D01*
X106324000Y-76413665D01*
X122390000Y-76413665D01*
X122390000Y-76696335D01*
X122445147Y-76973574D01*
X122553320Y-77234727D01*
X122710363Y-77469759D01*
X122910241Y-77669637D01*
X123142759Y-77825000D01*
X122910241Y-77980363D01*
X122710363Y-78180241D01*
X122553320Y-78415273D01*
X122445147Y-78676426D01*
X122390000Y-78953665D01*
X122390000Y-79236335D01*
X122445147Y-79513574D01*
X122553320Y-79774727D01*
X122710363Y-80009759D01*
X122910241Y-80209637D01*
X123142759Y-80365000D01*
X122910241Y-80520363D01*
X122710363Y-80720241D01*
X122553320Y-80955273D01*
X122445147Y-81216426D01*
X122390000Y-81493665D01*
X122390000Y-81776335D01*
X122445147Y-82053574D01*
X122553320Y-82314727D01*
X122710363Y-82549759D01*
X122910241Y-82749637D01*
X123142759Y-82905000D01*
X122910241Y-83060363D01*
X122710363Y-83260241D01*
X122553320Y-83495273D01*
X122445147Y-83756426D01*
X122390000Y-84033665D01*
X122390000Y-84316335D01*
X122445147Y-84593574D01*
X122553320Y-84854727D01*
X122710363Y-85089759D01*
X122910241Y-85289637D01*
X123145273Y-85446680D01*
X123406426Y-85554853D01*
X123683665Y-85610000D01*
X123966335Y-85610000D01*
X124243574Y-85554853D01*
X124504727Y-85446680D01*
X124739759Y-85289637D01*
X124939637Y-85089759D01*
X124980902Y-85028000D01*
X125269928Y-85028000D01*
X125282188Y-85152482D01*
X125318498Y-85272180D01*
X125377463Y-85382494D01*
X125456815Y-85479185D01*
X125553506Y-85558537D01*
X125663820Y-85617502D01*
X125783518Y-85653812D01*
X125908000Y-85666072D01*
X126197250Y-85663000D01*
X126356000Y-85504250D01*
X126356000Y-84455000D01*
X125431750Y-84455000D01*
X125273000Y-84613750D01*
X125269928Y-85028000D01*
X124980902Y-85028000D01*
X125096680Y-84854727D01*
X125204853Y-84593574D01*
X125260000Y-84316335D01*
X125260000Y-84033665D01*
X125204853Y-83756426D01*
X125151658Y-83628000D01*
X125269928Y-83628000D01*
X125273000Y-84042250D01*
X125431750Y-84201000D01*
X126356000Y-84201000D01*
X126356000Y-83151750D01*
X126197250Y-82993000D01*
X125908000Y-82989928D01*
X125783518Y-83002188D01*
X125663820Y-83038498D01*
X125553506Y-83097463D01*
X125456815Y-83176815D01*
X125377463Y-83273506D01*
X125318498Y-83383820D01*
X125282188Y-83503518D01*
X125269928Y-83628000D01*
X125151658Y-83628000D01*
X125096680Y-83495273D01*
X124939637Y-83260241D01*
X124739759Y-83060363D01*
X124507241Y-82905000D01*
X124739759Y-82749637D01*
X124939637Y-82549759D01*
X125096680Y-82314727D01*
X125204853Y-82053574D01*
X125219487Y-81980000D01*
X125260928Y-81980000D01*
X125273188Y-82104482D01*
X125309498Y-82224180D01*
X125368463Y-82334494D01*
X125447815Y-82431185D01*
X125544506Y-82510537D01*
X125654820Y-82569502D01*
X125774518Y-82605812D01*
X125899000Y-82618072D01*
X126188250Y-82615000D01*
X126347000Y-82456250D01*
X126347000Y-81407000D01*
X125422750Y-81407000D01*
X125264000Y-81565750D01*
X125260928Y-81980000D01*
X125219487Y-81980000D01*
X125260000Y-81776335D01*
X125260000Y-81493665D01*
X125204853Y-81216426D01*
X125096680Y-80955273D01*
X124939637Y-80720241D01*
X124799396Y-80580000D01*
X125260928Y-80580000D01*
X125264000Y-80994250D01*
X125422750Y-81153000D01*
X126347000Y-81153000D01*
X126347000Y-80103750D01*
X126188250Y-79945000D01*
X125899000Y-79941928D01*
X125774518Y-79954188D01*
X125654820Y-79990498D01*
X125544506Y-80049463D01*
X125447815Y-80128815D01*
X125368463Y-80225506D01*
X125309498Y-80335820D01*
X125273188Y-80455518D01*
X125260928Y-80580000D01*
X124799396Y-80580000D01*
X124739759Y-80520363D01*
X124507241Y-80365000D01*
X124739759Y-80209637D01*
X124939637Y-80009759D01*
X125096680Y-79774727D01*
X125204853Y-79513574D01*
X125260000Y-79236335D01*
X125260000Y-78953665D01*
X125255691Y-78932000D01*
X125278928Y-78932000D01*
X125291188Y-79056482D01*
X125327498Y-79176180D01*
X125386463Y-79286494D01*
X125465815Y-79383185D01*
X125562506Y-79462537D01*
X125672820Y-79521502D01*
X125792518Y-79557812D01*
X125917000Y-79570072D01*
X126206250Y-79567000D01*
X126365000Y-79408250D01*
X126365000Y-78359000D01*
X125440750Y-78359000D01*
X125282000Y-78517750D01*
X125278928Y-78932000D01*
X125255691Y-78932000D01*
X125204853Y-78676426D01*
X125096680Y-78415273D01*
X124939637Y-78180241D01*
X124739759Y-77980363D01*
X124507241Y-77825000D01*
X124739759Y-77669637D01*
X124877396Y-77532000D01*
X125278928Y-77532000D01*
X125282000Y-77946250D01*
X125440750Y-78105000D01*
X126365000Y-78105000D01*
X126365000Y-77055750D01*
X126206250Y-76897000D01*
X125917000Y-76893928D01*
X125792518Y-76906188D01*
X125672820Y-76942498D01*
X125562506Y-77001463D01*
X125465815Y-77080815D01*
X125386463Y-77177506D01*
X125327498Y-77287820D01*
X125291188Y-77407518D01*
X125278928Y-77532000D01*
X124877396Y-77532000D01*
X124939637Y-77469759D01*
X125096680Y-77234727D01*
X125204853Y-76973574D01*
X125260000Y-76696335D01*
X125260000Y-76413665D01*
X125204853Y-76136426D01*
X125096680Y-75875273D01*
X124939637Y-75640241D01*
X124739759Y-75440363D01*
X124504727Y-75283320D01*
X124494135Y-75278933D01*
X124680131Y-75167385D01*
X124888519Y-74978414D01*
X125056037Y-74752420D01*
X125176246Y-74498087D01*
X125216904Y-74364039D01*
X125094915Y-74142000D01*
X123952000Y-74142000D01*
X123952000Y-74162000D01*
X123698000Y-74162000D01*
X123698000Y-74142000D01*
X122555085Y-74142000D01*
X122433096Y-74364039D01*
X122473754Y-74498087D01*
X122593963Y-74752420D01*
X122761481Y-74978414D01*
X122969869Y-75167385D01*
X123155865Y-75278933D01*
X123145273Y-75283320D01*
X122910241Y-75440363D01*
X122710363Y-75640241D01*
X122553320Y-75875273D01*
X122445147Y-76136426D01*
X122390000Y-76413665D01*
X106324000Y-76413665D01*
X106324000Y-72111891D01*
X108413519Y-72111891D01*
X108510843Y-72386252D01*
X108659822Y-72636355D01*
X108854731Y-72852588D01*
X109088080Y-73026641D01*
X109350901Y-73151825D01*
X109498110Y-73196476D01*
X109728000Y-73075155D01*
X109728000Y-71882000D01*
X108534186Y-71882000D01*
X108413519Y-72111891D01*
X106324000Y-72111891D01*
X106324000Y-71398109D01*
X108413519Y-71398109D01*
X108534186Y-71628000D01*
X109728000Y-71628000D01*
X109728000Y-70434845D01*
X109498110Y-70313524D01*
X109350901Y-70358175D01*
X109088080Y-70483359D01*
X108854731Y-70657412D01*
X108659822Y-70873645D01*
X108510843Y-71123748D01*
X108413519Y-71398109D01*
X106324000Y-71398109D01*
X106324000Y-67031891D01*
X108413519Y-67031891D01*
X108510843Y-67306252D01*
X108659822Y-67556355D01*
X108854731Y-67772588D01*
X109088080Y-67946641D01*
X109350901Y-68071825D01*
X109498110Y-68116476D01*
X109728000Y-67995155D01*
X109728000Y-66802000D01*
X108534186Y-66802000D01*
X108413519Y-67031891D01*
X106324000Y-67031891D01*
X106324000Y-66318109D01*
X108413519Y-66318109D01*
X108534186Y-66548000D01*
X109728000Y-66548000D01*
X109728000Y-65354845D01*
X109498110Y-65233524D01*
X109350901Y-65278175D01*
X109088080Y-65403359D01*
X108854731Y-65577412D01*
X108659822Y-65793645D01*
X108510843Y-66043748D01*
X108413519Y-66318109D01*
X106324000Y-66318109D01*
X106324000Y-61951891D01*
X108413519Y-61951891D01*
X108510843Y-62226252D01*
X108659822Y-62476355D01*
X108854731Y-62692588D01*
X109088080Y-62866641D01*
X109350901Y-62991825D01*
X109498110Y-63036476D01*
X109728000Y-62915155D01*
X109728000Y-61722000D01*
X108534186Y-61722000D01*
X108413519Y-61951891D01*
X106324000Y-61951891D01*
X106324000Y-61238109D01*
X108413519Y-61238109D01*
X108534186Y-61468000D01*
X109728000Y-61468000D01*
X109728000Y-60274845D01*
X109498110Y-60153524D01*
X109350901Y-60198175D01*
X109088080Y-60323359D01*
X108854731Y-60497412D01*
X108659822Y-60713645D01*
X108510843Y-60963748D01*
X108413519Y-61238109D01*
X106324000Y-61238109D01*
X106324000Y-56871891D01*
X108413519Y-56871891D01*
X108510843Y-57146252D01*
X108659822Y-57396355D01*
X108854731Y-57612588D01*
X109088080Y-57786641D01*
X109350901Y-57911825D01*
X109498110Y-57956476D01*
X109728000Y-57835155D01*
X109728000Y-56642000D01*
X108534186Y-56642000D01*
X108413519Y-56871891D01*
X106324000Y-56871891D01*
X106324000Y-56158109D01*
X108413519Y-56158109D01*
X108534186Y-56388000D01*
X109728000Y-56388000D01*
X109728000Y-55194845D01*
X109498110Y-55073524D01*
X109350901Y-55118175D01*
X109088080Y-55243359D01*
X108854731Y-55417412D01*
X108659822Y-55633645D01*
X108510843Y-55883748D01*
X108413519Y-56158109D01*
X106324000Y-56158109D01*
X106324000Y-51791891D01*
X108286519Y-51791891D01*
X108383843Y-52066252D01*
X108532822Y-52316355D01*
X108727731Y-52532588D01*
X108961080Y-52706641D01*
X109223901Y-52831825D01*
X109371110Y-52876476D01*
X109601000Y-52755155D01*
X109601000Y-51562000D01*
X108407186Y-51562000D01*
X108286519Y-51791891D01*
X106324000Y-51791891D01*
X106324000Y-51340278D01*
X106349705Y-51078109D01*
X108286519Y-51078109D01*
X108407186Y-51308000D01*
X109601000Y-51308000D01*
X109601000Y-50114845D01*
X109855000Y-50114845D01*
X109855000Y-51308000D01*
X109875000Y-51308000D01*
X109875000Y-51562000D01*
X109855000Y-51562000D01*
X109855000Y-52755155D01*
X110084890Y-52876476D01*
X110232099Y-52831825D01*
X110494920Y-52706641D01*
X110728269Y-52532588D01*
X110923178Y-52316355D01*
X110992805Y-52199466D01*
X111114525Y-52381632D01*
X111321368Y-52588475D01*
X111564589Y-52750990D01*
X111834842Y-52862932D01*
X112121740Y-52920000D01*
X112414260Y-52920000D01*
X112701158Y-52862932D01*
X112971411Y-52750990D01*
X113214632Y-52588475D01*
X113421475Y-52381632D01*
X113538000Y-52207240D01*
X113654525Y-52381632D01*
X113708996Y-52436103D01*
X110782193Y-55362906D01*
X110621920Y-55243359D01*
X110359099Y-55118175D01*
X110211890Y-55073524D01*
X109982000Y-55194845D01*
X109982000Y-56388000D01*
X110002000Y-56388000D01*
X110002000Y-56642000D01*
X109982000Y-56642000D01*
X109982000Y-57835155D01*
X110211890Y-57956476D01*
X110359099Y-57911825D01*
X110621920Y-57786641D01*
X110758194Y-57684995D01*
X113757509Y-60684311D01*
X113665000Y-60822760D01*
X113548475Y-60648368D01*
X113341632Y-60441525D01*
X113098411Y-60279010D01*
X112828158Y-60167068D01*
X112541260Y-60110000D01*
X112248740Y-60110000D01*
X111961842Y-60167068D01*
X111691589Y-60279010D01*
X111448368Y-60441525D01*
X111241525Y-60648368D01*
X111119805Y-60830534D01*
X111050178Y-60713645D01*
X110855269Y-60497412D01*
X110621920Y-60323359D01*
X110359099Y-60198175D01*
X110211890Y-60153524D01*
X109982000Y-60274845D01*
X109982000Y-61468000D01*
X110002000Y-61468000D01*
X110002000Y-61722000D01*
X109982000Y-61722000D01*
X109982000Y-62915155D01*
X110211890Y-63036476D01*
X110359099Y-62991825D01*
X110621920Y-62866641D01*
X110855269Y-62692588D01*
X111050178Y-62476355D01*
X111119805Y-62359466D01*
X111241525Y-62541632D01*
X111448368Y-62748475D01*
X111691589Y-62910990D01*
X111961842Y-63022932D01*
X112248740Y-63080000D01*
X112541260Y-63080000D01*
X112828158Y-63022932D01*
X113098411Y-62910990D01*
X113341632Y-62748475D01*
X113548475Y-62541632D01*
X113665000Y-62367240D01*
X113781525Y-62541632D01*
X113988368Y-62748475D01*
X114231589Y-62910990D01*
X114263140Y-62924059D01*
X111924779Y-65262420D01*
X111691589Y-65359010D01*
X111448368Y-65521525D01*
X111241525Y-65728368D01*
X111119805Y-65910534D01*
X111050178Y-65793645D01*
X110855269Y-65577412D01*
X110621920Y-65403359D01*
X110359099Y-65278175D01*
X110211890Y-65233524D01*
X109982000Y-65354845D01*
X109982000Y-66548000D01*
X110002000Y-66548000D01*
X110002000Y-66802000D01*
X109982000Y-66802000D01*
X109982000Y-67995155D01*
X110211890Y-68116476D01*
X110359099Y-68071825D01*
X110621920Y-67946641D01*
X110855269Y-67772588D01*
X111050178Y-67556355D01*
X111119805Y-67439466D01*
X111241525Y-67621632D01*
X111448368Y-67828475D01*
X111691589Y-67990990D01*
X111961842Y-68102932D01*
X112248740Y-68160000D01*
X112541260Y-68160000D01*
X112828158Y-68102932D01*
X113098411Y-67990990D01*
X113341632Y-67828475D01*
X113548475Y-67621632D01*
X113665000Y-67447240D01*
X113781525Y-67621632D01*
X113988368Y-67828475D01*
X114231589Y-67990990D01*
X114501842Y-68102932D01*
X114788740Y-68160000D01*
X115081260Y-68160000D01*
X115368158Y-68102932D01*
X115638411Y-67990990D01*
X115881632Y-67828475D01*
X116013487Y-67696620D01*
X116035498Y-67769180D01*
X116094463Y-67879494D01*
X116173815Y-67976185D01*
X116270506Y-68055537D01*
X116380820Y-68114502D01*
X116500518Y-68150812D01*
X116625000Y-68163072D01*
X117316827Y-68163072D01*
X115599298Y-69880601D01*
X115570300Y-69904399D01*
X115546502Y-69933397D01*
X115546501Y-69933398D01*
X115475326Y-70020124D01*
X115404754Y-70152154D01*
X115361298Y-70295415D01*
X115358372Y-70325121D01*
X115081260Y-70270000D01*
X114788740Y-70270000D01*
X114501842Y-70327068D01*
X114231589Y-70439010D01*
X113988368Y-70601525D01*
X113781525Y-70808368D01*
X113665000Y-70982760D01*
X113548475Y-70808368D01*
X113341632Y-70601525D01*
X113098411Y-70439010D01*
X112828158Y-70327068D01*
X112541260Y-70270000D01*
X112248740Y-70270000D01*
X111961842Y-70327068D01*
X111691589Y-70439010D01*
X111448368Y-70601525D01*
X111241525Y-70808368D01*
X111119805Y-70990534D01*
X111050178Y-70873645D01*
X110855269Y-70657412D01*
X110621920Y-70483359D01*
X110359099Y-70358175D01*
X110211890Y-70313524D01*
X109982000Y-70434845D01*
X109982000Y-71628000D01*
X110002000Y-71628000D01*
X110002000Y-71882000D01*
X109982000Y-71882000D01*
X109982000Y-73075155D01*
X110211890Y-73196476D01*
X110359099Y-73151825D01*
X110621920Y-73026641D01*
X110855269Y-72852588D01*
X111050178Y-72636355D01*
X111119805Y-72519466D01*
X111241525Y-72701632D01*
X111448368Y-72908475D01*
X111691589Y-73070990D01*
X111961842Y-73182932D01*
X112248740Y-73240000D01*
X112541260Y-73240000D01*
X112828158Y-73182932D01*
X113098411Y-73070990D01*
X113341632Y-72908475D01*
X113548475Y-72701632D01*
X113665000Y-72527240D01*
X113781525Y-72701632D01*
X113988368Y-72908475D01*
X114231589Y-73070990D01*
X114501842Y-73182932D01*
X114788740Y-73240000D01*
X115081260Y-73240000D01*
X115368158Y-73182932D01*
X115638411Y-73070990D01*
X115881632Y-72908475D01*
X116013487Y-72776620D01*
X116035498Y-72849180D01*
X116094463Y-72959494D01*
X116173815Y-73056185D01*
X116270506Y-73135537D01*
X116380820Y-73194502D01*
X116500518Y-73230812D01*
X116625000Y-73243072D01*
X118325000Y-73243072D01*
X118449482Y-73230812D01*
X118569180Y-73194502D01*
X118679494Y-73135537D01*
X118776185Y-73056185D01*
X118855537Y-72959494D01*
X118914502Y-72849180D01*
X118950812Y-72729482D01*
X118963072Y-72605000D01*
X118963072Y-70905000D01*
X118950812Y-70780518D01*
X118914502Y-70660820D01*
X118855537Y-70550506D01*
X118776185Y-70453815D01*
X118679494Y-70374463D01*
X118569180Y-70315498D01*
X118449482Y-70279188D01*
X118325000Y-70266928D01*
X117362573Y-70266928D01*
X122785053Y-64844449D01*
X122910241Y-64969637D01*
X123142759Y-65125000D01*
X122910241Y-65280363D01*
X122710363Y-65480241D01*
X122553320Y-65715273D01*
X122445147Y-65976426D01*
X122390000Y-66253665D01*
X122390000Y-66536335D01*
X122445147Y-66813574D01*
X122553320Y-67074727D01*
X122710363Y-67309759D01*
X122910241Y-67509637D01*
X123142759Y-67665000D01*
X122910241Y-67820363D01*
X122710363Y-68020241D01*
X122553320Y-68255273D01*
X122445147Y-68516426D01*
X122390000Y-68793665D01*
X122390000Y-69076335D01*
X122445147Y-69353574D01*
X122553320Y-69614727D01*
X122710363Y-69849759D01*
X122910241Y-70049637D01*
X123142759Y-70205000D01*
X122910241Y-70360363D01*
X122710363Y-70560241D01*
X122553320Y-70795273D01*
X122445147Y-71056426D01*
X122390000Y-71333665D01*
X122390000Y-71616335D01*
X122445147Y-71893574D01*
X122553320Y-72154727D01*
X122710363Y-72389759D01*
X122910241Y-72589637D01*
X123145273Y-72746680D01*
X123155865Y-72751067D01*
X122969869Y-72862615D01*
X122761481Y-73051586D01*
X122593963Y-73277580D01*
X122473754Y-73531913D01*
X122433096Y-73665961D01*
X122555085Y-73888000D01*
X123698000Y-73888000D01*
X123698000Y-73868000D01*
X123952000Y-73868000D01*
X123952000Y-73888000D01*
X125094915Y-73888000D01*
X125216904Y-73665961D01*
X125176246Y-73531913D01*
X125056037Y-73277580D01*
X124888519Y-73051586D01*
X124680131Y-72862615D01*
X124494135Y-72751067D01*
X124504727Y-72746680D01*
X124739759Y-72589637D01*
X124939637Y-72389759D01*
X125046947Y-72229158D01*
X125099286Y-72224003D01*
X125242547Y-72180546D01*
X125374576Y-72109974D01*
X125490301Y-72015001D01*
X125514104Y-71985997D01*
X127257208Y-70242894D01*
X127392745Y-70284008D01*
X127565999Y-70301072D01*
X128154270Y-70301072D01*
X128427300Y-70574102D01*
X128451099Y-70603101D01*
X128566824Y-70698074D01*
X128698853Y-70768646D01*
X128842114Y-70812103D01*
X128953767Y-70823100D01*
X128953775Y-70823100D01*
X128991100Y-70826776D01*
X129028425Y-70823100D01*
X129288000Y-70823100D01*
X129288001Y-76162667D01*
X129284324Y-76200000D01*
X129288001Y-76237333D01*
X129298998Y-76348986D01*
X129312180Y-76392442D01*
X129342454Y-76492246D01*
X129413026Y-76624276D01*
X129472164Y-76696335D01*
X129508000Y-76740001D01*
X129536998Y-76763799D01*
X129839196Y-77065997D01*
X129862999Y-77095001D01*
X129978724Y-77189974D01*
X130110753Y-77260546D01*
X130210862Y-77290913D01*
X130330363Y-77469759D01*
X130530241Y-77669637D01*
X130762759Y-77825000D01*
X130530241Y-77980363D01*
X130405053Y-78105551D01*
X130020503Y-77721002D01*
X129996701Y-77691999D01*
X129880976Y-77597026D01*
X129748947Y-77526454D01*
X129709407Y-77514460D01*
X129687472Y-77442149D01*
X129605405Y-77288613D01*
X129494962Y-77154038D01*
X129360387Y-77043595D01*
X129206851Y-76961528D01*
X129040255Y-76910992D01*
X128867001Y-76893928D01*
X128216999Y-76893928D01*
X128043745Y-76910992D01*
X127877149Y-76961528D01*
X127723613Y-77043595D01*
X127589038Y-77154038D01*
X127583658Y-77160594D01*
X127518185Y-77080815D01*
X127421494Y-77001463D01*
X127311180Y-76942498D01*
X127191482Y-76906188D01*
X127067000Y-76893928D01*
X126777750Y-76897000D01*
X126619000Y-77055750D01*
X126619000Y-78105000D01*
X126639000Y-78105000D01*
X126639000Y-78359000D01*
X126619000Y-78359000D01*
X126619000Y-79408250D01*
X126777750Y-79567000D01*
X127067000Y-79570072D01*
X127191482Y-79557812D01*
X127311180Y-79521502D01*
X127421494Y-79462537D01*
X127518185Y-79383185D01*
X127583658Y-79303406D01*
X127589038Y-79309962D01*
X127723613Y-79420405D01*
X127877149Y-79502472D01*
X128043745Y-79553008D01*
X128216999Y-79570072D01*
X128867001Y-79570072D01*
X129040255Y-79553008D01*
X129206851Y-79502472D01*
X129360387Y-79420405D01*
X129475683Y-79325784D01*
X129755901Y-79606003D01*
X129779699Y-79635001D01*
X129895424Y-79729974D01*
X130027453Y-79800546D01*
X130170714Y-79844003D01*
X130223053Y-79849158D01*
X130330363Y-80009759D01*
X130530241Y-80209637D01*
X130762759Y-80365000D01*
X130530241Y-80520363D01*
X130398095Y-80652509D01*
X130388976Y-80645026D01*
X130256947Y-80574454D01*
X130113686Y-80530997D01*
X130002033Y-80520000D01*
X130002022Y-80520000D01*
X129964700Y-80516324D01*
X129927378Y-80520000D01*
X129678527Y-80520000D01*
X129669472Y-80490149D01*
X129587405Y-80336613D01*
X129476962Y-80202038D01*
X129342387Y-80091595D01*
X129188851Y-80009528D01*
X129022255Y-79958992D01*
X128849001Y-79941928D01*
X128198999Y-79941928D01*
X128025745Y-79958992D01*
X127859149Y-80009528D01*
X127705613Y-80091595D01*
X127571038Y-80202038D01*
X127565658Y-80208594D01*
X127500185Y-80128815D01*
X127403494Y-80049463D01*
X127293180Y-79990498D01*
X127173482Y-79954188D01*
X127049000Y-79941928D01*
X126759750Y-79945000D01*
X126601000Y-80103750D01*
X126601000Y-81153000D01*
X126621000Y-81153000D01*
X126621000Y-81407000D01*
X126601000Y-81407000D01*
X126601000Y-82456250D01*
X126759750Y-82615000D01*
X127049000Y-82618072D01*
X127173482Y-82605812D01*
X127293180Y-82569502D01*
X127403494Y-82510537D01*
X127500185Y-82431185D01*
X127565658Y-82351406D01*
X127571038Y-82357962D01*
X127705613Y-82468405D01*
X127859149Y-82550472D01*
X128025745Y-82601008D01*
X128198999Y-82618072D01*
X128849001Y-82618072D01*
X129022255Y-82601008D01*
X129188851Y-82550472D01*
X129342387Y-82468405D01*
X129476962Y-82357962D01*
X129587405Y-82223387D01*
X129669472Y-82069851D01*
X129671864Y-82061965D01*
X129755896Y-82145997D01*
X129779699Y-82175001D01*
X129895424Y-82269974D01*
X130027453Y-82340546D01*
X130170714Y-82384003D01*
X130223053Y-82389158D01*
X130330363Y-82549759D01*
X130530241Y-82749637D01*
X130762759Y-82905000D01*
X130530241Y-83060363D01*
X130330363Y-83260241D01*
X130223053Y-83420842D01*
X130170714Y-83425997D01*
X130027453Y-83469454D01*
X129895424Y-83540026D01*
X129861338Y-83568000D01*
X129687527Y-83568000D01*
X129678472Y-83538149D01*
X129596405Y-83384613D01*
X129485962Y-83250038D01*
X129351387Y-83139595D01*
X129197851Y-83057528D01*
X129031255Y-83006992D01*
X128858001Y-82989928D01*
X128207999Y-82989928D01*
X128034745Y-83006992D01*
X127868149Y-83057528D01*
X127714613Y-83139595D01*
X127580038Y-83250038D01*
X127574658Y-83256594D01*
X127509185Y-83176815D01*
X127412494Y-83097463D01*
X127302180Y-83038498D01*
X127182482Y-83002188D01*
X127058000Y-82989928D01*
X126768750Y-82993000D01*
X126610000Y-83151750D01*
X126610000Y-84201000D01*
X126630000Y-84201000D01*
X126630000Y-84455000D01*
X126610000Y-84455000D01*
X126610000Y-85504250D01*
X126768750Y-85663000D01*
X127058000Y-85666072D01*
X127182482Y-85653812D01*
X127302180Y-85617502D01*
X127412494Y-85558537D01*
X127509185Y-85479185D01*
X127574658Y-85399406D01*
X127580038Y-85405962D01*
X127714613Y-85516405D01*
X127868149Y-85598472D01*
X128034745Y-85649008D01*
X128207999Y-85666072D01*
X128858001Y-85666072D01*
X129031255Y-85649008D01*
X129197851Y-85598472D01*
X129351387Y-85516405D01*
X129485962Y-85405962D01*
X129596405Y-85271387D01*
X129678472Y-85117851D01*
X129687527Y-85088000D01*
X130129378Y-85088000D01*
X130166700Y-85091676D01*
X130204022Y-85088000D01*
X130204033Y-85088000D01*
X130315686Y-85077003D01*
X130320803Y-85075451D01*
X130330363Y-85089759D01*
X130530241Y-85289637D01*
X130765273Y-85446680D01*
X131026426Y-85554853D01*
X131303665Y-85610000D01*
X131586335Y-85610000D01*
X131863574Y-85554853D01*
X132124727Y-85446680D01*
X132359759Y-85289637D01*
X132559637Y-85089759D01*
X132663043Y-84935000D01*
X132703678Y-84935000D01*
X132741000Y-84938676D01*
X132778322Y-84935000D01*
X132778333Y-84935000D01*
X132889986Y-84924003D01*
X133033247Y-84880546D01*
X133165276Y-84809974D01*
X133281001Y-84715001D01*
X133304804Y-84685997D01*
X136966802Y-81024000D01*
X137003473Y-81024000D01*
X137012528Y-81053851D01*
X137094595Y-81207387D01*
X137205038Y-81341962D01*
X137339613Y-81452405D01*
X137493149Y-81534472D01*
X137659745Y-81585008D01*
X137832999Y-81602072D01*
X138483001Y-81602072D01*
X138656255Y-81585008D01*
X138822851Y-81534472D01*
X138976387Y-81452405D01*
X139110962Y-81341962D01*
X139183000Y-81254184D01*
X139255038Y-81341962D01*
X139389613Y-81452405D01*
X139441213Y-81479986D01*
X138589271Y-82331928D01*
X137326000Y-82331928D01*
X137201518Y-82344188D01*
X137081820Y-82380498D01*
X136971506Y-82439463D01*
X136874815Y-82518815D01*
X136795463Y-82615506D01*
X136736498Y-82725820D01*
X136700188Y-82845518D01*
X136687928Y-82970000D01*
X136687928Y-84670000D01*
X136700188Y-84794482D01*
X136736498Y-84914180D01*
X136795463Y-85024494D01*
X136874815Y-85121185D01*
X136971506Y-85200537D01*
X137081820Y-85259502D01*
X137201518Y-85295812D01*
X137326000Y-85308072D01*
X139026000Y-85308072D01*
X139150482Y-85295812D01*
X139270180Y-85259502D01*
X139380494Y-85200537D01*
X139477185Y-85121185D01*
X139556537Y-85024494D01*
X139615502Y-84914180D01*
X139639966Y-84833534D01*
X139715731Y-84917588D01*
X139949080Y-85091641D01*
X140211901Y-85216825D01*
X140359110Y-85261476D01*
X140589000Y-85140155D01*
X140589000Y-83947000D01*
X140843000Y-83947000D01*
X140843000Y-85140155D01*
X141072890Y-85261476D01*
X141220099Y-85216825D01*
X141482920Y-85091641D01*
X141716269Y-84917588D01*
X141911178Y-84701355D01*
X142060157Y-84451252D01*
X142157481Y-84176891D01*
X142036814Y-83947000D01*
X140843000Y-83947000D01*
X140589000Y-83947000D01*
X140569000Y-83947000D01*
X140569000Y-83693000D01*
X140589000Y-83693000D01*
X140589000Y-83673000D01*
X140843000Y-83673000D01*
X140843000Y-83693000D01*
X142036814Y-83693000D01*
X142157481Y-83463109D01*
X142060157Y-83188748D01*
X141911178Y-82938645D01*
X141716269Y-82722412D01*
X141482920Y-82548359D01*
X141220099Y-82423175D01*
X141072890Y-82378524D01*
X140843002Y-82499844D01*
X140843002Y-82335000D01*
X140739473Y-82335000D01*
X140748001Y-82328001D01*
X140833205Y-82224180D01*
X140842974Y-82212277D01*
X140913546Y-82080247D01*
X140957003Y-81936986D01*
X140968000Y-81825333D01*
X140968000Y-81825323D01*
X140971676Y-81788000D01*
X140968000Y-81750677D01*
X140968000Y-81483614D01*
X141026387Y-81452405D01*
X141160962Y-81341962D01*
X141271405Y-81207387D01*
X141353472Y-81053851D01*
X141404008Y-80887255D01*
X141421072Y-80714001D01*
X141421072Y-79813999D01*
X141404008Y-79640745D01*
X141353472Y-79474149D01*
X141271405Y-79320613D01*
X141220813Y-79258967D01*
X141289405Y-79175387D01*
X141371472Y-79021851D01*
X141422008Y-78855255D01*
X141439072Y-78682001D01*
X141439072Y-77781999D01*
X141422008Y-77608745D01*
X141371472Y-77442149D01*
X141289405Y-77288613D01*
X141225313Y-77210517D01*
X141280405Y-77143387D01*
X141362472Y-76989851D01*
X141413008Y-76823255D01*
X141430072Y-76650001D01*
X141430072Y-75749999D01*
X141413008Y-75576745D01*
X141362472Y-75410149D01*
X141280405Y-75256613D01*
X141169962Y-75122038D01*
X141035387Y-75011595D01*
X140881851Y-74929528D01*
X140715255Y-74878992D01*
X140542001Y-74861928D01*
X139953730Y-74861928D01*
X138864281Y-73772480D01*
X138881072Y-73602001D01*
X138881072Y-72701999D01*
X138864008Y-72528745D01*
X138813472Y-72362149D01*
X138781322Y-72302000D01*
X140243928Y-72302000D01*
X140243928Y-74002000D01*
X140256188Y-74126482D01*
X140292498Y-74246180D01*
X140351463Y-74356494D01*
X140430815Y-74453185D01*
X140527506Y-74532537D01*
X140637820Y-74591502D01*
X140757518Y-74627812D01*
X140882000Y-74640072D01*
X142582000Y-74640072D01*
X142706482Y-74627812D01*
X142826180Y-74591502D01*
X142936494Y-74532537D01*
X143033185Y-74453185D01*
X143112537Y-74356494D01*
X143171502Y-74246180D01*
X143207812Y-74126482D01*
X143220072Y-74002000D01*
X143220072Y-72302000D01*
X143207812Y-72177518D01*
X143171502Y-72057820D01*
X143112537Y-71947506D01*
X143033185Y-71850815D01*
X142936494Y-71771463D01*
X142826180Y-71712498D01*
X142753620Y-71690487D01*
X142885475Y-71558632D01*
X143047990Y-71315411D01*
X143159932Y-71045158D01*
X143217000Y-70758260D01*
X143217000Y-70465740D01*
X143159932Y-70178842D01*
X143047990Y-69908589D01*
X142885475Y-69665368D01*
X142678632Y-69458525D01*
X142435411Y-69296010D01*
X142165158Y-69184068D01*
X141878260Y-69127000D01*
X141585740Y-69127000D01*
X141298842Y-69184068D01*
X141028589Y-69296010D01*
X140785368Y-69458525D01*
X140578525Y-69665368D01*
X140416010Y-69908589D01*
X140304068Y-70178842D01*
X140247000Y-70465740D01*
X140247000Y-70758260D01*
X140304068Y-71045158D01*
X140416010Y-71315411D01*
X140578525Y-71558632D01*
X140710380Y-71690487D01*
X140637820Y-71712498D01*
X140527506Y-71771463D01*
X140430815Y-71850815D01*
X140351463Y-71947506D01*
X140292498Y-72057820D01*
X140256188Y-72177518D01*
X140243928Y-72302000D01*
X138781322Y-72302000D01*
X138731405Y-72208613D01*
X138620962Y-72074038D01*
X138486387Y-71963595D01*
X138428000Y-71932386D01*
X138428000Y-71831614D01*
X138486387Y-71800405D01*
X138620962Y-71689962D01*
X138731405Y-71555387D01*
X138813472Y-71401851D01*
X138864008Y-71235255D01*
X138881072Y-71062001D01*
X138881072Y-70161999D01*
X138864008Y-69988745D01*
X138813472Y-69822149D01*
X138731405Y-69668613D01*
X138620962Y-69534038D01*
X138486387Y-69423595D01*
X138332851Y-69341528D01*
X138166255Y-69290992D01*
X137993001Y-69273928D01*
X137404730Y-69273928D01*
X137154703Y-69023902D01*
X137130901Y-68994899D01*
X137015176Y-68899926D01*
X136883147Y-68829354D01*
X136739886Y-68785897D01*
X136628233Y-68774900D01*
X136628222Y-68774900D01*
X136590900Y-68771224D01*
X136553578Y-68774900D01*
X134156933Y-68774900D01*
X134119600Y-68771223D01*
X134082267Y-68774900D01*
X133970614Y-68785897D01*
X133827353Y-68829354D01*
X133695324Y-68899926D01*
X133579599Y-68994899D01*
X133555800Y-69023898D01*
X133276599Y-69303100D01*
X132834893Y-69303100D01*
X132880000Y-69076335D01*
X132880000Y-68793665D01*
X132824853Y-68516426D01*
X132716680Y-68255273D01*
X132559637Y-68020241D01*
X132559600Y-68020204D01*
X133476391Y-67103413D01*
X135188192Y-67103413D01*
X135283956Y-67367814D01*
X135573571Y-67508704D01*
X135885108Y-67590384D01*
X136206595Y-67609718D01*
X136525675Y-67565961D01*
X136830088Y-67460795D01*
X137004044Y-67367814D01*
X137099808Y-67103413D01*
X141688192Y-67103413D01*
X141783956Y-67367814D01*
X142073571Y-67508704D01*
X142385108Y-67590384D01*
X142706595Y-67609718D01*
X143025675Y-67565961D01*
X143330088Y-67460795D01*
X143504044Y-67367814D01*
X143599808Y-67103413D01*
X142644000Y-66147605D01*
X141688192Y-67103413D01*
X137099808Y-67103413D01*
X136144000Y-66147605D01*
X135188192Y-67103413D01*
X133476391Y-67103413D01*
X134507941Y-66071863D01*
X134546039Y-66349675D01*
X134651205Y-66654088D01*
X134744186Y-66828044D01*
X135008587Y-66923808D01*
X135964395Y-65968000D01*
X136323605Y-65968000D01*
X137279413Y-66923808D01*
X137543814Y-66828044D01*
X137684704Y-66538429D01*
X137766384Y-66226892D01*
X137778189Y-66030595D01*
X141002282Y-66030595D01*
X141046039Y-66349675D01*
X141151205Y-66654088D01*
X141244186Y-66828044D01*
X141508587Y-66923808D01*
X142464395Y-65968000D01*
X142823605Y-65968000D01*
X143779413Y-66923808D01*
X144043814Y-66828044D01*
X144184704Y-66538429D01*
X144266384Y-66226892D01*
X144285718Y-65905405D01*
X144241961Y-65586325D01*
X144136795Y-65281912D01*
X144043814Y-65107956D01*
X143779413Y-65012192D01*
X142823605Y-65968000D01*
X142464395Y-65968000D01*
X141508587Y-65012192D01*
X141244186Y-65107956D01*
X141103296Y-65397571D01*
X141021616Y-65709108D01*
X141002282Y-66030595D01*
X137778189Y-66030595D01*
X137785718Y-65905405D01*
X137741961Y-65586325D01*
X137636795Y-65281912D01*
X137543814Y-65107956D01*
X137279413Y-65012192D01*
X136323605Y-65968000D01*
X135964395Y-65968000D01*
X135008587Y-65012192D01*
X134872000Y-65061663D01*
X134872000Y-64832587D01*
X135188192Y-64832587D01*
X136144000Y-65788395D01*
X137099808Y-64832587D01*
X141688192Y-64832587D01*
X142644000Y-65788395D01*
X143599808Y-64832587D01*
X143504044Y-64568186D01*
X143214429Y-64427296D01*
X142902892Y-64345616D01*
X142581405Y-64326282D01*
X142262325Y-64370039D01*
X141957912Y-64475205D01*
X141783956Y-64568186D01*
X141688192Y-64832587D01*
X137099808Y-64832587D01*
X137004044Y-64568186D01*
X136714429Y-64427296D01*
X136402892Y-64345616D01*
X136081405Y-64326282D01*
X135762325Y-64370039D01*
X135457912Y-64475205D01*
X135283956Y-64568186D01*
X135188192Y-64832587D01*
X134872000Y-64832587D01*
X134872000Y-63814801D01*
X135652624Y-63034177D01*
X135667088Y-63040168D01*
X135982967Y-63103000D01*
X136305033Y-63103000D01*
X136620912Y-63040168D01*
X136918463Y-62916918D01*
X137186252Y-62737987D01*
X137413987Y-62510252D01*
X137592918Y-62242463D01*
X137598909Y-62228000D01*
X141189091Y-62228000D01*
X141195082Y-62242463D01*
X141374013Y-62510252D01*
X141601748Y-62737987D01*
X141869537Y-62916918D01*
X142167088Y-63040168D01*
X142482967Y-63103000D01*
X142805033Y-63103000D01*
X143120912Y-63040168D01*
X143418463Y-62916918D01*
X143686252Y-62737987D01*
X143913987Y-62510252D01*
X144092918Y-62242463D01*
X144216168Y-61944912D01*
X144279000Y-61629033D01*
X144279000Y-61306967D01*
X144216168Y-60991088D01*
X144092918Y-60693537D01*
X143913987Y-60425748D01*
X143686252Y-60198013D01*
X143418463Y-60019082D01*
X143120912Y-59895832D01*
X142805033Y-59833000D01*
X142482967Y-59833000D01*
X142167088Y-59895832D01*
X141869537Y-60019082D01*
X141601748Y-60198013D01*
X141374013Y-60425748D01*
X141195082Y-60693537D01*
X141189091Y-60708000D01*
X137598909Y-60708000D01*
X137592918Y-60693537D01*
X137413987Y-60425748D01*
X137186252Y-60198013D01*
X136918463Y-60019082D01*
X136620912Y-59895832D01*
X136305033Y-59833000D01*
X135982967Y-59833000D01*
X135667088Y-59895832D01*
X135369537Y-60019082D01*
X135101748Y-60198013D01*
X134874013Y-60425748D01*
X134695082Y-60693537D01*
X134571832Y-60991088D01*
X134509000Y-61306967D01*
X134509000Y-61629033D01*
X134571832Y-61944912D01*
X134577823Y-61959376D01*
X133600998Y-62936201D01*
X133572000Y-62959999D01*
X133548202Y-62988997D01*
X133548201Y-62988998D01*
X133477026Y-63075724D01*
X133406454Y-63207754D01*
X133362998Y-63351015D01*
X133348324Y-63500000D01*
X133352001Y-63537332D01*
X133352000Y-65078200D01*
X132715978Y-65714222D01*
X132559637Y-65480241D01*
X132359759Y-65280363D01*
X132127241Y-65125000D01*
X132359759Y-64969637D01*
X132559637Y-64769759D01*
X132716680Y-64534727D01*
X132824853Y-64273574D01*
X132880000Y-63996335D01*
X132880000Y-63713665D01*
X132824853Y-63436426D01*
X132716680Y-63175273D01*
X132559637Y-62940241D01*
X132549199Y-62929803D01*
X133607004Y-61871998D01*
X133636001Y-61848201D01*
X133730974Y-61732476D01*
X133801546Y-61600447D01*
X133845003Y-61457186D01*
X133856000Y-61345533D01*
X133856000Y-61345525D01*
X133859676Y-61308200D01*
X133856000Y-61270875D01*
X133856000Y-57330818D01*
X135888787Y-57330818D01*
X136380946Y-57933149D01*
X137231933Y-58403063D01*
X138158243Y-58697929D01*
X139124281Y-58806414D01*
X140092921Y-58724351D01*
X141026938Y-58454893D01*
X141890440Y-58008394D01*
X142003054Y-57933149D01*
X142495213Y-57330818D01*
X139192000Y-54027605D01*
X135888787Y-57330818D01*
X133856000Y-57330818D01*
X133856000Y-54901325D01*
X133859676Y-54864000D01*
X133856000Y-54826675D01*
X133856000Y-54826667D01*
X133845003Y-54715014D01*
X133801546Y-54571753D01*
X133730974Y-54439724D01*
X133636001Y-54323999D01*
X133607003Y-54300201D01*
X133087083Y-53780281D01*
X134233586Y-53780281D01*
X134315649Y-54748921D01*
X134585107Y-55682938D01*
X135031606Y-56546440D01*
X135106851Y-56659054D01*
X135709182Y-57151213D01*
X139012395Y-53848000D01*
X139371605Y-53848000D01*
X142674818Y-57151213D01*
X143277149Y-56659054D01*
X143747063Y-55808067D01*
X144041929Y-54881757D01*
X144150414Y-53915719D01*
X144068351Y-52947079D01*
X143798893Y-52013062D01*
X143352394Y-51149560D01*
X143277149Y-51036946D01*
X142674818Y-50544787D01*
X139371605Y-53848000D01*
X139012395Y-53848000D01*
X135709182Y-50544787D01*
X135106851Y-51036946D01*
X134636937Y-51887933D01*
X134342071Y-52814243D01*
X134233586Y-53780281D01*
X133087083Y-53780281D01*
X132880000Y-53573199D01*
X132880000Y-53553665D01*
X132824853Y-53276426D01*
X132716680Y-53015273D01*
X132559637Y-52780241D01*
X132359759Y-52580363D01*
X132127241Y-52425000D01*
X132359759Y-52269637D01*
X132559637Y-52069759D01*
X132716680Y-51834727D01*
X132824853Y-51573574D01*
X132880000Y-51296335D01*
X132880000Y-51013665D01*
X132824853Y-50736426D01*
X132716680Y-50475273D01*
X132643120Y-50365182D01*
X135888787Y-50365182D01*
X139192000Y-53668395D01*
X142495213Y-50365182D01*
X142003054Y-49762851D01*
X141152067Y-49292937D01*
X140225757Y-48998071D01*
X139259719Y-48889586D01*
X138291079Y-48971649D01*
X137357062Y-49241107D01*
X136493560Y-49687606D01*
X136380946Y-49762851D01*
X135888787Y-50365182D01*
X132643120Y-50365182D01*
X132559637Y-50240241D01*
X132359759Y-50040363D01*
X132124727Y-49883320D01*
X131863574Y-49775147D01*
X131586335Y-49720000D01*
X131303665Y-49720000D01*
X131026426Y-49775147D01*
X130765273Y-49883320D01*
X130530241Y-50040363D01*
X130330363Y-50240241D01*
X130223053Y-50400842D01*
X130170714Y-50405997D01*
X130027453Y-50449454D01*
X129895424Y-50520026D01*
X129779699Y-50614999D01*
X129755901Y-50643997D01*
X128879599Y-51520300D01*
X125263072Y-51520300D01*
X125263072Y-50355000D01*
X125250812Y-50230518D01*
X125214502Y-50110820D01*
X125155537Y-50000506D01*
X125076185Y-49903815D01*
X124979494Y-49824463D01*
X124869180Y-49765498D01*
X124749482Y-49729188D01*
X124625000Y-49716928D01*
X123025000Y-49716928D01*
X122900518Y-49729188D01*
X122780820Y-49765498D01*
X122670506Y-49824463D01*
X122573815Y-49903815D01*
X122494463Y-50000506D01*
X122435498Y-50110820D01*
X122399188Y-50230518D01*
X122386928Y-50355000D01*
X122386928Y-51520300D01*
X121150422Y-51520300D01*
X121113099Y-51516624D01*
X121075776Y-51520300D01*
X121075767Y-51520300D01*
X120964114Y-51531297D01*
X120820853Y-51574754D01*
X120688824Y-51645326D01*
X120573099Y-51740299D01*
X120549296Y-51769303D01*
X120437299Y-51881300D01*
X118836072Y-51881300D01*
X118836072Y-50585000D01*
X118823812Y-50460518D01*
X118787502Y-50340820D01*
X118728537Y-50230506D01*
X118649185Y-50133815D01*
X118552494Y-50054463D01*
X118442180Y-49995498D01*
X118322482Y-49959188D01*
X118198000Y-49946928D01*
X116498000Y-49946928D01*
X116373518Y-49959188D01*
X116253820Y-49995498D01*
X116143506Y-50054463D01*
X116046815Y-50133815D01*
X115967463Y-50230506D01*
X115908498Y-50340820D01*
X115886487Y-50413380D01*
X115754632Y-50281525D01*
X115511411Y-50119010D01*
X115241158Y-50007068D01*
X114954260Y-49950000D01*
X114661740Y-49950000D01*
X114374842Y-50007068D01*
X114104589Y-50119010D01*
X113861368Y-50281525D01*
X113654525Y-50488368D01*
X113538000Y-50662760D01*
X113421475Y-50488368D01*
X113214632Y-50281525D01*
X112971411Y-50119010D01*
X112701158Y-50007068D01*
X112414260Y-49950000D01*
X112121740Y-49950000D01*
X111834842Y-50007068D01*
X111564589Y-50119010D01*
X111321368Y-50281525D01*
X111114525Y-50488368D01*
X110992805Y-50670534D01*
X110923178Y-50553645D01*
X110728269Y-50337412D01*
X110494920Y-50163359D01*
X110232099Y-50038175D01*
X110084890Y-49993524D01*
X109855000Y-50114845D01*
X109601000Y-50114845D01*
X109371110Y-49993524D01*
X109223901Y-50038175D01*
X108961080Y-50163359D01*
X108727731Y-50337412D01*
X108532822Y-50553645D01*
X108383843Y-50803748D01*
X108286519Y-51078109D01*
X106349705Y-51078109D01*
X106382258Y-50746114D01*
X106545442Y-50205624D01*
X106810494Y-49707133D01*
X107167326Y-49269612D01*
X107602350Y-48909729D01*
X108098983Y-48641201D01*
X108638315Y-48474251D01*
X109230596Y-48412000D01*
X141699722Y-48412000D01*
X142293886Y-48470258D01*
%TD*%
M02*
