%TF.GenerationSoftware,KiCad,Pcbnew,(5.1.6)-1*%
%TF.CreationDate,2020-09-06T00:09:38+02:00*%
%TF.ProjectId,gpioexpander4,6770696f-6578-4706-916e-646572342e6b,rev?*%
%TF.SameCoordinates,Original*%
%TF.FileFunction,Soldermask,Bot*%
%TF.FilePolarity,Negative*%
%FSLAX46Y46*%
G04 Gerber Fmt 4.6, Leading zero omitted, Abs format (unit mm)*
G04 Created by KiCad (PCBNEW (5.1.6)-1) date 2020-09-06 00:09:38*
%MOMM*%
%LPD*%
G01*
G04 APERTURE LIST*
%ADD10C,2.100000*%
%ADD11C,8.700000*%
%ADD12O,1.700000X1.700000*%
%ADD13R,1.700000X1.700000*%
%ADD14O,1.800000X1.800000*%
%ADD15R,1.800000X1.800000*%
G04 APERTURE END LIST*
D10*
%TO.C,SW1*%
X142644000Y-61468000D03*
X142644000Y-65968000D03*
X136144000Y-61468000D03*
X136144000Y-65968000D03*
%TD*%
D11*
%TO.C,H2*%
X111760000Y-82544400D03*
%TD*%
%TO.C,H1*%
X139192000Y-53848000D03*
%TD*%
D12*
%TO.C,U1*%
X131445000Y-51155000D03*
X123825000Y-84175000D03*
X131445000Y-53695000D03*
X123825000Y-81635000D03*
X131445000Y-56235000D03*
X123825000Y-79095000D03*
X131445000Y-58775000D03*
X123825000Y-76555000D03*
X131445000Y-61315000D03*
X123825000Y-74015000D03*
X131445000Y-63855000D03*
X123825000Y-71475000D03*
X131445000Y-66395000D03*
X123825000Y-68935000D03*
X131445000Y-68935000D03*
X123825000Y-66395000D03*
X131445000Y-71475000D03*
X123825000Y-63855000D03*
X131445000Y-74015000D03*
X123825000Y-61315000D03*
X131445000Y-76555000D03*
X123825000Y-58775000D03*
X131445000Y-79095000D03*
X123825000Y-56235000D03*
X131445000Y-81635000D03*
X123825000Y-53695000D03*
X131445000Y-84175000D03*
D13*
X123825000Y-51155000D03*
%TD*%
%TO.C,R9*%
G36*
G01*
X127117000Y-77753738D02*
X127117000Y-78710262D01*
G75*
G02*
X126845262Y-78982000I-271738J0D01*
G01*
X126138738Y-78982000D01*
G75*
G02*
X125867000Y-78710262I0J271738D01*
G01*
X125867000Y-77753738D01*
G75*
G02*
X126138738Y-77482000I271738J0D01*
G01*
X126845262Y-77482000D01*
G75*
G02*
X127117000Y-77753738I0J-271738D01*
G01*
G37*
G36*
G01*
X129167000Y-77753738D02*
X129167000Y-78710262D01*
G75*
G02*
X128895262Y-78982000I-271738J0D01*
G01*
X128188738Y-78982000D01*
G75*
G02*
X127917000Y-78710262I0J271738D01*
G01*
X127917000Y-77753738D01*
G75*
G02*
X128188738Y-77482000I271738J0D01*
G01*
X128895262Y-77482000D01*
G75*
G02*
X129167000Y-77753738I0J-271738D01*
G01*
G37*
%TD*%
%TO.C,R8*%
G36*
G01*
X138792000Y-75721738D02*
X138792000Y-76678262D01*
G75*
G02*
X138520262Y-76950000I-271738J0D01*
G01*
X137813738Y-76950000D01*
G75*
G02*
X137542000Y-76678262I0J271738D01*
G01*
X137542000Y-75721738D01*
G75*
G02*
X137813738Y-75450000I271738J0D01*
G01*
X138520262Y-75450000D01*
G75*
G02*
X138792000Y-75721738I0J-271738D01*
G01*
G37*
G36*
G01*
X140842000Y-75721738D02*
X140842000Y-76678262D01*
G75*
G02*
X140570262Y-76950000I-271738J0D01*
G01*
X139863738Y-76950000D01*
G75*
G02*
X139592000Y-76678262I0J271738D01*
G01*
X139592000Y-75721738D01*
G75*
G02*
X139863738Y-75450000I271738J0D01*
G01*
X140570262Y-75450000D01*
G75*
G02*
X140842000Y-75721738I0J-271738D01*
G01*
G37*
%TD*%
%TO.C,R7*%
G36*
G01*
X127099000Y-80801738D02*
X127099000Y-81758262D01*
G75*
G02*
X126827262Y-82030000I-271738J0D01*
G01*
X126120738Y-82030000D01*
G75*
G02*
X125849000Y-81758262I0J271738D01*
G01*
X125849000Y-80801738D01*
G75*
G02*
X126120738Y-80530000I271738J0D01*
G01*
X126827262Y-80530000D01*
G75*
G02*
X127099000Y-80801738I0J-271738D01*
G01*
G37*
G36*
G01*
X129149000Y-80801738D02*
X129149000Y-81758262D01*
G75*
G02*
X128877262Y-82030000I-271738J0D01*
G01*
X128170738Y-82030000D01*
G75*
G02*
X127899000Y-81758262I0J271738D01*
G01*
X127899000Y-80801738D01*
G75*
G02*
X128170738Y-80530000I271738J0D01*
G01*
X128877262Y-80530000D01*
G75*
G02*
X129149000Y-80801738I0J-271738D01*
G01*
G37*
%TD*%
%TO.C,R6*%
G36*
G01*
X138801000Y-77753738D02*
X138801000Y-78710262D01*
G75*
G02*
X138529262Y-78982000I-271738J0D01*
G01*
X137822738Y-78982000D01*
G75*
G02*
X137551000Y-78710262I0J271738D01*
G01*
X137551000Y-77753738D01*
G75*
G02*
X137822738Y-77482000I271738J0D01*
G01*
X138529262Y-77482000D01*
G75*
G02*
X138801000Y-77753738I0J-271738D01*
G01*
G37*
G36*
G01*
X140851000Y-77753738D02*
X140851000Y-78710262D01*
G75*
G02*
X140579262Y-78982000I-271738J0D01*
G01*
X139872738Y-78982000D01*
G75*
G02*
X139601000Y-78710262I0J271738D01*
G01*
X139601000Y-77753738D01*
G75*
G02*
X139872738Y-77482000I271738J0D01*
G01*
X140579262Y-77482000D01*
G75*
G02*
X140851000Y-77753738I0J-271738D01*
G01*
G37*
%TD*%
%TO.C,R5*%
G36*
G01*
X127108000Y-83849738D02*
X127108000Y-84806262D01*
G75*
G02*
X126836262Y-85078000I-271738J0D01*
G01*
X126129738Y-85078000D01*
G75*
G02*
X125858000Y-84806262I0J271738D01*
G01*
X125858000Y-83849738D01*
G75*
G02*
X126129738Y-83578000I271738J0D01*
G01*
X126836262Y-83578000D01*
G75*
G02*
X127108000Y-83849738I0J-271738D01*
G01*
G37*
G36*
G01*
X129158000Y-83849738D02*
X129158000Y-84806262D01*
G75*
G02*
X128886262Y-85078000I-271738J0D01*
G01*
X128179738Y-85078000D01*
G75*
G02*
X127908000Y-84806262I0J271738D01*
G01*
X127908000Y-83849738D01*
G75*
G02*
X128179738Y-83578000I271738J0D01*
G01*
X128886262Y-83578000D01*
G75*
G02*
X129158000Y-83849738I0J-271738D01*
G01*
G37*
%TD*%
%TO.C,R4*%
G36*
G01*
X138783000Y-79785738D02*
X138783000Y-80742262D01*
G75*
G02*
X138511262Y-81014000I-271738J0D01*
G01*
X137804738Y-81014000D01*
G75*
G02*
X137533000Y-80742262I0J271738D01*
G01*
X137533000Y-79785738D01*
G75*
G02*
X137804738Y-79514000I271738J0D01*
G01*
X138511262Y-79514000D01*
G75*
G02*
X138783000Y-79785738I0J-271738D01*
G01*
G37*
G36*
G01*
X140833000Y-79785738D02*
X140833000Y-80742262D01*
G75*
G02*
X140561262Y-81014000I-271738J0D01*
G01*
X139854738Y-81014000D01*
G75*
G02*
X139583000Y-80742262I0J271738D01*
G01*
X139583000Y-79785738D01*
G75*
G02*
X139854738Y-79514000I271738J0D01*
G01*
X140561262Y-79514000D01*
G75*
G02*
X140833000Y-79785738I0J-271738D01*
G01*
G37*
%TD*%
%TO.C,R3*%
G36*
G01*
X137043000Y-73630262D02*
X137043000Y-72673738D01*
G75*
G02*
X137314738Y-72402000I271738J0D01*
G01*
X138021262Y-72402000D01*
G75*
G02*
X138293000Y-72673738I0J-271738D01*
G01*
X138293000Y-73630262D01*
G75*
G02*
X138021262Y-73902000I-271738J0D01*
G01*
X137314738Y-73902000D01*
G75*
G02*
X137043000Y-73630262I0J271738D01*
G01*
G37*
G36*
G01*
X134993000Y-73630262D02*
X134993000Y-72673738D01*
G75*
G02*
X135264738Y-72402000I271738J0D01*
G01*
X135971262Y-72402000D01*
G75*
G02*
X136243000Y-72673738I0J-271738D01*
G01*
X136243000Y-73630262D01*
G75*
G02*
X135971262Y-73902000I-271738J0D01*
G01*
X135264738Y-73902000D01*
G75*
G02*
X134993000Y-73630262I0J271738D01*
G01*
G37*
%TD*%
%TO.C,R2*%
G36*
G01*
X137043000Y-71090262D02*
X137043000Y-70133738D01*
G75*
G02*
X137314738Y-69862000I271738J0D01*
G01*
X138021262Y-69862000D01*
G75*
G02*
X138293000Y-70133738I0J-271738D01*
G01*
X138293000Y-71090262D01*
G75*
G02*
X138021262Y-71362000I-271738J0D01*
G01*
X137314738Y-71362000D01*
G75*
G02*
X137043000Y-71090262I0J271738D01*
G01*
G37*
G36*
G01*
X134993000Y-71090262D02*
X134993000Y-70133738D01*
G75*
G02*
X135264738Y-69862000I271738J0D01*
G01*
X135971262Y-69862000D01*
G75*
G02*
X136243000Y-70133738I0J-271738D01*
G01*
X136243000Y-71090262D01*
G75*
G02*
X135971262Y-71362000I-271738J0D01*
G01*
X135264738Y-71362000D01*
G75*
G02*
X134993000Y-71090262I0J271738D01*
G01*
G37*
%TD*%
%TO.C,R1*%
G36*
G01*
X127537738Y-68463000D02*
X128494262Y-68463000D01*
G75*
G02*
X128766000Y-68734738I0J-271738D01*
G01*
X128766000Y-69441262D01*
G75*
G02*
X128494262Y-69713000I-271738J0D01*
G01*
X127537738Y-69713000D01*
G75*
G02*
X127266000Y-69441262I0J271738D01*
G01*
X127266000Y-68734738D01*
G75*
G02*
X127537738Y-68463000I271738J0D01*
G01*
G37*
G36*
G01*
X127537738Y-66413000D02*
X128494262Y-66413000D01*
G75*
G02*
X128766000Y-66684738I0J-271738D01*
G01*
X128766000Y-67391262D01*
G75*
G02*
X128494262Y-67663000I-271738J0D01*
G01*
X127537738Y-67663000D01*
G75*
G02*
X127266000Y-67391262I0J271738D01*
G01*
X127266000Y-66684738D01*
G75*
G02*
X127537738Y-66413000I271738J0D01*
G01*
G37*
%TD*%
D14*
%TO.C,J8*%
X141732000Y-70612000D03*
D15*
X141732000Y-73152000D03*
%TD*%
D14*
%TO.C,J7*%
X109855000Y-71755000D03*
X112395000Y-71755000D03*
X114935000Y-71755000D03*
D15*
X117475000Y-71755000D03*
%TD*%
D14*
%TO.C,J6*%
X109855000Y-66675000D03*
X112395000Y-66675000D03*
X114935000Y-66675000D03*
D15*
X117475000Y-66675000D03*
%TD*%
D14*
%TO.C,J5*%
X109855000Y-61595000D03*
X112395000Y-61595000D03*
X114935000Y-61595000D03*
D15*
X117475000Y-61595000D03*
%TD*%
D14*
%TO.C,J4*%
X109855000Y-56515000D03*
X112395000Y-56515000D03*
X114935000Y-56515000D03*
D15*
X117475000Y-56515000D03*
%TD*%
D14*
%TO.C,J3*%
X109728000Y-51435000D03*
X112268000Y-51435000D03*
X114808000Y-51435000D03*
D15*
X117348000Y-51435000D03*
%TD*%
D14*
%TO.C,J2*%
X118872000Y-81788000D03*
D15*
X118872000Y-84328000D03*
%TD*%
D14*
%TO.C,J1*%
X140716000Y-83820000D03*
D15*
X138176000Y-83820000D03*
%TD*%
M02*
