%TF.GenerationSoftware,KiCad,Pcbnew,(5.1.6)-1*%
%TF.CreationDate,2020-09-06T00:09:38+02:00*%
%TF.ProjectId,gpioexpander4,6770696f-6578-4706-916e-646572342e6b,rev?*%
%TF.SameCoordinates,Original*%
%TF.FileFunction,Copper,L1,Top*%
%TF.FilePolarity,Positive*%
%FSLAX46Y46*%
G04 Gerber Fmt 4.6, Leading zero omitted, Abs format (unit mm)*
G04 Created by KiCad (PCBNEW (5.1.6)-1) date 2020-09-06 00:09:38*
%MOMM*%
%LPD*%
G01*
G04 APERTURE LIST*
%TA.AperFunction,ComponentPad*%
%ADD10C,2.000000*%
%TD*%
%TA.AperFunction,ComponentPad*%
%ADD11C,8.600000*%
%TD*%
%TA.AperFunction,ComponentPad*%
%ADD12O,1.600000X1.600000*%
%TD*%
%TA.AperFunction,ComponentPad*%
%ADD13R,1.600000X1.600000*%
%TD*%
%TA.AperFunction,ComponentPad*%
%ADD14O,1.700000X1.700000*%
%TD*%
%TA.AperFunction,ComponentPad*%
%ADD15R,1.700000X1.700000*%
%TD*%
%TA.AperFunction,Conductor*%
%ADD16C,0.250000*%
%TD*%
G04 APERTURE END LIST*
D10*
%TO.P,SW1,1*%
%TO.N,/Action*%
X142644000Y-61468000D03*
%TO.P,SW1,2*%
%TO.N,GND*%
X142644000Y-65968000D03*
%TO.P,SW1,1*%
%TO.N,/Action*%
X136144000Y-61468000D03*
%TO.P,SW1,2*%
%TO.N,GND*%
X136144000Y-65968000D03*
%TD*%
D11*
%TO.P,H2,1*%
%TO.N,GND*%
X111760000Y-82544400D03*
%TD*%
%TO.P,H1,1*%
%TO.N,GND*%
X139192000Y-53848000D03*
%TD*%
D12*
%TO.P,U1,28*%
%TO.N,/P3_2*%
X131445000Y-51155000D03*
%TO.P,U1,14*%
%TO.N,N/C*%
X123825000Y-84175000D03*
%TO.P,U1,27*%
%TO.N,/P3_1*%
X131445000Y-53695000D03*
%TO.P,U1,13*%
%TO.N,/SDA*%
X123825000Y-81635000D03*
%TO.P,U1,26*%
%TO.N,/P2_3*%
X131445000Y-56235000D03*
%TO.P,U1,12*%
%TO.N,/SCK*%
X123825000Y-79095000D03*
%TO.P,U1,25*%
%TO.N,/P2_2*%
X131445000Y-58775000D03*
%TO.P,U1,11*%
%TO.N,N/C*%
X123825000Y-76555000D03*
%TO.P,U1,24*%
%TO.N,/P2_1*%
X131445000Y-61315000D03*
%TO.P,U1,10*%
%TO.N,GND*%
X123825000Y-74015000D03*
%TO.P,U1,23*%
%TO.N,/P1_3*%
X131445000Y-63855000D03*
%TO.P,U1,9*%
%TO.N,+3V3*%
X123825000Y-71475000D03*
%TO.P,U1,22*%
%TO.N,/P1_2*%
X131445000Y-66395000D03*
%TO.P,U1,8*%
%TO.N,/Action*%
X123825000Y-68935000D03*
%TO.P,U1,21*%
%TO.N,/P1_1*%
X131445000Y-68935000D03*
%TO.P,U1,7*%
%TO.N,/P5_3*%
X123825000Y-66395000D03*
%TO.P,U1,20*%
%TO.N,/INTA*%
X131445000Y-71475000D03*
%TO.P,U1,6*%
%TO.N,/P5_2*%
X123825000Y-63855000D03*
%TO.P,U1,19*%
%TO.N,/INTB*%
X131445000Y-74015000D03*
%TO.P,U1,5*%
%TO.N,/P5_1*%
X123825000Y-61315000D03*
%TO.P,U1,18*%
%TO.N,+3V3*%
X131445000Y-76555000D03*
%TO.P,U1,4*%
%TO.N,/P4_3*%
X123825000Y-58775000D03*
%TO.P,U1,17*%
%TO.N,/A2*%
X131445000Y-79095000D03*
%TO.P,U1,3*%
%TO.N,/P4_2*%
X123825000Y-56235000D03*
%TO.P,U1,16*%
%TO.N,/A1*%
X131445000Y-81635000D03*
%TO.P,U1,2*%
%TO.N,/P4_1*%
X123825000Y-53695000D03*
%TO.P,U1,15*%
%TO.N,/A0*%
X131445000Y-84175000D03*
D13*
%TO.P,U1,1*%
%TO.N,/P3_3*%
X123825000Y-51155000D03*
%TD*%
D14*
%TO.P,J8,2*%
%TO.N,/INTA*%
X141732000Y-70612000D03*
D15*
%TO.P,J8,1*%
%TO.N,/INTB*%
X141732000Y-73152000D03*
%TD*%
D14*
%TO.P,J7,4*%
%TO.N,GND*%
X109855000Y-71755000D03*
%TO.P,J7,3*%
%TO.N,/P5_3*%
X112395000Y-71755000D03*
%TO.P,J7,2*%
%TO.N,/P5_2*%
X114935000Y-71755000D03*
D15*
%TO.P,J7,1*%
%TO.N,/P5_1*%
X117475000Y-71755000D03*
%TD*%
D14*
%TO.P,J6,4*%
%TO.N,GND*%
X109855000Y-66675000D03*
%TO.P,J6,3*%
%TO.N,/P4_3*%
X112395000Y-66675000D03*
%TO.P,J6,2*%
%TO.N,/P4_2*%
X114935000Y-66675000D03*
D15*
%TO.P,J6,1*%
%TO.N,/P4_1*%
X117475000Y-66675000D03*
%TD*%
D14*
%TO.P,J5,4*%
%TO.N,GND*%
X109855000Y-61595000D03*
%TO.P,J5,3*%
%TO.N,/P3_3*%
X112395000Y-61595000D03*
%TO.P,J5,2*%
%TO.N,/P3_2*%
X114935000Y-61595000D03*
D15*
%TO.P,J5,1*%
%TO.N,/P3_1*%
X117475000Y-61595000D03*
%TD*%
D14*
%TO.P,J4,4*%
%TO.N,GND*%
X109855000Y-56515000D03*
%TO.P,J4,3*%
%TO.N,/P2_3*%
X112395000Y-56515000D03*
%TO.P,J4,2*%
%TO.N,/P2_2*%
X114935000Y-56515000D03*
D15*
%TO.P,J4,1*%
%TO.N,/P2_1*%
X117475000Y-56515000D03*
%TD*%
D14*
%TO.P,J3,4*%
%TO.N,GND*%
X109728000Y-51435000D03*
%TO.P,J3,3*%
%TO.N,/P1_3*%
X112268000Y-51435000D03*
%TO.P,J3,2*%
%TO.N,/P1_2*%
X114808000Y-51435000D03*
D15*
%TO.P,J3,1*%
%TO.N,/P1_1*%
X117348000Y-51435000D03*
%TD*%
D14*
%TO.P,J2,2*%
%TO.N,/SCK*%
X118872000Y-81788000D03*
D15*
%TO.P,J2,1*%
%TO.N,/SDA*%
X118872000Y-84328000D03*
%TD*%
D14*
%TO.P,J1,2*%
%TO.N,GND*%
X140716000Y-83820000D03*
D15*
%TO.P,J1,1*%
%TO.N,+3V3*%
X138176000Y-83820000D03*
%TD*%
D16*
%TO.N,/SCK*%
X121565000Y-79095000D02*
X123825000Y-79095000D01*
X118872000Y-81788000D02*
X121565000Y-79095000D01*
%TO.N,/SDA*%
X121565000Y-81635000D02*
X123825000Y-81635000D01*
X118872000Y-84328000D02*
X121565000Y-81635000D01*
%TO.N,/P1_3*%
X131445000Y-63011100D02*
X131445000Y-63855000D01*
X129518100Y-61084200D02*
X131445000Y-63011100D01*
X112268000Y-51435000D02*
X112929100Y-51435000D01*
X112929100Y-51435000D02*
X115038700Y-49325400D01*
X129518100Y-54147700D02*
X129518100Y-61084200D01*
X124695800Y-49325400D02*
X129518100Y-54147700D01*
X115038700Y-49325400D02*
X124695800Y-49325400D01*
%TO.N,/P1_2*%
X114808000Y-50259700D02*
X114808000Y-51435000D01*
X128968800Y-63918800D02*
X128968800Y-54235300D01*
X128968800Y-54235300D02*
X124522300Y-49788800D01*
X124522300Y-49788800D02*
X115278900Y-49788800D01*
X131445000Y-66395000D02*
X128968800Y-63918800D01*
X115278900Y-49788800D02*
X114808000Y-50259700D01*
%TO.N,/P1_1*%
X118523300Y-51435000D02*
X117348000Y-51435000D01*
X128879000Y-68935000D02*
X127000000Y-67056000D01*
X131445000Y-68935000D02*
X128879000Y-68935000D01*
X127000000Y-55267000D02*
X124013400Y-52280400D01*
X119368700Y-52280400D02*
X118523300Y-51435000D01*
X127000000Y-67056000D02*
X127000000Y-55267000D01*
X124013400Y-52280400D02*
X119368700Y-52280400D01*
%TO.N,/P2_2*%
X130403000Y-58775000D02*
X131445000Y-58775000D01*
X130048000Y-58420000D02*
X130403000Y-58775000D01*
X130048000Y-53964200D02*
X130048000Y-58420000D01*
X124954200Y-48870400D02*
X130048000Y-53964200D01*
X113115900Y-48870400D02*
X124954200Y-48870400D01*
X114935000Y-55780400D02*
X111087900Y-51933300D01*
X114935000Y-56515000D02*
X114935000Y-55780400D01*
X111087900Y-50898400D02*
X113115900Y-48870400D01*
X111087900Y-51933300D02*
X111087900Y-50898400D01*
%TO.N,/P3_3*%
X122699700Y-51155000D02*
X123825000Y-51155000D01*
X121804300Y-50259600D02*
X122699700Y-51155000D01*
X116305400Y-50259600D02*
X121804300Y-50259600D01*
X112395000Y-60787000D02*
X116172600Y-57009400D01*
X112395000Y-61595000D02*
X112395000Y-60787000D01*
X116172600Y-57009400D02*
X116172600Y-50392400D01*
X116172600Y-50392400D02*
X116305400Y-50259600D01*
%TO.N,/P4_2*%
X123825000Y-57079000D02*
X123825000Y-56235000D01*
X121880600Y-59023400D02*
X123825000Y-57079000D01*
X114935000Y-67183000D02*
X115824000Y-68072000D01*
X121880600Y-64449100D02*
X121880600Y-59023400D01*
X114935000Y-66675000D02*
X114935000Y-67183000D01*
X115824000Y-68072000D02*
X118257700Y-68072000D01*
X118257700Y-68072000D02*
X121880600Y-64449100D01*
%TO.N,/P4_1*%
X118650300Y-64324400D02*
X117475000Y-65499700D01*
X118650300Y-59713700D02*
X118650300Y-64324400D01*
X123825000Y-53695000D02*
X123825000Y-54539000D01*
X117475000Y-65499700D02*
X117475000Y-66675000D01*
X123825000Y-54539000D02*
X118650300Y-59713700D01*
%TO.N,/P5_3*%
X123825000Y-66675000D02*
X123825000Y-66395000D01*
X119888000Y-70612000D02*
X123825000Y-66675000D01*
X112395000Y-72771000D02*
X112776000Y-73152000D01*
X112395000Y-71755000D02*
X112395000Y-72771000D01*
X119380000Y-73152000D02*
X119888000Y-72644000D01*
X112776000Y-73152000D02*
X119380000Y-73152000D01*
X119888000Y-72644000D02*
X119888000Y-70612000D01*
%TO.N,/P5_1*%
X123825000Y-61315000D02*
X123825000Y-62440300D01*
X117475000Y-71755000D02*
X117475000Y-70579700D01*
X117475000Y-70579700D02*
X122699700Y-65355000D01*
X122699700Y-65355000D02*
X122699700Y-63284200D01*
X122699700Y-63284200D02*
X123543600Y-62440300D01*
X123543600Y-62440300D02*
X123825000Y-62440300D01*
%TO.N,/INTA*%
X140869000Y-71475000D02*
X141732000Y-70612000D01*
X131445000Y-71475000D02*
X140869000Y-71475000D01*
%TO.N,/INTB*%
X140869000Y-74015000D02*
X141732000Y-73152000D01*
X131445000Y-74015000D02*
X140869000Y-74015000D01*
%TD*%
M02*
