M48
; DRILL file {KiCad (5.1.6)-1} date 09/17/20 21:49:44
; FORMAT={-:-/ absolute / inch / decimal}
; #@! TF.CreationDate,2020-09-17T21:49:44+02:00
; #@! TF.GenerationSoftware,Kicad,Pcbnew,(5.1.6)-1
; #@! TF.FileFunction,Plated,1,2,PTH
FMAT,2
INCH
T1C0.0157
T2C0.0394
T3C0.0433
T4C0.1260
%
G90
G05
T1
X4.715Y-2.03
X4.8915Y-2.275
X4.92Y-2.225
X5.08Y-2.405
X5.08Y-2.475
X5.095Y-2.03
X5.1Y-2.075
X5.1Y-2.835
X5.2Y-2.82
X5.31Y-2.685
T2
X5.385Y-2.78
X5.385Y-2.88
X4.325Y-2.425
X4.425Y-2.425
X4.525Y-2.425
X4.625Y-2.425
X4.97Y-3.22
X4.97Y-3.32
X4.325Y-2.825
X4.425Y-2.825
X4.525Y-2.825
X4.625Y-2.825
X4.32Y-2.025
X4.42Y-2.025
X4.52Y-2.025
X4.62Y-2.025
X4.67Y-3.22
X4.67Y-3.32
X4.325Y-2.225
X4.425Y-2.225
X4.525Y-2.225
X4.625Y-2.225
X5.58Y-2.78
X5.58Y-2.88
X4.325Y-2.625
X4.425Y-2.625
X4.525Y-2.625
X4.625Y-2.625
T3
X5.3691Y-2.3278
X5.3691Y-2.505
X5.625Y-2.3278
X5.625Y-2.505
T4
X4.385Y-3.26
X5.5Y-2.095
T0
M30
