%TF.GenerationSoftware,KiCad,Pcbnew,(5.1.6)-1*%
%TF.CreationDate,2020-09-17T21:49:40+02:00*%
%TF.ProjectId,gpioexpander5,6770696f-6578-4706-916e-646572352e6b,rev?*%
%TF.SameCoordinates,Original*%
%TF.FileFunction,Legend,Bot*%
%TF.FilePolarity,Positive*%
%FSLAX46Y46*%
G04 Gerber Fmt 4.6, Leading zero omitted, Abs format (unit mm)*
G04 Created by KiCad (PCBNEW (5.1.6)-1) date 2020-09-17 21:49:40*
%MOMM*%
%LPD*%
G01*
G04 APERTURE LIST*
%ADD10C,0.150000*%
%ADD11C,0.120000*%
G04 APERTURE END LIST*
D10*
X143208285Y-85510666D02*
X142732095Y-85510666D01*
X143303523Y-85796380D02*
X142970190Y-84796380D01*
X142636857Y-85796380D01*
X142113047Y-84796380D02*
X142017809Y-84796380D01*
X141922571Y-84844000D01*
X141874952Y-84891619D01*
X141827333Y-84986857D01*
X141779714Y-85177333D01*
X141779714Y-85415428D01*
X141827333Y-85605904D01*
X141874952Y-85701142D01*
X141922571Y-85748761D01*
X142017809Y-85796380D01*
X142113047Y-85796380D01*
X142208285Y-85748761D01*
X142255904Y-85701142D01*
X142303523Y-85605904D01*
X142351142Y-85415428D01*
X142351142Y-85177333D01*
X142303523Y-84986857D01*
X142255904Y-84891619D01*
X142208285Y-84844000D01*
X142113047Y-84796380D01*
X143208285Y-82462666D02*
X142732095Y-82462666D01*
X143303523Y-82748380D02*
X142970190Y-81748380D01*
X142636857Y-82748380D01*
X141779714Y-82748380D02*
X142351142Y-82748380D01*
X142065428Y-82748380D02*
X142065428Y-81748380D01*
X142160666Y-81891238D01*
X142255904Y-81986476D01*
X142351142Y-82034095D01*
X143208285Y-79160666D02*
X142732095Y-79160666D01*
X143303523Y-79446380D02*
X142970190Y-78446380D01*
X142636857Y-79446380D01*
X142351142Y-78541619D02*
X142303523Y-78494000D01*
X142208285Y-78446380D01*
X141970190Y-78446380D01*
X141874952Y-78494000D01*
X141827333Y-78541619D01*
X141779714Y-78636857D01*
X141779714Y-78732095D01*
X141827333Y-78874952D01*
X142398761Y-79446380D01*
X141779714Y-79446380D01*
X118411047Y-74128380D02*
X118411047Y-74842666D01*
X118458666Y-74985523D01*
X118553904Y-75080761D01*
X118696761Y-75128380D01*
X118792000Y-75128380D01*
X117458666Y-75128380D02*
X117934857Y-75128380D01*
X117934857Y-74128380D01*
X116553904Y-75033142D02*
X116601523Y-75080761D01*
X116744380Y-75128380D01*
X116839619Y-75128380D01*
X116982476Y-75080761D01*
X117077714Y-74985523D01*
X117125333Y-74890285D01*
X117172952Y-74699809D01*
X117172952Y-74556952D01*
X117125333Y-74366476D01*
X117077714Y-74271238D01*
X116982476Y-74176000D01*
X116839619Y-74128380D01*
X116744380Y-74128380D01*
X116601523Y-74176000D01*
X116553904Y-74223619D01*
X115839619Y-74128380D02*
X115839619Y-74842666D01*
X115887238Y-74985523D01*
X115982476Y-75080761D01*
X116125333Y-75128380D01*
X116220571Y-75128380D01*
X114887238Y-75128380D02*
X115363428Y-75128380D01*
X115363428Y-74128380D01*
X113982476Y-75033142D02*
X114030095Y-75080761D01*
X114172952Y-75128380D01*
X114268190Y-75128380D01*
X114411047Y-75080761D01*
X114506285Y-74985523D01*
X114553904Y-74890285D01*
X114601523Y-74699809D01*
X114601523Y-74556952D01*
X114553904Y-74366476D01*
X114506285Y-74271238D01*
X114411047Y-74176000D01*
X114268190Y-74128380D01*
X114172952Y-74128380D01*
X114030095Y-74176000D01*
X113982476Y-74223619D01*
X113268190Y-74128380D02*
X113268190Y-74842666D01*
X113315809Y-74985523D01*
X113411047Y-75080761D01*
X113553904Y-75128380D01*
X113649142Y-75128380D01*
X112315809Y-75128380D02*
X112792000Y-75128380D01*
X112792000Y-74128380D01*
X111411047Y-75033142D02*
X111458666Y-75080761D01*
X111601523Y-75128380D01*
X111696761Y-75128380D01*
X111839619Y-75080761D01*
X111934857Y-74985523D01*
X111982476Y-74890285D01*
X112030095Y-74699809D01*
X112030095Y-74556952D01*
X111982476Y-74366476D01*
X111934857Y-74271238D01*
X111839619Y-74176000D01*
X111696761Y-74128380D01*
X111601523Y-74128380D01*
X111458666Y-74176000D01*
X111411047Y-74223619D01*
X110696761Y-74128380D02*
X110696761Y-74842666D01*
X110744380Y-74985523D01*
X110839619Y-75080761D01*
X110982476Y-75128380D01*
X111077714Y-75128380D01*
X109744380Y-75128380D02*
X110220571Y-75128380D01*
X110220571Y-74128380D01*
X108839619Y-75033142D02*
X108887238Y-75080761D01*
X109030095Y-75128380D01*
X109125333Y-75128380D01*
X109268190Y-75080761D01*
X109363428Y-74985523D01*
X109411047Y-74890285D01*
X109458666Y-74699809D01*
X109458666Y-74556952D01*
X109411047Y-74366476D01*
X109363428Y-74271238D01*
X109268190Y-74176000D01*
X109125333Y-74128380D01*
X109030095Y-74128380D01*
X108887238Y-74176000D01*
X108839619Y-74223619D01*
D11*
%TO.C,R9*%
X136151252Y-78284000D02*
X135628748Y-78284000D01*
X136151252Y-79704000D02*
X135628748Y-79704000D01*
%TO.C,R8*%
X139961252Y-78284000D02*
X139438748Y-78284000D01*
X139961252Y-79704000D02*
X139438748Y-79704000D01*
%TO.C,R7*%
X136142252Y-81586000D02*
X135619748Y-81586000D01*
X136142252Y-83006000D02*
X135619748Y-83006000D01*
%TO.C,R6*%
X139970252Y-81586000D02*
X139447748Y-81586000D01*
X139970252Y-83006000D02*
X139447748Y-83006000D01*
%TO.C,R5*%
X136142252Y-84634000D02*
X135619748Y-84634000D01*
X136142252Y-86054000D02*
X135619748Y-86054000D01*
%TO.C,R4*%
X139952252Y-84634000D02*
X139429748Y-84634000D01*
X139952252Y-86054000D02*
X139429748Y-86054000D01*
%TO.C,R3*%
X126127252Y-63298000D02*
X125604748Y-63298000D01*
X126127252Y-64718000D02*
X125604748Y-64718000D01*
%TO.C,R2*%
X126127252Y-61139000D02*
X125604748Y-61139000D01*
X126127252Y-62559000D02*
X125604748Y-62559000D01*
%TO.C,R1*%
X129615000Y-57402252D02*
X129615000Y-56879748D01*
X128195000Y-57402252D02*
X128195000Y-56879748D01*
%TO.C,R9*%
D10*
X136056666Y-77795380D02*
X136390000Y-77319190D01*
X136628095Y-77795380D02*
X136628095Y-76795380D01*
X136247142Y-76795380D01*
X136151904Y-76843000D01*
X136104285Y-76890619D01*
X136056666Y-76985857D01*
X136056666Y-77128714D01*
X136104285Y-77223952D01*
X136151904Y-77271571D01*
X136247142Y-77319190D01*
X136628095Y-77319190D01*
X135580476Y-77795380D02*
X135390000Y-77795380D01*
X135294761Y-77747761D01*
X135247142Y-77700142D01*
X135151904Y-77557285D01*
X135104285Y-77366809D01*
X135104285Y-76985857D01*
X135151904Y-76890619D01*
X135199523Y-76843000D01*
X135294761Y-76795380D01*
X135485238Y-76795380D01*
X135580476Y-76843000D01*
X135628095Y-76890619D01*
X135675714Y-76985857D01*
X135675714Y-77223952D01*
X135628095Y-77319190D01*
X135580476Y-77366809D01*
X135485238Y-77414428D01*
X135294761Y-77414428D01*
X135199523Y-77366809D01*
X135151904Y-77319190D01*
X135104285Y-77223952D01*
%TO.C,R8*%
X139866666Y-77795380D02*
X140200000Y-77319190D01*
X140438095Y-77795380D02*
X140438095Y-76795380D01*
X140057142Y-76795380D01*
X139961904Y-76843000D01*
X139914285Y-76890619D01*
X139866666Y-76985857D01*
X139866666Y-77128714D01*
X139914285Y-77223952D01*
X139961904Y-77271571D01*
X140057142Y-77319190D01*
X140438095Y-77319190D01*
X139295238Y-77223952D02*
X139390476Y-77176333D01*
X139438095Y-77128714D01*
X139485714Y-77033476D01*
X139485714Y-76985857D01*
X139438095Y-76890619D01*
X139390476Y-76843000D01*
X139295238Y-76795380D01*
X139104761Y-76795380D01*
X139009523Y-76843000D01*
X138961904Y-76890619D01*
X138914285Y-76985857D01*
X138914285Y-77033476D01*
X138961904Y-77128714D01*
X139009523Y-77176333D01*
X139104761Y-77223952D01*
X139295238Y-77223952D01*
X139390476Y-77271571D01*
X139438095Y-77319190D01*
X139485714Y-77414428D01*
X139485714Y-77604904D01*
X139438095Y-77700142D01*
X139390476Y-77747761D01*
X139295238Y-77795380D01*
X139104761Y-77795380D01*
X139009523Y-77747761D01*
X138961904Y-77700142D01*
X138914285Y-77604904D01*
X138914285Y-77414428D01*
X138961904Y-77319190D01*
X139009523Y-77271571D01*
X139104761Y-77223952D01*
%TO.C,R7*%
X136056666Y-81224380D02*
X136390000Y-80748190D01*
X136628095Y-81224380D02*
X136628095Y-80224380D01*
X136247142Y-80224380D01*
X136151904Y-80272000D01*
X136104285Y-80319619D01*
X136056666Y-80414857D01*
X136056666Y-80557714D01*
X136104285Y-80652952D01*
X136151904Y-80700571D01*
X136247142Y-80748190D01*
X136628095Y-80748190D01*
X135723333Y-80224380D02*
X135056666Y-80224380D01*
X135485238Y-81224380D01*
%TO.C,R6*%
X139866666Y-81097380D02*
X140200000Y-80621190D01*
X140438095Y-81097380D02*
X140438095Y-80097380D01*
X140057142Y-80097380D01*
X139961904Y-80145000D01*
X139914285Y-80192619D01*
X139866666Y-80287857D01*
X139866666Y-80430714D01*
X139914285Y-80525952D01*
X139961904Y-80573571D01*
X140057142Y-80621190D01*
X140438095Y-80621190D01*
X139009523Y-80097380D02*
X139200000Y-80097380D01*
X139295238Y-80145000D01*
X139342857Y-80192619D01*
X139438095Y-80335476D01*
X139485714Y-80525952D01*
X139485714Y-80906904D01*
X139438095Y-81002142D01*
X139390476Y-81049761D01*
X139295238Y-81097380D01*
X139104761Y-81097380D01*
X139009523Y-81049761D01*
X138961904Y-81002142D01*
X138914285Y-80906904D01*
X138914285Y-80668809D01*
X138961904Y-80573571D01*
X139009523Y-80525952D01*
X139104761Y-80478333D01*
X139295238Y-80478333D01*
X139390476Y-80525952D01*
X139438095Y-80573571D01*
X139485714Y-80668809D01*
%TO.C,R5*%
X136056666Y-84399380D02*
X136390000Y-83923190D01*
X136628095Y-84399380D02*
X136628095Y-83399380D01*
X136247142Y-83399380D01*
X136151904Y-83447000D01*
X136104285Y-83494619D01*
X136056666Y-83589857D01*
X136056666Y-83732714D01*
X136104285Y-83827952D01*
X136151904Y-83875571D01*
X136247142Y-83923190D01*
X136628095Y-83923190D01*
X135151904Y-83399380D02*
X135628095Y-83399380D01*
X135675714Y-83875571D01*
X135628095Y-83827952D01*
X135532857Y-83780333D01*
X135294761Y-83780333D01*
X135199523Y-83827952D01*
X135151904Y-83875571D01*
X135104285Y-83970809D01*
X135104285Y-84208904D01*
X135151904Y-84304142D01*
X135199523Y-84351761D01*
X135294761Y-84399380D01*
X135532857Y-84399380D01*
X135628095Y-84351761D01*
X135675714Y-84304142D01*
%TO.C,R4*%
X139866666Y-84399380D02*
X140200000Y-83923190D01*
X140438095Y-84399380D02*
X140438095Y-83399380D01*
X140057142Y-83399380D01*
X139961904Y-83447000D01*
X139914285Y-83494619D01*
X139866666Y-83589857D01*
X139866666Y-83732714D01*
X139914285Y-83827952D01*
X139961904Y-83875571D01*
X140057142Y-83923190D01*
X140438095Y-83923190D01*
X139009523Y-83732714D02*
X139009523Y-84399380D01*
X139247619Y-83351761D02*
X139485714Y-84066047D01*
X138866666Y-84066047D01*
%TO.C,R3*%
X128817666Y-64460380D02*
X129151000Y-63984190D01*
X129389095Y-64460380D02*
X129389095Y-63460380D01*
X129008142Y-63460380D01*
X128912904Y-63508000D01*
X128865285Y-63555619D01*
X128817666Y-63650857D01*
X128817666Y-63793714D01*
X128865285Y-63888952D01*
X128912904Y-63936571D01*
X129008142Y-63984190D01*
X129389095Y-63984190D01*
X128484333Y-63460380D02*
X127865285Y-63460380D01*
X128198619Y-63841333D01*
X128055761Y-63841333D01*
X127960523Y-63888952D01*
X127912904Y-63936571D01*
X127865285Y-64031809D01*
X127865285Y-64269904D01*
X127912904Y-64365142D01*
X127960523Y-64412761D01*
X128055761Y-64460380D01*
X128341476Y-64460380D01*
X128436714Y-64412761D01*
X128484333Y-64365142D01*
%TO.C,R2*%
X128835666Y-62301380D02*
X129169000Y-61825190D01*
X129407095Y-62301380D02*
X129407095Y-61301380D01*
X129026142Y-61301380D01*
X128930904Y-61349000D01*
X128883285Y-61396619D01*
X128835666Y-61491857D01*
X128835666Y-61634714D01*
X128883285Y-61729952D01*
X128930904Y-61777571D01*
X129026142Y-61825190D01*
X129407095Y-61825190D01*
X128454714Y-61396619D02*
X128407095Y-61349000D01*
X128311857Y-61301380D01*
X128073761Y-61301380D01*
X127978523Y-61349000D01*
X127930904Y-61396619D01*
X127883285Y-61491857D01*
X127883285Y-61587095D01*
X127930904Y-61729952D01*
X128502333Y-62301380D01*
X127883285Y-62301380D01*
%TO.C,R1*%
X129357380Y-59759333D02*
X128881190Y-59426000D01*
X129357380Y-59187904D02*
X128357380Y-59187904D01*
X128357380Y-59568857D01*
X128405000Y-59664095D01*
X128452619Y-59711714D01*
X128547857Y-59759333D01*
X128690714Y-59759333D01*
X128785952Y-59711714D01*
X128833571Y-59664095D01*
X128881190Y-59568857D01*
X128881190Y-59187904D01*
X129357380Y-60711714D02*
X129357380Y-60140285D01*
X129357380Y-60426000D02*
X128357380Y-60426000D01*
X128500238Y-60330761D01*
X128595476Y-60235523D01*
X128643095Y-60140285D01*
%TD*%
M02*
