%TF.GenerationSoftware,KiCad,Pcbnew,(5.1.6)-1*%
%TF.CreationDate,2020-09-17T21:49:39+02:00*%
%TF.ProjectId,gpioexpander5,6770696f-6578-4706-916e-646572352e6b,rev?*%
%TF.SameCoordinates,Original*%
%TF.FileFunction,Copper,L2,Bot*%
%TF.FilePolarity,Positive*%
%FSLAX46Y46*%
G04 Gerber Fmt 4.6, Leading zero omitted, Abs format (unit mm)*
G04 Created by KiCad (PCBNEW (5.1.6)-1) date 2020-09-17 21:49:39*
%MOMM*%
%LPD*%
G01*
G04 APERTURE LIST*
%TA.AperFunction,ComponentPad*%
%ADD10C,2.000000*%
%TD*%
%TA.AperFunction,ComponentPad*%
%ADD11O,1.700000X1.700000*%
%TD*%
%TA.AperFunction,ComponentPad*%
%ADD12R,1.700000X1.700000*%
%TD*%
%TA.AperFunction,ComponentPad*%
%ADD13C,6.400000*%
%TD*%
%TA.AperFunction,ViaPad*%
%ADD14C,0.800000*%
%TD*%
%TA.AperFunction,Conductor*%
%ADD15C,0.250000*%
%TD*%
%TA.AperFunction,Conductor*%
%ADD16C,0.254000*%
%TD*%
G04 APERTURE END LIST*
D10*
%TO.P,SW1,1*%
%TO.N,/Action*%
X136375000Y-63627000D03*
%TO.P,SW1,2*%
%TO.N,GND*%
X136375000Y-59127000D03*
%TO.P,SW1,1*%
%TO.N,/Action*%
X142875000Y-63627000D03*
%TO.P,SW1,2*%
%TO.N,GND*%
X142875000Y-59127000D03*
%TD*%
D11*
%TO.P,J9,2*%
%TO.N,GND*%
X136779000Y-70612000D03*
D12*
%TO.P,J9,1*%
%TO.N,/~RESET*%
X136779000Y-73152000D03*
%TD*%
D13*
%TO.P,H2,1*%
%TO.N,GND*%
X111379000Y-82804000D03*
%TD*%
%TO.P,H1,1*%
%TO.N,GND*%
X139700000Y-53213000D03*
%TD*%
%TO.P,R9,2*%
%TO.N,GND*%
%TA.AperFunction,SMDPad,CuDef*%
G36*
G01*
X135440000Y-78543999D02*
X135440000Y-79444001D01*
G75*
G02*
X135190001Y-79694000I-249999J0D01*
G01*
X134539999Y-79694000D01*
G75*
G02*
X134290000Y-79444001I0J249999D01*
G01*
X134290000Y-78543999D01*
G75*
G02*
X134539999Y-78294000I249999J0D01*
G01*
X135190001Y-78294000D01*
G75*
G02*
X135440000Y-78543999I0J-249999D01*
G01*
G37*
%TD.AperFunction*%
%TO.P,R9,1*%
%TO.N,/A2*%
%TA.AperFunction,SMDPad,CuDef*%
G36*
G01*
X137490000Y-78543999D02*
X137490000Y-79444001D01*
G75*
G02*
X137240001Y-79694000I-249999J0D01*
G01*
X136589999Y-79694000D01*
G75*
G02*
X136340000Y-79444001I0J249999D01*
G01*
X136340000Y-78543999D01*
G75*
G02*
X136589999Y-78294000I249999J0D01*
G01*
X137240001Y-78294000D01*
G75*
G02*
X137490000Y-78543999I0J-249999D01*
G01*
G37*
%TD.AperFunction*%
%TD*%
%TO.P,R8,2*%
%TO.N,/A2*%
%TA.AperFunction,SMDPad,CuDef*%
G36*
G01*
X139250000Y-78543999D02*
X139250000Y-79444001D01*
G75*
G02*
X139000001Y-79694000I-249999J0D01*
G01*
X138349999Y-79694000D01*
G75*
G02*
X138100000Y-79444001I0J249999D01*
G01*
X138100000Y-78543999D01*
G75*
G02*
X138349999Y-78294000I249999J0D01*
G01*
X139000001Y-78294000D01*
G75*
G02*
X139250000Y-78543999I0J-249999D01*
G01*
G37*
%TD.AperFunction*%
%TO.P,R8,1*%
%TO.N,+3V3*%
%TA.AperFunction,SMDPad,CuDef*%
G36*
G01*
X141300000Y-78543999D02*
X141300000Y-79444001D01*
G75*
G02*
X141050001Y-79694000I-249999J0D01*
G01*
X140399999Y-79694000D01*
G75*
G02*
X140150000Y-79444001I0J249999D01*
G01*
X140150000Y-78543999D01*
G75*
G02*
X140399999Y-78294000I249999J0D01*
G01*
X141050001Y-78294000D01*
G75*
G02*
X141300000Y-78543999I0J-249999D01*
G01*
G37*
%TD.AperFunction*%
%TD*%
%TO.P,R7,2*%
%TO.N,GND*%
%TA.AperFunction,SMDPad,CuDef*%
G36*
G01*
X135431000Y-81845999D02*
X135431000Y-82746001D01*
G75*
G02*
X135181001Y-82996000I-249999J0D01*
G01*
X134530999Y-82996000D01*
G75*
G02*
X134281000Y-82746001I0J249999D01*
G01*
X134281000Y-81845999D01*
G75*
G02*
X134530999Y-81596000I249999J0D01*
G01*
X135181001Y-81596000D01*
G75*
G02*
X135431000Y-81845999I0J-249999D01*
G01*
G37*
%TD.AperFunction*%
%TO.P,R7,1*%
%TO.N,/A1*%
%TA.AperFunction,SMDPad,CuDef*%
G36*
G01*
X137481000Y-81845999D02*
X137481000Y-82746001D01*
G75*
G02*
X137231001Y-82996000I-249999J0D01*
G01*
X136580999Y-82996000D01*
G75*
G02*
X136331000Y-82746001I0J249999D01*
G01*
X136331000Y-81845999D01*
G75*
G02*
X136580999Y-81596000I249999J0D01*
G01*
X137231001Y-81596000D01*
G75*
G02*
X137481000Y-81845999I0J-249999D01*
G01*
G37*
%TD.AperFunction*%
%TD*%
%TO.P,R6,2*%
%TO.N,/A1*%
%TA.AperFunction,SMDPad,CuDef*%
G36*
G01*
X139259000Y-81845999D02*
X139259000Y-82746001D01*
G75*
G02*
X139009001Y-82996000I-249999J0D01*
G01*
X138358999Y-82996000D01*
G75*
G02*
X138109000Y-82746001I0J249999D01*
G01*
X138109000Y-81845999D01*
G75*
G02*
X138358999Y-81596000I249999J0D01*
G01*
X139009001Y-81596000D01*
G75*
G02*
X139259000Y-81845999I0J-249999D01*
G01*
G37*
%TD.AperFunction*%
%TO.P,R6,1*%
%TO.N,+3V3*%
%TA.AperFunction,SMDPad,CuDef*%
G36*
G01*
X141309000Y-81845999D02*
X141309000Y-82746001D01*
G75*
G02*
X141059001Y-82996000I-249999J0D01*
G01*
X140408999Y-82996000D01*
G75*
G02*
X140159000Y-82746001I0J249999D01*
G01*
X140159000Y-81845999D01*
G75*
G02*
X140408999Y-81596000I249999J0D01*
G01*
X141059001Y-81596000D01*
G75*
G02*
X141309000Y-81845999I0J-249999D01*
G01*
G37*
%TD.AperFunction*%
%TD*%
%TO.P,R5,2*%
%TO.N,GND*%
%TA.AperFunction,SMDPad,CuDef*%
G36*
G01*
X135431000Y-84893999D02*
X135431000Y-85794001D01*
G75*
G02*
X135181001Y-86044000I-249999J0D01*
G01*
X134530999Y-86044000D01*
G75*
G02*
X134281000Y-85794001I0J249999D01*
G01*
X134281000Y-84893999D01*
G75*
G02*
X134530999Y-84644000I249999J0D01*
G01*
X135181001Y-84644000D01*
G75*
G02*
X135431000Y-84893999I0J-249999D01*
G01*
G37*
%TD.AperFunction*%
%TO.P,R5,1*%
%TO.N,/A0*%
%TA.AperFunction,SMDPad,CuDef*%
G36*
G01*
X137481000Y-84893999D02*
X137481000Y-85794001D01*
G75*
G02*
X137231001Y-86044000I-249999J0D01*
G01*
X136580999Y-86044000D01*
G75*
G02*
X136331000Y-85794001I0J249999D01*
G01*
X136331000Y-84893999D01*
G75*
G02*
X136580999Y-84644000I249999J0D01*
G01*
X137231001Y-84644000D01*
G75*
G02*
X137481000Y-84893999I0J-249999D01*
G01*
G37*
%TD.AperFunction*%
%TD*%
%TO.P,R4,2*%
%TO.N,/A0*%
%TA.AperFunction,SMDPad,CuDef*%
G36*
G01*
X139241000Y-84893999D02*
X139241000Y-85794001D01*
G75*
G02*
X138991001Y-86044000I-249999J0D01*
G01*
X138340999Y-86044000D01*
G75*
G02*
X138091000Y-85794001I0J249999D01*
G01*
X138091000Y-84893999D01*
G75*
G02*
X138340999Y-84644000I249999J0D01*
G01*
X138991001Y-84644000D01*
G75*
G02*
X139241000Y-84893999I0J-249999D01*
G01*
G37*
%TD.AperFunction*%
%TO.P,R4,1*%
%TO.N,+3V3*%
%TA.AperFunction,SMDPad,CuDef*%
G36*
G01*
X141291000Y-84893999D02*
X141291000Y-85794001D01*
G75*
G02*
X141041001Y-86044000I-249999J0D01*
G01*
X140390999Y-86044000D01*
G75*
G02*
X140141000Y-85794001I0J249999D01*
G01*
X140141000Y-84893999D01*
G75*
G02*
X140390999Y-84644000I249999J0D01*
G01*
X141041001Y-84644000D01*
G75*
G02*
X141291000Y-84893999I0J-249999D01*
G01*
G37*
%TD.AperFunction*%
%TD*%
%TO.P,R3,2*%
%TO.N,+3V3*%
%TA.AperFunction,SMDPad,CuDef*%
G36*
G01*
X125416000Y-63557999D02*
X125416000Y-64458001D01*
G75*
G02*
X125166001Y-64708000I-249999J0D01*
G01*
X124515999Y-64708000D01*
G75*
G02*
X124266000Y-64458001I0J249999D01*
G01*
X124266000Y-63557999D01*
G75*
G02*
X124515999Y-63308000I249999J0D01*
G01*
X125166001Y-63308000D01*
G75*
G02*
X125416000Y-63557999I0J-249999D01*
G01*
G37*
%TD.AperFunction*%
%TO.P,R3,1*%
%TO.N,/INTB*%
%TA.AperFunction,SMDPad,CuDef*%
G36*
G01*
X127466000Y-63557999D02*
X127466000Y-64458001D01*
G75*
G02*
X127216001Y-64708000I-249999J0D01*
G01*
X126565999Y-64708000D01*
G75*
G02*
X126316000Y-64458001I0J249999D01*
G01*
X126316000Y-63557999D01*
G75*
G02*
X126565999Y-63308000I249999J0D01*
G01*
X127216001Y-63308000D01*
G75*
G02*
X127466000Y-63557999I0J-249999D01*
G01*
G37*
%TD.AperFunction*%
%TD*%
%TO.P,R2,2*%
%TO.N,+3V3*%
%TA.AperFunction,SMDPad,CuDef*%
G36*
G01*
X125416000Y-61398999D02*
X125416000Y-62299001D01*
G75*
G02*
X125166001Y-62549000I-249999J0D01*
G01*
X124515999Y-62549000D01*
G75*
G02*
X124266000Y-62299001I0J249999D01*
G01*
X124266000Y-61398999D01*
G75*
G02*
X124515999Y-61149000I249999J0D01*
G01*
X125166001Y-61149000D01*
G75*
G02*
X125416000Y-61398999I0J-249999D01*
G01*
G37*
%TD.AperFunction*%
%TO.P,R2,1*%
%TO.N,/INTA*%
%TA.AperFunction,SMDPad,CuDef*%
G36*
G01*
X127466000Y-61398999D02*
X127466000Y-62299001D01*
G75*
G02*
X127216001Y-62549000I-249999J0D01*
G01*
X126565999Y-62549000D01*
G75*
G02*
X126316000Y-62299001I0J249999D01*
G01*
X126316000Y-61398999D01*
G75*
G02*
X126565999Y-61149000I249999J0D01*
G01*
X127216001Y-61149000D01*
G75*
G02*
X127466000Y-61398999I0J-249999D01*
G01*
G37*
%TD.AperFunction*%
%TD*%
%TO.P,R1,2*%
%TO.N,+3V3*%
%TA.AperFunction,SMDPad,CuDef*%
G36*
G01*
X129355001Y-56691000D02*
X128454999Y-56691000D01*
G75*
G02*
X128205000Y-56441001I0J249999D01*
G01*
X128205000Y-55790999D01*
G75*
G02*
X128454999Y-55541000I249999J0D01*
G01*
X129355001Y-55541000D01*
G75*
G02*
X129605000Y-55790999I0J-249999D01*
G01*
X129605000Y-56441001D01*
G75*
G02*
X129355001Y-56691000I-249999J0D01*
G01*
G37*
%TD.AperFunction*%
%TO.P,R1,1*%
%TO.N,/Action*%
%TA.AperFunction,SMDPad,CuDef*%
G36*
G01*
X129355001Y-58741000D02*
X128454999Y-58741000D01*
G75*
G02*
X128205000Y-58491001I0J249999D01*
G01*
X128205000Y-57840999D01*
G75*
G02*
X128454999Y-57591000I249999J0D01*
G01*
X129355001Y-57591000D01*
G75*
G02*
X129605000Y-57840999I0J-249999D01*
G01*
X129605000Y-58491001D01*
G75*
G02*
X129355001Y-58741000I-249999J0D01*
G01*
G37*
%TD.AperFunction*%
%TD*%
D11*
%TO.P,J8,2*%
%TO.N,/INTA*%
X141732000Y-70612000D03*
D12*
%TO.P,J8,1*%
%TO.N,/INTB*%
X141732000Y-73152000D03*
%TD*%
D11*
%TO.P,J7,4*%
%TO.N,GND*%
X109855000Y-71755000D03*
%TO.P,J7,3*%
%TO.N,/P5_3*%
X112395000Y-71755000D03*
%TO.P,J7,2*%
%TO.N,/P5_2*%
X114935000Y-71755000D03*
D12*
%TO.P,J7,1*%
%TO.N,/P5_1*%
X117475000Y-71755000D03*
%TD*%
D11*
%TO.P,J6,4*%
%TO.N,GND*%
X109855000Y-66675000D03*
%TO.P,J6,3*%
%TO.N,/P4_3*%
X112395000Y-66675000D03*
%TO.P,J6,2*%
%TO.N,/P4_2*%
X114935000Y-66675000D03*
D12*
%TO.P,J6,1*%
%TO.N,/P4_1*%
X117475000Y-66675000D03*
%TD*%
D11*
%TO.P,J5,4*%
%TO.N,GND*%
X109855000Y-61595000D03*
%TO.P,J5,3*%
%TO.N,/P3_3*%
X112395000Y-61595000D03*
%TO.P,J5,2*%
%TO.N,/P3_2*%
X114935000Y-61595000D03*
D12*
%TO.P,J5,1*%
%TO.N,/P3_1*%
X117475000Y-61595000D03*
%TD*%
D11*
%TO.P,J4,4*%
%TO.N,GND*%
X109855000Y-56515000D03*
%TO.P,J4,3*%
%TO.N,/P2_3*%
X112395000Y-56515000D03*
%TO.P,J4,2*%
%TO.N,/P2_2*%
X114935000Y-56515000D03*
D12*
%TO.P,J4,1*%
%TO.N,/P2_1*%
X117475000Y-56515000D03*
%TD*%
D11*
%TO.P,J3,4*%
%TO.N,GND*%
X109728000Y-51435000D03*
%TO.P,J3,3*%
%TO.N,/P1_3*%
X112268000Y-51435000D03*
%TO.P,J3,2*%
%TO.N,/P1_2*%
X114808000Y-51435000D03*
D12*
%TO.P,J3,1*%
%TO.N,/P1_1*%
X117348000Y-51435000D03*
%TD*%
D11*
%TO.P,J2,2*%
%TO.N,/SCK*%
X118618000Y-84328000D03*
D12*
%TO.P,J2,1*%
%TO.N,/SDA*%
X118618000Y-81788000D03*
%TD*%
D11*
%TO.P,J1,2*%
%TO.N,GND*%
X126238000Y-81788000D03*
D12*
%TO.P,J1,1*%
%TO.N,+3V3*%
X126238000Y-84328000D03*
%TD*%
D14*
%TO.N,/A0*%
X129540000Y-72009000D03*
%TO.N,/A1*%
X132080000Y-71628000D03*
%TO.N,/A2*%
X134873994Y-68199000D03*
%TO.N,/P3_3*%
X119761000Y-51562000D03*
%TO.N,/P3_2*%
X129413000Y-51562000D03*
%TO.N,/P3_1*%
X129540000Y-52705000D03*
%TO.N,/P5_2*%
X124243000Y-57785000D03*
%TO.N,/P5_1*%
X124968000Y-56515000D03*
%TO.N,/INTA*%
X129032000Y-61087000D03*
%TO.N,/INTB*%
X129032000Y-62865000D03*
%TD*%
D15*
%TO.N,GND*%
X134856000Y-82296000D02*
X134856000Y-82024000D01*
%TO.N,+3V3*%
X124841000Y-60180000D02*
X128905000Y-56116000D01*
X124841000Y-61849000D02*
X124841000Y-60180000D01*
X124841000Y-61849000D02*
X124841000Y-64008000D01*
X139690990Y-86369010D02*
X140716000Y-85344000D01*
X128279010Y-86369010D02*
X139690990Y-86369010D01*
X126238000Y-84328000D02*
X128279010Y-86369010D01*
X140716000Y-82314000D02*
X140734000Y-82296000D01*
X140716000Y-85344000D02*
X140716000Y-82314000D01*
X140734000Y-79003000D02*
X140725000Y-78994000D01*
X140734000Y-82296000D02*
X140734000Y-79003000D01*
X124841000Y-82931000D02*
X126238000Y-84328000D01*
X124841000Y-64008000D02*
X124841000Y-82931000D01*
%TO.N,/Action*%
X134366000Y-63627000D02*
X128905000Y-58166000D01*
X136375000Y-63627000D02*
X134366000Y-63627000D01*
%TO.N,/A0*%
X138666000Y-85344000D02*
X136906000Y-85344000D01*
X129540000Y-78867000D02*
X129540000Y-72009000D01*
X134493000Y-83820000D02*
X129540000Y-78867000D01*
X136906000Y-85344000D02*
X135382000Y-83820000D01*
X135382000Y-83820000D02*
X134493000Y-83820000D01*
%TO.N,/A1*%
X138684000Y-82296000D02*
X136906000Y-82296000D01*
X132080000Y-77851000D02*
X132080000Y-71628000D01*
X136398000Y-80137000D02*
X134366000Y-80137000D01*
X136906000Y-82296000D02*
X136906000Y-80645000D01*
X134366000Y-80137000D02*
X132080000Y-77851000D01*
X136906000Y-80645000D02*
X136398000Y-80137000D01*
%TO.N,/A2*%
X138675000Y-78994000D02*
X136915000Y-78994000D01*
X136906000Y-76073000D02*
X134873994Y-74040994D01*
X134873994Y-74040994D02*
X134873994Y-68199000D01*
X136915000Y-78994000D02*
X136906000Y-78985000D01*
X136906000Y-78985000D02*
X136906000Y-76073000D01*
%TO.N,/P3_3*%
X113759999Y-60230001D02*
X113759999Y-55950999D01*
X112395000Y-61595000D02*
X113759999Y-60230001D01*
X113759999Y-55950999D02*
X114370999Y-55339999D01*
X115983001Y-55339999D02*
X119761000Y-51562000D01*
X114370999Y-55339999D02*
X115983001Y-55339999D01*
%TO.N,/P3_2*%
X115697000Y-57912000D02*
X118999000Y-57912000D01*
X125349000Y-51562000D02*
X129413000Y-51562000D01*
X118999000Y-57912000D02*
X125349000Y-51562000D01*
X114935000Y-61595000D02*
X114935000Y-58674000D01*
X114935000Y-58674000D02*
X115697000Y-57912000D01*
%TO.N,/P3_1*%
X126365000Y-52705000D02*
X117475000Y-61595000D01*
X129540000Y-52705000D02*
X126365000Y-52705000D01*
%TO.N,/P5_2*%
X124079998Y-57785000D02*
X124243000Y-57785000D01*
X122936000Y-58928998D02*
X124079998Y-57785000D01*
X122936000Y-67564000D02*
X122936000Y-58928998D01*
X120109999Y-70390001D02*
X122936000Y-67564000D01*
X114935000Y-71755000D02*
X116299999Y-70390001D01*
X116299999Y-70390001D02*
X120109999Y-70390001D01*
%TO.N,/P5_1*%
X123386011Y-60636989D02*
X124968000Y-59055000D01*
X124968000Y-59055000D02*
X124968000Y-56515000D01*
X123386011Y-67750400D02*
X123386011Y-60636989D01*
X119381411Y-71755000D02*
X123386011Y-67750400D01*
X117475000Y-71755000D02*
X119381411Y-71755000D01*
%TO.N,/INTA*%
X127653000Y-61087000D02*
X126891000Y-61849000D01*
X129032000Y-61087000D02*
X127653000Y-61087000D01*
%TO.N,/INTB*%
X126891000Y-64008000D02*
X127889000Y-64008000D01*
X127889000Y-64008000D02*
X129032000Y-62865000D01*
%TD*%
D16*
%TO.N,GND*%
G36*
X142293886Y-48470258D02*
G01*
X142834376Y-48633442D01*
X143332867Y-48898494D01*
X143770388Y-49255326D01*
X144130271Y-49690350D01*
X144398799Y-50186983D01*
X144565749Y-50726315D01*
X144628000Y-51318596D01*
X144628001Y-84803712D01*
X144569742Y-85397886D01*
X144406559Y-85938374D01*
X144141506Y-86436867D01*
X143784669Y-86874393D01*
X143349653Y-87234269D01*
X142853019Y-87502798D01*
X142313690Y-87669749D01*
X141721404Y-87732000D01*
X109252278Y-87732000D01*
X108658114Y-87673742D01*
X108117626Y-87510559D01*
X107619133Y-87245506D01*
X107181607Y-86888669D01*
X106821731Y-86453653D01*
X106553202Y-85957019D01*
X106413242Y-85504881D01*
X108857724Y-85504881D01*
X109217912Y-85994548D01*
X109881882Y-86354849D01*
X110603385Y-86578694D01*
X111354695Y-86657480D01*
X112106938Y-86588178D01*
X112831208Y-86373452D01*
X113499670Y-86021555D01*
X113540088Y-85994548D01*
X113900276Y-85504881D01*
X111379000Y-82983605D01*
X108857724Y-85504881D01*
X106413242Y-85504881D01*
X106386251Y-85417690D01*
X106324000Y-84825404D01*
X106324000Y-82779695D01*
X107525520Y-82779695D01*
X107594822Y-83531938D01*
X107809548Y-84256208D01*
X108161445Y-84924670D01*
X108188452Y-84965088D01*
X108678119Y-85325276D01*
X111199395Y-82804000D01*
X111558605Y-82804000D01*
X114079881Y-85325276D01*
X114569548Y-84965088D01*
X114929849Y-84301118D01*
X115153694Y-83579615D01*
X115232480Y-82828305D01*
X115163178Y-82076062D01*
X114948452Y-81351792D01*
X114730621Y-80938000D01*
X117129928Y-80938000D01*
X117129928Y-82638000D01*
X117142188Y-82762482D01*
X117178498Y-82882180D01*
X117237463Y-82992494D01*
X117316815Y-83089185D01*
X117413506Y-83168537D01*
X117523820Y-83227502D01*
X117596380Y-83249513D01*
X117464525Y-83381368D01*
X117302010Y-83624589D01*
X117190068Y-83894842D01*
X117133000Y-84181740D01*
X117133000Y-84474260D01*
X117190068Y-84761158D01*
X117302010Y-85031411D01*
X117464525Y-85274632D01*
X117671368Y-85481475D01*
X117914589Y-85643990D01*
X118184842Y-85755932D01*
X118471740Y-85813000D01*
X118764260Y-85813000D01*
X119051158Y-85755932D01*
X119321411Y-85643990D01*
X119564632Y-85481475D01*
X119771475Y-85274632D01*
X119933990Y-85031411D01*
X120045932Y-84761158D01*
X120103000Y-84474260D01*
X120103000Y-84181740D01*
X120045932Y-83894842D01*
X119933990Y-83624589D01*
X119771475Y-83381368D01*
X119639620Y-83249513D01*
X119712180Y-83227502D01*
X119822494Y-83168537D01*
X119919185Y-83089185D01*
X119998537Y-82992494D01*
X120057502Y-82882180D01*
X120093812Y-82762482D01*
X120106072Y-82638000D01*
X120106072Y-80938000D01*
X120093812Y-80813518D01*
X120057502Y-80693820D01*
X119998537Y-80583506D01*
X119919185Y-80486815D01*
X119822494Y-80407463D01*
X119712180Y-80348498D01*
X119592482Y-80312188D01*
X119468000Y-80299928D01*
X117768000Y-80299928D01*
X117643518Y-80312188D01*
X117523820Y-80348498D01*
X117413506Y-80407463D01*
X117316815Y-80486815D01*
X117237463Y-80583506D01*
X117178498Y-80693820D01*
X117142188Y-80813518D01*
X117129928Y-80938000D01*
X114730621Y-80938000D01*
X114596555Y-80683330D01*
X114569548Y-80642912D01*
X114079881Y-80282724D01*
X111558605Y-82804000D01*
X111199395Y-82804000D01*
X108678119Y-80282724D01*
X108188452Y-80642912D01*
X107828151Y-81306882D01*
X107604306Y-82028385D01*
X107525520Y-82779695D01*
X106324000Y-82779695D01*
X106324000Y-80103119D01*
X108857724Y-80103119D01*
X111379000Y-82624395D01*
X113900276Y-80103119D01*
X113540088Y-79613452D01*
X112876118Y-79253151D01*
X112154615Y-79029306D01*
X111403305Y-78950520D01*
X110651062Y-79019822D01*
X109926792Y-79234548D01*
X109258330Y-79586445D01*
X109217912Y-79613452D01*
X108857724Y-80103119D01*
X106324000Y-80103119D01*
X106324000Y-72111891D01*
X108413519Y-72111891D01*
X108510843Y-72386252D01*
X108659822Y-72636355D01*
X108854731Y-72852588D01*
X109088080Y-73026641D01*
X109350901Y-73151825D01*
X109498110Y-73196476D01*
X109728000Y-73075155D01*
X109728000Y-71882000D01*
X108534186Y-71882000D01*
X108413519Y-72111891D01*
X106324000Y-72111891D01*
X106324000Y-71398109D01*
X108413519Y-71398109D01*
X108534186Y-71628000D01*
X109728000Y-71628000D01*
X109728000Y-70434845D01*
X109498110Y-70313524D01*
X109350901Y-70358175D01*
X109088080Y-70483359D01*
X108854731Y-70657412D01*
X108659822Y-70873645D01*
X108510843Y-71123748D01*
X108413519Y-71398109D01*
X106324000Y-71398109D01*
X106324000Y-67031891D01*
X108413519Y-67031891D01*
X108510843Y-67306252D01*
X108659822Y-67556355D01*
X108854731Y-67772588D01*
X109088080Y-67946641D01*
X109350901Y-68071825D01*
X109498110Y-68116476D01*
X109728000Y-67995155D01*
X109728000Y-66802000D01*
X108534186Y-66802000D01*
X108413519Y-67031891D01*
X106324000Y-67031891D01*
X106324000Y-66318109D01*
X108413519Y-66318109D01*
X108534186Y-66548000D01*
X109728000Y-66548000D01*
X109728000Y-65354845D01*
X109982000Y-65354845D01*
X109982000Y-66548000D01*
X110002000Y-66548000D01*
X110002000Y-66802000D01*
X109982000Y-66802000D01*
X109982000Y-67995155D01*
X110211890Y-68116476D01*
X110359099Y-68071825D01*
X110621920Y-67946641D01*
X110855269Y-67772588D01*
X111050178Y-67556355D01*
X111119805Y-67439466D01*
X111241525Y-67621632D01*
X111448368Y-67828475D01*
X111691589Y-67990990D01*
X111961842Y-68102932D01*
X112248740Y-68160000D01*
X112541260Y-68160000D01*
X112828158Y-68102932D01*
X113098411Y-67990990D01*
X113341632Y-67828475D01*
X113548475Y-67621632D01*
X113665000Y-67447240D01*
X113781525Y-67621632D01*
X113988368Y-67828475D01*
X114231589Y-67990990D01*
X114501842Y-68102932D01*
X114788740Y-68160000D01*
X115081260Y-68160000D01*
X115368158Y-68102932D01*
X115638411Y-67990990D01*
X115881632Y-67828475D01*
X116013487Y-67696620D01*
X116035498Y-67769180D01*
X116094463Y-67879494D01*
X116173815Y-67976185D01*
X116270506Y-68055537D01*
X116380820Y-68114502D01*
X116500518Y-68150812D01*
X116625000Y-68163072D01*
X118325000Y-68163072D01*
X118449482Y-68150812D01*
X118569180Y-68114502D01*
X118679494Y-68055537D01*
X118776185Y-67976185D01*
X118855537Y-67879494D01*
X118914502Y-67769180D01*
X118950812Y-67649482D01*
X118963072Y-67525000D01*
X118963072Y-65825000D01*
X118950812Y-65700518D01*
X118914502Y-65580820D01*
X118855537Y-65470506D01*
X118776185Y-65373815D01*
X118679494Y-65294463D01*
X118569180Y-65235498D01*
X118449482Y-65199188D01*
X118325000Y-65186928D01*
X116625000Y-65186928D01*
X116500518Y-65199188D01*
X116380820Y-65235498D01*
X116270506Y-65294463D01*
X116173815Y-65373815D01*
X116094463Y-65470506D01*
X116035498Y-65580820D01*
X116013487Y-65653380D01*
X115881632Y-65521525D01*
X115638411Y-65359010D01*
X115368158Y-65247068D01*
X115081260Y-65190000D01*
X114788740Y-65190000D01*
X114501842Y-65247068D01*
X114231589Y-65359010D01*
X113988368Y-65521525D01*
X113781525Y-65728368D01*
X113665000Y-65902760D01*
X113548475Y-65728368D01*
X113341632Y-65521525D01*
X113098411Y-65359010D01*
X112828158Y-65247068D01*
X112541260Y-65190000D01*
X112248740Y-65190000D01*
X111961842Y-65247068D01*
X111691589Y-65359010D01*
X111448368Y-65521525D01*
X111241525Y-65728368D01*
X111119805Y-65910534D01*
X111050178Y-65793645D01*
X110855269Y-65577412D01*
X110621920Y-65403359D01*
X110359099Y-65278175D01*
X110211890Y-65233524D01*
X109982000Y-65354845D01*
X109728000Y-65354845D01*
X109498110Y-65233524D01*
X109350901Y-65278175D01*
X109088080Y-65403359D01*
X108854731Y-65577412D01*
X108659822Y-65793645D01*
X108510843Y-66043748D01*
X108413519Y-66318109D01*
X106324000Y-66318109D01*
X106324000Y-61951891D01*
X108413519Y-61951891D01*
X108510843Y-62226252D01*
X108659822Y-62476355D01*
X108854731Y-62692588D01*
X109088080Y-62866641D01*
X109350901Y-62991825D01*
X109498110Y-63036476D01*
X109728000Y-62915155D01*
X109728000Y-61722000D01*
X108534186Y-61722000D01*
X108413519Y-61951891D01*
X106324000Y-61951891D01*
X106324000Y-61238109D01*
X108413519Y-61238109D01*
X108534186Y-61468000D01*
X109728000Y-61468000D01*
X109728000Y-60274845D01*
X109498110Y-60153524D01*
X109350901Y-60198175D01*
X109088080Y-60323359D01*
X108854731Y-60497412D01*
X108659822Y-60713645D01*
X108510843Y-60963748D01*
X108413519Y-61238109D01*
X106324000Y-61238109D01*
X106324000Y-56871891D01*
X108413519Y-56871891D01*
X108510843Y-57146252D01*
X108659822Y-57396355D01*
X108854731Y-57612588D01*
X109088080Y-57786641D01*
X109350901Y-57911825D01*
X109498110Y-57956476D01*
X109728000Y-57835155D01*
X109728000Y-56642000D01*
X108534186Y-56642000D01*
X108413519Y-56871891D01*
X106324000Y-56871891D01*
X106324000Y-56158109D01*
X108413519Y-56158109D01*
X108534186Y-56388000D01*
X109728000Y-56388000D01*
X109728000Y-55194845D01*
X109498110Y-55073524D01*
X109350901Y-55118175D01*
X109088080Y-55243359D01*
X108854731Y-55417412D01*
X108659822Y-55633645D01*
X108510843Y-55883748D01*
X108413519Y-56158109D01*
X106324000Y-56158109D01*
X106324000Y-51791891D01*
X108286519Y-51791891D01*
X108383843Y-52066252D01*
X108532822Y-52316355D01*
X108727731Y-52532588D01*
X108961080Y-52706641D01*
X109223901Y-52831825D01*
X109371110Y-52876476D01*
X109601000Y-52755155D01*
X109601000Y-51562000D01*
X108407186Y-51562000D01*
X108286519Y-51791891D01*
X106324000Y-51791891D01*
X106324000Y-51340278D01*
X106349705Y-51078109D01*
X108286519Y-51078109D01*
X108407186Y-51308000D01*
X109601000Y-51308000D01*
X109601000Y-50114845D01*
X109855000Y-50114845D01*
X109855000Y-51308000D01*
X109875000Y-51308000D01*
X109875000Y-51562000D01*
X109855000Y-51562000D01*
X109855000Y-52755155D01*
X110084890Y-52876476D01*
X110232099Y-52831825D01*
X110494920Y-52706641D01*
X110728269Y-52532588D01*
X110923178Y-52316355D01*
X110992805Y-52199466D01*
X111114525Y-52381632D01*
X111321368Y-52588475D01*
X111564589Y-52750990D01*
X111834842Y-52862932D01*
X112121740Y-52920000D01*
X112414260Y-52920000D01*
X112701158Y-52862932D01*
X112971411Y-52750990D01*
X113214632Y-52588475D01*
X113421475Y-52381632D01*
X113538000Y-52207240D01*
X113654525Y-52381632D01*
X113861368Y-52588475D01*
X114104589Y-52750990D01*
X114374842Y-52862932D01*
X114661740Y-52920000D01*
X114954260Y-52920000D01*
X115241158Y-52862932D01*
X115511411Y-52750990D01*
X115754632Y-52588475D01*
X115886487Y-52456620D01*
X115908498Y-52529180D01*
X115967463Y-52639494D01*
X116046815Y-52736185D01*
X116143506Y-52815537D01*
X116253820Y-52874502D01*
X116373518Y-52910812D01*
X116498000Y-52923072D01*
X117325126Y-52923072D01*
X115668200Y-54579999D01*
X114408321Y-54579999D01*
X114370998Y-54576323D01*
X114333675Y-54579999D01*
X114333666Y-54579999D01*
X114222013Y-54590996D01*
X114078752Y-54634453D01*
X113946723Y-54705025D01*
X113946721Y-54705026D01*
X113946722Y-54705026D01*
X113859995Y-54776200D01*
X113859991Y-54776204D01*
X113830998Y-54799998D01*
X113807204Y-54828991D01*
X113301492Y-55334704D01*
X113098411Y-55199010D01*
X112828158Y-55087068D01*
X112541260Y-55030000D01*
X112248740Y-55030000D01*
X111961842Y-55087068D01*
X111691589Y-55199010D01*
X111448368Y-55361525D01*
X111241525Y-55568368D01*
X111119805Y-55750534D01*
X111050178Y-55633645D01*
X110855269Y-55417412D01*
X110621920Y-55243359D01*
X110359099Y-55118175D01*
X110211890Y-55073524D01*
X109982000Y-55194845D01*
X109982000Y-56388000D01*
X110002000Y-56388000D01*
X110002000Y-56642000D01*
X109982000Y-56642000D01*
X109982000Y-57835155D01*
X110211890Y-57956476D01*
X110359099Y-57911825D01*
X110621920Y-57786641D01*
X110855269Y-57612588D01*
X111050178Y-57396355D01*
X111119805Y-57279466D01*
X111241525Y-57461632D01*
X111448368Y-57668475D01*
X111691589Y-57830990D01*
X111961842Y-57942932D01*
X112248740Y-58000000D01*
X112541260Y-58000000D01*
X112828158Y-57942932D01*
X113000000Y-57871753D01*
X112999999Y-59915199D01*
X112761408Y-60153790D01*
X112541260Y-60110000D01*
X112248740Y-60110000D01*
X111961842Y-60167068D01*
X111691589Y-60279010D01*
X111448368Y-60441525D01*
X111241525Y-60648368D01*
X111119805Y-60830534D01*
X111050178Y-60713645D01*
X110855269Y-60497412D01*
X110621920Y-60323359D01*
X110359099Y-60198175D01*
X110211890Y-60153524D01*
X109982000Y-60274845D01*
X109982000Y-61468000D01*
X110002000Y-61468000D01*
X110002000Y-61722000D01*
X109982000Y-61722000D01*
X109982000Y-62915155D01*
X110211890Y-63036476D01*
X110359099Y-62991825D01*
X110621920Y-62866641D01*
X110855269Y-62692588D01*
X111050178Y-62476355D01*
X111119805Y-62359466D01*
X111241525Y-62541632D01*
X111448368Y-62748475D01*
X111691589Y-62910990D01*
X111961842Y-63022932D01*
X112248740Y-63080000D01*
X112541260Y-63080000D01*
X112828158Y-63022932D01*
X113098411Y-62910990D01*
X113341632Y-62748475D01*
X113548475Y-62541632D01*
X113665000Y-62367240D01*
X113781525Y-62541632D01*
X113988368Y-62748475D01*
X114231589Y-62910990D01*
X114501842Y-63022932D01*
X114788740Y-63080000D01*
X115081260Y-63080000D01*
X115368158Y-63022932D01*
X115638411Y-62910990D01*
X115881632Y-62748475D01*
X116013487Y-62616620D01*
X116035498Y-62689180D01*
X116094463Y-62799494D01*
X116173815Y-62896185D01*
X116270506Y-62975537D01*
X116380820Y-63034502D01*
X116500518Y-63070812D01*
X116625000Y-63083072D01*
X118325000Y-63083072D01*
X118449482Y-63070812D01*
X118569180Y-63034502D01*
X118679494Y-62975537D01*
X118776185Y-62896185D01*
X118855537Y-62799494D01*
X118914502Y-62689180D01*
X118950812Y-62569482D01*
X118963072Y-62445000D01*
X118963072Y-61181729D01*
X124001818Y-56142983D01*
X123972774Y-56213102D01*
X123933000Y-56413061D01*
X123933000Y-56616939D01*
X123966379Y-56784746D01*
X123941102Y-56789774D01*
X123752744Y-56867795D01*
X123583226Y-56981063D01*
X123439063Y-57125226D01*
X123325795Y-57294744D01*
X123247774Y-57483102D01*
X123233045Y-57557151D01*
X122424998Y-58365199D01*
X122396000Y-58388997D01*
X122372202Y-58417995D01*
X122372201Y-58417996D01*
X122301026Y-58504722D01*
X122230454Y-58636752D01*
X122218647Y-58675676D01*
X122186998Y-58780012D01*
X122181991Y-58830851D01*
X122172324Y-58928998D01*
X122176001Y-58966330D01*
X122176000Y-67249198D01*
X119795198Y-69630001D01*
X116337321Y-69630001D01*
X116299998Y-69626325D01*
X116262675Y-69630001D01*
X116262666Y-69630001D01*
X116151013Y-69640998D01*
X116007752Y-69684455D01*
X115875722Y-69755027D01*
X115792082Y-69823669D01*
X115759998Y-69850000D01*
X115736200Y-69878998D01*
X115301408Y-70313790D01*
X115081260Y-70270000D01*
X114788740Y-70270000D01*
X114501842Y-70327068D01*
X114231589Y-70439010D01*
X113988368Y-70601525D01*
X113781525Y-70808368D01*
X113665000Y-70982760D01*
X113548475Y-70808368D01*
X113341632Y-70601525D01*
X113098411Y-70439010D01*
X112828158Y-70327068D01*
X112541260Y-70270000D01*
X112248740Y-70270000D01*
X111961842Y-70327068D01*
X111691589Y-70439010D01*
X111448368Y-70601525D01*
X111241525Y-70808368D01*
X111119805Y-70990534D01*
X111050178Y-70873645D01*
X110855269Y-70657412D01*
X110621920Y-70483359D01*
X110359099Y-70358175D01*
X110211890Y-70313524D01*
X109982000Y-70434845D01*
X109982000Y-71628000D01*
X110002000Y-71628000D01*
X110002000Y-71882000D01*
X109982000Y-71882000D01*
X109982000Y-73075155D01*
X110211890Y-73196476D01*
X110359099Y-73151825D01*
X110621920Y-73026641D01*
X110855269Y-72852588D01*
X111050178Y-72636355D01*
X111119805Y-72519466D01*
X111241525Y-72701632D01*
X111448368Y-72908475D01*
X111691589Y-73070990D01*
X111961842Y-73182932D01*
X112248740Y-73240000D01*
X112541260Y-73240000D01*
X112828158Y-73182932D01*
X113098411Y-73070990D01*
X113341632Y-72908475D01*
X113548475Y-72701632D01*
X113665000Y-72527240D01*
X113781525Y-72701632D01*
X113988368Y-72908475D01*
X114231589Y-73070990D01*
X114501842Y-73182932D01*
X114788740Y-73240000D01*
X115081260Y-73240000D01*
X115368158Y-73182932D01*
X115638411Y-73070990D01*
X115881632Y-72908475D01*
X116013487Y-72776620D01*
X116035498Y-72849180D01*
X116094463Y-72959494D01*
X116173815Y-73056185D01*
X116270506Y-73135537D01*
X116380820Y-73194502D01*
X116500518Y-73230812D01*
X116625000Y-73243072D01*
X118325000Y-73243072D01*
X118449482Y-73230812D01*
X118569180Y-73194502D01*
X118679494Y-73135537D01*
X118776185Y-73056185D01*
X118855537Y-72959494D01*
X118914502Y-72849180D01*
X118950812Y-72729482D01*
X118963072Y-72605000D01*
X118963072Y-72515000D01*
X119344089Y-72515000D01*
X119381411Y-72518676D01*
X119418733Y-72515000D01*
X119418744Y-72515000D01*
X119530397Y-72504003D01*
X119673658Y-72460546D01*
X119805687Y-72389974D01*
X119921412Y-72295001D01*
X119945215Y-72265997D01*
X123897015Y-68314198D01*
X123926012Y-68290401D01*
X124020985Y-68174676D01*
X124081000Y-68062397D01*
X124081001Y-82893667D01*
X124077324Y-82931000D01*
X124081001Y-82968333D01*
X124091998Y-83079986D01*
X124100743Y-83108814D01*
X124135454Y-83223246D01*
X124206026Y-83355276D01*
X124277201Y-83442002D01*
X124301000Y-83471001D01*
X124329998Y-83494799D01*
X124749928Y-83914729D01*
X124749928Y-85178000D01*
X124762188Y-85302482D01*
X124798498Y-85422180D01*
X124857463Y-85532494D01*
X124936815Y-85629185D01*
X125033506Y-85708537D01*
X125143820Y-85767502D01*
X125263518Y-85803812D01*
X125388000Y-85816072D01*
X126651271Y-85816072D01*
X127715211Y-86880013D01*
X127739009Y-86909011D01*
X127768007Y-86932809D01*
X127854733Y-87003984D01*
X127947294Y-87053459D01*
X127986763Y-87074556D01*
X128130024Y-87118013D01*
X128241677Y-87129010D01*
X128241686Y-87129010D01*
X128279009Y-87132686D01*
X128316332Y-87129010D01*
X139653668Y-87129010D01*
X139690990Y-87132686D01*
X139728312Y-87129010D01*
X139728323Y-87129010D01*
X139839976Y-87118013D01*
X139983237Y-87074556D01*
X140115266Y-87003984D01*
X140230991Y-86909011D01*
X140254794Y-86880008D01*
X140452729Y-86682072D01*
X141041001Y-86682072D01*
X141214255Y-86665008D01*
X141380851Y-86614472D01*
X141534387Y-86532405D01*
X141668962Y-86421962D01*
X141779405Y-86287387D01*
X141861472Y-86133851D01*
X141912008Y-85967255D01*
X141929072Y-85794001D01*
X141929072Y-84893999D01*
X141912008Y-84720745D01*
X141861472Y-84554149D01*
X141779405Y-84400613D01*
X141668962Y-84266038D01*
X141534387Y-84155595D01*
X141476000Y-84124386D01*
X141476000Y-83525235D01*
X141552387Y-83484405D01*
X141686962Y-83373962D01*
X141797405Y-83239387D01*
X141879472Y-83085851D01*
X141930008Y-82919255D01*
X141947072Y-82746001D01*
X141947072Y-81845999D01*
X141930008Y-81672745D01*
X141879472Y-81506149D01*
X141797405Y-81352613D01*
X141686962Y-81218038D01*
X141552387Y-81107595D01*
X141494000Y-81076386D01*
X141494000Y-80208803D01*
X141543387Y-80182405D01*
X141677962Y-80071962D01*
X141788405Y-79937387D01*
X141870472Y-79783851D01*
X141921008Y-79617255D01*
X141938072Y-79444001D01*
X141938072Y-78543999D01*
X141921008Y-78370745D01*
X141870472Y-78204149D01*
X141788405Y-78050613D01*
X141677962Y-77916038D01*
X141543387Y-77805595D01*
X141389851Y-77723528D01*
X141223255Y-77672992D01*
X141050001Y-77655928D01*
X140399999Y-77655928D01*
X140226745Y-77672992D01*
X140060149Y-77723528D01*
X139906613Y-77805595D01*
X139772038Y-77916038D01*
X139700000Y-78003816D01*
X139627962Y-77916038D01*
X139493387Y-77805595D01*
X139339851Y-77723528D01*
X139173255Y-77672992D01*
X139000001Y-77655928D01*
X138349999Y-77655928D01*
X138176745Y-77672992D01*
X138010149Y-77723528D01*
X137856613Y-77805595D01*
X137795000Y-77856160D01*
X137733387Y-77805595D01*
X137666000Y-77769576D01*
X137666000Y-76110322D01*
X137669676Y-76072999D01*
X137666000Y-76035676D01*
X137666000Y-76035667D01*
X137655003Y-75924014D01*
X137611546Y-75780753D01*
X137540974Y-75648724D01*
X137527811Y-75632685D01*
X137469799Y-75561996D01*
X137469795Y-75561992D01*
X137446001Y-75532999D01*
X137417008Y-75509205D01*
X136547874Y-74640072D01*
X137629000Y-74640072D01*
X137753482Y-74627812D01*
X137873180Y-74591502D01*
X137983494Y-74532537D01*
X138080185Y-74453185D01*
X138159537Y-74356494D01*
X138218502Y-74246180D01*
X138254812Y-74126482D01*
X138267072Y-74002000D01*
X138267072Y-72302000D01*
X140243928Y-72302000D01*
X140243928Y-74002000D01*
X140256188Y-74126482D01*
X140292498Y-74246180D01*
X140351463Y-74356494D01*
X140430815Y-74453185D01*
X140527506Y-74532537D01*
X140637820Y-74591502D01*
X140757518Y-74627812D01*
X140882000Y-74640072D01*
X142582000Y-74640072D01*
X142706482Y-74627812D01*
X142826180Y-74591502D01*
X142936494Y-74532537D01*
X143033185Y-74453185D01*
X143112537Y-74356494D01*
X143171502Y-74246180D01*
X143207812Y-74126482D01*
X143220072Y-74002000D01*
X143220072Y-72302000D01*
X143207812Y-72177518D01*
X143171502Y-72057820D01*
X143112537Y-71947506D01*
X143033185Y-71850815D01*
X142936494Y-71771463D01*
X142826180Y-71712498D01*
X142753620Y-71690487D01*
X142885475Y-71558632D01*
X143047990Y-71315411D01*
X143159932Y-71045158D01*
X143217000Y-70758260D01*
X143217000Y-70465740D01*
X143159932Y-70178842D01*
X143047990Y-69908589D01*
X142885475Y-69665368D01*
X142678632Y-69458525D01*
X142435411Y-69296010D01*
X142165158Y-69184068D01*
X141878260Y-69127000D01*
X141585740Y-69127000D01*
X141298842Y-69184068D01*
X141028589Y-69296010D01*
X140785368Y-69458525D01*
X140578525Y-69665368D01*
X140416010Y-69908589D01*
X140304068Y-70178842D01*
X140247000Y-70465740D01*
X140247000Y-70758260D01*
X140304068Y-71045158D01*
X140416010Y-71315411D01*
X140578525Y-71558632D01*
X140710380Y-71690487D01*
X140637820Y-71712498D01*
X140527506Y-71771463D01*
X140430815Y-71850815D01*
X140351463Y-71947506D01*
X140292498Y-72057820D01*
X140256188Y-72177518D01*
X140243928Y-72302000D01*
X138267072Y-72302000D01*
X138254812Y-72177518D01*
X138218502Y-72057820D01*
X138159537Y-71947506D01*
X138080185Y-71850815D01*
X137983494Y-71771463D01*
X137873180Y-71712498D01*
X137792534Y-71688034D01*
X137876588Y-71612269D01*
X138050641Y-71378920D01*
X138175825Y-71116099D01*
X138220476Y-70968890D01*
X138099155Y-70739000D01*
X136906000Y-70739000D01*
X136906000Y-70759000D01*
X136652000Y-70759000D01*
X136652000Y-70739000D01*
X136632000Y-70739000D01*
X136632000Y-70485000D01*
X136652000Y-70485000D01*
X136652000Y-69291186D01*
X136906000Y-69291186D01*
X136906000Y-70485000D01*
X138099155Y-70485000D01*
X138220476Y-70255110D01*
X138175825Y-70107901D01*
X138050641Y-69845080D01*
X137876588Y-69611731D01*
X137660355Y-69416822D01*
X137410252Y-69267843D01*
X137135891Y-69170519D01*
X136906000Y-69291186D01*
X136652000Y-69291186D01*
X136422109Y-69170519D01*
X136147748Y-69267843D01*
X135897645Y-69416822D01*
X135681412Y-69611731D01*
X135633994Y-69675303D01*
X135633994Y-68902711D01*
X135677931Y-68858774D01*
X135791199Y-68689256D01*
X135869220Y-68500898D01*
X135908994Y-68300939D01*
X135908994Y-68097061D01*
X135869220Y-67897102D01*
X135791199Y-67708744D01*
X135677931Y-67539226D01*
X135533768Y-67395063D01*
X135364250Y-67281795D01*
X135175892Y-67203774D01*
X134975933Y-67164000D01*
X134772055Y-67164000D01*
X134572096Y-67203774D01*
X134383738Y-67281795D01*
X134214220Y-67395063D01*
X134070057Y-67539226D01*
X133956789Y-67708744D01*
X133878768Y-67897102D01*
X133838994Y-68097061D01*
X133838994Y-68300939D01*
X133878768Y-68500898D01*
X133956789Y-68689256D01*
X134070057Y-68858774D01*
X134113995Y-68902712D01*
X134113994Y-74003671D01*
X134110318Y-74040994D01*
X134113994Y-74078316D01*
X134113994Y-74078326D01*
X134124991Y-74189979D01*
X134168448Y-74333240D01*
X134239020Y-74465270D01*
X134278865Y-74513820D01*
X134333993Y-74580995D01*
X134362996Y-74604798D01*
X136146001Y-76387804D01*
X136146000Y-77779197D01*
X136096613Y-77805595D01*
X135962038Y-77916038D01*
X135956658Y-77922594D01*
X135891185Y-77842815D01*
X135794494Y-77763463D01*
X135684180Y-77704498D01*
X135564482Y-77668188D01*
X135440000Y-77655928D01*
X135150750Y-77659000D01*
X134992000Y-77817750D01*
X134992000Y-78867000D01*
X135012000Y-78867000D01*
X135012000Y-79121000D01*
X134992000Y-79121000D01*
X134992000Y-79141000D01*
X134738000Y-79141000D01*
X134738000Y-79121000D01*
X134718000Y-79121000D01*
X134718000Y-78867000D01*
X134738000Y-78867000D01*
X134738000Y-77817750D01*
X134579250Y-77659000D01*
X134290000Y-77655928D01*
X134165518Y-77668188D01*
X134045820Y-77704498D01*
X133935506Y-77763463D01*
X133838815Y-77842815D01*
X133759463Y-77939506D01*
X133700498Y-78049820D01*
X133664188Y-78169518D01*
X133651928Y-78294000D01*
X133652332Y-78348531D01*
X132840000Y-77536199D01*
X132840000Y-72331711D01*
X132883937Y-72287774D01*
X132997205Y-72118256D01*
X133075226Y-71929898D01*
X133115000Y-71729939D01*
X133115000Y-71526061D01*
X133075226Y-71326102D01*
X132997205Y-71137744D01*
X132883937Y-70968226D01*
X132739774Y-70824063D01*
X132570256Y-70710795D01*
X132381898Y-70632774D01*
X132181939Y-70593000D01*
X131978061Y-70593000D01*
X131778102Y-70632774D01*
X131589744Y-70710795D01*
X131420226Y-70824063D01*
X131276063Y-70968226D01*
X131162795Y-71137744D01*
X131084774Y-71326102D01*
X131045000Y-71526061D01*
X131045000Y-71729939D01*
X131084774Y-71929898D01*
X131162795Y-72118256D01*
X131276063Y-72287774D01*
X131320001Y-72331712D01*
X131320000Y-77813677D01*
X131316324Y-77851000D01*
X131320000Y-77888322D01*
X131320000Y-77888332D01*
X131330997Y-77999985D01*
X131346355Y-78050613D01*
X131374454Y-78143246D01*
X131445026Y-78275276D01*
X131467944Y-78303201D01*
X131539999Y-78391001D01*
X131569003Y-78414804D01*
X133802200Y-80648002D01*
X133825999Y-80677001D01*
X133941724Y-80771974D01*
X134073753Y-80842546D01*
X134217014Y-80886003D01*
X134328667Y-80897000D01*
X134328676Y-80897000D01*
X134365999Y-80900676D01*
X134403322Y-80897000D01*
X136083199Y-80897000D01*
X136146001Y-80959802D01*
X136146001Y-81076386D01*
X136087613Y-81107595D01*
X135953038Y-81218038D01*
X135947658Y-81224594D01*
X135882185Y-81144815D01*
X135785494Y-81065463D01*
X135675180Y-81006498D01*
X135555482Y-80970188D01*
X135431000Y-80957928D01*
X135141750Y-80961000D01*
X134983000Y-81119750D01*
X134983000Y-82169000D01*
X135003000Y-82169000D01*
X135003000Y-82423000D01*
X134983000Y-82423000D01*
X134983000Y-82443000D01*
X134729000Y-82443000D01*
X134729000Y-82423000D01*
X134709000Y-82423000D01*
X134709000Y-82169000D01*
X134729000Y-82169000D01*
X134729000Y-81119750D01*
X134570250Y-80961000D01*
X134281000Y-80957928D01*
X134156518Y-80970188D01*
X134036820Y-81006498D01*
X133926506Y-81065463D01*
X133829815Y-81144815D01*
X133750463Y-81241506D01*
X133691498Y-81351820D01*
X133655188Y-81471518D01*
X133642928Y-81596000D01*
X133645163Y-81897361D01*
X130300000Y-78552199D01*
X130300000Y-72712711D01*
X130343937Y-72668774D01*
X130457205Y-72499256D01*
X130535226Y-72310898D01*
X130575000Y-72110939D01*
X130575000Y-71907061D01*
X130535226Y-71707102D01*
X130457205Y-71518744D01*
X130343937Y-71349226D01*
X130199774Y-71205063D01*
X130030256Y-71091795D01*
X129841898Y-71013774D01*
X129641939Y-70974000D01*
X129438061Y-70974000D01*
X129238102Y-71013774D01*
X129049744Y-71091795D01*
X128880226Y-71205063D01*
X128736063Y-71349226D01*
X128622795Y-71518744D01*
X128544774Y-71707102D01*
X128505000Y-71907061D01*
X128505000Y-72110939D01*
X128544774Y-72310898D01*
X128622795Y-72499256D01*
X128736063Y-72668774D01*
X128780001Y-72712712D01*
X128780000Y-78829677D01*
X128776324Y-78867000D01*
X128780000Y-78904322D01*
X128780000Y-78904332D01*
X128790997Y-79015985D01*
X128826791Y-79133985D01*
X128834454Y-79159246D01*
X128905026Y-79291276D01*
X128944871Y-79339826D01*
X128999999Y-79407001D01*
X129029003Y-79430804D01*
X133812325Y-84214127D01*
X133750463Y-84289506D01*
X133691498Y-84399820D01*
X133655188Y-84519518D01*
X133642928Y-84644000D01*
X133646000Y-85058250D01*
X133804750Y-85217000D01*
X134729000Y-85217000D01*
X134729000Y-85197000D01*
X134983000Y-85197000D01*
X134983000Y-85217000D01*
X135003000Y-85217000D01*
X135003000Y-85471000D01*
X134983000Y-85471000D01*
X134983000Y-85491000D01*
X134729000Y-85491000D01*
X134729000Y-85471000D01*
X133804750Y-85471000D01*
X133666740Y-85609010D01*
X128593812Y-85609010D01*
X127726072Y-84741271D01*
X127726072Y-83478000D01*
X127713812Y-83353518D01*
X127677502Y-83233820D01*
X127618537Y-83123506D01*
X127539185Y-83026815D01*
X127442494Y-82947463D01*
X127332180Y-82888498D01*
X127251534Y-82864034D01*
X127335588Y-82788269D01*
X127509641Y-82554920D01*
X127634825Y-82292099D01*
X127679476Y-82144890D01*
X127558155Y-81915000D01*
X126365000Y-81915000D01*
X126365000Y-81935000D01*
X126111000Y-81935000D01*
X126111000Y-81915000D01*
X126091000Y-81915000D01*
X126091000Y-81661000D01*
X126111000Y-81661000D01*
X126111000Y-80467186D01*
X126365000Y-80467186D01*
X126365000Y-81661000D01*
X127558155Y-81661000D01*
X127679476Y-81431110D01*
X127634825Y-81283901D01*
X127509641Y-81021080D01*
X127335588Y-80787731D01*
X127119355Y-80592822D01*
X126869252Y-80443843D01*
X126594891Y-80346519D01*
X126365000Y-80467186D01*
X126111000Y-80467186D01*
X125881109Y-80346519D01*
X125606748Y-80443843D01*
X125601000Y-80447267D01*
X125601000Y-65227614D01*
X125659387Y-65196405D01*
X125793962Y-65085962D01*
X125866000Y-64998184D01*
X125938038Y-65085962D01*
X126072613Y-65196405D01*
X126226149Y-65278472D01*
X126392745Y-65329008D01*
X126565999Y-65346072D01*
X127216001Y-65346072D01*
X127389255Y-65329008D01*
X127555851Y-65278472D01*
X127709387Y-65196405D01*
X127843962Y-65085962D01*
X127954405Y-64951387D01*
X128036472Y-64797851D01*
X128049965Y-64753369D01*
X128181247Y-64713546D01*
X128313276Y-64642974D01*
X128429001Y-64548001D01*
X128452804Y-64518998D01*
X129071802Y-63900000D01*
X129133939Y-63900000D01*
X129333898Y-63860226D01*
X129522256Y-63782205D01*
X129691774Y-63668937D01*
X129835937Y-63524774D01*
X129949205Y-63355256D01*
X130027226Y-63166898D01*
X130067000Y-62966939D01*
X130067000Y-62763061D01*
X130027226Y-62563102D01*
X129949205Y-62374744D01*
X129835937Y-62205226D01*
X129691774Y-62061063D01*
X129564468Y-61976000D01*
X129691774Y-61890937D01*
X129835937Y-61746774D01*
X129949205Y-61577256D01*
X130027226Y-61388898D01*
X130067000Y-61188939D01*
X130067000Y-60985061D01*
X130027226Y-60785102D01*
X129949205Y-60596744D01*
X129835937Y-60427226D01*
X129691774Y-60283063D01*
X129522256Y-60169795D01*
X129333898Y-60091774D01*
X129133939Y-60052000D01*
X128930061Y-60052000D01*
X128730102Y-60091774D01*
X128541744Y-60169795D01*
X128372226Y-60283063D01*
X128328289Y-60327000D01*
X127690325Y-60327000D01*
X127653000Y-60323324D01*
X127615675Y-60327000D01*
X127615667Y-60327000D01*
X127504014Y-60337997D01*
X127360753Y-60381454D01*
X127228724Y-60452026D01*
X127156952Y-60510928D01*
X126565999Y-60510928D01*
X126392745Y-60527992D01*
X126226149Y-60578528D01*
X126072613Y-60660595D01*
X125938038Y-60771038D01*
X125866000Y-60858816D01*
X125793962Y-60771038D01*
X125659387Y-60660595D01*
X125601000Y-60629386D01*
X125601000Y-60494801D01*
X127570324Y-58525478D01*
X127583992Y-58664255D01*
X127634528Y-58830851D01*
X127716595Y-58984387D01*
X127827038Y-59118962D01*
X127961613Y-59229405D01*
X128115149Y-59311472D01*
X128281745Y-59362008D01*
X128454999Y-59379072D01*
X129043271Y-59379072D01*
X133802201Y-64138003D01*
X133825999Y-64167001D01*
X133941724Y-64261974D01*
X134073753Y-64332546D01*
X134217014Y-64376003D01*
X134328667Y-64387000D01*
X134328676Y-64387000D01*
X134365999Y-64390676D01*
X134403322Y-64387000D01*
X134920091Y-64387000D01*
X134926082Y-64401463D01*
X135105013Y-64669252D01*
X135332748Y-64896987D01*
X135600537Y-65075918D01*
X135898088Y-65199168D01*
X136213967Y-65262000D01*
X136536033Y-65262000D01*
X136851912Y-65199168D01*
X137149463Y-65075918D01*
X137417252Y-64896987D01*
X137644987Y-64669252D01*
X137823918Y-64401463D01*
X137947168Y-64103912D01*
X138010000Y-63788033D01*
X138010000Y-63465967D01*
X141240000Y-63465967D01*
X141240000Y-63788033D01*
X141302832Y-64103912D01*
X141426082Y-64401463D01*
X141605013Y-64669252D01*
X141832748Y-64896987D01*
X142100537Y-65075918D01*
X142398088Y-65199168D01*
X142713967Y-65262000D01*
X143036033Y-65262000D01*
X143351912Y-65199168D01*
X143649463Y-65075918D01*
X143917252Y-64896987D01*
X144144987Y-64669252D01*
X144323918Y-64401463D01*
X144447168Y-64103912D01*
X144510000Y-63788033D01*
X144510000Y-63465967D01*
X144447168Y-63150088D01*
X144323918Y-62852537D01*
X144144987Y-62584748D01*
X143917252Y-62357013D01*
X143649463Y-62178082D01*
X143351912Y-62054832D01*
X143036033Y-61992000D01*
X142713967Y-61992000D01*
X142398088Y-62054832D01*
X142100537Y-62178082D01*
X141832748Y-62357013D01*
X141605013Y-62584748D01*
X141426082Y-62852537D01*
X141302832Y-63150088D01*
X141240000Y-63465967D01*
X138010000Y-63465967D01*
X137947168Y-63150088D01*
X137823918Y-62852537D01*
X137644987Y-62584748D01*
X137417252Y-62357013D01*
X137149463Y-62178082D01*
X136851912Y-62054832D01*
X136536033Y-61992000D01*
X136213967Y-61992000D01*
X135898088Y-62054832D01*
X135600537Y-62178082D01*
X135332748Y-62357013D01*
X135105013Y-62584748D01*
X134926082Y-62852537D01*
X134920091Y-62867000D01*
X134680802Y-62867000D01*
X132076215Y-60262413D01*
X135419192Y-60262413D01*
X135514956Y-60526814D01*
X135804571Y-60667704D01*
X136116108Y-60749384D01*
X136437595Y-60768718D01*
X136756675Y-60724961D01*
X137061088Y-60619795D01*
X137235044Y-60526814D01*
X137330808Y-60262413D01*
X141919192Y-60262413D01*
X142014956Y-60526814D01*
X142304571Y-60667704D01*
X142616108Y-60749384D01*
X142937595Y-60768718D01*
X143256675Y-60724961D01*
X143561088Y-60619795D01*
X143735044Y-60526814D01*
X143830808Y-60262413D01*
X142875000Y-59306605D01*
X141919192Y-60262413D01*
X137330808Y-60262413D01*
X136375000Y-59306605D01*
X135419192Y-60262413D01*
X132076215Y-60262413D01*
X131003397Y-59189595D01*
X134733282Y-59189595D01*
X134777039Y-59508675D01*
X134882205Y-59813088D01*
X134975186Y-59987044D01*
X135239587Y-60082808D01*
X136195395Y-59127000D01*
X136554605Y-59127000D01*
X137510413Y-60082808D01*
X137774814Y-59987044D01*
X137915704Y-59697429D01*
X137997384Y-59385892D01*
X138009189Y-59189595D01*
X141233282Y-59189595D01*
X141277039Y-59508675D01*
X141382205Y-59813088D01*
X141475186Y-59987044D01*
X141739587Y-60082808D01*
X142695395Y-59127000D01*
X143054605Y-59127000D01*
X144010413Y-60082808D01*
X144274814Y-59987044D01*
X144415704Y-59697429D01*
X144497384Y-59385892D01*
X144516718Y-59064405D01*
X144472961Y-58745325D01*
X144367795Y-58440912D01*
X144274814Y-58266956D01*
X144010413Y-58171192D01*
X143054605Y-59127000D01*
X142695395Y-59127000D01*
X141739587Y-58171192D01*
X141475186Y-58266956D01*
X141334296Y-58556571D01*
X141252616Y-58868108D01*
X141233282Y-59189595D01*
X138009189Y-59189595D01*
X138016718Y-59064405D01*
X137972961Y-58745325D01*
X137867795Y-58440912D01*
X137774814Y-58266956D01*
X137510413Y-58171192D01*
X136554605Y-59127000D01*
X136195395Y-59127000D01*
X135239587Y-58171192D01*
X134975186Y-58266956D01*
X134834296Y-58556571D01*
X134752616Y-58868108D01*
X134733282Y-59189595D01*
X131003397Y-59189595D01*
X130243072Y-58429271D01*
X130243072Y-57991587D01*
X135419192Y-57991587D01*
X136375000Y-58947395D01*
X137330808Y-57991587D01*
X141919192Y-57991587D01*
X142875000Y-58947395D01*
X143830808Y-57991587D01*
X143735044Y-57727186D01*
X143445429Y-57586296D01*
X143133892Y-57504616D01*
X142812405Y-57485282D01*
X142493325Y-57529039D01*
X142188912Y-57634205D01*
X142014956Y-57727186D01*
X141919192Y-57991587D01*
X137330808Y-57991587D01*
X137235044Y-57727186D01*
X136945429Y-57586296D01*
X136633892Y-57504616D01*
X136312405Y-57485282D01*
X135993325Y-57529039D01*
X135688912Y-57634205D01*
X135514956Y-57727186D01*
X135419192Y-57991587D01*
X130243072Y-57991587D01*
X130243072Y-57840999D01*
X130226008Y-57667745D01*
X130175472Y-57501149D01*
X130093405Y-57347613D01*
X129982962Y-57213038D01*
X129895184Y-57141000D01*
X129982962Y-57068962D01*
X130093405Y-56934387D01*
X130175472Y-56780851D01*
X130226008Y-56614255D01*
X130243072Y-56441001D01*
X130243072Y-55913881D01*
X137178724Y-55913881D01*
X137538912Y-56403548D01*
X138202882Y-56763849D01*
X138924385Y-56987694D01*
X139675695Y-57066480D01*
X140427938Y-56997178D01*
X141152208Y-56782452D01*
X141820670Y-56430555D01*
X141861088Y-56403548D01*
X142221276Y-55913881D01*
X139700000Y-53392605D01*
X137178724Y-55913881D01*
X130243072Y-55913881D01*
X130243072Y-55790999D01*
X130226008Y-55617745D01*
X130175472Y-55451149D01*
X130093405Y-55297613D01*
X129982962Y-55163038D01*
X129848387Y-55052595D01*
X129694851Y-54970528D01*
X129528255Y-54919992D01*
X129355001Y-54902928D01*
X128454999Y-54902928D01*
X128281745Y-54919992D01*
X128115149Y-54970528D01*
X127961613Y-55052595D01*
X127827038Y-55163038D01*
X127716595Y-55297613D01*
X127634528Y-55451149D01*
X127583992Y-55617745D01*
X127566928Y-55790999D01*
X127566928Y-56379270D01*
X125728000Y-58218199D01*
X125728000Y-57218711D01*
X125771937Y-57174774D01*
X125885205Y-57005256D01*
X125963226Y-56816898D01*
X126003000Y-56616939D01*
X126003000Y-56413061D01*
X125963226Y-56213102D01*
X125885205Y-56024744D01*
X125771937Y-55855226D01*
X125627774Y-55711063D01*
X125458256Y-55597795D01*
X125269898Y-55519774D01*
X125069939Y-55480000D01*
X124866061Y-55480000D01*
X124666102Y-55519774D01*
X124595983Y-55548818D01*
X126679802Y-53465000D01*
X128836289Y-53465000D01*
X128880226Y-53508937D01*
X129049744Y-53622205D01*
X129238102Y-53700226D01*
X129438061Y-53740000D01*
X129641939Y-53740000D01*
X129841898Y-53700226D01*
X130030256Y-53622205D01*
X130199774Y-53508937D01*
X130343937Y-53364774D01*
X130457205Y-53195256D01*
X130459922Y-53188695D01*
X135846520Y-53188695D01*
X135915822Y-53940938D01*
X136130548Y-54665208D01*
X136482445Y-55333670D01*
X136509452Y-55374088D01*
X136999119Y-55734276D01*
X139520395Y-53213000D01*
X139879605Y-53213000D01*
X142400881Y-55734276D01*
X142890548Y-55374088D01*
X143250849Y-54710118D01*
X143474694Y-53988615D01*
X143553480Y-53237305D01*
X143484178Y-52485062D01*
X143269452Y-51760792D01*
X142917555Y-51092330D01*
X142890548Y-51051912D01*
X142400881Y-50691724D01*
X139879605Y-53213000D01*
X139520395Y-53213000D01*
X136999119Y-50691724D01*
X136509452Y-51051912D01*
X136149151Y-51715882D01*
X135925306Y-52437385D01*
X135846520Y-53188695D01*
X130459922Y-53188695D01*
X130535226Y-53006898D01*
X130575000Y-52806939D01*
X130575000Y-52603061D01*
X130535226Y-52403102D01*
X130457205Y-52214744D01*
X130343937Y-52045226D01*
X130336286Y-52037575D01*
X130408226Y-51863898D01*
X130448000Y-51663939D01*
X130448000Y-51460061D01*
X130408226Y-51260102D01*
X130330205Y-51071744D01*
X130216937Y-50902226D01*
X130072774Y-50758063D01*
X129903256Y-50644795D01*
X129714898Y-50566774D01*
X129514939Y-50527000D01*
X129311061Y-50527000D01*
X129111102Y-50566774D01*
X128922744Y-50644795D01*
X128753226Y-50758063D01*
X128709289Y-50802000D01*
X125386322Y-50802000D01*
X125348999Y-50798324D01*
X125311676Y-50802000D01*
X125311667Y-50802000D01*
X125200014Y-50812997D01*
X125056753Y-50856454D01*
X124924723Y-50927026D01*
X124841083Y-50995668D01*
X124808999Y-51021999D01*
X124785201Y-51050997D01*
X118963072Y-56873127D01*
X118963072Y-55665000D01*
X118950812Y-55540518D01*
X118914502Y-55420820D01*
X118855537Y-55310506D01*
X118776185Y-55213815D01*
X118679494Y-55134463D01*
X118569180Y-55075498D01*
X118449482Y-55039188D01*
X118325000Y-55026928D01*
X117370873Y-55026928D01*
X119800803Y-52597000D01*
X119862939Y-52597000D01*
X120062898Y-52557226D01*
X120251256Y-52479205D01*
X120420774Y-52365937D01*
X120564937Y-52221774D01*
X120678205Y-52052256D01*
X120756226Y-51863898D01*
X120796000Y-51663939D01*
X120796000Y-51460061D01*
X120756226Y-51260102D01*
X120678205Y-51071744D01*
X120564937Y-50902226D01*
X120420774Y-50758063D01*
X120251256Y-50644795D01*
X120062898Y-50566774D01*
X119862939Y-50527000D01*
X119659061Y-50527000D01*
X119459102Y-50566774D01*
X119270744Y-50644795D01*
X119101226Y-50758063D01*
X118957063Y-50902226D01*
X118843795Y-51071744D01*
X118836072Y-51090389D01*
X118836072Y-50585000D01*
X118828895Y-50512119D01*
X137178724Y-50512119D01*
X139700000Y-53033395D01*
X142221276Y-50512119D01*
X141861088Y-50022452D01*
X141197118Y-49662151D01*
X140475615Y-49438306D01*
X139724305Y-49359520D01*
X138972062Y-49428822D01*
X138247792Y-49643548D01*
X137579330Y-49995445D01*
X137538912Y-50022452D01*
X137178724Y-50512119D01*
X118828895Y-50512119D01*
X118823812Y-50460518D01*
X118787502Y-50340820D01*
X118728537Y-50230506D01*
X118649185Y-50133815D01*
X118552494Y-50054463D01*
X118442180Y-49995498D01*
X118322482Y-49959188D01*
X118198000Y-49946928D01*
X116498000Y-49946928D01*
X116373518Y-49959188D01*
X116253820Y-49995498D01*
X116143506Y-50054463D01*
X116046815Y-50133815D01*
X115967463Y-50230506D01*
X115908498Y-50340820D01*
X115886487Y-50413380D01*
X115754632Y-50281525D01*
X115511411Y-50119010D01*
X115241158Y-50007068D01*
X114954260Y-49950000D01*
X114661740Y-49950000D01*
X114374842Y-50007068D01*
X114104589Y-50119010D01*
X113861368Y-50281525D01*
X113654525Y-50488368D01*
X113538000Y-50662760D01*
X113421475Y-50488368D01*
X113214632Y-50281525D01*
X112971411Y-50119010D01*
X112701158Y-50007068D01*
X112414260Y-49950000D01*
X112121740Y-49950000D01*
X111834842Y-50007068D01*
X111564589Y-50119010D01*
X111321368Y-50281525D01*
X111114525Y-50488368D01*
X110992805Y-50670534D01*
X110923178Y-50553645D01*
X110728269Y-50337412D01*
X110494920Y-50163359D01*
X110232099Y-50038175D01*
X110084890Y-49993524D01*
X109855000Y-50114845D01*
X109601000Y-50114845D01*
X109371110Y-49993524D01*
X109223901Y-50038175D01*
X108961080Y-50163359D01*
X108727731Y-50337412D01*
X108532822Y-50553645D01*
X108383843Y-50803748D01*
X108286519Y-51078109D01*
X106349705Y-51078109D01*
X106382258Y-50746114D01*
X106545442Y-50205624D01*
X106810494Y-49707133D01*
X107167326Y-49269612D01*
X107602350Y-48909729D01*
X108098983Y-48641201D01*
X108638315Y-48474251D01*
X109230596Y-48412000D01*
X141699722Y-48412000D01*
X142293886Y-48470258D01*
G37*
X142293886Y-48470258D02*
X142834376Y-48633442D01*
X143332867Y-48898494D01*
X143770388Y-49255326D01*
X144130271Y-49690350D01*
X144398799Y-50186983D01*
X144565749Y-50726315D01*
X144628000Y-51318596D01*
X144628001Y-84803712D01*
X144569742Y-85397886D01*
X144406559Y-85938374D01*
X144141506Y-86436867D01*
X143784669Y-86874393D01*
X143349653Y-87234269D01*
X142853019Y-87502798D01*
X142313690Y-87669749D01*
X141721404Y-87732000D01*
X109252278Y-87732000D01*
X108658114Y-87673742D01*
X108117626Y-87510559D01*
X107619133Y-87245506D01*
X107181607Y-86888669D01*
X106821731Y-86453653D01*
X106553202Y-85957019D01*
X106413242Y-85504881D01*
X108857724Y-85504881D01*
X109217912Y-85994548D01*
X109881882Y-86354849D01*
X110603385Y-86578694D01*
X111354695Y-86657480D01*
X112106938Y-86588178D01*
X112831208Y-86373452D01*
X113499670Y-86021555D01*
X113540088Y-85994548D01*
X113900276Y-85504881D01*
X111379000Y-82983605D01*
X108857724Y-85504881D01*
X106413242Y-85504881D01*
X106386251Y-85417690D01*
X106324000Y-84825404D01*
X106324000Y-82779695D01*
X107525520Y-82779695D01*
X107594822Y-83531938D01*
X107809548Y-84256208D01*
X108161445Y-84924670D01*
X108188452Y-84965088D01*
X108678119Y-85325276D01*
X111199395Y-82804000D01*
X111558605Y-82804000D01*
X114079881Y-85325276D01*
X114569548Y-84965088D01*
X114929849Y-84301118D01*
X115153694Y-83579615D01*
X115232480Y-82828305D01*
X115163178Y-82076062D01*
X114948452Y-81351792D01*
X114730621Y-80938000D01*
X117129928Y-80938000D01*
X117129928Y-82638000D01*
X117142188Y-82762482D01*
X117178498Y-82882180D01*
X117237463Y-82992494D01*
X117316815Y-83089185D01*
X117413506Y-83168537D01*
X117523820Y-83227502D01*
X117596380Y-83249513D01*
X117464525Y-83381368D01*
X117302010Y-83624589D01*
X117190068Y-83894842D01*
X117133000Y-84181740D01*
X117133000Y-84474260D01*
X117190068Y-84761158D01*
X117302010Y-85031411D01*
X117464525Y-85274632D01*
X117671368Y-85481475D01*
X117914589Y-85643990D01*
X118184842Y-85755932D01*
X118471740Y-85813000D01*
X118764260Y-85813000D01*
X119051158Y-85755932D01*
X119321411Y-85643990D01*
X119564632Y-85481475D01*
X119771475Y-85274632D01*
X119933990Y-85031411D01*
X120045932Y-84761158D01*
X120103000Y-84474260D01*
X120103000Y-84181740D01*
X120045932Y-83894842D01*
X119933990Y-83624589D01*
X119771475Y-83381368D01*
X119639620Y-83249513D01*
X119712180Y-83227502D01*
X119822494Y-83168537D01*
X119919185Y-83089185D01*
X119998537Y-82992494D01*
X120057502Y-82882180D01*
X120093812Y-82762482D01*
X120106072Y-82638000D01*
X120106072Y-80938000D01*
X120093812Y-80813518D01*
X120057502Y-80693820D01*
X119998537Y-80583506D01*
X119919185Y-80486815D01*
X119822494Y-80407463D01*
X119712180Y-80348498D01*
X119592482Y-80312188D01*
X119468000Y-80299928D01*
X117768000Y-80299928D01*
X117643518Y-80312188D01*
X117523820Y-80348498D01*
X117413506Y-80407463D01*
X117316815Y-80486815D01*
X117237463Y-80583506D01*
X117178498Y-80693820D01*
X117142188Y-80813518D01*
X117129928Y-80938000D01*
X114730621Y-80938000D01*
X114596555Y-80683330D01*
X114569548Y-80642912D01*
X114079881Y-80282724D01*
X111558605Y-82804000D01*
X111199395Y-82804000D01*
X108678119Y-80282724D01*
X108188452Y-80642912D01*
X107828151Y-81306882D01*
X107604306Y-82028385D01*
X107525520Y-82779695D01*
X106324000Y-82779695D01*
X106324000Y-80103119D01*
X108857724Y-80103119D01*
X111379000Y-82624395D01*
X113900276Y-80103119D01*
X113540088Y-79613452D01*
X112876118Y-79253151D01*
X112154615Y-79029306D01*
X111403305Y-78950520D01*
X110651062Y-79019822D01*
X109926792Y-79234548D01*
X109258330Y-79586445D01*
X109217912Y-79613452D01*
X108857724Y-80103119D01*
X106324000Y-80103119D01*
X106324000Y-72111891D01*
X108413519Y-72111891D01*
X108510843Y-72386252D01*
X108659822Y-72636355D01*
X108854731Y-72852588D01*
X109088080Y-73026641D01*
X109350901Y-73151825D01*
X109498110Y-73196476D01*
X109728000Y-73075155D01*
X109728000Y-71882000D01*
X108534186Y-71882000D01*
X108413519Y-72111891D01*
X106324000Y-72111891D01*
X106324000Y-71398109D01*
X108413519Y-71398109D01*
X108534186Y-71628000D01*
X109728000Y-71628000D01*
X109728000Y-70434845D01*
X109498110Y-70313524D01*
X109350901Y-70358175D01*
X109088080Y-70483359D01*
X108854731Y-70657412D01*
X108659822Y-70873645D01*
X108510843Y-71123748D01*
X108413519Y-71398109D01*
X106324000Y-71398109D01*
X106324000Y-67031891D01*
X108413519Y-67031891D01*
X108510843Y-67306252D01*
X108659822Y-67556355D01*
X108854731Y-67772588D01*
X109088080Y-67946641D01*
X109350901Y-68071825D01*
X109498110Y-68116476D01*
X109728000Y-67995155D01*
X109728000Y-66802000D01*
X108534186Y-66802000D01*
X108413519Y-67031891D01*
X106324000Y-67031891D01*
X106324000Y-66318109D01*
X108413519Y-66318109D01*
X108534186Y-66548000D01*
X109728000Y-66548000D01*
X109728000Y-65354845D01*
X109982000Y-65354845D01*
X109982000Y-66548000D01*
X110002000Y-66548000D01*
X110002000Y-66802000D01*
X109982000Y-66802000D01*
X109982000Y-67995155D01*
X110211890Y-68116476D01*
X110359099Y-68071825D01*
X110621920Y-67946641D01*
X110855269Y-67772588D01*
X111050178Y-67556355D01*
X111119805Y-67439466D01*
X111241525Y-67621632D01*
X111448368Y-67828475D01*
X111691589Y-67990990D01*
X111961842Y-68102932D01*
X112248740Y-68160000D01*
X112541260Y-68160000D01*
X112828158Y-68102932D01*
X113098411Y-67990990D01*
X113341632Y-67828475D01*
X113548475Y-67621632D01*
X113665000Y-67447240D01*
X113781525Y-67621632D01*
X113988368Y-67828475D01*
X114231589Y-67990990D01*
X114501842Y-68102932D01*
X114788740Y-68160000D01*
X115081260Y-68160000D01*
X115368158Y-68102932D01*
X115638411Y-67990990D01*
X115881632Y-67828475D01*
X116013487Y-67696620D01*
X116035498Y-67769180D01*
X116094463Y-67879494D01*
X116173815Y-67976185D01*
X116270506Y-68055537D01*
X116380820Y-68114502D01*
X116500518Y-68150812D01*
X116625000Y-68163072D01*
X118325000Y-68163072D01*
X118449482Y-68150812D01*
X118569180Y-68114502D01*
X118679494Y-68055537D01*
X118776185Y-67976185D01*
X118855537Y-67879494D01*
X118914502Y-67769180D01*
X118950812Y-67649482D01*
X118963072Y-67525000D01*
X118963072Y-65825000D01*
X118950812Y-65700518D01*
X118914502Y-65580820D01*
X118855537Y-65470506D01*
X118776185Y-65373815D01*
X118679494Y-65294463D01*
X118569180Y-65235498D01*
X118449482Y-65199188D01*
X118325000Y-65186928D01*
X116625000Y-65186928D01*
X116500518Y-65199188D01*
X116380820Y-65235498D01*
X116270506Y-65294463D01*
X116173815Y-65373815D01*
X116094463Y-65470506D01*
X116035498Y-65580820D01*
X116013487Y-65653380D01*
X115881632Y-65521525D01*
X115638411Y-65359010D01*
X115368158Y-65247068D01*
X115081260Y-65190000D01*
X114788740Y-65190000D01*
X114501842Y-65247068D01*
X114231589Y-65359010D01*
X113988368Y-65521525D01*
X113781525Y-65728368D01*
X113665000Y-65902760D01*
X113548475Y-65728368D01*
X113341632Y-65521525D01*
X113098411Y-65359010D01*
X112828158Y-65247068D01*
X112541260Y-65190000D01*
X112248740Y-65190000D01*
X111961842Y-65247068D01*
X111691589Y-65359010D01*
X111448368Y-65521525D01*
X111241525Y-65728368D01*
X111119805Y-65910534D01*
X111050178Y-65793645D01*
X110855269Y-65577412D01*
X110621920Y-65403359D01*
X110359099Y-65278175D01*
X110211890Y-65233524D01*
X109982000Y-65354845D01*
X109728000Y-65354845D01*
X109498110Y-65233524D01*
X109350901Y-65278175D01*
X109088080Y-65403359D01*
X108854731Y-65577412D01*
X108659822Y-65793645D01*
X108510843Y-66043748D01*
X108413519Y-66318109D01*
X106324000Y-66318109D01*
X106324000Y-61951891D01*
X108413519Y-61951891D01*
X108510843Y-62226252D01*
X108659822Y-62476355D01*
X108854731Y-62692588D01*
X109088080Y-62866641D01*
X109350901Y-62991825D01*
X109498110Y-63036476D01*
X109728000Y-62915155D01*
X109728000Y-61722000D01*
X108534186Y-61722000D01*
X108413519Y-61951891D01*
X106324000Y-61951891D01*
X106324000Y-61238109D01*
X108413519Y-61238109D01*
X108534186Y-61468000D01*
X109728000Y-61468000D01*
X109728000Y-60274845D01*
X109498110Y-60153524D01*
X109350901Y-60198175D01*
X109088080Y-60323359D01*
X108854731Y-60497412D01*
X108659822Y-60713645D01*
X108510843Y-60963748D01*
X108413519Y-61238109D01*
X106324000Y-61238109D01*
X106324000Y-56871891D01*
X108413519Y-56871891D01*
X108510843Y-57146252D01*
X108659822Y-57396355D01*
X108854731Y-57612588D01*
X109088080Y-57786641D01*
X109350901Y-57911825D01*
X109498110Y-57956476D01*
X109728000Y-57835155D01*
X109728000Y-56642000D01*
X108534186Y-56642000D01*
X108413519Y-56871891D01*
X106324000Y-56871891D01*
X106324000Y-56158109D01*
X108413519Y-56158109D01*
X108534186Y-56388000D01*
X109728000Y-56388000D01*
X109728000Y-55194845D01*
X109498110Y-55073524D01*
X109350901Y-55118175D01*
X109088080Y-55243359D01*
X108854731Y-55417412D01*
X108659822Y-55633645D01*
X108510843Y-55883748D01*
X108413519Y-56158109D01*
X106324000Y-56158109D01*
X106324000Y-51791891D01*
X108286519Y-51791891D01*
X108383843Y-52066252D01*
X108532822Y-52316355D01*
X108727731Y-52532588D01*
X108961080Y-52706641D01*
X109223901Y-52831825D01*
X109371110Y-52876476D01*
X109601000Y-52755155D01*
X109601000Y-51562000D01*
X108407186Y-51562000D01*
X108286519Y-51791891D01*
X106324000Y-51791891D01*
X106324000Y-51340278D01*
X106349705Y-51078109D01*
X108286519Y-51078109D01*
X108407186Y-51308000D01*
X109601000Y-51308000D01*
X109601000Y-50114845D01*
X109855000Y-50114845D01*
X109855000Y-51308000D01*
X109875000Y-51308000D01*
X109875000Y-51562000D01*
X109855000Y-51562000D01*
X109855000Y-52755155D01*
X110084890Y-52876476D01*
X110232099Y-52831825D01*
X110494920Y-52706641D01*
X110728269Y-52532588D01*
X110923178Y-52316355D01*
X110992805Y-52199466D01*
X111114525Y-52381632D01*
X111321368Y-52588475D01*
X111564589Y-52750990D01*
X111834842Y-52862932D01*
X112121740Y-52920000D01*
X112414260Y-52920000D01*
X112701158Y-52862932D01*
X112971411Y-52750990D01*
X113214632Y-52588475D01*
X113421475Y-52381632D01*
X113538000Y-52207240D01*
X113654525Y-52381632D01*
X113861368Y-52588475D01*
X114104589Y-52750990D01*
X114374842Y-52862932D01*
X114661740Y-52920000D01*
X114954260Y-52920000D01*
X115241158Y-52862932D01*
X115511411Y-52750990D01*
X115754632Y-52588475D01*
X115886487Y-52456620D01*
X115908498Y-52529180D01*
X115967463Y-52639494D01*
X116046815Y-52736185D01*
X116143506Y-52815537D01*
X116253820Y-52874502D01*
X116373518Y-52910812D01*
X116498000Y-52923072D01*
X117325126Y-52923072D01*
X115668200Y-54579999D01*
X114408321Y-54579999D01*
X114370998Y-54576323D01*
X114333675Y-54579999D01*
X114333666Y-54579999D01*
X114222013Y-54590996D01*
X114078752Y-54634453D01*
X113946723Y-54705025D01*
X113946721Y-54705026D01*
X113946722Y-54705026D01*
X113859995Y-54776200D01*
X113859991Y-54776204D01*
X113830998Y-54799998D01*
X113807204Y-54828991D01*
X113301492Y-55334704D01*
X113098411Y-55199010D01*
X112828158Y-55087068D01*
X112541260Y-55030000D01*
X112248740Y-55030000D01*
X111961842Y-55087068D01*
X111691589Y-55199010D01*
X111448368Y-55361525D01*
X111241525Y-55568368D01*
X111119805Y-55750534D01*
X111050178Y-55633645D01*
X110855269Y-55417412D01*
X110621920Y-55243359D01*
X110359099Y-55118175D01*
X110211890Y-55073524D01*
X109982000Y-55194845D01*
X109982000Y-56388000D01*
X110002000Y-56388000D01*
X110002000Y-56642000D01*
X109982000Y-56642000D01*
X109982000Y-57835155D01*
X110211890Y-57956476D01*
X110359099Y-57911825D01*
X110621920Y-57786641D01*
X110855269Y-57612588D01*
X111050178Y-57396355D01*
X111119805Y-57279466D01*
X111241525Y-57461632D01*
X111448368Y-57668475D01*
X111691589Y-57830990D01*
X111961842Y-57942932D01*
X112248740Y-58000000D01*
X112541260Y-58000000D01*
X112828158Y-57942932D01*
X113000000Y-57871753D01*
X112999999Y-59915199D01*
X112761408Y-60153790D01*
X112541260Y-60110000D01*
X112248740Y-60110000D01*
X111961842Y-60167068D01*
X111691589Y-60279010D01*
X111448368Y-60441525D01*
X111241525Y-60648368D01*
X111119805Y-60830534D01*
X111050178Y-60713645D01*
X110855269Y-60497412D01*
X110621920Y-60323359D01*
X110359099Y-60198175D01*
X110211890Y-60153524D01*
X109982000Y-60274845D01*
X109982000Y-61468000D01*
X110002000Y-61468000D01*
X110002000Y-61722000D01*
X109982000Y-61722000D01*
X109982000Y-62915155D01*
X110211890Y-63036476D01*
X110359099Y-62991825D01*
X110621920Y-62866641D01*
X110855269Y-62692588D01*
X111050178Y-62476355D01*
X111119805Y-62359466D01*
X111241525Y-62541632D01*
X111448368Y-62748475D01*
X111691589Y-62910990D01*
X111961842Y-63022932D01*
X112248740Y-63080000D01*
X112541260Y-63080000D01*
X112828158Y-63022932D01*
X113098411Y-62910990D01*
X113341632Y-62748475D01*
X113548475Y-62541632D01*
X113665000Y-62367240D01*
X113781525Y-62541632D01*
X113988368Y-62748475D01*
X114231589Y-62910990D01*
X114501842Y-63022932D01*
X114788740Y-63080000D01*
X115081260Y-63080000D01*
X115368158Y-63022932D01*
X115638411Y-62910990D01*
X115881632Y-62748475D01*
X116013487Y-62616620D01*
X116035498Y-62689180D01*
X116094463Y-62799494D01*
X116173815Y-62896185D01*
X116270506Y-62975537D01*
X116380820Y-63034502D01*
X116500518Y-63070812D01*
X116625000Y-63083072D01*
X118325000Y-63083072D01*
X118449482Y-63070812D01*
X118569180Y-63034502D01*
X118679494Y-62975537D01*
X118776185Y-62896185D01*
X118855537Y-62799494D01*
X118914502Y-62689180D01*
X118950812Y-62569482D01*
X118963072Y-62445000D01*
X118963072Y-61181729D01*
X124001818Y-56142983D01*
X123972774Y-56213102D01*
X123933000Y-56413061D01*
X123933000Y-56616939D01*
X123966379Y-56784746D01*
X123941102Y-56789774D01*
X123752744Y-56867795D01*
X123583226Y-56981063D01*
X123439063Y-57125226D01*
X123325795Y-57294744D01*
X123247774Y-57483102D01*
X123233045Y-57557151D01*
X122424998Y-58365199D01*
X122396000Y-58388997D01*
X122372202Y-58417995D01*
X122372201Y-58417996D01*
X122301026Y-58504722D01*
X122230454Y-58636752D01*
X122218647Y-58675676D01*
X122186998Y-58780012D01*
X122181991Y-58830851D01*
X122172324Y-58928998D01*
X122176001Y-58966330D01*
X122176000Y-67249198D01*
X119795198Y-69630001D01*
X116337321Y-69630001D01*
X116299998Y-69626325D01*
X116262675Y-69630001D01*
X116262666Y-69630001D01*
X116151013Y-69640998D01*
X116007752Y-69684455D01*
X115875722Y-69755027D01*
X115792082Y-69823669D01*
X115759998Y-69850000D01*
X115736200Y-69878998D01*
X115301408Y-70313790D01*
X115081260Y-70270000D01*
X114788740Y-70270000D01*
X114501842Y-70327068D01*
X114231589Y-70439010D01*
X113988368Y-70601525D01*
X113781525Y-70808368D01*
X113665000Y-70982760D01*
X113548475Y-70808368D01*
X113341632Y-70601525D01*
X113098411Y-70439010D01*
X112828158Y-70327068D01*
X112541260Y-70270000D01*
X112248740Y-70270000D01*
X111961842Y-70327068D01*
X111691589Y-70439010D01*
X111448368Y-70601525D01*
X111241525Y-70808368D01*
X111119805Y-70990534D01*
X111050178Y-70873645D01*
X110855269Y-70657412D01*
X110621920Y-70483359D01*
X110359099Y-70358175D01*
X110211890Y-70313524D01*
X109982000Y-70434845D01*
X109982000Y-71628000D01*
X110002000Y-71628000D01*
X110002000Y-71882000D01*
X109982000Y-71882000D01*
X109982000Y-73075155D01*
X110211890Y-73196476D01*
X110359099Y-73151825D01*
X110621920Y-73026641D01*
X110855269Y-72852588D01*
X111050178Y-72636355D01*
X111119805Y-72519466D01*
X111241525Y-72701632D01*
X111448368Y-72908475D01*
X111691589Y-73070990D01*
X111961842Y-73182932D01*
X112248740Y-73240000D01*
X112541260Y-73240000D01*
X112828158Y-73182932D01*
X113098411Y-73070990D01*
X113341632Y-72908475D01*
X113548475Y-72701632D01*
X113665000Y-72527240D01*
X113781525Y-72701632D01*
X113988368Y-72908475D01*
X114231589Y-73070990D01*
X114501842Y-73182932D01*
X114788740Y-73240000D01*
X115081260Y-73240000D01*
X115368158Y-73182932D01*
X115638411Y-73070990D01*
X115881632Y-72908475D01*
X116013487Y-72776620D01*
X116035498Y-72849180D01*
X116094463Y-72959494D01*
X116173815Y-73056185D01*
X116270506Y-73135537D01*
X116380820Y-73194502D01*
X116500518Y-73230812D01*
X116625000Y-73243072D01*
X118325000Y-73243072D01*
X118449482Y-73230812D01*
X118569180Y-73194502D01*
X118679494Y-73135537D01*
X118776185Y-73056185D01*
X118855537Y-72959494D01*
X118914502Y-72849180D01*
X118950812Y-72729482D01*
X118963072Y-72605000D01*
X118963072Y-72515000D01*
X119344089Y-72515000D01*
X119381411Y-72518676D01*
X119418733Y-72515000D01*
X119418744Y-72515000D01*
X119530397Y-72504003D01*
X119673658Y-72460546D01*
X119805687Y-72389974D01*
X119921412Y-72295001D01*
X119945215Y-72265997D01*
X123897015Y-68314198D01*
X123926012Y-68290401D01*
X124020985Y-68174676D01*
X124081000Y-68062397D01*
X124081001Y-82893667D01*
X124077324Y-82931000D01*
X124081001Y-82968333D01*
X124091998Y-83079986D01*
X124100743Y-83108814D01*
X124135454Y-83223246D01*
X124206026Y-83355276D01*
X124277201Y-83442002D01*
X124301000Y-83471001D01*
X124329998Y-83494799D01*
X124749928Y-83914729D01*
X124749928Y-85178000D01*
X124762188Y-85302482D01*
X124798498Y-85422180D01*
X124857463Y-85532494D01*
X124936815Y-85629185D01*
X125033506Y-85708537D01*
X125143820Y-85767502D01*
X125263518Y-85803812D01*
X125388000Y-85816072D01*
X126651271Y-85816072D01*
X127715211Y-86880013D01*
X127739009Y-86909011D01*
X127768007Y-86932809D01*
X127854733Y-87003984D01*
X127947294Y-87053459D01*
X127986763Y-87074556D01*
X128130024Y-87118013D01*
X128241677Y-87129010D01*
X128241686Y-87129010D01*
X128279009Y-87132686D01*
X128316332Y-87129010D01*
X139653668Y-87129010D01*
X139690990Y-87132686D01*
X139728312Y-87129010D01*
X139728323Y-87129010D01*
X139839976Y-87118013D01*
X139983237Y-87074556D01*
X140115266Y-87003984D01*
X140230991Y-86909011D01*
X140254794Y-86880008D01*
X140452729Y-86682072D01*
X141041001Y-86682072D01*
X141214255Y-86665008D01*
X141380851Y-86614472D01*
X141534387Y-86532405D01*
X141668962Y-86421962D01*
X141779405Y-86287387D01*
X141861472Y-86133851D01*
X141912008Y-85967255D01*
X141929072Y-85794001D01*
X141929072Y-84893999D01*
X141912008Y-84720745D01*
X141861472Y-84554149D01*
X141779405Y-84400613D01*
X141668962Y-84266038D01*
X141534387Y-84155595D01*
X141476000Y-84124386D01*
X141476000Y-83525235D01*
X141552387Y-83484405D01*
X141686962Y-83373962D01*
X141797405Y-83239387D01*
X141879472Y-83085851D01*
X141930008Y-82919255D01*
X141947072Y-82746001D01*
X141947072Y-81845999D01*
X141930008Y-81672745D01*
X141879472Y-81506149D01*
X141797405Y-81352613D01*
X141686962Y-81218038D01*
X141552387Y-81107595D01*
X141494000Y-81076386D01*
X141494000Y-80208803D01*
X141543387Y-80182405D01*
X141677962Y-80071962D01*
X141788405Y-79937387D01*
X141870472Y-79783851D01*
X141921008Y-79617255D01*
X141938072Y-79444001D01*
X141938072Y-78543999D01*
X141921008Y-78370745D01*
X141870472Y-78204149D01*
X141788405Y-78050613D01*
X141677962Y-77916038D01*
X141543387Y-77805595D01*
X141389851Y-77723528D01*
X141223255Y-77672992D01*
X141050001Y-77655928D01*
X140399999Y-77655928D01*
X140226745Y-77672992D01*
X140060149Y-77723528D01*
X139906613Y-77805595D01*
X139772038Y-77916038D01*
X139700000Y-78003816D01*
X139627962Y-77916038D01*
X139493387Y-77805595D01*
X139339851Y-77723528D01*
X139173255Y-77672992D01*
X139000001Y-77655928D01*
X138349999Y-77655928D01*
X138176745Y-77672992D01*
X138010149Y-77723528D01*
X137856613Y-77805595D01*
X137795000Y-77856160D01*
X137733387Y-77805595D01*
X137666000Y-77769576D01*
X137666000Y-76110322D01*
X137669676Y-76072999D01*
X137666000Y-76035676D01*
X137666000Y-76035667D01*
X137655003Y-75924014D01*
X137611546Y-75780753D01*
X137540974Y-75648724D01*
X137527811Y-75632685D01*
X137469799Y-75561996D01*
X137469795Y-75561992D01*
X137446001Y-75532999D01*
X137417008Y-75509205D01*
X136547874Y-74640072D01*
X137629000Y-74640072D01*
X137753482Y-74627812D01*
X137873180Y-74591502D01*
X137983494Y-74532537D01*
X138080185Y-74453185D01*
X138159537Y-74356494D01*
X138218502Y-74246180D01*
X138254812Y-74126482D01*
X138267072Y-74002000D01*
X138267072Y-72302000D01*
X140243928Y-72302000D01*
X140243928Y-74002000D01*
X140256188Y-74126482D01*
X140292498Y-74246180D01*
X140351463Y-74356494D01*
X140430815Y-74453185D01*
X140527506Y-74532537D01*
X140637820Y-74591502D01*
X140757518Y-74627812D01*
X140882000Y-74640072D01*
X142582000Y-74640072D01*
X142706482Y-74627812D01*
X142826180Y-74591502D01*
X142936494Y-74532537D01*
X143033185Y-74453185D01*
X143112537Y-74356494D01*
X143171502Y-74246180D01*
X143207812Y-74126482D01*
X143220072Y-74002000D01*
X143220072Y-72302000D01*
X143207812Y-72177518D01*
X143171502Y-72057820D01*
X143112537Y-71947506D01*
X143033185Y-71850815D01*
X142936494Y-71771463D01*
X142826180Y-71712498D01*
X142753620Y-71690487D01*
X142885475Y-71558632D01*
X143047990Y-71315411D01*
X143159932Y-71045158D01*
X143217000Y-70758260D01*
X143217000Y-70465740D01*
X143159932Y-70178842D01*
X143047990Y-69908589D01*
X142885475Y-69665368D01*
X142678632Y-69458525D01*
X142435411Y-69296010D01*
X142165158Y-69184068D01*
X141878260Y-69127000D01*
X141585740Y-69127000D01*
X141298842Y-69184068D01*
X141028589Y-69296010D01*
X140785368Y-69458525D01*
X140578525Y-69665368D01*
X140416010Y-69908589D01*
X140304068Y-70178842D01*
X140247000Y-70465740D01*
X140247000Y-70758260D01*
X140304068Y-71045158D01*
X140416010Y-71315411D01*
X140578525Y-71558632D01*
X140710380Y-71690487D01*
X140637820Y-71712498D01*
X140527506Y-71771463D01*
X140430815Y-71850815D01*
X140351463Y-71947506D01*
X140292498Y-72057820D01*
X140256188Y-72177518D01*
X140243928Y-72302000D01*
X138267072Y-72302000D01*
X138254812Y-72177518D01*
X138218502Y-72057820D01*
X138159537Y-71947506D01*
X138080185Y-71850815D01*
X137983494Y-71771463D01*
X137873180Y-71712498D01*
X137792534Y-71688034D01*
X137876588Y-71612269D01*
X138050641Y-71378920D01*
X138175825Y-71116099D01*
X138220476Y-70968890D01*
X138099155Y-70739000D01*
X136906000Y-70739000D01*
X136906000Y-70759000D01*
X136652000Y-70759000D01*
X136652000Y-70739000D01*
X136632000Y-70739000D01*
X136632000Y-70485000D01*
X136652000Y-70485000D01*
X136652000Y-69291186D01*
X136906000Y-69291186D01*
X136906000Y-70485000D01*
X138099155Y-70485000D01*
X138220476Y-70255110D01*
X138175825Y-70107901D01*
X138050641Y-69845080D01*
X137876588Y-69611731D01*
X137660355Y-69416822D01*
X137410252Y-69267843D01*
X137135891Y-69170519D01*
X136906000Y-69291186D01*
X136652000Y-69291186D01*
X136422109Y-69170519D01*
X136147748Y-69267843D01*
X135897645Y-69416822D01*
X135681412Y-69611731D01*
X135633994Y-69675303D01*
X135633994Y-68902711D01*
X135677931Y-68858774D01*
X135791199Y-68689256D01*
X135869220Y-68500898D01*
X135908994Y-68300939D01*
X135908994Y-68097061D01*
X135869220Y-67897102D01*
X135791199Y-67708744D01*
X135677931Y-67539226D01*
X135533768Y-67395063D01*
X135364250Y-67281795D01*
X135175892Y-67203774D01*
X134975933Y-67164000D01*
X134772055Y-67164000D01*
X134572096Y-67203774D01*
X134383738Y-67281795D01*
X134214220Y-67395063D01*
X134070057Y-67539226D01*
X133956789Y-67708744D01*
X133878768Y-67897102D01*
X133838994Y-68097061D01*
X133838994Y-68300939D01*
X133878768Y-68500898D01*
X133956789Y-68689256D01*
X134070057Y-68858774D01*
X134113995Y-68902712D01*
X134113994Y-74003671D01*
X134110318Y-74040994D01*
X134113994Y-74078316D01*
X134113994Y-74078326D01*
X134124991Y-74189979D01*
X134168448Y-74333240D01*
X134239020Y-74465270D01*
X134278865Y-74513820D01*
X134333993Y-74580995D01*
X134362996Y-74604798D01*
X136146001Y-76387804D01*
X136146000Y-77779197D01*
X136096613Y-77805595D01*
X135962038Y-77916038D01*
X135956658Y-77922594D01*
X135891185Y-77842815D01*
X135794494Y-77763463D01*
X135684180Y-77704498D01*
X135564482Y-77668188D01*
X135440000Y-77655928D01*
X135150750Y-77659000D01*
X134992000Y-77817750D01*
X134992000Y-78867000D01*
X135012000Y-78867000D01*
X135012000Y-79121000D01*
X134992000Y-79121000D01*
X134992000Y-79141000D01*
X134738000Y-79141000D01*
X134738000Y-79121000D01*
X134718000Y-79121000D01*
X134718000Y-78867000D01*
X134738000Y-78867000D01*
X134738000Y-77817750D01*
X134579250Y-77659000D01*
X134290000Y-77655928D01*
X134165518Y-77668188D01*
X134045820Y-77704498D01*
X133935506Y-77763463D01*
X133838815Y-77842815D01*
X133759463Y-77939506D01*
X133700498Y-78049820D01*
X133664188Y-78169518D01*
X133651928Y-78294000D01*
X133652332Y-78348531D01*
X132840000Y-77536199D01*
X132840000Y-72331711D01*
X132883937Y-72287774D01*
X132997205Y-72118256D01*
X133075226Y-71929898D01*
X133115000Y-71729939D01*
X133115000Y-71526061D01*
X133075226Y-71326102D01*
X132997205Y-71137744D01*
X132883937Y-70968226D01*
X132739774Y-70824063D01*
X132570256Y-70710795D01*
X132381898Y-70632774D01*
X132181939Y-70593000D01*
X131978061Y-70593000D01*
X131778102Y-70632774D01*
X131589744Y-70710795D01*
X131420226Y-70824063D01*
X131276063Y-70968226D01*
X131162795Y-71137744D01*
X131084774Y-71326102D01*
X131045000Y-71526061D01*
X131045000Y-71729939D01*
X131084774Y-71929898D01*
X131162795Y-72118256D01*
X131276063Y-72287774D01*
X131320001Y-72331712D01*
X131320000Y-77813677D01*
X131316324Y-77851000D01*
X131320000Y-77888322D01*
X131320000Y-77888332D01*
X131330997Y-77999985D01*
X131346355Y-78050613D01*
X131374454Y-78143246D01*
X131445026Y-78275276D01*
X131467944Y-78303201D01*
X131539999Y-78391001D01*
X131569003Y-78414804D01*
X133802200Y-80648002D01*
X133825999Y-80677001D01*
X133941724Y-80771974D01*
X134073753Y-80842546D01*
X134217014Y-80886003D01*
X134328667Y-80897000D01*
X134328676Y-80897000D01*
X134365999Y-80900676D01*
X134403322Y-80897000D01*
X136083199Y-80897000D01*
X136146001Y-80959802D01*
X136146001Y-81076386D01*
X136087613Y-81107595D01*
X135953038Y-81218038D01*
X135947658Y-81224594D01*
X135882185Y-81144815D01*
X135785494Y-81065463D01*
X135675180Y-81006498D01*
X135555482Y-80970188D01*
X135431000Y-80957928D01*
X135141750Y-80961000D01*
X134983000Y-81119750D01*
X134983000Y-82169000D01*
X135003000Y-82169000D01*
X135003000Y-82423000D01*
X134983000Y-82423000D01*
X134983000Y-82443000D01*
X134729000Y-82443000D01*
X134729000Y-82423000D01*
X134709000Y-82423000D01*
X134709000Y-82169000D01*
X134729000Y-82169000D01*
X134729000Y-81119750D01*
X134570250Y-80961000D01*
X134281000Y-80957928D01*
X134156518Y-80970188D01*
X134036820Y-81006498D01*
X133926506Y-81065463D01*
X133829815Y-81144815D01*
X133750463Y-81241506D01*
X133691498Y-81351820D01*
X133655188Y-81471518D01*
X133642928Y-81596000D01*
X133645163Y-81897361D01*
X130300000Y-78552199D01*
X130300000Y-72712711D01*
X130343937Y-72668774D01*
X130457205Y-72499256D01*
X130535226Y-72310898D01*
X130575000Y-72110939D01*
X130575000Y-71907061D01*
X130535226Y-71707102D01*
X130457205Y-71518744D01*
X130343937Y-71349226D01*
X130199774Y-71205063D01*
X130030256Y-71091795D01*
X129841898Y-71013774D01*
X129641939Y-70974000D01*
X129438061Y-70974000D01*
X129238102Y-71013774D01*
X129049744Y-71091795D01*
X128880226Y-71205063D01*
X128736063Y-71349226D01*
X128622795Y-71518744D01*
X128544774Y-71707102D01*
X128505000Y-71907061D01*
X128505000Y-72110939D01*
X128544774Y-72310898D01*
X128622795Y-72499256D01*
X128736063Y-72668774D01*
X128780001Y-72712712D01*
X128780000Y-78829677D01*
X128776324Y-78867000D01*
X128780000Y-78904322D01*
X128780000Y-78904332D01*
X128790997Y-79015985D01*
X128826791Y-79133985D01*
X128834454Y-79159246D01*
X128905026Y-79291276D01*
X128944871Y-79339826D01*
X128999999Y-79407001D01*
X129029003Y-79430804D01*
X133812325Y-84214127D01*
X133750463Y-84289506D01*
X133691498Y-84399820D01*
X133655188Y-84519518D01*
X133642928Y-84644000D01*
X133646000Y-85058250D01*
X133804750Y-85217000D01*
X134729000Y-85217000D01*
X134729000Y-85197000D01*
X134983000Y-85197000D01*
X134983000Y-85217000D01*
X135003000Y-85217000D01*
X135003000Y-85471000D01*
X134983000Y-85471000D01*
X134983000Y-85491000D01*
X134729000Y-85491000D01*
X134729000Y-85471000D01*
X133804750Y-85471000D01*
X133666740Y-85609010D01*
X128593812Y-85609010D01*
X127726072Y-84741271D01*
X127726072Y-83478000D01*
X127713812Y-83353518D01*
X127677502Y-83233820D01*
X127618537Y-83123506D01*
X127539185Y-83026815D01*
X127442494Y-82947463D01*
X127332180Y-82888498D01*
X127251534Y-82864034D01*
X127335588Y-82788269D01*
X127509641Y-82554920D01*
X127634825Y-82292099D01*
X127679476Y-82144890D01*
X127558155Y-81915000D01*
X126365000Y-81915000D01*
X126365000Y-81935000D01*
X126111000Y-81935000D01*
X126111000Y-81915000D01*
X126091000Y-81915000D01*
X126091000Y-81661000D01*
X126111000Y-81661000D01*
X126111000Y-80467186D01*
X126365000Y-80467186D01*
X126365000Y-81661000D01*
X127558155Y-81661000D01*
X127679476Y-81431110D01*
X127634825Y-81283901D01*
X127509641Y-81021080D01*
X127335588Y-80787731D01*
X127119355Y-80592822D01*
X126869252Y-80443843D01*
X126594891Y-80346519D01*
X126365000Y-80467186D01*
X126111000Y-80467186D01*
X125881109Y-80346519D01*
X125606748Y-80443843D01*
X125601000Y-80447267D01*
X125601000Y-65227614D01*
X125659387Y-65196405D01*
X125793962Y-65085962D01*
X125866000Y-64998184D01*
X125938038Y-65085962D01*
X126072613Y-65196405D01*
X126226149Y-65278472D01*
X126392745Y-65329008D01*
X126565999Y-65346072D01*
X127216001Y-65346072D01*
X127389255Y-65329008D01*
X127555851Y-65278472D01*
X127709387Y-65196405D01*
X127843962Y-65085962D01*
X127954405Y-64951387D01*
X128036472Y-64797851D01*
X128049965Y-64753369D01*
X128181247Y-64713546D01*
X128313276Y-64642974D01*
X128429001Y-64548001D01*
X128452804Y-64518998D01*
X129071802Y-63900000D01*
X129133939Y-63900000D01*
X129333898Y-63860226D01*
X129522256Y-63782205D01*
X129691774Y-63668937D01*
X129835937Y-63524774D01*
X129949205Y-63355256D01*
X130027226Y-63166898D01*
X130067000Y-62966939D01*
X130067000Y-62763061D01*
X130027226Y-62563102D01*
X129949205Y-62374744D01*
X129835937Y-62205226D01*
X129691774Y-62061063D01*
X129564468Y-61976000D01*
X129691774Y-61890937D01*
X129835937Y-61746774D01*
X129949205Y-61577256D01*
X130027226Y-61388898D01*
X130067000Y-61188939D01*
X130067000Y-60985061D01*
X130027226Y-60785102D01*
X129949205Y-60596744D01*
X129835937Y-60427226D01*
X129691774Y-60283063D01*
X129522256Y-60169795D01*
X129333898Y-60091774D01*
X129133939Y-60052000D01*
X128930061Y-60052000D01*
X128730102Y-60091774D01*
X128541744Y-60169795D01*
X128372226Y-60283063D01*
X128328289Y-60327000D01*
X127690325Y-60327000D01*
X127653000Y-60323324D01*
X127615675Y-60327000D01*
X127615667Y-60327000D01*
X127504014Y-60337997D01*
X127360753Y-60381454D01*
X127228724Y-60452026D01*
X127156952Y-60510928D01*
X126565999Y-60510928D01*
X126392745Y-60527992D01*
X126226149Y-60578528D01*
X126072613Y-60660595D01*
X125938038Y-60771038D01*
X125866000Y-60858816D01*
X125793962Y-60771038D01*
X125659387Y-60660595D01*
X125601000Y-60629386D01*
X125601000Y-60494801D01*
X127570324Y-58525478D01*
X127583992Y-58664255D01*
X127634528Y-58830851D01*
X127716595Y-58984387D01*
X127827038Y-59118962D01*
X127961613Y-59229405D01*
X128115149Y-59311472D01*
X128281745Y-59362008D01*
X128454999Y-59379072D01*
X129043271Y-59379072D01*
X133802201Y-64138003D01*
X133825999Y-64167001D01*
X133941724Y-64261974D01*
X134073753Y-64332546D01*
X134217014Y-64376003D01*
X134328667Y-64387000D01*
X134328676Y-64387000D01*
X134365999Y-64390676D01*
X134403322Y-64387000D01*
X134920091Y-64387000D01*
X134926082Y-64401463D01*
X135105013Y-64669252D01*
X135332748Y-64896987D01*
X135600537Y-65075918D01*
X135898088Y-65199168D01*
X136213967Y-65262000D01*
X136536033Y-65262000D01*
X136851912Y-65199168D01*
X137149463Y-65075918D01*
X137417252Y-64896987D01*
X137644987Y-64669252D01*
X137823918Y-64401463D01*
X137947168Y-64103912D01*
X138010000Y-63788033D01*
X138010000Y-63465967D01*
X141240000Y-63465967D01*
X141240000Y-63788033D01*
X141302832Y-64103912D01*
X141426082Y-64401463D01*
X141605013Y-64669252D01*
X141832748Y-64896987D01*
X142100537Y-65075918D01*
X142398088Y-65199168D01*
X142713967Y-65262000D01*
X143036033Y-65262000D01*
X143351912Y-65199168D01*
X143649463Y-65075918D01*
X143917252Y-64896987D01*
X144144987Y-64669252D01*
X144323918Y-64401463D01*
X144447168Y-64103912D01*
X144510000Y-63788033D01*
X144510000Y-63465967D01*
X144447168Y-63150088D01*
X144323918Y-62852537D01*
X144144987Y-62584748D01*
X143917252Y-62357013D01*
X143649463Y-62178082D01*
X143351912Y-62054832D01*
X143036033Y-61992000D01*
X142713967Y-61992000D01*
X142398088Y-62054832D01*
X142100537Y-62178082D01*
X141832748Y-62357013D01*
X141605013Y-62584748D01*
X141426082Y-62852537D01*
X141302832Y-63150088D01*
X141240000Y-63465967D01*
X138010000Y-63465967D01*
X137947168Y-63150088D01*
X137823918Y-62852537D01*
X137644987Y-62584748D01*
X137417252Y-62357013D01*
X137149463Y-62178082D01*
X136851912Y-62054832D01*
X136536033Y-61992000D01*
X136213967Y-61992000D01*
X135898088Y-62054832D01*
X135600537Y-62178082D01*
X135332748Y-62357013D01*
X135105013Y-62584748D01*
X134926082Y-62852537D01*
X134920091Y-62867000D01*
X134680802Y-62867000D01*
X132076215Y-60262413D01*
X135419192Y-60262413D01*
X135514956Y-60526814D01*
X135804571Y-60667704D01*
X136116108Y-60749384D01*
X136437595Y-60768718D01*
X136756675Y-60724961D01*
X137061088Y-60619795D01*
X137235044Y-60526814D01*
X137330808Y-60262413D01*
X141919192Y-60262413D01*
X142014956Y-60526814D01*
X142304571Y-60667704D01*
X142616108Y-60749384D01*
X142937595Y-60768718D01*
X143256675Y-60724961D01*
X143561088Y-60619795D01*
X143735044Y-60526814D01*
X143830808Y-60262413D01*
X142875000Y-59306605D01*
X141919192Y-60262413D01*
X137330808Y-60262413D01*
X136375000Y-59306605D01*
X135419192Y-60262413D01*
X132076215Y-60262413D01*
X131003397Y-59189595D01*
X134733282Y-59189595D01*
X134777039Y-59508675D01*
X134882205Y-59813088D01*
X134975186Y-59987044D01*
X135239587Y-60082808D01*
X136195395Y-59127000D01*
X136554605Y-59127000D01*
X137510413Y-60082808D01*
X137774814Y-59987044D01*
X137915704Y-59697429D01*
X137997384Y-59385892D01*
X138009189Y-59189595D01*
X141233282Y-59189595D01*
X141277039Y-59508675D01*
X141382205Y-59813088D01*
X141475186Y-59987044D01*
X141739587Y-60082808D01*
X142695395Y-59127000D01*
X143054605Y-59127000D01*
X144010413Y-60082808D01*
X144274814Y-59987044D01*
X144415704Y-59697429D01*
X144497384Y-59385892D01*
X144516718Y-59064405D01*
X144472961Y-58745325D01*
X144367795Y-58440912D01*
X144274814Y-58266956D01*
X144010413Y-58171192D01*
X143054605Y-59127000D01*
X142695395Y-59127000D01*
X141739587Y-58171192D01*
X141475186Y-58266956D01*
X141334296Y-58556571D01*
X141252616Y-58868108D01*
X141233282Y-59189595D01*
X138009189Y-59189595D01*
X138016718Y-59064405D01*
X137972961Y-58745325D01*
X137867795Y-58440912D01*
X137774814Y-58266956D01*
X137510413Y-58171192D01*
X136554605Y-59127000D01*
X136195395Y-59127000D01*
X135239587Y-58171192D01*
X134975186Y-58266956D01*
X134834296Y-58556571D01*
X134752616Y-58868108D01*
X134733282Y-59189595D01*
X131003397Y-59189595D01*
X130243072Y-58429271D01*
X130243072Y-57991587D01*
X135419192Y-57991587D01*
X136375000Y-58947395D01*
X137330808Y-57991587D01*
X141919192Y-57991587D01*
X142875000Y-58947395D01*
X143830808Y-57991587D01*
X143735044Y-57727186D01*
X143445429Y-57586296D01*
X143133892Y-57504616D01*
X142812405Y-57485282D01*
X142493325Y-57529039D01*
X142188912Y-57634205D01*
X142014956Y-57727186D01*
X141919192Y-57991587D01*
X137330808Y-57991587D01*
X137235044Y-57727186D01*
X136945429Y-57586296D01*
X136633892Y-57504616D01*
X136312405Y-57485282D01*
X135993325Y-57529039D01*
X135688912Y-57634205D01*
X135514956Y-57727186D01*
X135419192Y-57991587D01*
X130243072Y-57991587D01*
X130243072Y-57840999D01*
X130226008Y-57667745D01*
X130175472Y-57501149D01*
X130093405Y-57347613D01*
X129982962Y-57213038D01*
X129895184Y-57141000D01*
X129982962Y-57068962D01*
X130093405Y-56934387D01*
X130175472Y-56780851D01*
X130226008Y-56614255D01*
X130243072Y-56441001D01*
X130243072Y-55913881D01*
X137178724Y-55913881D01*
X137538912Y-56403548D01*
X138202882Y-56763849D01*
X138924385Y-56987694D01*
X139675695Y-57066480D01*
X140427938Y-56997178D01*
X141152208Y-56782452D01*
X141820670Y-56430555D01*
X141861088Y-56403548D01*
X142221276Y-55913881D01*
X139700000Y-53392605D01*
X137178724Y-55913881D01*
X130243072Y-55913881D01*
X130243072Y-55790999D01*
X130226008Y-55617745D01*
X130175472Y-55451149D01*
X130093405Y-55297613D01*
X129982962Y-55163038D01*
X129848387Y-55052595D01*
X129694851Y-54970528D01*
X129528255Y-54919992D01*
X129355001Y-54902928D01*
X128454999Y-54902928D01*
X128281745Y-54919992D01*
X128115149Y-54970528D01*
X127961613Y-55052595D01*
X127827038Y-55163038D01*
X127716595Y-55297613D01*
X127634528Y-55451149D01*
X127583992Y-55617745D01*
X127566928Y-55790999D01*
X127566928Y-56379270D01*
X125728000Y-58218199D01*
X125728000Y-57218711D01*
X125771937Y-57174774D01*
X125885205Y-57005256D01*
X125963226Y-56816898D01*
X126003000Y-56616939D01*
X126003000Y-56413061D01*
X125963226Y-56213102D01*
X125885205Y-56024744D01*
X125771937Y-55855226D01*
X125627774Y-55711063D01*
X125458256Y-55597795D01*
X125269898Y-55519774D01*
X125069939Y-55480000D01*
X124866061Y-55480000D01*
X124666102Y-55519774D01*
X124595983Y-55548818D01*
X126679802Y-53465000D01*
X128836289Y-53465000D01*
X128880226Y-53508937D01*
X129049744Y-53622205D01*
X129238102Y-53700226D01*
X129438061Y-53740000D01*
X129641939Y-53740000D01*
X129841898Y-53700226D01*
X130030256Y-53622205D01*
X130199774Y-53508937D01*
X130343937Y-53364774D01*
X130457205Y-53195256D01*
X130459922Y-53188695D01*
X135846520Y-53188695D01*
X135915822Y-53940938D01*
X136130548Y-54665208D01*
X136482445Y-55333670D01*
X136509452Y-55374088D01*
X136999119Y-55734276D01*
X139520395Y-53213000D01*
X139879605Y-53213000D01*
X142400881Y-55734276D01*
X142890548Y-55374088D01*
X143250849Y-54710118D01*
X143474694Y-53988615D01*
X143553480Y-53237305D01*
X143484178Y-52485062D01*
X143269452Y-51760792D01*
X142917555Y-51092330D01*
X142890548Y-51051912D01*
X142400881Y-50691724D01*
X139879605Y-53213000D01*
X139520395Y-53213000D01*
X136999119Y-50691724D01*
X136509452Y-51051912D01*
X136149151Y-51715882D01*
X135925306Y-52437385D01*
X135846520Y-53188695D01*
X130459922Y-53188695D01*
X130535226Y-53006898D01*
X130575000Y-52806939D01*
X130575000Y-52603061D01*
X130535226Y-52403102D01*
X130457205Y-52214744D01*
X130343937Y-52045226D01*
X130336286Y-52037575D01*
X130408226Y-51863898D01*
X130448000Y-51663939D01*
X130448000Y-51460061D01*
X130408226Y-51260102D01*
X130330205Y-51071744D01*
X130216937Y-50902226D01*
X130072774Y-50758063D01*
X129903256Y-50644795D01*
X129714898Y-50566774D01*
X129514939Y-50527000D01*
X129311061Y-50527000D01*
X129111102Y-50566774D01*
X128922744Y-50644795D01*
X128753226Y-50758063D01*
X128709289Y-50802000D01*
X125386322Y-50802000D01*
X125348999Y-50798324D01*
X125311676Y-50802000D01*
X125311667Y-50802000D01*
X125200014Y-50812997D01*
X125056753Y-50856454D01*
X124924723Y-50927026D01*
X124841083Y-50995668D01*
X124808999Y-51021999D01*
X124785201Y-51050997D01*
X118963072Y-56873127D01*
X118963072Y-55665000D01*
X118950812Y-55540518D01*
X118914502Y-55420820D01*
X118855537Y-55310506D01*
X118776185Y-55213815D01*
X118679494Y-55134463D01*
X118569180Y-55075498D01*
X118449482Y-55039188D01*
X118325000Y-55026928D01*
X117370873Y-55026928D01*
X119800803Y-52597000D01*
X119862939Y-52597000D01*
X120062898Y-52557226D01*
X120251256Y-52479205D01*
X120420774Y-52365937D01*
X120564937Y-52221774D01*
X120678205Y-52052256D01*
X120756226Y-51863898D01*
X120796000Y-51663939D01*
X120796000Y-51460061D01*
X120756226Y-51260102D01*
X120678205Y-51071744D01*
X120564937Y-50902226D01*
X120420774Y-50758063D01*
X120251256Y-50644795D01*
X120062898Y-50566774D01*
X119862939Y-50527000D01*
X119659061Y-50527000D01*
X119459102Y-50566774D01*
X119270744Y-50644795D01*
X119101226Y-50758063D01*
X118957063Y-50902226D01*
X118843795Y-51071744D01*
X118836072Y-51090389D01*
X118836072Y-50585000D01*
X118828895Y-50512119D01*
X137178724Y-50512119D01*
X139700000Y-53033395D01*
X142221276Y-50512119D01*
X141861088Y-50022452D01*
X141197118Y-49662151D01*
X140475615Y-49438306D01*
X139724305Y-49359520D01*
X138972062Y-49428822D01*
X138247792Y-49643548D01*
X137579330Y-49995445D01*
X137538912Y-50022452D01*
X137178724Y-50512119D01*
X118828895Y-50512119D01*
X118823812Y-50460518D01*
X118787502Y-50340820D01*
X118728537Y-50230506D01*
X118649185Y-50133815D01*
X118552494Y-50054463D01*
X118442180Y-49995498D01*
X118322482Y-49959188D01*
X118198000Y-49946928D01*
X116498000Y-49946928D01*
X116373518Y-49959188D01*
X116253820Y-49995498D01*
X116143506Y-50054463D01*
X116046815Y-50133815D01*
X115967463Y-50230506D01*
X115908498Y-50340820D01*
X115886487Y-50413380D01*
X115754632Y-50281525D01*
X115511411Y-50119010D01*
X115241158Y-50007068D01*
X114954260Y-49950000D01*
X114661740Y-49950000D01*
X114374842Y-50007068D01*
X114104589Y-50119010D01*
X113861368Y-50281525D01*
X113654525Y-50488368D01*
X113538000Y-50662760D01*
X113421475Y-50488368D01*
X113214632Y-50281525D01*
X112971411Y-50119010D01*
X112701158Y-50007068D01*
X112414260Y-49950000D01*
X112121740Y-49950000D01*
X111834842Y-50007068D01*
X111564589Y-50119010D01*
X111321368Y-50281525D01*
X111114525Y-50488368D01*
X110992805Y-50670534D01*
X110923178Y-50553645D01*
X110728269Y-50337412D01*
X110494920Y-50163359D01*
X110232099Y-50038175D01*
X110084890Y-49993524D01*
X109855000Y-50114845D01*
X109601000Y-50114845D01*
X109371110Y-49993524D01*
X109223901Y-50038175D01*
X108961080Y-50163359D01*
X108727731Y-50337412D01*
X108532822Y-50553645D01*
X108383843Y-50803748D01*
X108286519Y-51078109D01*
X106349705Y-51078109D01*
X106382258Y-50746114D01*
X106545442Y-50205624D01*
X106810494Y-49707133D01*
X107167326Y-49269612D01*
X107602350Y-48909729D01*
X108098983Y-48641201D01*
X108638315Y-48474251D01*
X109230596Y-48412000D01*
X141699722Y-48412000D01*
X142293886Y-48470258D01*
%TD*%
M02*
