%TF.GenerationSoftware,KiCad,Pcbnew,(5.1.6)-1*%
%TF.CreationDate,2020-09-17T21:49:40+02:00*%
%TF.ProjectId,gpioexpander5,6770696f-6578-4706-916e-646572352e6b,rev?*%
%TF.SameCoordinates,Original*%
%TF.FileFunction,Soldermask,Top*%
%TF.FilePolarity,Negative*%
%FSLAX46Y46*%
G04 Gerber Fmt 4.6, Leading zero omitted, Abs format (unit mm)*
G04 Created by KiCad (PCBNEW (5.1.6)-1) date 2020-09-17 21:49:40*
%MOMM*%
%LPD*%
G01*
G04 APERTURE LIST*
%ADD10C,2.100000*%
%ADD11O,1.800000X1.800000*%
%ADD12R,1.800000X1.800000*%
%ADD13C,6.500000*%
G04 APERTURE END LIST*
D10*
%TO.C,SW1*%
X136375000Y-63627000D03*
X136375000Y-59127000D03*
X142875000Y-63627000D03*
X142875000Y-59127000D03*
%TD*%
%TO.C,U1*%
G36*
G01*
X130575000Y-51610000D02*
X130575000Y-51260000D01*
G75*
G02*
X130750000Y-51085000I175000J0D01*
G01*
X132550000Y-51085000D01*
G75*
G02*
X132725000Y-51260000I0J-175000D01*
G01*
X132725000Y-51610000D01*
G75*
G02*
X132550000Y-51785000I-175000J0D01*
G01*
X130750000Y-51785000D01*
G75*
G02*
X130575000Y-51610000I0J175000D01*
G01*
G37*
G36*
G01*
X130575000Y-52880000D02*
X130575000Y-52530000D01*
G75*
G02*
X130750000Y-52355000I175000J0D01*
G01*
X132550000Y-52355000D01*
G75*
G02*
X132725000Y-52530000I0J-175000D01*
G01*
X132725000Y-52880000D01*
G75*
G02*
X132550000Y-53055000I-175000J0D01*
G01*
X130750000Y-53055000D01*
G75*
G02*
X130575000Y-52880000I0J175000D01*
G01*
G37*
G36*
G01*
X130575000Y-54150000D02*
X130575000Y-53800000D01*
G75*
G02*
X130750000Y-53625000I175000J0D01*
G01*
X132550000Y-53625000D01*
G75*
G02*
X132725000Y-53800000I0J-175000D01*
G01*
X132725000Y-54150000D01*
G75*
G02*
X132550000Y-54325000I-175000J0D01*
G01*
X130750000Y-54325000D01*
G75*
G02*
X130575000Y-54150000I0J175000D01*
G01*
G37*
G36*
G01*
X130575000Y-55420000D02*
X130575000Y-55070000D01*
G75*
G02*
X130750000Y-54895000I175000J0D01*
G01*
X132550000Y-54895000D01*
G75*
G02*
X132725000Y-55070000I0J-175000D01*
G01*
X132725000Y-55420000D01*
G75*
G02*
X132550000Y-55595000I-175000J0D01*
G01*
X130750000Y-55595000D01*
G75*
G02*
X130575000Y-55420000I0J175000D01*
G01*
G37*
G36*
G01*
X130575000Y-56690000D02*
X130575000Y-56340000D01*
G75*
G02*
X130750000Y-56165000I175000J0D01*
G01*
X132550000Y-56165000D01*
G75*
G02*
X132725000Y-56340000I0J-175000D01*
G01*
X132725000Y-56690000D01*
G75*
G02*
X132550000Y-56865000I-175000J0D01*
G01*
X130750000Y-56865000D01*
G75*
G02*
X130575000Y-56690000I0J175000D01*
G01*
G37*
G36*
G01*
X130575000Y-57960000D02*
X130575000Y-57610000D01*
G75*
G02*
X130750000Y-57435000I175000J0D01*
G01*
X132550000Y-57435000D01*
G75*
G02*
X132725000Y-57610000I0J-175000D01*
G01*
X132725000Y-57960000D01*
G75*
G02*
X132550000Y-58135000I-175000J0D01*
G01*
X130750000Y-58135000D01*
G75*
G02*
X130575000Y-57960000I0J175000D01*
G01*
G37*
G36*
G01*
X130575000Y-59230000D02*
X130575000Y-58880000D01*
G75*
G02*
X130750000Y-58705000I175000J0D01*
G01*
X132550000Y-58705000D01*
G75*
G02*
X132725000Y-58880000I0J-175000D01*
G01*
X132725000Y-59230000D01*
G75*
G02*
X132550000Y-59405000I-175000J0D01*
G01*
X130750000Y-59405000D01*
G75*
G02*
X130575000Y-59230000I0J175000D01*
G01*
G37*
G36*
G01*
X130575000Y-60500000D02*
X130575000Y-60150000D01*
G75*
G02*
X130750000Y-59975000I175000J0D01*
G01*
X132550000Y-59975000D01*
G75*
G02*
X132725000Y-60150000I0J-175000D01*
G01*
X132725000Y-60500000D01*
G75*
G02*
X132550000Y-60675000I-175000J0D01*
G01*
X130750000Y-60675000D01*
G75*
G02*
X130575000Y-60500000I0J175000D01*
G01*
G37*
G36*
G01*
X130575000Y-61770000D02*
X130575000Y-61420000D01*
G75*
G02*
X130750000Y-61245000I175000J0D01*
G01*
X132550000Y-61245000D01*
G75*
G02*
X132725000Y-61420000I0J-175000D01*
G01*
X132725000Y-61770000D01*
G75*
G02*
X132550000Y-61945000I-175000J0D01*
G01*
X130750000Y-61945000D01*
G75*
G02*
X130575000Y-61770000I0J175000D01*
G01*
G37*
G36*
G01*
X130575000Y-63040000D02*
X130575000Y-62690000D01*
G75*
G02*
X130750000Y-62515000I175000J0D01*
G01*
X132550000Y-62515000D01*
G75*
G02*
X132725000Y-62690000I0J-175000D01*
G01*
X132725000Y-63040000D01*
G75*
G02*
X132550000Y-63215000I-175000J0D01*
G01*
X130750000Y-63215000D01*
G75*
G02*
X130575000Y-63040000I0J175000D01*
G01*
G37*
G36*
G01*
X130575000Y-64310000D02*
X130575000Y-63960000D01*
G75*
G02*
X130750000Y-63785000I175000J0D01*
G01*
X132550000Y-63785000D01*
G75*
G02*
X132725000Y-63960000I0J-175000D01*
G01*
X132725000Y-64310000D01*
G75*
G02*
X132550000Y-64485000I-175000J0D01*
G01*
X130750000Y-64485000D01*
G75*
G02*
X130575000Y-64310000I0J175000D01*
G01*
G37*
G36*
G01*
X130575000Y-65580000D02*
X130575000Y-65230000D01*
G75*
G02*
X130750000Y-65055000I175000J0D01*
G01*
X132550000Y-65055000D01*
G75*
G02*
X132725000Y-65230000I0J-175000D01*
G01*
X132725000Y-65580000D01*
G75*
G02*
X132550000Y-65755000I-175000J0D01*
G01*
X130750000Y-65755000D01*
G75*
G02*
X130575000Y-65580000I0J175000D01*
G01*
G37*
G36*
G01*
X130575000Y-66850000D02*
X130575000Y-66500000D01*
G75*
G02*
X130750000Y-66325000I175000J0D01*
G01*
X132550000Y-66325000D01*
G75*
G02*
X132725000Y-66500000I0J-175000D01*
G01*
X132725000Y-66850000D01*
G75*
G02*
X132550000Y-67025000I-175000J0D01*
G01*
X130750000Y-67025000D01*
G75*
G02*
X130575000Y-66850000I0J175000D01*
G01*
G37*
G36*
G01*
X130575000Y-68120000D02*
X130575000Y-67770000D01*
G75*
G02*
X130750000Y-67595000I175000J0D01*
G01*
X132550000Y-67595000D01*
G75*
G02*
X132725000Y-67770000I0J-175000D01*
G01*
X132725000Y-68120000D01*
G75*
G02*
X132550000Y-68295000I-175000J0D01*
G01*
X130750000Y-68295000D01*
G75*
G02*
X130575000Y-68120000I0J175000D01*
G01*
G37*
G36*
G01*
X121275000Y-68120000D02*
X121275000Y-67770000D01*
G75*
G02*
X121450000Y-67595000I175000J0D01*
G01*
X123250000Y-67595000D01*
G75*
G02*
X123425000Y-67770000I0J-175000D01*
G01*
X123425000Y-68120000D01*
G75*
G02*
X123250000Y-68295000I-175000J0D01*
G01*
X121450000Y-68295000D01*
G75*
G02*
X121275000Y-68120000I0J175000D01*
G01*
G37*
G36*
G01*
X121275000Y-66850000D02*
X121275000Y-66500000D01*
G75*
G02*
X121450000Y-66325000I175000J0D01*
G01*
X123250000Y-66325000D01*
G75*
G02*
X123425000Y-66500000I0J-175000D01*
G01*
X123425000Y-66850000D01*
G75*
G02*
X123250000Y-67025000I-175000J0D01*
G01*
X121450000Y-67025000D01*
G75*
G02*
X121275000Y-66850000I0J175000D01*
G01*
G37*
G36*
G01*
X121275000Y-65580000D02*
X121275000Y-65230000D01*
G75*
G02*
X121450000Y-65055000I175000J0D01*
G01*
X123250000Y-65055000D01*
G75*
G02*
X123425000Y-65230000I0J-175000D01*
G01*
X123425000Y-65580000D01*
G75*
G02*
X123250000Y-65755000I-175000J0D01*
G01*
X121450000Y-65755000D01*
G75*
G02*
X121275000Y-65580000I0J175000D01*
G01*
G37*
G36*
G01*
X121275000Y-64310000D02*
X121275000Y-63960000D01*
G75*
G02*
X121450000Y-63785000I175000J0D01*
G01*
X123250000Y-63785000D01*
G75*
G02*
X123425000Y-63960000I0J-175000D01*
G01*
X123425000Y-64310000D01*
G75*
G02*
X123250000Y-64485000I-175000J0D01*
G01*
X121450000Y-64485000D01*
G75*
G02*
X121275000Y-64310000I0J175000D01*
G01*
G37*
G36*
G01*
X121275000Y-63040000D02*
X121275000Y-62690000D01*
G75*
G02*
X121450000Y-62515000I175000J0D01*
G01*
X123250000Y-62515000D01*
G75*
G02*
X123425000Y-62690000I0J-175000D01*
G01*
X123425000Y-63040000D01*
G75*
G02*
X123250000Y-63215000I-175000J0D01*
G01*
X121450000Y-63215000D01*
G75*
G02*
X121275000Y-63040000I0J175000D01*
G01*
G37*
G36*
G01*
X121275000Y-61770000D02*
X121275000Y-61420000D01*
G75*
G02*
X121450000Y-61245000I175000J0D01*
G01*
X123250000Y-61245000D01*
G75*
G02*
X123425000Y-61420000I0J-175000D01*
G01*
X123425000Y-61770000D01*
G75*
G02*
X123250000Y-61945000I-175000J0D01*
G01*
X121450000Y-61945000D01*
G75*
G02*
X121275000Y-61770000I0J175000D01*
G01*
G37*
G36*
G01*
X121275000Y-60500000D02*
X121275000Y-60150000D01*
G75*
G02*
X121450000Y-59975000I175000J0D01*
G01*
X123250000Y-59975000D01*
G75*
G02*
X123425000Y-60150000I0J-175000D01*
G01*
X123425000Y-60500000D01*
G75*
G02*
X123250000Y-60675000I-175000J0D01*
G01*
X121450000Y-60675000D01*
G75*
G02*
X121275000Y-60500000I0J175000D01*
G01*
G37*
G36*
G01*
X121275000Y-59230000D02*
X121275000Y-58880000D01*
G75*
G02*
X121450000Y-58705000I175000J0D01*
G01*
X123250000Y-58705000D01*
G75*
G02*
X123425000Y-58880000I0J-175000D01*
G01*
X123425000Y-59230000D01*
G75*
G02*
X123250000Y-59405000I-175000J0D01*
G01*
X121450000Y-59405000D01*
G75*
G02*
X121275000Y-59230000I0J175000D01*
G01*
G37*
G36*
G01*
X121275000Y-57960000D02*
X121275000Y-57610000D01*
G75*
G02*
X121450000Y-57435000I175000J0D01*
G01*
X123250000Y-57435000D01*
G75*
G02*
X123425000Y-57610000I0J-175000D01*
G01*
X123425000Y-57960000D01*
G75*
G02*
X123250000Y-58135000I-175000J0D01*
G01*
X121450000Y-58135000D01*
G75*
G02*
X121275000Y-57960000I0J175000D01*
G01*
G37*
G36*
G01*
X121275000Y-56690000D02*
X121275000Y-56340000D01*
G75*
G02*
X121450000Y-56165000I175000J0D01*
G01*
X123250000Y-56165000D01*
G75*
G02*
X123425000Y-56340000I0J-175000D01*
G01*
X123425000Y-56690000D01*
G75*
G02*
X123250000Y-56865000I-175000J0D01*
G01*
X121450000Y-56865000D01*
G75*
G02*
X121275000Y-56690000I0J175000D01*
G01*
G37*
G36*
G01*
X121275000Y-55420000D02*
X121275000Y-55070000D01*
G75*
G02*
X121450000Y-54895000I175000J0D01*
G01*
X123250000Y-54895000D01*
G75*
G02*
X123425000Y-55070000I0J-175000D01*
G01*
X123425000Y-55420000D01*
G75*
G02*
X123250000Y-55595000I-175000J0D01*
G01*
X121450000Y-55595000D01*
G75*
G02*
X121275000Y-55420000I0J175000D01*
G01*
G37*
G36*
G01*
X121275000Y-54150000D02*
X121275000Y-53800000D01*
G75*
G02*
X121450000Y-53625000I175000J0D01*
G01*
X123250000Y-53625000D01*
G75*
G02*
X123425000Y-53800000I0J-175000D01*
G01*
X123425000Y-54150000D01*
G75*
G02*
X123250000Y-54325000I-175000J0D01*
G01*
X121450000Y-54325000D01*
G75*
G02*
X121275000Y-54150000I0J175000D01*
G01*
G37*
G36*
G01*
X121275000Y-52880000D02*
X121275000Y-52530000D01*
G75*
G02*
X121450000Y-52355000I175000J0D01*
G01*
X123250000Y-52355000D01*
G75*
G02*
X123425000Y-52530000I0J-175000D01*
G01*
X123425000Y-52880000D01*
G75*
G02*
X123250000Y-53055000I-175000J0D01*
G01*
X121450000Y-53055000D01*
G75*
G02*
X121275000Y-52880000I0J175000D01*
G01*
G37*
G36*
G01*
X121275000Y-51610000D02*
X121275000Y-51260000D01*
G75*
G02*
X121450000Y-51085000I175000J0D01*
G01*
X123250000Y-51085000D01*
G75*
G02*
X123425000Y-51260000I0J-175000D01*
G01*
X123425000Y-51610000D01*
G75*
G02*
X123250000Y-51785000I-175000J0D01*
G01*
X121450000Y-51785000D01*
G75*
G02*
X121275000Y-51610000I0J175000D01*
G01*
G37*
%TD*%
%TO.C,R10*%
G36*
G01*
X126736000Y-72927738D02*
X126736000Y-73884262D01*
G75*
G02*
X126464262Y-74156000I-271738J0D01*
G01*
X125757738Y-74156000D01*
G75*
G02*
X125486000Y-73884262I0J271738D01*
G01*
X125486000Y-72927738D01*
G75*
G02*
X125757738Y-72656000I271738J0D01*
G01*
X126464262Y-72656000D01*
G75*
G02*
X126736000Y-72927738I0J-271738D01*
G01*
G37*
G36*
G01*
X128786000Y-72927738D02*
X128786000Y-73884262D01*
G75*
G02*
X128514262Y-74156000I-271738J0D01*
G01*
X127807738Y-74156000D01*
G75*
G02*
X127536000Y-73884262I0J271738D01*
G01*
X127536000Y-72927738D01*
G75*
G02*
X127807738Y-72656000I271738J0D01*
G01*
X128514262Y-72656000D01*
G75*
G02*
X128786000Y-72927738I0J-271738D01*
G01*
G37*
%TD*%
D11*
%TO.C,J9*%
X136779000Y-70612000D03*
D12*
X136779000Y-73152000D03*
%TD*%
D13*
%TO.C,H2*%
X111379000Y-82804000D03*
%TD*%
%TO.C,H1*%
X139700000Y-53213000D03*
%TD*%
D11*
%TO.C,J8*%
X141732000Y-70612000D03*
D12*
X141732000Y-73152000D03*
%TD*%
D11*
%TO.C,J7*%
X109855000Y-71755000D03*
X112395000Y-71755000D03*
X114935000Y-71755000D03*
D12*
X117475000Y-71755000D03*
%TD*%
D11*
%TO.C,J6*%
X109855000Y-66675000D03*
X112395000Y-66675000D03*
X114935000Y-66675000D03*
D12*
X117475000Y-66675000D03*
%TD*%
D11*
%TO.C,J5*%
X109855000Y-61595000D03*
X112395000Y-61595000D03*
X114935000Y-61595000D03*
D12*
X117475000Y-61595000D03*
%TD*%
D11*
%TO.C,J4*%
X109855000Y-56515000D03*
X112395000Y-56515000D03*
X114935000Y-56515000D03*
D12*
X117475000Y-56515000D03*
%TD*%
D11*
%TO.C,J3*%
X109728000Y-51435000D03*
X112268000Y-51435000D03*
X114808000Y-51435000D03*
D12*
X117348000Y-51435000D03*
%TD*%
D11*
%TO.C,J2*%
X118618000Y-84328000D03*
D12*
X118618000Y-81788000D03*
%TD*%
D11*
%TO.C,J1*%
X126238000Y-81788000D03*
D12*
X126238000Y-84328000D03*
%TD*%
M02*
