%TF.GenerationSoftware,KiCad,Pcbnew,(5.1.6)-1*%
%TF.CreationDate,2020-09-04T22:07:04+02:00*%
%TF.ProjectId,gpioexpander,6770696f-6578-4706-916e-6465722e6b69,rev?*%
%TF.SameCoordinates,Original*%
%TF.FileFunction,Soldermask,Bot*%
%TF.FilePolarity,Negative*%
%FSLAX46Y46*%
G04 Gerber Fmt 4.6, Leading zero omitted, Abs format (unit mm)*
G04 Created by KiCad (PCBNEW (5.1.6)-1) date 2020-09-04 22:07:04*
%MOMM*%
%LPD*%
G01*
G04 APERTURE LIST*
%ADD10C,1.000000*%
%ADD11C,8.700000*%
%ADD12R,1.800000X1.800000*%
%ADD13O,1.800000X1.800000*%
%ADD14C,2.100000*%
G04 APERTURE END LIST*
%TO.C,R8*%
G36*
G01*
X112238262Y-57893000D02*
X111281738Y-57893000D01*
G75*
G02*
X111010000Y-57621262I0J271738D01*
G01*
X111010000Y-56914738D01*
G75*
G02*
X111281738Y-56643000I271738J0D01*
G01*
X112238262Y-56643000D01*
G75*
G02*
X112510000Y-56914738I0J-271738D01*
G01*
X112510000Y-57621262D01*
G75*
G02*
X112238262Y-57893000I-271738J0D01*
G01*
G37*
G36*
G01*
X112238262Y-59943000D02*
X111281738Y-59943000D01*
G75*
G02*
X111010000Y-59671262I0J271738D01*
G01*
X111010000Y-58964738D01*
G75*
G02*
X111281738Y-58693000I271738J0D01*
G01*
X112238262Y-58693000D01*
G75*
G02*
X112510000Y-58964738I0J-271738D01*
G01*
X112510000Y-59671262D01*
G75*
G02*
X112238262Y-59943000I-271738J0D01*
G01*
G37*
%TD*%
%TO.C,R7*%
G36*
G01*
X109952262Y-57902000D02*
X108995738Y-57902000D01*
G75*
G02*
X108724000Y-57630262I0J271738D01*
G01*
X108724000Y-56923738D01*
G75*
G02*
X108995738Y-56652000I271738J0D01*
G01*
X109952262Y-56652000D01*
G75*
G02*
X110224000Y-56923738I0J-271738D01*
G01*
X110224000Y-57630262D01*
G75*
G02*
X109952262Y-57902000I-271738J0D01*
G01*
G37*
G36*
G01*
X109952262Y-59952000D02*
X108995738Y-59952000D01*
G75*
G02*
X108724000Y-59680262I0J271738D01*
G01*
X108724000Y-58973738D01*
G75*
G02*
X108995738Y-58702000I271738J0D01*
G01*
X109952262Y-58702000D01*
G75*
G02*
X110224000Y-58973738I0J-271738D01*
G01*
X110224000Y-59680262D01*
G75*
G02*
X109952262Y-59952000I-271738J0D01*
G01*
G37*
%TD*%
%TO.C,R5*%
G36*
G01*
X106162000Y-63529738D02*
X106162000Y-64486262D01*
G75*
G02*
X105890262Y-64758000I-271738J0D01*
G01*
X105183738Y-64758000D01*
G75*
G02*
X104912000Y-64486262I0J271738D01*
G01*
X104912000Y-63529738D01*
G75*
G02*
X105183738Y-63258000I271738J0D01*
G01*
X105890262Y-63258000D01*
G75*
G02*
X106162000Y-63529738I0J-271738D01*
G01*
G37*
G36*
G01*
X108212000Y-63529738D02*
X108212000Y-64486262D01*
G75*
G02*
X107940262Y-64758000I-271738J0D01*
G01*
X107233738Y-64758000D01*
G75*
G02*
X106962000Y-64486262I0J271738D01*
G01*
X106962000Y-63529738D01*
G75*
G02*
X107233738Y-63258000I271738J0D01*
G01*
X107940262Y-63258000D01*
G75*
G02*
X108212000Y-63529738I0J-271738D01*
G01*
G37*
%TD*%
%TO.C,R4*%
G36*
G01*
X106144000Y-61497738D02*
X106144000Y-62454262D01*
G75*
G02*
X105872262Y-62726000I-271738J0D01*
G01*
X105165738Y-62726000D01*
G75*
G02*
X104894000Y-62454262I0J271738D01*
G01*
X104894000Y-61497738D01*
G75*
G02*
X105165738Y-61226000I271738J0D01*
G01*
X105872262Y-61226000D01*
G75*
G02*
X106144000Y-61497738I0J-271738D01*
G01*
G37*
G36*
G01*
X108194000Y-61497738D02*
X108194000Y-62454262D01*
G75*
G02*
X107922262Y-62726000I-271738J0D01*
G01*
X107215738Y-62726000D01*
G75*
G02*
X106944000Y-62454262I0J271738D01*
G01*
X106944000Y-61497738D01*
G75*
G02*
X107215738Y-61226000I271738J0D01*
G01*
X107922262Y-61226000D01*
G75*
G02*
X108194000Y-61497738I0J-271738D01*
G01*
G37*
%TD*%
%TO.C,R3*%
G36*
G01*
X106162000Y-65688738D02*
X106162000Y-66645262D01*
G75*
G02*
X105890262Y-66917000I-271738J0D01*
G01*
X105183738Y-66917000D01*
G75*
G02*
X104912000Y-66645262I0J271738D01*
G01*
X104912000Y-65688738D01*
G75*
G02*
X105183738Y-65417000I271738J0D01*
G01*
X105890262Y-65417000D01*
G75*
G02*
X106162000Y-65688738I0J-271738D01*
G01*
G37*
G36*
G01*
X108212000Y-65688738D02*
X108212000Y-66645262D01*
G75*
G02*
X107940262Y-66917000I-271738J0D01*
G01*
X107233738Y-66917000D01*
G75*
G02*
X106962000Y-66645262I0J271738D01*
G01*
X106962000Y-65688738D01*
G75*
G02*
X107233738Y-65417000I271738J0D01*
G01*
X107940262Y-65417000D01*
G75*
G02*
X108212000Y-65688738I0J-271738D01*
G01*
G37*
%TD*%
%TO.C,R6*%
G36*
G01*
X114524262Y-57902000D02*
X113567738Y-57902000D01*
G75*
G02*
X113296000Y-57630262I0J271738D01*
G01*
X113296000Y-56923738D01*
G75*
G02*
X113567738Y-56652000I271738J0D01*
G01*
X114524262Y-56652000D01*
G75*
G02*
X114796000Y-56923738I0J-271738D01*
G01*
X114796000Y-57630262D01*
G75*
G02*
X114524262Y-57902000I-271738J0D01*
G01*
G37*
G36*
G01*
X114524262Y-59952000D02*
X113567738Y-59952000D01*
G75*
G02*
X113296000Y-59680262I0J271738D01*
G01*
X113296000Y-58973738D01*
G75*
G02*
X113567738Y-58702000I271738J0D01*
G01*
X114524262Y-58702000D01*
G75*
G02*
X114796000Y-58973738I0J-271738D01*
G01*
X114796000Y-59680262D01*
G75*
G02*
X114524262Y-59952000I-271738J0D01*
G01*
G37*
%TD*%
D10*
%TO.C,H2*%
X110230419Y-70109581D03*
X107950000Y-69165000D03*
X105669581Y-70109581D03*
X104725000Y-72390000D03*
X105669581Y-74670419D03*
X107950000Y-75615000D03*
X110230419Y-74670419D03*
X111175000Y-72390000D03*
D11*
X107950000Y-72390000D03*
%TD*%
D10*
%TO.C,H1*%
X134995419Y-70109581D03*
X132715000Y-69165000D03*
X130434581Y-70109581D03*
X129490000Y-72390000D03*
X130434581Y-74670419D03*
X132715000Y-75615000D03*
X134995419Y-74670419D03*
X135940000Y-72390000D03*
D11*
X132715000Y-72390000D03*
%TD*%
%TO.C,R1*%
G36*
G01*
X128316000Y-58301500D02*
X128316000Y-57776500D01*
G75*
G02*
X128578500Y-57514000I262500J0D01*
G01*
X129203500Y-57514000D01*
G75*
G02*
X129466000Y-57776500I0J-262500D01*
G01*
X129466000Y-58301500D01*
G75*
G02*
X129203500Y-58564000I-262500J0D01*
G01*
X128578500Y-58564000D01*
G75*
G02*
X128316000Y-58301500I0J262500D01*
G01*
G37*
G36*
G01*
X126566000Y-58301500D02*
X126566000Y-57776500D01*
G75*
G02*
X126828500Y-57514000I262500J0D01*
G01*
X127453500Y-57514000D01*
G75*
G02*
X127716000Y-57776500I0J-262500D01*
G01*
X127716000Y-58301500D01*
G75*
G02*
X127453500Y-58564000I-262500J0D01*
G01*
X126828500Y-58564000D01*
G75*
G02*
X126566000Y-58301500I0J262500D01*
G01*
G37*
%TD*%
D12*
%TO.C,J8*%
X105410000Y-58166000D03*
%TD*%
D13*
%TO.C,J1*%
X134620000Y-58293000D03*
D12*
X132080000Y-58293000D03*
%TD*%
D14*
%TO.C,SW1*%
X123975000Y-57785000D03*
X123975000Y-62285000D03*
X117475000Y-57785000D03*
X117475000Y-62285000D03*
%TD*%
D13*
%TO.C,J7*%
X134620000Y-90170000D03*
X134620000Y-87630000D03*
X134620000Y-85090000D03*
D12*
X134620000Y-82550000D03*
%TD*%
D13*
%TO.C,J6*%
X127508000Y-90170000D03*
X127508000Y-87630000D03*
X127508000Y-85090000D03*
D12*
X127508000Y-82550000D03*
%TD*%
D13*
%TO.C,J5*%
X120142000Y-90170000D03*
X120142000Y-87630000D03*
X120142000Y-85090000D03*
D12*
X120142000Y-82550000D03*
%TD*%
D13*
%TO.C,J4*%
X113030000Y-90170000D03*
X113030000Y-87630000D03*
X113030000Y-85090000D03*
D12*
X113030000Y-82550000D03*
%TD*%
D13*
%TO.C,J3*%
X105410000Y-90170000D03*
X105410000Y-87630000D03*
X105410000Y-85090000D03*
D12*
X105410000Y-82550000D03*
%TD*%
D13*
%TO.C,J2*%
X132080000Y-64135000D03*
D12*
X134620000Y-64135000D03*
%TD*%
M02*
