%TF.GenerationSoftware,KiCad,Pcbnew,(5.1.6)-1*%
%TF.CreationDate,2020-09-04T22:07:04+02:00*%
%TF.ProjectId,gpioexpander,6770696f-6578-4706-916e-6465722e6b69,rev?*%
%TF.SameCoordinates,Original*%
%TF.FileFunction,Copper,L1,Top*%
%TF.FilePolarity,Positive*%
%FSLAX46Y46*%
G04 Gerber Fmt 4.6, Leading zero omitted, Abs format (unit mm)*
G04 Created by KiCad (PCBNEW (5.1.6)-1) date 2020-09-04 22:07:04*
%MOMM*%
%LPD*%
G01*
G04 APERTURE LIST*
%TA.AperFunction,ComponentPad*%
%ADD10C,0.900000*%
%TD*%
%TA.AperFunction,ComponentPad*%
%ADD11C,8.600000*%
%TD*%
%TA.AperFunction,ComponentPad*%
%ADD12R,1.700000X1.700000*%
%TD*%
%TA.AperFunction,ComponentPad*%
%ADD13O,1.700000X1.700000*%
%TD*%
%TA.AperFunction,ComponentPad*%
%ADD14C,2.000000*%
%TD*%
%TA.AperFunction,ViaPad*%
%ADD15C,0.800000*%
%TD*%
%TA.AperFunction,Conductor*%
%ADD16C,0.250000*%
%TD*%
G04 APERTURE END LIST*
%TO.P,U1,24*%
%TO.N,+3V3*%
%TA.AperFunction,SMDPad,CuDef*%
G36*
G01*
X122394000Y-69950000D02*
X122394000Y-69750000D01*
G75*
G02*
X122494000Y-69650000I100000J0D01*
G01*
X123769000Y-69650000D01*
G75*
G02*
X123869000Y-69750000I0J-100000D01*
G01*
X123869000Y-69950000D01*
G75*
G02*
X123769000Y-70050000I-100000J0D01*
G01*
X122494000Y-70050000D01*
G75*
G02*
X122394000Y-69950000I0J100000D01*
G01*
G37*
%TD.AperFunction*%
%TO.P,U1,23*%
%TO.N,Net-(J2-Pad2)*%
%TA.AperFunction,SMDPad,CuDef*%
G36*
G01*
X122394000Y-70600000D02*
X122394000Y-70400000D01*
G75*
G02*
X122494000Y-70300000I100000J0D01*
G01*
X123769000Y-70300000D01*
G75*
G02*
X123869000Y-70400000I0J-100000D01*
G01*
X123869000Y-70600000D01*
G75*
G02*
X123769000Y-70700000I-100000J0D01*
G01*
X122494000Y-70700000D01*
G75*
G02*
X122394000Y-70600000I0J100000D01*
G01*
G37*
%TD.AperFunction*%
%TO.P,U1,22*%
%TO.N,Net-(J2-Pad1)*%
%TA.AperFunction,SMDPad,CuDef*%
G36*
G01*
X122394000Y-71250000D02*
X122394000Y-71050000D01*
G75*
G02*
X122494000Y-70950000I100000J0D01*
G01*
X123769000Y-70950000D01*
G75*
G02*
X123869000Y-71050000I0J-100000D01*
G01*
X123869000Y-71250000D01*
G75*
G02*
X123769000Y-71350000I-100000J0D01*
G01*
X122494000Y-71350000D01*
G75*
G02*
X122394000Y-71250000I0J100000D01*
G01*
G37*
%TD.AperFunction*%
%TO.P,U1,21*%
%TO.N,/A0*%
%TA.AperFunction,SMDPad,CuDef*%
G36*
G01*
X122394000Y-71900000D02*
X122394000Y-71700000D01*
G75*
G02*
X122494000Y-71600000I100000J0D01*
G01*
X123769000Y-71600000D01*
G75*
G02*
X123869000Y-71700000I0J-100000D01*
G01*
X123869000Y-71900000D01*
G75*
G02*
X123769000Y-72000000I-100000J0D01*
G01*
X122494000Y-72000000D01*
G75*
G02*
X122394000Y-71900000I0J100000D01*
G01*
G37*
%TD.AperFunction*%
%TO.P,U1,20*%
%TO.N,Net-(R1-Pad1)*%
%TA.AperFunction,SMDPad,CuDef*%
G36*
G01*
X122394000Y-72550000D02*
X122394000Y-72350000D01*
G75*
G02*
X122494000Y-72250000I100000J0D01*
G01*
X123769000Y-72250000D01*
G75*
G02*
X123869000Y-72350000I0J-100000D01*
G01*
X123869000Y-72550000D01*
G75*
G02*
X123769000Y-72650000I-100000J0D01*
G01*
X122494000Y-72650000D01*
G75*
G02*
X122394000Y-72550000I0J100000D01*
G01*
G37*
%TD.AperFunction*%
%TO.P,U1,19*%
%TO.N,Net-(J7-Pad3)*%
%TA.AperFunction,SMDPad,CuDef*%
G36*
G01*
X122394000Y-73200000D02*
X122394000Y-73000000D01*
G75*
G02*
X122494000Y-72900000I100000J0D01*
G01*
X123769000Y-72900000D01*
G75*
G02*
X123869000Y-73000000I0J-100000D01*
G01*
X123869000Y-73200000D01*
G75*
G02*
X123769000Y-73300000I-100000J0D01*
G01*
X122494000Y-73300000D01*
G75*
G02*
X122394000Y-73200000I0J100000D01*
G01*
G37*
%TD.AperFunction*%
%TO.P,U1,18*%
%TO.N,Net-(J7-Pad2)*%
%TA.AperFunction,SMDPad,CuDef*%
G36*
G01*
X122394000Y-73850000D02*
X122394000Y-73650000D01*
G75*
G02*
X122494000Y-73550000I100000J0D01*
G01*
X123769000Y-73550000D01*
G75*
G02*
X123869000Y-73650000I0J-100000D01*
G01*
X123869000Y-73850000D01*
G75*
G02*
X123769000Y-73950000I-100000J0D01*
G01*
X122494000Y-73950000D01*
G75*
G02*
X122394000Y-73850000I0J100000D01*
G01*
G37*
%TD.AperFunction*%
%TO.P,U1,17*%
%TO.N,Net-(J7-Pad1)*%
%TA.AperFunction,SMDPad,CuDef*%
G36*
G01*
X122394000Y-74500000D02*
X122394000Y-74300000D01*
G75*
G02*
X122494000Y-74200000I100000J0D01*
G01*
X123769000Y-74200000D01*
G75*
G02*
X123869000Y-74300000I0J-100000D01*
G01*
X123869000Y-74500000D01*
G75*
G02*
X123769000Y-74600000I-100000J0D01*
G01*
X122494000Y-74600000D01*
G75*
G02*
X122394000Y-74500000I0J100000D01*
G01*
G37*
%TD.AperFunction*%
%TO.P,U1,16*%
%TO.N,Net-(J6-Pad3)*%
%TA.AperFunction,SMDPad,CuDef*%
G36*
G01*
X122394000Y-75150000D02*
X122394000Y-74950000D01*
G75*
G02*
X122494000Y-74850000I100000J0D01*
G01*
X123769000Y-74850000D01*
G75*
G02*
X123869000Y-74950000I0J-100000D01*
G01*
X123869000Y-75150000D01*
G75*
G02*
X123769000Y-75250000I-100000J0D01*
G01*
X122494000Y-75250000D01*
G75*
G02*
X122394000Y-75150000I0J100000D01*
G01*
G37*
%TD.AperFunction*%
%TO.P,U1,15*%
%TO.N,Net-(J6-Pad2)*%
%TA.AperFunction,SMDPad,CuDef*%
G36*
G01*
X122394000Y-75800000D02*
X122394000Y-75600000D01*
G75*
G02*
X122494000Y-75500000I100000J0D01*
G01*
X123769000Y-75500000D01*
G75*
G02*
X123869000Y-75600000I0J-100000D01*
G01*
X123869000Y-75800000D01*
G75*
G02*
X123769000Y-75900000I-100000J0D01*
G01*
X122494000Y-75900000D01*
G75*
G02*
X122394000Y-75800000I0J100000D01*
G01*
G37*
%TD.AperFunction*%
%TO.P,U1,14*%
%TO.N,Net-(J6-Pad1)*%
%TA.AperFunction,SMDPad,CuDef*%
G36*
G01*
X122394000Y-76450000D02*
X122394000Y-76250000D01*
G75*
G02*
X122494000Y-76150000I100000J0D01*
G01*
X123769000Y-76150000D01*
G75*
G02*
X123869000Y-76250000I0J-100000D01*
G01*
X123869000Y-76450000D01*
G75*
G02*
X123769000Y-76550000I-100000J0D01*
G01*
X122494000Y-76550000D01*
G75*
G02*
X122394000Y-76450000I0J100000D01*
G01*
G37*
%TD.AperFunction*%
%TO.P,U1,13*%
%TO.N,Net-(J5-Pad3)*%
%TA.AperFunction,SMDPad,CuDef*%
G36*
G01*
X122394000Y-77100000D02*
X122394000Y-76900000D01*
G75*
G02*
X122494000Y-76800000I100000J0D01*
G01*
X123769000Y-76800000D01*
G75*
G02*
X123869000Y-76900000I0J-100000D01*
G01*
X123869000Y-77100000D01*
G75*
G02*
X123769000Y-77200000I-100000J0D01*
G01*
X122494000Y-77200000D01*
G75*
G02*
X122394000Y-77100000I0J100000D01*
G01*
G37*
%TD.AperFunction*%
%TO.P,U1,12*%
%TO.N,GND*%
%TA.AperFunction,SMDPad,CuDef*%
G36*
G01*
X116669000Y-77100000D02*
X116669000Y-76900000D01*
G75*
G02*
X116769000Y-76800000I100000J0D01*
G01*
X118044000Y-76800000D01*
G75*
G02*
X118144000Y-76900000I0J-100000D01*
G01*
X118144000Y-77100000D01*
G75*
G02*
X118044000Y-77200000I-100000J0D01*
G01*
X116769000Y-77200000D01*
G75*
G02*
X116669000Y-77100000I0J100000D01*
G01*
G37*
%TD.AperFunction*%
%TO.P,U1,11*%
%TO.N,Net-(J5-Pad2)*%
%TA.AperFunction,SMDPad,CuDef*%
G36*
G01*
X116669000Y-76450000D02*
X116669000Y-76250000D01*
G75*
G02*
X116769000Y-76150000I100000J0D01*
G01*
X118044000Y-76150000D01*
G75*
G02*
X118144000Y-76250000I0J-100000D01*
G01*
X118144000Y-76450000D01*
G75*
G02*
X118044000Y-76550000I-100000J0D01*
G01*
X116769000Y-76550000D01*
G75*
G02*
X116669000Y-76450000I0J100000D01*
G01*
G37*
%TD.AperFunction*%
%TO.P,U1,10*%
%TO.N,Net-(J5-Pad1)*%
%TA.AperFunction,SMDPad,CuDef*%
G36*
G01*
X116669000Y-75800000D02*
X116669000Y-75600000D01*
G75*
G02*
X116769000Y-75500000I100000J0D01*
G01*
X118044000Y-75500000D01*
G75*
G02*
X118144000Y-75600000I0J-100000D01*
G01*
X118144000Y-75800000D01*
G75*
G02*
X118044000Y-75900000I-100000J0D01*
G01*
X116769000Y-75900000D01*
G75*
G02*
X116669000Y-75800000I0J100000D01*
G01*
G37*
%TD.AperFunction*%
%TO.P,U1,9*%
%TO.N,Net-(J4-Pad3)*%
%TA.AperFunction,SMDPad,CuDef*%
G36*
G01*
X116669000Y-75150000D02*
X116669000Y-74950000D01*
G75*
G02*
X116769000Y-74850000I100000J0D01*
G01*
X118044000Y-74850000D01*
G75*
G02*
X118144000Y-74950000I0J-100000D01*
G01*
X118144000Y-75150000D01*
G75*
G02*
X118044000Y-75250000I-100000J0D01*
G01*
X116769000Y-75250000D01*
G75*
G02*
X116669000Y-75150000I0J100000D01*
G01*
G37*
%TD.AperFunction*%
%TO.P,U1,8*%
%TO.N,Net-(J4-Pad2)*%
%TA.AperFunction,SMDPad,CuDef*%
G36*
G01*
X116669000Y-74500000D02*
X116669000Y-74300000D01*
G75*
G02*
X116769000Y-74200000I100000J0D01*
G01*
X118044000Y-74200000D01*
G75*
G02*
X118144000Y-74300000I0J-100000D01*
G01*
X118144000Y-74500000D01*
G75*
G02*
X118044000Y-74600000I-100000J0D01*
G01*
X116769000Y-74600000D01*
G75*
G02*
X116669000Y-74500000I0J100000D01*
G01*
G37*
%TD.AperFunction*%
%TO.P,U1,7*%
%TO.N,Net-(J4-Pad1)*%
%TA.AperFunction,SMDPad,CuDef*%
G36*
G01*
X116669000Y-73850000D02*
X116669000Y-73650000D01*
G75*
G02*
X116769000Y-73550000I100000J0D01*
G01*
X118044000Y-73550000D01*
G75*
G02*
X118144000Y-73650000I0J-100000D01*
G01*
X118144000Y-73850000D01*
G75*
G02*
X118044000Y-73950000I-100000J0D01*
G01*
X116769000Y-73950000D01*
G75*
G02*
X116669000Y-73850000I0J100000D01*
G01*
G37*
%TD.AperFunction*%
%TO.P,U1,6*%
%TO.N,Net-(J3-Pad3)*%
%TA.AperFunction,SMDPad,CuDef*%
G36*
G01*
X116669000Y-73200000D02*
X116669000Y-73000000D01*
G75*
G02*
X116769000Y-72900000I100000J0D01*
G01*
X118044000Y-72900000D01*
G75*
G02*
X118144000Y-73000000I0J-100000D01*
G01*
X118144000Y-73200000D01*
G75*
G02*
X118044000Y-73300000I-100000J0D01*
G01*
X116769000Y-73300000D01*
G75*
G02*
X116669000Y-73200000I0J100000D01*
G01*
G37*
%TD.AperFunction*%
%TO.P,U1,5*%
%TO.N,Net-(J3-Pad2)*%
%TA.AperFunction,SMDPad,CuDef*%
G36*
G01*
X116669000Y-72550000D02*
X116669000Y-72350000D01*
G75*
G02*
X116769000Y-72250000I100000J0D01*
G01*
X118044000Y-72250000D01*
G75*
G02*
X118144000Y-72350000I0J-100000D01*
G01*
X118144000Y-72550000D01*
G75*
G02*
X118044000Y-72650000I-100000J0D01*
G01*
X116769000Y-72650000D01*
G75*
G02*
X116669000Y-72550000I0J100000D01*
G01*
G37*
%TD.AperFunction*%
%TO.P,U1,4*%
%TO.N,Net-(J3-Pad1)*%
%TA.AperFunction,SMDPad,CuDef*%
G36*
G01*
X116669000Y-71900000D02*
X116669000Y-71700000D01*
G75*
G02*
X116769000Y-71600000I100000J0D01*
G01*
X118044000Y-71600000D01*
G75*
G02*
X118144000Y-71700000I0J-100000D01*
G01*
X118144000Y-71900000D01*
G75*
G02*
X118044000Y-72000000I-100000J0D01*
G01*
X116769000Y-72000000D01*
G75*
G02*
X116669000Y-71900000I0J100000D01*
G01*
G37*
%TD.AperFunction*%
%TO.P,U1,3*%
%TO.N,/A2*%
%TA.AperFunction,SMDPad,CuDef*%
G36*
G01*
X116669000Y-71250000D02*
X116669000Y-71050000D01*
G75*
G02*
X116769000Y-70950000I100000J0D01*
G01*
X118044000Y-70950000D01*
G75*
G02*
X118144000Y-71050000I0J-100000D01*
G01*
X118144000Y-71250000D01*
G75*
G02*
X118044000Y-71350000I-100000J0D01*
G01*
X116769000Y-71350000D01*
G75*
G02*
X116669000Y-71250000I0J100000D01*
G01*
G37*
%TD.AperFunction*%
%TO.P,U1,2*%
%TO.N,/A1*%
%TA.AperFunction,SMDPad,CuDef*%
G36*
G01*
X116669000Y-70600000D02*
X116669000Y-70400000D01*
G75*
G02*
X116769000Y-70300000I100000J0D01*
G01*
X118044000Y-70300000D01*
G75*
G02*
X118144000Y-70400000I0J-100000D01*
G01*
X118144000Y-70600000D01*
G75*
G02*
X118044000Y-70700000I-100000J0D01*
G01*
X116769000Y-70700000D01*
G75*
G02*
X116669000Y-70600000I0J100000D01*
G01*
G37*
%TD.AperFunction*%
%TO.P,U1,1*%
%TO.N,Net-(J8-Pad1)*%
%TA.AperFunction,SMDPad,CuDef*%
G36*
G01*
X116669000Y-69950000D02*
X116669000Y-69750000D01*
G75*
G02*
X116769000Y-69650000I100000J0D01*
G01*
X118044000Y-69650000D01*
G75*
G02*
X118144000Y-69750000I0J-100000D01*
G01*
X118144000Y-69950000D01*
G75*
G02*
X118044000Y-70050000I-100000J0D01*
G01*
X116769000Y-70050000D01*
G75*
G02*
X116669000Y-69950000I0J100000D01*
G01*
G37*
%TD.AperFunction*%
%TD*%
D10*
%TO.P,H2,1*%
%TO.N,GND*%
X110230419Y-70109581D03*
X107950000Y-69165000D03*
X105669581Y-70109581D03*
X104725000Y-72390000D03*
X105669581Y-74670419D03*
X107950000Y-75615000D03*
X110230419Y-74670419D03*
X111175000Y-72390000D03*
D11*
X107950000Y-72390000D03*
%TD*%
D10*
%TO.P,H1,1*%
%TO.N,GND*%
X134995419Y-70109581D03*
X132715000Y-69165000D03*
X130434581Y-70109581D03*
X129490000Y-72390000D03*
X130434581Y-74670419D03*
X132715000Y-75615000D03*
X134995419Y-74670419D03*
X135940000Y-72390000D03*
D11*
X132715000Y-72390000D03*
%TD*%
%TO.P,R2,2*%
%TO.N,+3V3*%
%TA.AperFunction,SMDPad,CuDef*%
G36*
G01*
X118093000Y-65515500D02*
X118093000Y-65040500D01*
G75*
G02*
X118330500Y-64803000I237500J0D01*
G01*
X118905500Y-64803000D01*
G75*
G02*
X119143000Y-65040500I0J-237500D01*
G01*
X119143000Y-65515500D01*
G75*
G02*
X118905500Y-65753000I-237500J0D01*
G01*
X118330500Y-65753000D01*
G75*
G02*
X118093000Y-65515500I0J237500D01*
G01*
G37*
%TD.AperFunction*%
%TO.P,R2,1*%
%TO.N,Net-(J8-Pad1)*%
%TA.AperFunction,SMDPad,CuDef*%
G36*
G01*
X116343000Y-65515500D02*
X116343000Y-65040500D01*
G75*
G02*
X116580500Y-64803000I237500J0D01*
G01*
X117155500Y-64803000D01*
G75*
G02*
X117393000Y-65040500I0J-237500D01*
G01*
X117393000Y-65515500D01*
G75*
G02*
X117155500Y-65753000I-237500J0D01*
G01*
X116580500Y-65753000D01*
G75*
G02*
X116343000Y-65515500I0J237500D01*
G01*
G37*
%TD.AperFunction*%
%TD*%
D12*
%TO.P,J8,1*%
%TO.N,Net-(J8-Pad1)*%
X105410000Y-58166000D03*
%TD*%
D13*
%TO.P,J1,2*%
%TO.N,GND*%
X134620000Y-58293000D03*
D12*
%TO.P,J1,1*%
%TO.N,+3V3*%
X132080000Y-58293000D03*
%TD*%
D14*
%TO.P,SW1,1*%
%TO.N,Net-(R1-Pad1)*%
X123975000Y-57785000D03*
%TO.P,SW1,2*%
%TO.N,+3V3*%
X123975000Y-62285000D03*
%TO.P,SW1,1*%
%TO.N,Net-(R1-Pad1)*%
X117475000Y-57785000D03*
%TO.P,SW1,2*%
%TO.N,+3V3*%
X117475000Y-62285000D03*
%TD*%
D13*
%TO.P,J7,4*%
%TO.N,GND*%
X134620000Y-90170000D03*
%TO.P,J7,3*%
%TO.N,Net-(J7-Pad3)*%
X134620000Y-87630000D03*
%TO.P,J7,2*%
%TO.N,Net-(J7-Pad2)*%
X134620000Y-85090000D03*
D12*
%TO.P,J7,1*%
%TO.N,Net-(J7-Pad1)*%
X134620000Y-82550000D03*
%TD*%
D13*
%TO.P,J6,4*%
%TO.N,GND*%
X127508000Y-90170000D03*
%TO.P,J6,3*%
%TO.N,Net-(J6-Pad3)*%
X127508000Y-87630000D03*
%TO.P,J6,2*%
%TO.N,Net-(J6-Pad2)*%
X127508000Y-85090000D03*
D12*
%TO.P,J6,1*%
%TO.N,Net-(J6-Pad1)*%
X127508000Y-82550000D03*
%TD*%
D13*
%TO.P,J5,4*%
%TO.N,GND*%
X120142000Y-90170000D03*
%TO.P,J5,3*%
%TO.N,Net-(J5-Pad3)*%
X120142000Y-87630000D03*
%TO.P,J5,2*%
%TO.N,Net-(J5-Pad2)*%
X120142000Y-85090000D03*
D12*
%TO.P,J5,1*%
%TO.N,Net-(J5-Pad1)*%
X120142000Y-82550000D03*
%TD*%
D13*
%TO.P,J4,4*%
%TO.N,GND*%
X113030000Y-90170000D03*
%TO.P,J4,3*%
%TO.N,Net-(J4-Pad3)*%
X113030000Y-87630000D03*
%TO.P,J4,2*%
%TO.N,Net-(J4-Pad2)*%
X113030000Y-85090000D03*
D12*
%TO.P,J4,1*%
%TO.N,Net-(J4-Pad1)*%
X113030000Y-82550000D03*
%TD*%
D13*
%TO.P,J3,4*%
%TO.N,GND*%
X105410000Y-90170000D03*
%TO.P,J3,3*%
%TO.N,Net-(J3-Pad3)*%
X105410000Y-87630000D03*
%TO.P,J3,2*%
%TO.N,Net-(J3-Pad2)*%
X105410000Y-85090000D03*
D12*
%TO.P,J3,1*%
%TO.N,Net-(J3-Pad1)*%
X105410000Y-82550000D03*
%TD*%
D13*
%TO.P,J2,2*%
%TO.N,Net-(J2-Pad2)*%
X132080000Y-64135000D03*
D12*
%TO.P,J2,1*%
%TO.N,Net-(J2-Pad1)*%
X134620000Y-64135000D03*
%TD*%
D15*
%TO.N,/A0*%
X121412000Y-71664990D03*
%TO.N,/A2*%
X109383990Y-64008000D03*
%TO.N,/A1*%
X110109000Y-61976000D03*
%TD*%
D16*
%TO.N,+3V3*%
X124675000Y-62985000D02*
X123975000Y-62285000D01*
X127967000Y-58293000D02*
X123975000Y-62285000D01*
X132334000Y-58293000D02*
X127967000Y-58293000D01*
X123975000Y-68834000D02*
X123131500Y-69850000D01*
X123975000Y-62285000D02*
X123975000Y-68834000D01*
X118618000Y-63428000D02*
X117475000Y-62285000D01*
X118618000Y-65278000D02*
X118618000Y-63428000D01*
%TO.N,Net-(J2-Pad2)*%
X123820058Y-70500000D02*
X123131500Y-70500000D01*
X132080000Y-64135000D02*
X130185058Y-64135000D01*
X130185058Y-64135000D02*
X123820058Y-70500000D01*
%TO.N,Net-(J2-Pad1)*%
X134620000Y-64135000D02*
X132334000Y-66421000D01*
X123820058Y-71150000D02*
X123131500Y-71150000D01*
X128549058Y-66421000D02*
X123820058Y-71150000D01*
X132334000Y-66421000D02*
X128549058Y-66421000D01*
%TO.N,GND*%
X117406500Y-85793500D02*
X113030000Y-90170000D01*
X117406500Y-77000000D02*
X117406500Y-85793500D01*
%TO.N,Net-(R1-Pad1)*%
X117475000Y-57785000D02*
X123975000Y-57785000D01*
X122234000Y-72450000D02*
X123131500Y-72450000D01*
X122167000Y-72517000D02*
X122234000Y-72450000D01*
X122174000Y-59586000D02*
X122174000Y-68707000D01*
X120650000Y-70231000D02*
X120650000Y-72136000D01*
X122174000Y-68707000D02*
X120650000Y-70231000D01*
X121031000Y-72517000D02*
X122167000Y-72517000D01*
X123975000Y-57785000D02*
X122174000Y-59586000D01*
X120650000Y-72136000D02*
X121031000Y-72517000D01*
%TO.N,Net-(J7-Pad3)*%
X136245011Y-86004989D02*
X134620000Y-87630000D01*
X136245011Y-81253599D02*
X136245011Y-86004989D01*
X135916402Y-80924990D02*
X136245011Y-81253599D01*
X134137989Y-80924989D02*
X135916402Y-80924990D01*
X126313000Y-73100000D02*
X134137989Y-80924989D01*
X123131500Y-73100000D02*
X126313000Y-73100000D01*
%TO.N,Net-(J7-Pad2)*%
X135795001Y-83914999D02*
X134620000Y-85090000D01*
X135795001Y-81439999D02*
X135795001Y-83914999D01*
X135730001Y-81374999D02*
X135795001Y-81439999D01*
X125885000Y-73750000D02*
X133509999Y-81374999D01*
X133509999Y-81374999D02*
X135730001Y-81374999D01*
X123131500Y-73750000D02*
X125885000Y-73750000D01*
%TO.N,Net-(J7-Pad1)*%
X133520000Y-82550000D02*
X134620000Y-82550000D01*
X125494990Y-74524990D02*
X133520000Y-82550000D01*
X123165990Y-74524990D02*
X125494990Y-74524990D01*
X123131500Y-74490500D02*
X123165990Y-74524990D01*
X123131500Y-74400000D02*
X123131500Y-74490500D01*
%TO.N,Net-(J6-Pad3)*%
X129133011Y-86004989D02*
X127508000Y-87630000D01*
X129133011Y-79727191D02*
X129133011Y-86004989D01*
X124455820Y-75050000D02*
X129133011Y-79727191D01*
X123131500Y-75050000D02*
X124455820Y-75050000D01*
%TO.N,Net-(J6-Pad2)*%
X124469410Y-75700000D02*
X123131500Y-75700000D01*
X128683001Y-79913591D02*
X124469410Y-75700000D01*
X128683001Y-83914999D02*
X128683001Y-79913591D01*
X127508000Y-85090000D02*
X128683001Y-83914999D01*
%TO.N,Net-(J6-Pad1)*%
X123131500Y-76350000D02*
X124483000Y-76350000D01*
X127508000Y-79375000D02*
X127508000Y-82550000D01*
X124483000Y-76350000D02*
X127508000Y-79375000D01*
%TO.N,Net-(J5-Pad3)*%
X121793000Y-77597000D02*
X122382127Y-77043127D01*
X120142000Y-87630000D02*
X121793000Y-86233000D01*
X122382127Y-77043127D02*
X123131500Y-77000000D01*
X121793000Y-86233000D02*
X121793000Y-77597000D01*
%TO.N,Net-(J5-Pad2)*%
X117406500Y-76350000D02*
X116840000Y-76350000D01*
X118966999Y-83914999D02*
X120142000Y-85090000D01*
X118966999Y-77221941D02*
X118966999Y-83914999D01*
X118095058Y-76350000D02*
X118966999Y-77221941D01*
X117406500Y-76350000D02*
X118095058Y-76350000D01*
%TO.N,Net-(J5-Pad1)*%
X120142000Y-77698000D02*
X120142000Y-82550000D01*
X118144000Y-75700000D02*
X120142000Y-77698000D01*
X117406500Y-75700000D02*
X118144000Y-75700000D01*
%TO.N,Net-(J4-Pad3)*%
X115258010Y-76460990D02*
X115258010Y-85401990D01*
X115258010Y-85401990D02*
X113030000Y-87630000D01*
X116669000Y-75050000D02*
X115258010Y-76460990D01*
X117406500Y-75050000D02*
X116669000Y-75050000D01*
%TO.N,Net-(J4-Pad2)*%
X116682590Y-74400000D02*
X117406500Y-74400000D01*
X114808000Y-83312000D02*
X114808001Y-76274589D01*
X114808001Y-76274589D02*
X116682590Y-74400000D01*
X113030000Y-85090000D02*
X114808000Y-83312000D01*
%TO.N,Net-(J4-Pad1)*%
X114357983Y-76088197D02*
X116696180Y-73750000D01*
X116696180Y-73750000D02*
X117406500Y-73750000D01*
X114357983Y-81222017D02*
X114357983Y-76088197D01*
X113030000Y-82550000D02*
X114357983Y-81222017D01*
%TO.N,Net-(J3-Pad3)*%
X116709770Y-73100000D02*
X117406500Y-73100000D01*
X113907973Y-75901797D02*
X116709770Y-73100000D01*
X113907974Y-79132026D02*
X113907973Y-75901797D01*
X105410000Y-87630000D02*
X113907974Y-79132026D01*
%TO.N,Net-(J3-Pad2)*%
X116717942Y-72450000D02*
X117406500Y-72450000D01*
X113457965Y-75709977D02*
X116717942Y-72450000D01*
X113457965Y-78244117D02*
X113457965Y-75709977D01*
X106612081Y-85090000D02*
X113457965Y-78244117D01*
X105410000Y-85090000D02*
X106612081Y-85090000D01*
%TO.N,Net-(J3-Pad1)*%
X116717942Y-71800000D02*
X117406500Y-71800000D01*
X105967942Y-82550000D02*
X116717942Y-71800000D01*
X105410000Y-82550000D02*
X105967942Y-82550000D01*
%TO.N,Net-(J8-Pad1)*%
X116868000Y-69311500D02*
X117406500Y-69850000D01*
X114808000Y-58166000D02*
X115316000Y-58674000D01*
X105410000Y-58166000D02*
X114808000Y-58166000D01*
X115316000Y-58674000D02*
X115316000Y-63726000D01*
X115316000Y-63726000D02*
X116868000Y-65278000D01*
X116868000Y-65278000D02*
X116868000Y-69311500D01*
%TO.N,/A0*%
X121547010Y-71800000D02*
X123131500Y-71800000D01*
X121412000Y-71664990D02*
X121547010Y-71800000D01*
%TO.N,/A2*%
X117406500Y-71150000D02*
X115809766Y-71150000D01*
X109383990Y-64724224D02*
X109383990Y-64008000D01*
X115809766Y-71150000D02*
X109383990Y-64724224D01*
%TO.N,/A1*%
X117406500Y-70500000D02*
X115839000Y-70500000D01*
X110109000Y-64770000D02*
X110109000Y-61976000D01*
X115839000Y-70500000D02*
X110109000Y-64770000D01*
%TD*%
M02*
