M48
; DRILL file {KiCad (5.1.6)-1} date 09/14/20 23:40:02
; FORMAT={-:-/ absolute / inch / decimal}
; #@! TF.CreationDate,2020-09-14T23:40:02+02:00
; #@! TF.GenerationSoftware,Kicad,Pcbnew,(5.1.6)-1
; #@! TF.FileFunction,Plated,1,2,PTH
FMAT,2
INCH
T1C0.0157
T2C0.0394
T3C0.0433
T4C0.1260
%
G90
G05
T1
X4.42Y-2.9
X4.4967Y-2.7726
X4.935Y-2.795
T2
X4.49Y-2.405
X4.49Y-2.505
X4.15Y-3.25
X4.15Y-3.35
X4.15Y-3.45
X4.15Y-3.55
X4.73Y-3.25
X4.73Y-3.35
X4.73Y-3.45
X4.73Y-3.55
X4.45Y-3.25
X4.45Y-3.35
X4.45Y-3.45
X4.45Y-3.55
X5.3Y-3.25
X5.3Y-3.35
X5.3Y-3.45
X5.3Y-3.55
X4.95Y-2.425
X4.95Y-2.525
X5.02Y-3.25
X5.02Y-3.35
X5.02Y-3.45
X5.02Y-3.55
X4.28Y-2.835
T3
X5.0591Y-2.6778
X5.0591Y-2.855
X5.315Y-2.6778
X5.315Y-2.855
T4
X5.245Y-2.45
X4.225Y-2.45
T0
M30
