%TF.GenerationSoftware,KiCad,Pcbnew,(5.1.6)-1*%
%TF.CreationDate,2020-09-04T22:07:04+02:00*%
%TF.ProjectId,gpioexpander,6770696f-6578-4706-916e-6465722e6b69,rev?*%
%TF.SameCoordinates,Original*%
%TF.FileFunction,Paste,Bot*%
%TF.FilePolarity,Positive*%
%FSLAX46Y46*%
G04 Gerber Fmt 4.6, Leading zero omitted, Abs format (unit mm)*
G04 Created by KiCad (PCBNEW (5.1.6)-1) date 2020-09-04 22:07:04*
%MOMM*%
%LPD*%
G01*
G04 APERTURE LIST*
G04 APERTURE END LIST*
%TO.C,R8*%
G36*
G01*
X112210001Y-57843000D02*
X111309999Y-57843000D01*
G75*
G02*
X111060000Y-57593001I0J249999D01*
G01*
X111060000Y-56942999D01*
G75*
G02*
X111309999Y-56693000I249999J0D01*
G01*
X112210001Y-56693000D01*
G75*
G02*
X112460000Y-56942999I0J-249999D01*
G01*
X112460000Y-57593001D01*
G75*
G02*
X112210001Y-57843000I-249999J0D01*
G01*
G37*
G36*
G01*
X112210001Y-59893000D02*
X111309999Y-59893000D01*
G75*
G02*
X111060000Y-59643001I0J249999D01*
G01*
X111060000Y-58992999D01*
G75*
G02*
X111309999Y-58743000I249999J0D01*
G01*
X112210001Y-58743000D01*
G75*
G02*
X112460000Y-58992999I0J-249999D01*
G01*
X112460000Y-59643001D01*
G75*
G02*
X112210001Y-59893000I-249999J0D01*
G01*
G37*
%TD*%
%TO.C,R7*%
G36*
G01*
X109924001Y-57852000D02*
X109023999Y-57852000D01*
G75*
G02*
X108774000Y-57602001I0J249999D01*
G01*
X108774000Y-56951999D01*
G75*
G02*
X109023999Y-56702000I249999J0D01*
G01*
X109924001Y-56702000D01*
G75*
G02*
X110174000Y-56951999I0J-249999D01*
G01*
X110174000Y-57602001D01*
G75*
G02*
X109924001Y-57852000I-249999J0D01*
G01*
G37*
G36*
G01*
X109924001Y-59902000D02*
X109023999Y-59902000D01*
G75*
G02*
X108774000Y-59652001I0J249999D01*
G01*
X108774000Y-59001999D01*
G75*
G02*
X109023999Y-58752000I249999J0D01*
G01*
X109924001Y-58752000D01*
G75*
G02*
X110174000Y-59001999I0J-249999D01*
G01*
X110174000Y-59652001D01*
G75*
G02*
X109924001Y-59902000I-249999J0D01*
G01*
G37*
%TD*%
%TO.C,R5*%
G36*
G01*
X106112000Y-63557999D02*
X106112000Y-64458001D01*
G75*
G02*
X105862001Y-64708000I-249999J0D01*
G01*
X105211999Y-64708000D01*
G75*
G02*
X104962000Y-64458001I0J249999D01*
G01*
X104962000Y-63557999D01*
G75*
G02*
X105211999Y-63308000I249999J0D01*
G01*
X105862001Y-63308000D01*
G75*
G02*
X106112000Y-63557999I0J-249999D01*
G01*
G37*
G36*
G01*
X108162000Y-63557999D02*
X108162000Y-64458001D01*
G75*
G02*
X107912001Y-64708000I-249999J0D01*
G01*
X107261999Y-64708000D01*
G75*
G02*
X107012000Y-64458001I0J249999D01*
G01*
X107012000Y-63557999D01*
G75*
G02*
X107261999Y-63308000I249999J0D01*
G01*
X107912001Y-63308000D01*
G75*
G02*
X108162000Y-63557999I0J-249999D01*
G01*
G37*
%TD*%
%TO.C,R4*%
G36*
G01*
X106094000Y-61525999D02*
X106094000Y-62426001D01*
G75*
G02*
X105844001Y-62676000I-249999J0D01*
G01*
X105193999Y-62676000D01*
G75*
G02*
X104944000Y-62426001I0J249999D01*
G01*
X104944000Y-61525999D01*
G75*
G02*
X105193999Y-61276000I249999J0D01*
G01*
X105844001Y-61276000D01*
G75*
G02*
X106094000Y-61525999I0J-249999D01*
G01*
G37*
G36*
G01*
X108144000Y-61525999D02*
X108144000Y-62426001D01*
G75*
G02*
X107894001Y-62676000I-249999J0D01*
G01*
X107243999Y-62676000D01*
G75*
G02*
X106994000Y-62426001I0J249999D01*
G01*
X106994000Y-61525999D01*
G75*
G02*
X107243999Y-61276000I249999J0D01*
G01*
X107894001Y-61276000D01*
G75*
G02*
X108144000Y-61525999I0J-249999D01*
G01*
G37*
%TD*%
%TO.C,R3*%
G36*
G01*
X106112000Y-65716999D02*
X106112000Y-66617001D01*
G75*
G02*
X105862001Y-66867000I-249999J0D01*
G01*
X105211999Y-66867000D01*
G75*
G02*
X104962000Y-66617001I0J249999D01*
G01*
X104962000Y-65716999D01*
G75*
G02*
X105211999Y-65467000I249999J0D01*
G01*
X105862001Y-65467000D01*
G75*
G02*
X106112000Y-65716999I0J-249999D01*
G01*
G37*
G36*
G01*
X108162000Y-65716999D02*
X108162000Y-66617001D01*
G75*
G02*
X107912001Y-66867000I-249999J0D01*
G01*
X107261999Y-66867000D01*
G75*
G02*
X107012000Y-66617001I0J249999D01*
G01*
X107012000Y-65716999D01*
G75*
G02*
X107261999Y-65467000I249999J0D01*
G01*
X107912001Y-65467000D01*
G75*
G02*
X108162000Y-65716999I0J-249999D01*
G01*
G37*
%TD*%
%TO.C,R6*%
G36*
G01*
X114496001Y-57852000D02*
X113595999Y-57852000D01*
G75*
G02*
X113346000Y-57602001I0J249999D01*
G01*
X113346000Y-56951999D01*
G75*
G02*
X113595999Y-56702000I249999J0D01*
G01*
X114496001Y-56702000D01*
G75*
G02*
X114746000Y-56951999I0J-249999D01*
G01*
X114746000Y-57602001D01*
G75*
G02*
X114496001Y-57852000I-249999J0D01*
G01*
G37*
G36*
G01*
X114496001Y-59902000D02*
X113595999Y-59902000D01*
G75*
G02*
X113346000Y-59652001I0J249999D01*
G01*
X113346000Y-59001999D01*
G75*
G02*
X113595999Y-58752000I249999J0D01*
G01*
X114496001Y-58752000D01*
G75*
G02*
X114746000Y-59001999I0J-249999D01*
G01*
X114746000Y-59652001D01*
G75*
G02*
X114496001Y-59902000I-249999J0D01*
G01*
G37*
%TD*%
%TO.C,R1*%
G36*
G01*
X128366000Y-58276500D02*
X128366000Y-57801500D01*
G75*
G02*
X128603500Y-57564000I237500J0D01*
G01*
X129178500Y-57564000D01*
G75*
G02*
X129416000Y-57801500I0J-237500D01*
G01*
X129416000Y-58276500D01*
G75*
G02*
X129178500Y-58514000I-237500J0D01*
G01*
X128603500Y-58514000D01*
G75*
G02*
X128366000Y-58276500I0J237500D01*
G01*
G37*
G36*
G01*
X126616000Y-58276500D02*
X126616000Y-57801500D01*
G75*
G02*
X126853500Y-57564000I237500J0D01*
G01*
X127428500Y-57564000D01*
G75*
G02*
X127666000Y-57801500I0J-237500D01*
G01*
X127666000Y-58276500D01*
G75*
G02*
X127428500Y-58514000I-237500J0D01*
G01*
X126853500Y-58514000D01*
G75*
G02*
X126616000Y-58276500I0J237500D01*
G01*
G37*
%TD*%
M02*
