%TF.GenerationSoftware,KiCad,Pcbnew,(5.1.6)-1*%
%TF.CreationDate,2020-09-04T22:07:04+02:00*%
%TF.ProjectId,gpioexpander,6770696f-6578-4706-916e-6465722e6b69,rev?*%
%TF.SameCoordinates,Original*%
%TF.FileFunction,Legend,Bot*%
%TF.FilePolarity,Positive*%
%FSLAX46Y46*%
G04 Gerber Fmt 4.6, Leading zero omitted, Abs format (unit mm)*
G04 Created by KiCad (PCBNEW (5.1.6)-1) date 2020-09-04 22:07:04*
%MOMM*%
%LPD*%
G01*
G04 APERTURE LIST*
%ADD10C,0.150000*%
%ADD11C,0.120000*%
G04 APERTURE END LIST*
D10*
X109934285Y-62142666D02*
X109458095Y-62142666D01*
X110029523Y-62428380D02*
X109696190Y-61428380D01*
X109362857Y-62428380D01*
X108505714Y-62428380D02*
X109077142Y-62428380D01*
X108791428Y-62428380D02*
X108791428Y-61428380D01*
X108886666Y-61571238D01*
X108981904Y-61666476D01*
X109077142Y-61714095D01*
X109934285Y-64174666D02*
X109458095Y-64174666D01*
X110029523Y-64460380D02*
X109696190Y-63460380D01*
X109362857Y-64460380D01*
X109077142Y-63555619D02*
X109029523Y-63508000D01*
X108934285Y-63460380D01*
X108696190Y-63460380D01*
X108600952Y-63508000D01*
X108553333Y-63555619D01*
X108505714Y-63650857D01*
X108505714Y-63746095D01*
X108553333Y-63888952D01*
X109124761Y-64460380D01*
X108505714Y-64460380D01*
X110061285Y-66333666D02*
X109585095Y-66333666D01*
X110156523Y-66619380D02*
X109823190Y-65619380D01*
X109489857Y-66619380D01*
X108966047Y-65619380D02*
X108870809Y-65619380D01*
X108775571Y-65667000D01*
X108727952Y-65714619D01*
X108680333Y-65809857D01*
X108632714Y-66000333D01*
X108632714Y-66238428D01*
X108680333Y-66428904D01*
X108727952Y-66524142D01*
X108775571Y-66571761D01*
X108870809Y-66619380D01*
X108966047Y-66619380D01*
X109061285Y-66571761D01*
X109108904Y-66524142D01*
X109156523Y-66428904D01*
X109204142Y-66238428D01*
X109204142Y-66000333D01*
X109156523Y-65809857D01*
X109108904Y-65714619D01*
X109061285Y-65667000D01*
X108966047Y-65619380D01*
D11*
X112522000Y-62357000D02*
X112395000Y-62103000D01*
X112268000Y-62357000D02*
X112395000Y-62103000D01*
X112395000Y-62103000D02*
X112268000Y-62357000D01*
X112395000Y-62865000D02*
X112395000Y-62103000D01*
X110363000Y-63881000D02*
X110617000Y-64008000D01*
X110617000Y-63754000D02*
X110363000Y-63881000D01*
X110363000Y-63881000D02*
X110617000Y-63754000D01*
X111252000Y-63881000D02*
X110363000Y-63881000D01*
D10*
X112768000Y-64333380D02*
X112768000Y-63333380D01*
X112291809Y-64333380D02*
X112291809Y-63333380D01*
X112053714Y-63333380D01*
X111910857Y-63381000D01*
X111815619Y-63476238D01*
X111768000Y-63571476D01*
X111720380Y-63761952D01*
X111720380Y-63904809D01*
X111768000Y-64095285D01*
X111815619Y-64190523D01*
X111910857Y-64285761D01*
X112053714Y-64333380D01*
X112291809Y-64333380D01*
X125269047Y-78446380D02*
X125269047Y-79160666D01*
X125316666Y-79303523D01*
X125411904Y-79398761D01*
X125554761Y-79446380D01*
X125650000Y-79446380D01*
X124316666Y-79446380D02*
X124792857Y-79446380D01*
X124792857Y-78446380D01*
X123411904Y-79351142D02*
X123459523Y-79398761D01*
X123602380Y-79446380D01*
X123697619Y-79446380D01*
X123840476Y-79398761D01*
X123935714Y-79303523D01*
X123983333Y-79208285D01*
X124030952Y-79017809D01*
X124030952Y-78874952D01*
X123983333Y-78684476D01*
X123935714Y-78589238D01*
X123840476Y-78494000D01*
X123697619Y-78446380D01*
X123602380Y-78446380D01*
X123459523Y-78494000D01*
X123411904Y-78541619D01*
X122697619Y-78446380D02*
X122697619Y-79160666D01*
X122745238Y-79303523D01*
X122840476Y-79398761D01*
X122983333Y-79446380D01*
X123078571Y-79446380D01*
X121745238Y-79446380D02*
X122221428Y-79446380D01*
X122221428Y-78446380D01*
X120840476Y-79351142D02*
X120888095Y-79398761D01*
X121030952Y-79446380D01*
X121126190Y-79446380D01*
X121269047Y-79398761D01*
X121364285Y-79303523D01*
X121411904Y-79208285D01*
X121459523Y-79017809D01*
X121459523Y-78874952D01*
X121411904Y-78684476D01*
X121364285Y-78589238D01*
X121269047Y-78494000D01*
X121126190Y-78446380D01*
X121030952Y-78446380D01*
X120888095Y-78494000D01*
X120840476Y-78541619D01*
X120126190Y-78446380D02*
X120126190Y-79160666D01*
X120173809Y-79303523D01*
X120269047Y-79398761D01*
X120411904Y-79446380D01*
X120507142Y-79446380D01*
X119173809Y-79446380D02*
X119650000Y-79446380D01*
X119650000Y-78446380D01*
X118269047Y-79351142D02*
X118316666Y-79398761D01*
X118459523Y-79446380D01*
X118554761Y-79446380D01*
X118697619Y-79398761D01*
X118792857Y-79303523D01*
X118840476Y-79208285D01*
X118888095Y-79017809D01*
X118888095Y-78874952D01*
X118840476Y-78684476D01*
X118792857Y-78589238D01*
X118697619Y-78494000D01*
X118554761Y-78446380D01*
X118459523Y-78446380D01*
X118316666Y-78494000D01*
X118269047Y-78541619D01*
X117554761Y-78446380D02*
X117554761Y-79160666D01*
X117602380Y-79303523D01*
X117697619Y-79398761D01*
X117840476Y-79446380D01*
X117935714Y-79446380D01*
X116602380Y-79446380D02*
X117078571Y-79446380D01*
X117078571Y-78446380D01*
X115697619Y-79351142D02*
X115745238Y-79398761D01*
X115888095Y-79446380D01*
X115983333Y-79446380D01*
X116126190Y-79398761D01*
X116221428Y-79303523D01*
X116269047Y-79208285D01*
X116316666Y-79017809D01*
X116316666Y-78874952D01*
X116269047Y-78684476D01*
X116221428Y-78589238D01*
X116126190Y-78494000D01*
X115983333Y-78446380D01*
X115888095Y-78446380D01*
X115745238Y-78494000D01*
X115697619Y-78541619D01*
D11*
%TO.C,R8*%
X112470000Y-58554252D02*
X112470000Y-58031748D01*
X111050000Y-58554252D02*
X111050000Y-58031748D01*
%TO.C,R7*%
X110184000Y-58563252D02*
X110184000Y-58040748D01*
X108764000Y-58563252D02*
X108764000Y-58040748D01*
%TO.C,R5*%
X106823252Y-63298000D02*
X106300748Y-63298000D01*
X106823252Y-64718000D02*
X106300748Y-64718000D01*
%TO.C,R4*%
X106805252Y-61266000D02*
X106282748Y-61266000D01*
X106805252Y-62686000D02*
X106282748Y-62686000D01*
%TO.C,R3*%
X106823252Y-65457000D02*
X106300748Y-65457000D01*
X106823252Y-66877000D02*
X106300748Y-66877000D01*
%TO.C,R6*%
X114756000Y-58563252D02*
X114756000Y-58040748D01*
X113336000Y-58563252D02*
X113336000Y-58040748D01*
%TO.C,R1*%
X127844733Y-58549000D02*
X128187267Y-58549000D01*
X127844733Y-57529000D02*
X128187267Y-57529000D01*
%TO.C,R8*%
D10*
X111926666Y-61285380D02*
X112260000Y-60809190D01*
X112498095Y-61285380D02*
X112498095Y-60285380D01*
X112117142Y-60285380D01*
X112021904Y-60333000D01*
X111974285Y-60380619D01*
X111926666Y-60475857D01*
X111926666Y-60618714D01*
X111974285Y-60713952D01*
X112021904Y-60761571D01*
X112117142Y-60809190D01*
X112498095Y-60809190D01*
X111355238Y-60713952D02*
X111450476Y-60666333D01*
X111498095Y-60618714D01*
X111545714Y-60523476D01*
X111545714Y-60475857D01*
X111498095Y-60380619D01*
X111450476Y-60333000D01*
X111355238Y-60285380D01*
X111164761Y-60285380D01*
X111069523Y-60333000D01*
X111021904Y-60380619D01*
X110974285Y-60475857D01*
X110974285Y-60523476D01*
X111021904Y-60618714D01*
X111069523Y-60666333D01*
X111164761Y-60713952D01*
X111355238Y-60713952D01*
X111450476Y-60761571D01*
X111498095Y-60809190D01*
X111545714Y-60904428D01*
X111545714Y-61094904D01*
X111498095Y-61190142D01*
X111450476Y-61237761D01*
X111355238Y-61285380D01*
X111164761Y-61285380D01*
X111069523Y-61237761D01*
X111021904Y-61190142D01*
X110974285Y-61094904D01*
X110974285Y-60904428D01*
X111021904Y-60809190D01*
X111069523Y-60761571D01*
X111164761Y-60713952D01*
%TO.C,R7*%
X109767666Y-61285380D02*
X110101000Y-60809190D01*
X110339095Y-61285380D02*
X110339095Y-60285380D01*
X109958142Y-60285380D01*
X109862904Y-60333000D01*
X109815285Y-60380619D01*
X109767666Y-60475857D01*
X109767666Y-60618714D01*
X109815285Y-60713952D01*
X109862904Y-60761571D01*
X109958142Y-60809190D01*
X110339095Y-60809190D01*
X109434333Y-60285380D02*
X108767666Y-60285380D01*
X109196238Y-61285380D01*
%TO.C,R5*%
X103925666Y-64460380D02*
X104259000Y-63984190D01*
X104497095Y-64460380D02*
X104497095Y-63460380D01*
X104116142Y-63460380D01*
X104020904Y-63508000D01*
X103973285Y-63555619D01*
X103925666Y-63650857D01*
X103925666Y-63793714D01*
X103973285Y-63888952D01*
X104020904Y-63936571D01*
X104116142Y-63984190D01*
X104497095Y-63984190D01*
X103020904Y-63460380D02*
X103497095Y-63460380D01*
X103544714Y-63936571D01*
X103497095Y-63888952D01*
X103401857Y-63841333D01*
X103163761Y-63841333D01*
X103068523Y-63888952D01*
X103020904Y-63936571D01*
X102973285Y-64031809D01*
X102973285Y-64269904D01*
X103020904Y-64365142D01*
X103068523Y-64412761D01*
X103163761Y-64460380D01*
X103401857Y-64460380D01*
X103497095Y-64412761D01*
X103544714Y-64365142D01*
%TO.C,R4*%
X103925666Y-62555380D02*
X104259000Y-62079190D01*
X104497095Y-62555380D02*
X104497095Y-61555380D01*
X104116142Y-61555380D01*
X104020904Y-61603000D01*
X103973285Y-61650619D01*
X103925666Y-61745857D01*
X103925666Y-61888714D01*
X103973285Y-61983952D01*
X104020904Y-62031571D01*
X104116142Y-62079190D01*
X104497095Y-62079190D01*
X103068523Y-61888714D02*
X103068523Y-62555380D01*
X103306619Y-61507761D02*
X103544714Y-62222047D01*
X102925666Y-62222047D01*
%TO.C,R3*%
X103925666Y-66619380D02*
X104259000Y-66143190D01*
X104497095Y-66619380D02*
X104497095Y-65619380D01*
X104116142Y-65619380D01*
X104020904Y-65667000D01*
X103973285Y-65714619D01*
X103925666Y-65809857D01*
X103925666Y-65952714D01*
X103973285Y-66047952D01*
X104020904Y-66095571D01*
X104116142Y-66143190D01*
X104497095Y-66143190D01*
X103592333Y-65619380D02*
X102973285Y-65619380D01*
X103306619Y-66000333D01*
X103163761Y-66000333D01*
X103068523Y-66047952D01*
X103020904Y-66095571D01*
X102973285Y-66190809D01*
X102973285Y-66428904D01*
X103020904Y-66524142D01*
X103068523Y-66571761D01*
X103163761Y-66619380D01*
X103449476Y-66619380D01*
X103544714Y-66571761D01*
X103592333Y-66524142D01*
%TO.C,R6*%
X114212666Y-61285380D02*
X114546000Y-60809190D01*
X114784095Y-61285380D02*
X114784095Y-60285380D01*
X114403142Y-60285380D01*
X114307904Y-60333000D01*
X114260285Y-60380619D01*
X114212666Y-60475857D01*
X114212666Y-60618714D01*
X114260285Y-60713952D01*
X114307904Y-60761571D01*
X114403142Y-60809190D01*
X114784095Y-60809190D01*
X113355523Y-60285380D02*
X113546000Y-60285380D01*
X113641238Y-60333000D01*
X113688857Y-60380619D01*
X113784095Y-60523476D01*
X113831714Y-60713952D01*
X113831714Y-61094904D01*
X113784095Y-61190142D01*
X113736476Y-61237761D01*
X113641238Y-61285380D01*
X113450761Y-61285380D01*
X113355523Y-61237761D01*
X113307904Y-61190142D01*
X113260285Y-61094904D01*
X113260285Y-60856809D01*
X113307904Y-60761571D01*
X113355523Y-60713952D01*
X113450761Y-60666333D01*
X113641238Y-60666333D01*
X113736476Y-60713952D01*
X113784095Y-60761571D01*
X113831714Y-60856809D01*
%TO.C,R1*%
X128831666Y-56967380D02*
X129165000Y-56491190D01*
X129403095Y-56967380D02*
X129403095Y-55967380D01*
X129022142Y-55967380D01*
X128926904Y-56015000D01*
X128879285Y-56062619D01*
X128831666Y-56157857D01*
X128831666Y-56300714D01*
X128879285Y-56395952D01*
X128926904Y-56443571D01*
X129022142Y-56491190D01*
X129403095Y-56491190D01*
X127879285Y-56967380D02*
X128450714Y-56967380D01*
X128165000Y-56967380D02*
X128165000Y-55967380D01*
X128260238Y-56110238D01*
X128355476Y-56205476D01*
X128450714Y-56253095D01*
%TD*%
M02*
