%TF.GenerationSoftware,KiCad,Pcbnew,(5.1.6)-1*%
%TF.CreationDate,2020-09-14T23:39:59+02:00*%
%TF.ProjectId,gpioexpander,6770696f-6578-4706-916e-6465722e6b69,rev?*%
%TF.SameCoordinates,Original*%
%TF.FileFunction,Legend,Bot*%
%TF.FilePolarity,Positive*%
%FSLAX46Y46*%
G04 Gerber Fmt 4.6, Leading zero omitted, Abs format (unit mm)*
G04 Created by KiCad (PCBNEW (5.1.6)-1) date 2020-09-14 23:39:59*
%MOMM*%
%LPD*%
G01*
G04 APERTURE LIST*
%ADD10C,0.150000*%
%ADD11C,0.120000*%
G04 APERTURE END LIST*
D10*
X120729285Y-58967666D02*
X120253095Y-58967666D01*
X120824523Y-59253380D02*
X120491190Y-58253380D01*
X120157857Y-59253380D01*
X119300714Y-59253380D02*
X119872142Y-59253380D01*
X119586428Y-59253380D02*
X119586428Y-58253380D01*
X119681666Y-58396238D01*
X119776904Y-58491476D01*
X119872142Y-58539095D01*
X118062285Y-58967666D02*
X117586095Y-58967666D01*
X118157523Y-59253380D02*
X117824190Y-58253380D01*
X117490857Y-59253380D01*
X117205142Y-58348619D02*
X117157523Y-58301000D01*
X117062285Y-58253380D01*
X116824190Y-58253380D01*
X116728952Y-58301000D01*
X116681333Y-58348619D01*
X116633714Y-58443857D01*
X116633714Y-58539095D01*
X116681333Y-58681952D01*
X117252761Y-59253380D01*
X116633714Y-59253380D01*
X123523285Y-58967666D02*
X123047095Y-58967666D01*
X123618523Y-59253380D02*
X123285190Y-58253380D01*
X122951857Y-59253380D01*
X122428047Y-58253380D02*
X122332809Y-58253380D01*
X122237571Y-58301000D01*
X122189952Y-58348619D01*
X122142333Y-58443857D01*
X122094714Y-58634333D01*
X122094714Y-58872428D01*
X122142333Y-59062904D01*
X122189952Y-59158142D01*
X122237571Y-59205761D01*
X122332809Y-59253380D01*
X122428047Y-59253380D01*
X122523285Y-59205761D01*
X122570904Y-59158142D01*
X122618523Y-59062904D01*
X122666142Y-58872428D01*
X122666142Y-58634333D01*
X122618523Y-58443857D01*
X122570904Y-58348619D01*
X122523285Y-58301000D01*
X122428047Y-58253380D01*
X125849000Y-59253380D02*
X125849000Y-58253380D01*
X125372809Y-59253380D02*
X125372809Y-58253380D01*
X125134714Y-58253380D01*
X124991857Y-58301000D01*
X124896619Y-58396238D01*
X124849000Y-58491476D01*
X124801380Y-58681952D01*
X124801380Y-58824809D01*
X124849000Y-59015285D01*
X124896619Y-59110523D01*
X124991857Y-59205761D01*
X125134714Y-59253380D01*
X125372809Y-59253380D01*
X125269047Y-78446380D02*
X125269047Y-79160666D01*
X125316666Y-79303523D01*
X125411904Y-79398761D01*
X125554761Y-79446380D01*
X125650000Y-79446380D01*
X124316666Y-79446380D02*
X124792857Y-79446380D01*
X124792857Y-78446380D01*
X123411904Y-79351142D02*
X123459523Y-79398761D01*
X123602380Y-79446380D01*
X123697619Y-79446380D01*
X123840476Y-79398761D01*
X123935714Y-79303523D01*
X123983333Y-79208285D01*
X124030952Y-79017809D01*
X124030952Y-78874952D01*
X123983333Y-78684476D01*
X123935714Y-78589238D01*
X123840476Y-78494000D01*
X123697619Y-78446380D01*
X123602380Y-78446380D01*
X123459523Y-78494000D01*
X123411904Y-78541619D01*
X122697619Y-78446380D02*
X122697619Y-79160666D01*
X122745238Y-79303523D01*
X122840476Y-79398761D01*
X122983333Y-79446380D01*
X123078571Y-79446380D01*
X121745238Y-79446380D02*
X122221428Y-79446380D01*
X122221428Y-78446380D01*
X120840476Y-79351142D02*
X120888095Y-79398761D01*
X121030952Y-79446380D01*
X121126190Y-79446380D01*
X121269047Y-79398761D01*
X121364285Y-79303523D01*
X121411904Y-79208285D01*
X121459523Y-79017809D01*
X121459523Y-78874952D01*
X121411904Y-78684476D01*
X121364285Y-78589238D01*
X121269047Y-78494000D01*
X121126190Y-78446380D01*
X121030952Y-78446380D01*
X120888095Y-78494000D01*
X120840476Y-78541619D01*
X120126190Y-78446380D02*
X120126190Y-79160666D01*
X120173809Y-79303523D01*
X120269047Y-79398761D01*
X120411904Y-79446380D01*
X120507142Y-79446380D01*
X119173809Y-79446380D02*
X119650000Y-79446380D01*
X119650000Y-78446380D01*
X118269047Y-79351142D02*
X118316666Y-79398761D01*
X118459523Y-79446380D01*
X118554761Y-79446380D01*
X118697619Y-79398761D01*
X118792857Y-79303523D01*
X118840476Y-79208285D01*
X118888095Y-79017809D01*
X118888095Y-78874952D01*
X118840476Y-78684476D01*
X118792857Y-78589238D01*
X118697619Y-78494000D01*
X118554761Y-78446380D01*
X118459523Y-78446380D01*
X118316666Y-78494000D01*
X118269047Y-78541619D01*
X117554761Y-78446380D02*
X117554761Y-79160666D01*
X117602380Y-79303523D01*
X117697619Y-79398761D01*
X117840476Y-79446380D01*
X117935714Y-79446380D01*
X116602380Y-79446380D02*
X117078571Y-79446380D01*
X117078571Y-78446380D01*
X115697619Y-79351142D02*
X115745238Y-79398761D01*
X115888095Y-79446380D01*
X115983333Y-79446380D01*
X116126190Y-79398761D01*
X116221428Y-79303523D01*
X116269047Y-79208285D01*
X116316666Y-79017809D01*
X116316666Y-78874952D01*
X116269047Y-78684476D01*
X116221428Y-78589238D01*
X116126190Y-78494000D01*
X115983333Y-78446380D01*
X115888095Y-78446380D01*
X115745238Y-78494000D01*
X115697619Y-78541619D01*
X122792809Y-70700380D02*
X122792809Y-71414666D01*
X122840428Y-71557523D01*
X122935666Y-71652761D01*
X123078523Y-71700380D01*
X123173761Y-71700380D01*
X122316619Y-71700380D02*
X122316619Y-70700380D01*
X121745190Y-71700380D01*
X121745190Y-70700380D01*
X121269000Y-71700380D02*
X121269000Y-70700380D01*
X120840428Y-70795619D02*
X120792809Y-70748000D01*
X120697571Y-70700380D01*
X120459476Y-70700380D01*
X120364238Y-70748000D01*
X120316619Y-70795619D01*
X120269000Y-70890857D01*
X120269000Y-70986095D01*
X120316619Y-71128952D01*
X120888047Y-71700380D01*
X120269000Y-71700380D01*
X119649952Y-70700380D02*
X119554714Y-70700380D01*
X119459476Y-70748000D01*
X119411857Y-70795619D01*
X119364238Y-70890857D01*
X119316619Y-71081333D01*
X119316619Y-71319428D01*
X119364238Y-71509904D01*
X119411857Y-71605142D01*
X119459476Y-71652761D01*
X119554714Y-71700380D01*
X119649952Y-71700380D01*
X119745190Y-71652761D01*
X119792809Y-71605142D01*
X119840428Y-71509904D01*
X119888047Y-71319428D01*
X119888047Y-71081333D01*
X119840428Y-70890857D01*
X119792809Y-70795619D01*
X119745190Y-70748000D01*
X119649952Y-70700380D01*
X118935666Y-70795619D02*
X118888047Y-70748000D01*
X118792809Y-70700380D01*
X118554714Y-70700380D01*
X118459476Y-70748000D01*
X118411857Y-70795619D01*
X118364238Y-70890857D01*
X118364238Y-70986095D01*
X118411857Y-71128952D01*
X118983285Y-71700380D01*
X118364238Y-71700380D01*
X117745190Y-70700380D02*
X117649952Y-70700380D01*
X117554714Y-70748000D01*
X117507095Y-70795619D01*
X117459476Y-70890857D01*
X117411857Y-71081333D01*
X117411857Y-71319428D01*
X117459476Y-71509904D01*
X117507095Y-71605142D01*
X117554714Y-71652761D01*
X117649952Y-71700380D01*
X117745190Y-71700380D01*
X117840428Y-71652761D01*
X117888047Y-71605142D01*
X117935666Y-71509904D01*
X117983285Y-71319428D01*
X117983285Y-71081333D01*
X117935666Y-70890857D01*
X117888047Y-70795619D01*
X117840428Y-70748000D01*
X117745190Y-70700380D01*
X123435666Y-72826571D02*
X123102333Y-72826571D01*
X122959476Y-73350380D02*
X123435666Y-73350380D01*
X123435666Y-72350380D01*
X122959476Y-72350380D01*
X122626142Y-73350380D02*
X122102333Y-72683714D01*
X122626142Y-72683714D02*
X122102333Y-73350380D01*
X121721380Y-72683714D02*
X121721380Y-73683714D01*
X121721380Y-72731333D02*
X121626142Y-72683714D01*
X121435666Y-72683714D01*
X121340428Y-72731333D01*
X121292809Y-72778952D01*
X121245190Y-72874190D01*
X121245190Y-73159904D01*
X121292809Y-73255142D01*
X121340428Y-73302761D01*
X121435666Y-73350380D01*
X121626142Y-73350380D01*
X121721380Y-73302761D01*
X120388047Y-73350380D02*
X120388047Y-72826571D01*
X120435666Y-72731333D01*
X120530904Y-72683714D01*
X120721380Y-72683714D01*
X120816619Y-72731333D01*
X120388047Y-73302761D02*
X120483285Y-73350380D01*
X120721380Y-73350380D01*
X120816619Y-73302761D01*
X120864238Y-73207523D01*
X120864238Y-73112285D01*
X120816619Y-73017047D01*
X120721380Y-72969428D01*
X120483285Y-72969428D01*
X120388047Y-72921809D01*
X119911857Y-72683714D02*
X119911857Y-73350380D01*
X119911857Y-72778952D02*
X119864238Y-72731333D01*
X119769000Y-72683714D01*
X119626142Y-72683714D01*
X119530904Y-72731333D01*
X119483285Y-72826571D01*
X119483285Y-73350380D01*
X118578523Y-73350380D02*
X118578523Y-72350380D01*
X118578523Y-73302761D02*
X118673761Y-73350380D01*
X118864238Y-73350380D01*
X118959476Y-73302761D01*
X119007095Y-73255142D01*
X119054714Y-73159904D01*
X119054714Y-72874190D01*
X119007095Y-72778952D01*
X118959476Y-72731333D01*
X118864238Y-72683714D01*
X118673761Y-72683714D01*
X118578523Y-72731333D01*
X117721380Y-73302761D02*
X117816619Y-73350380D01*
X118007095Y-73350380D01*
X118102333Y-73302761D01*
X118149952Y-73207523D01*
X118149952Y-72826571D01*
X118102333Y-72731333D01*
X118007095Y-72683714D01*
X117816619Y-72683714D01*
X117721380Y-72731333D01*
X117673761Y-72826571D01*
X117673761Y-72921809D01*
X118149952Y-73017047D01*
X117245190Y-73350380D02*
X117245190Y-72683714D01*
X117245190Y-72874190D02*
X117197571Y-72778952D01*
X117149952Y-72731333D01*
X117054714Y-72683714D01*
X116959476Y-72683714D01*
X124102333Y-75000380D02*
X124102333Y-74000380D01*
X124102333Y-74381333D02*
X124007095Y-74333714D01*
X123816619Y-74333714D01*
X123721380Y-74381333D01*
X123673761Y-74428952D01*
X123626142Y-74524190D01*
X123626142Y-74809904D01*
X123673761Y-74905142D01*
X123721380Y-74952761D01*
X123816619Y-75000380D01*
X124007095Y-75000380D01*
X124102333Y-74952761D01*
X123054714Y-75000380D02*
X123149952Y-74952761D01*
X123197571Y-74905142D01*
X123245190Y-74809904D01*
X123245190Y-74524190D01*
X123197571Y-74428952D01*
X123149952Y-74381333D01*
X123054714Y-74333714D01*
X122911857Y-74333714D01*
X122816619Y-74381333D01*
X122769000Y-74428952D01*
X122721380Y-74524190D01*
X122721380Y-74809904D01*
X122769000Y-74905142D01*
X122816619Y-74952761D01*
X122911857Y-75000380D01*
X123054714Y-75000380D01*
X121864238Y-75000380D02*
X121864238Y-74476571D01*
X121911857Y-74381333D01*
X122007095Y-74333714D01*
X122197571Y-74333714D01*
X122292809Y-74381333D01*
X121864238Y-74952761D02*
X121959476Y-75000380D01*
X122197571Y-75000380D01*
X122292809Y-74952761D01*
X122340428Y-74857523D01*
X122340428Y-74762285D01*
X122292809Y-74667047D01*
X122197571Y-74619428D01*
X121959476Y-74619428D01*
X121864238Y-74571809D01*
X121388047Y-75000380D02*
X121388047Y-74333714D01*
X121388047Y-74524190D02*
X121340428Y-74428952D01*
X121292809Y-74381333D01*
X121197571Y-74333714D01*
X121102333Y-74333714D01*
X120340428Y-75000380D02*
X120340428Y-74000380D01*
X120340428Y-74952761D02*
X120435666Y-75000380D01*
X120626142Y-75000380D01*
X120721380Y-74952761D01*
X120769000Y-74905142D01*
X120816619Y-74809904D01*
X120816619Y-74524190D01*
X120769000Y-74428952D01*
X120721380Y-74381333D01*
X120626142Y-74333714D01*
X120435666Y-74333714D01*
X120340428Y-74381333D01*
X119197571Y-74333714D02*
X118959476Y-75000380D01*
X118721380Y-74333714D01*
X117816619Y-75000380D02*
X118388047Y-75000380D01*
X118102333Y-75000380D02*
X118102333Y-74000380D01*
X118197571Y-74143238D01*
X118292809Y-74238476D01*
X118388047Y-74286095D01*
X117388047Y-74905142D02*
X117340428Y-74952761D01*
X117388047Y-75000380D01*
X117435666Y-74952761D01*
X117388047Y-74905142D01*
X117388047Y-75000380D01*
X116959476Y-74095619D02*
X116911857Y-74048000D01*
X116816619Y-74000380D01*
X116578523Y-74000380D01*
X116483285Y-74048000D01*
X116435666Y-74095619D01*
X116388047Y-74190857D01*
X116388047Y-74286095D01*
X116435666Y-74428952D01*
X117007095Y-75000380D01*
X116388047Y-75000380D01*
D11*
%TO.C,R4*%
X120725000Y-65025748D02*
X120725000Y-65548252D01*
X119305000Y-65025748D02*
X119305000Y-65548252D01*
%TO.C,R8*%
X116638000Y-61720252D02*
X116638000Y-61197748D01*
X118058000Y-61720252D02*
X118058000Y-61197748D01*
%TO.C,R7*%
X119305000Y-61720252D02*
X119305000Y-61197748D01*
X120725000Y-61720252D02*
X120725000Y-61197748D01*
%TO.C,R5*%
X118058000Y-65016748D02*
X118058000Y-65539252D01*
X116638000Y-65016748D02*
X116638000Y-65539252D01*
%TO.C,R3*%
X123519000Y-65025748D02*
X123519000Y-65548252D01*
X122099000Y-65025748D02*
X122099000Y-65548252D01*
%TO.C,R6*%
X122099000Y-61729252D02*
X122099000Y-61206748D01*
X123519000Y-61729252D02*
X123519000Y-61206748D01*
%TO.C,R1*%
X134678267Y-77726000D02*
X134335733Y-77726000D01*
X134678267Y-76706000D02*
X134335733Y-76706000D01*
%TO.C,R4*%
D10*
X120594380Y-67905333D02*
X120118190Y-67572000D01*
X120594380Y-67333904D02*
X119594380Y-67333904D01*
X119594380Y-67714857D01*
X119642000Y-67810095D01*
X119689619Y-67857714D01*
X119784857Y-67905333D01*
X119927714Y-67905333D01*
X120022952Y-67857714D01*
X120070571Y-67810095D01*
X120118190Y-67714857D01*
X120118190Y-67333904D01*
X119927714Y-68762476D02*
X120594380Y-68762476D01*
X119546761Y-68524380D02*
X120261047Y-68286285D01*
X120261047Y-68905333D01*
%TO.C,R8*%
X117514666Y-64451380D02*
X117848000Y-63975190D01*
X118086095Y-64451380D02*
X118086095Y-63451380D01*
X117705142Y-63451380D01*
X117609904Y-63499000D01*
X117562285Y-63546619D01*
X117514666Y-63641857D01*
X117514666Y-63784714D01*
X117562285Y-63879952D01*
X117609904Y-63927571D01*
X117705142Y-63975190D01*
X118086095Y-63975190D01*
X116943238Y-63879952D02*
X117038476Y-63832333D01*
X117086095Y-63784714D01*
X117133714Y-63689476D01*
X117133714Y-63641857D01*
X117086095Y-63546619D01*
X117038476Y-63499000D01*
X116943238Y-63451380D01*
X116752761Y-63451380D01*
X116657523Y-63499000D01*
X116609904Y-63546619D01*
X116562285Y-63641857D01*
X116562285Y-63689476D01*
X116609904Y-63784714D01*
X116657523Y-63832333D01*
X116752761Y-63879952D01*
X116943238Y-63879952D01*
X117038476Y-63927571D01*
X117086095Y-63975190D01*
X117133714Y-64070428D01*
X117133714Y-64260904D01*
X117086095Y-64356142D01*
X117038476Y-64403761D01*
X116943238Y-64451380D01*
X116752761Y-64451380D01*
X116657523Y-64403761D01*
X116609904Y-64356142D01*
X116562285Y-64260904D01*
X116562285Y-64070428D01*
X116609904Y-63975190D01*
X116657523Y-63927571D01*
X116752761Y-63879952D01*
%TO.C,R7*%
X120308666Y-64442380D02*
X120642000Y-63966190D01*
X120880095Y-64442380D02*
X120880095Y-63442380D01*
X120499142Y-63442380D01*
X120403904Y-63490000D01*
X120356285Y-63537619D01*
X120308666Y-63632857D01*
X120308666Y-63775714D01*
X120356285Y-63870952D01*
X120403904Y-63918571D01*
X120499142Y-63966190D01*
X120880095Y-63966190D01*
X119975333Y-63442380D02*
X119308666Y-63442380D01*
X119737238Y-64442380D01*
%TO.C,R5*%
X117800380Y-67914333D02*
X117324190Y-67581000D01*
X117800380Y-67342904D02*
X116800380Y-67342904D01*
X116800380Y-67723857D01*
X116848000Y-67819095D01*
X116895619Y-67866714D01*
X116990857Y-67914333D01*
X117133714Y-67914333D01*
X117228952Y-67866714D01*
X117276571Y-67819095D01*
X117324190Y-67723857D01*
X117324190Y-67342904D01*
X116800380Y-68819095D02*
X116800380Y-68342904D01*
X117276571Y-68295285D01*
X117228952Y-68342904D01*
X117181333Y-68438142D01*
X117181333Y-68676238D01*
X117228952Y-68771476D01*
X117276571Y-68819095D01*
X117371809Y-68866714D01*
X117609904Y-68866714D01*
X117705142Y-68819095D01*
X117752761Y-68771476D01*
X117800380Y-68676238D01*
X117800380Y-68438142D01*
X117752761Y-68342904D01*
X117705142Y-68295285D01*
%TO.C,R3*%
X123261380Y-67923333D02*
X122785190Y-67590000D01*
X123261380Y-67351904D02*
X122261380Y-67351904D01*
X122261380Y-67732857D01*
X122309000Y-67828095D01*
X122356619Y-67875714D01*
X122451857Y-67923333D01*
X122594714Y-67923333D01*
X122689952Y-67875714D01*
X122737571Y-67828095D01*
X122785190Y-67732857D01*
X122785190Y-67351904D01*
X122261380Y-68256666D02*
X122261380Y-68875714D01*
X122642333Y-68542380D01*
X122642333Y-68685238D01*
X122689952Y-68780476D01*
X122737571Y-68828095D01*
X122832809Y-68875714D01*
X123070904Y-68875714D01*
X123166142Y-68828095D01*
X123213761Y-68780476D01*
X123261380Y-68685238D01*
X123261380Y-68399523D01*
X123213761Y-68304285D01*
X123166142Y-68256666D01*
%TO.C,R6*%
X122975666Y-64451380D02*
X123309000Y-63975190D01*
X123547095Y-64451380D02*
X123547095Y-63451380D01*
X123166142Y-63451380D01*
X123070904Y-63499000D01*
X123023285Y-63546619D01*
X122975666Y-63641857D01*
X122975666Y-63784714D01*
X123023285Y-63879952D01*
X123070904Y-63927571D01*
X123166142Y-63975190D01*
X123547095Y-63975190D01*
X122118523Y-63451380D02*
X122309000Y-63451380D01*
X122404238Y-63499000D01*
X122451857Y-63546619D01*
X122547095Y-63689476D01*
X122594714Y-63879952D01*
X122594714Y-64260904D01*
X122547095Y-64356142D01*
X122499476Y-64403761D01*
X122404238Y-64451380D01*
X122213761Y-64451380D01*
X122118523Y-64403761D01*
X122070904Y-64356142D01*
X122023285Y-64260904D01*
X122023285Y-64022809D01*
X122070904Y-63927571D01*
X122118523Y-63879952D01*
X122213761Y-63832333D01*
X122404238Y-63832333D01*
X122499476Y-63879952D01*
X122547095Y-63927571D01*
X122594714Y-64022809D01*
%TO.C,R1*%
X134024666Y-79192380D02*
X134358000Y-78716190D01*
X134596095Y-79192380D02*
X134596095Y-78192380D01*
X134215142Y-78192380D01*
X134119904Y-78240000D01*
X134072285Y-78287619D01*
X134024666Y-78382857D01*
X134024666Y-78525714D01*
X134072285Y-78620952D01*
X134119904Y-78668571D01*
X134215142Y-78716190D01*
X134596095Y-78716190D01*
X133072285Y-79192380D02*
X133643714Y-79192380D01*
X133358000Y-79192380D02*
X133358000Y-78192380D01*
X133453238Y-78335238D01*
X133548476Y-78430476D01*
X133643714Y-78478095D01*
%TD*%
M02*
