%TF.GenerationSoftware,KiCad,Pcbnew,(5.1.6)-1*%
%TF.CreationDate,2020-09-14T23:39:58+02:00*%
%TF.ProjectId,gpioexpander,6770696f-6578-4706-916e-6465722e6b69,rev?*%
%TF.SameCoordinates,Original*%
%TF.FileFunction,Copper,L1,Top*%
%TF.FilePolarity,Positive*%
%FSLAX46Y46*%
G04 Gerber Fmt 4.6, Leading zero omitted, Abs format (unit mm)*
G04 Created by KiCad (PCBNEW (5.1.6)-1) date 2020-09-14 23:39:58*
%MOMM*%
%LPD*%
G01*
G04 APERTURE LIST*
%TA.AperFunction,ComponentPad*%
%ADD10C,6.400000*%
%TD*%
%TA.AperFunction,ComponentPad*%
%ADD11R,1.700000X1.700000*%
%TD*%
%TA.AperFunction,ComponentPad*%
%ADD12O,1.700000X1.700000*%
%TD*%
%TA.AperFunction,ComponentPad*%
%ADD13C,2.000000*%
%TD*%
%TA.AperFunction,ViaPad*%
%ADD14C,0.800000*%
%TD*%
%TA.AperFunction,Conductor*%
%ADD15C,0.250000*%
%TD*%
G04 APERTURE END LIST*
D10*
%TO.P,H2,1*%
%TO.N,GND*%
X107315000Y-62230000D03*
%TD*%
%TO.P,H1,1*%
%TO.N,GND*%
X133223000Y-62230000D03*
%TD*%
%TO.P,U1,24*%
%TO.N,+3V3*%
%TA.AperFunction,SMDPad,CuDef*%
G36*
G01*
X122394000Y-69950000D02*
X122394000Y-69750000D01*
G75*
G02*
X122494000Y-69650000I100000J0D01*
G01*
X123769000Y-69650000D01*
G75*
G02*
X123869000Y-69750000I0J-100000D01*
G01*
X123869000Y-69950000D01*
G75*
G02*
X123769000Y-70050000I-100000J0D01*
G01*
X122494000Y-70050000D01*
G75*
G02*
X122394000Y-69950000I0J100000D01*
G01*
G37*
%TD.AperFunction*%
%TO.P,U1,23*%
%TO.N,/SDA*%
%TA.AperFunction,SMDPad,CuDef*%
G36*
G01*
X122394000Y-70600000D02*
X122394000Y-70400000D01*
G75*
G02*
X122494000Y-70300000I100000J0D01*
G01*
X123769000Y-70300000D01*
G75*
G02*
X123869000Y-70400000I0J-100000D01*
G01*
X123869000Y-70600000D01*
G75*
G02*
X123769000Y-70700000I-100000J0D01*
G01*
X122494000Y-70700000D01*
G75*
G02*
X122394000Y-70600000I0J100000D01*
G01*
G37*
%TD.AperFunction*%
%TO.P,U1,22*%
%TO.N,/SCL*%
%TA.AperFunction,SMDPad,CuDef*%
G36*
G01*
X122394000Y-71250000D02*
X122394000Y-71050000D01*
G75*
G02*
X122494000Y-70950000I100000J0D01*
G01*
X123769000Y-70950000D01*
G75*
G02*
X123869000Y-71050000I0J-100000D01*
G01*
X123869000Y-71250000D01*
G75*
G02*
X123769000Y-71350000I-100000J0D01*
G01*
X122494000Y-71350000D01*
G75*
G02*
X122394000Y-71250000I0J100000D01*
G01*
G37*
%TD.AperFunction*%
%TO.P,U1,21*%
%TO.N,/A0*%
%TA.AperFunction,SMDPad,CuDef*%
G36*
G01*
X122394000Y-71900000D02*
X122394000Y-71700000D01*
G75*
G02*
X122494000Y-71600000I100000J0D01*
G01*
X123769000Y-71600000D01*
G75*
G02*
X123869000Y-71700000I0J-100000D01*
G01*
X123869000Y-71900000D01*
G75*
G02*
X123769000Y-72000000I-100000J0D01*
G01*
X122494000Y-72000000D01*
G75*
G02*
X122394000Y-71900000I0J100000D01*
G01*
G37*
%TD.AperFunction*%
%TO.P,U1,20*%
%TO.N,/SW1*%
%TA.AperFunction,SMDPad,CuDef*%
G36*
G01*
X122394000Y-72550000D02*
X122394000Y-72350000D01*
G75*
G02*
X122494000Y-72250000I100000J0D01*
G01*
X123769000Y-72250000D01*
G75*
G02*
X123869000Y-72350000I0J-100000D01*
G01*
X123869000Y-72550000D01*
G75*
G02*
X123769000Y-72650000I-100000J0D01*
G01*
X122494000Y-72650000D01*
G75*
G02*
X122394000Y-72550000I0J100000D01*
G01*
G37*
%TD.AperFunction*%
%TO.P,U1,19*%
%TO.N,/P5_3*%
%TA.AperFunction,SMDPad,CuDef*%
G36*
G01*
X122394000Y-73200000D02*
X122394000Y-73000000D01*
G75*
G02*
X122494000Y-72900000I100000J0D01*
G01*
X123769000Y-72900000D01*
G75*
G02*
X123869000Y-73000000I0J-100000D01*
G01*
X123869000Y-73200000D01*
G75*
G02*
X123769000Y-73300000I-100000J0D01*
G01*
X122494000Y-73300000D01*
G75*
G02*
X122394000Y-73200000I0J100000D01*
G01*
G37*
%TD.AperFunction*%
%TO.P,U1,18*%
%TO.N,/P5_2*%
%TA.AperFunction,SMDPad,CuDef*%
G36*
G01*
X122394000Y-73850000D02*
X122394000Y-73650000D01*
G75*
G02*
X122494000Y-73550000I100000J0D01*
G01*
X123769000Y-73550000D01*
G75*
G02*
X123869000Y-73650000I0J-100000D01*
G01*
X123869000Y-73850000D01*
G75*
G02*
X123769000Y-73950000I-100000J0D01*
G01*
X122494000Y-73950000D01*
G75*
G02*
X122394000Y-73850000I0J100000D01*
G01*
G37*
%TD.AperFunction*%
%TO.P,U1,17*%
%TO.N,/P5_1*%
%TA.AperFunction,SMDPad,CuDef*%
G36*
G01*
X122394000Y-74500000D02*
X122394000Y-74300000D01*
G75*
G02*
X122494000Y-74200000I100000J0D01*
G01*
X123769000Y-74200000D01*
G75*
G02*
X123869000Y-74300000I0J-100000D01*
G01*
X123869000Y-74500000D01*
G75*
G02*
X123769000Y-74600000I-100000J0D01*
G01*
X122494000Y-74600000D01*
G75*
G02*
X122394000Y-74500000I0J100000D01*
G01*
G37*
%TD.AperFunction*%
%TO.P,U1,16*%
%TO.N,/P4_3*%
%TA.AperFunction,SMDPad,CuDef*%
G36*
G01*
X122394000Y-75150000D02*
X122394000Y-74950000D01*
G75*
G02*
X122494000Y-74850000I100000J0D01*
G01*
X123769000Y-74850000D01*
G75*
G02*
X123869000Y-74950000I0J-100000D01*
G01*
X123869000Y-75150000D01*
G75*
G02*
X123769000Y-75250000I-100000J0D01*
G01*
X122494000Y-75250000D01*
G75*
G02*
X122394000Y-75150000I0J100000D01*
G01*
G37*
%TD.AperFunction*%
%TO.P,U1,15*%
%TO.N,/P4_2*%
%TA.AperFunction,SMDPad,CuDef*%
G36*
G01*
X122394000Y-75800000D02*
X122394000Y-75600000D01*
G75*
G02*
X122494000Y-75500000I100000J0D01*
G01*
X123769000Y-75500000D01*
G75*
G02*
X123869000Y-75600000I0J-100000D01*
G01*
X123869000Y-75800000D01*
G75*
G02*
X123769000Y-75900000I-100000J0D01*
G01*
X122494000Y-75900000D01*
G75*
G02*
X122394000Y-75800000I0J100000D01*
G01*
G37*
%TD.AperFunction*%
%TO.P,U1,14*%
%TO.N,/P4_1*%
%TA.AperFunction,SMDPad,CuDef*%
G36*
G01*
X122394000Y-76450000D02*
X122394000Y-76250000D01*
G75*
G02*
X122494000Y-76150000I100000J0D01*
G01*
X123769000Y-76150000D01*
G75*
G02*
X123869000Y-76250000I0J-100000D01*
G01*
X123869000Y-76450000D01*
G75*
G02*
X123769000Y-76550000I-100000J0D01*
G01*
X122494000Y-76550000D01*
G75*
G02*
X122394000Y-76450000I0J100000D01*
G01*
G37*
%TD.AperFunction*%
%TO.P,U1,13*%
%TO.N,/P3_3*%
%TA.AperFunction,SMDPad,CuDef*%
G36*
G01*
X122394000Y-77100000D02*
X122394000Y-76900000D01*
G75*
G02*
X122494000Y-76800000I100000J0D01*
G01*
X123769000Y-76800000D01*
G75*
G02*
X123869000Y-76900000I0J-100000D01*
G01*
X123869000Y-77100000D01*
G75*
G02*
X123769000Y-77200000I-100000J0D01*
G01*
X122494000Y-77200000D01*
G75*
G02*
X122394000Y-77100000I0J100000D01*
G01*
G37*
%TD.AperFunction*%
%TO.P,U1,12*%
%TO.N,GND*%
%TA.AperFunction,SMDPad,CuDef*%
G36*
G01*
X116669000Y-77100000D02*
X116669000Y-76900000D01*
G75*
G02*
X116769000Y-76800000I100000J0D01*
G01*
X118044000Y-76800000D01*
G75*
G02*
X118144000Y-76900000I0J-100000D01*
G01*
X118144000Y-77100000D01*
G75*
G02*
X118044000Y-77200000I-100000J0D01*
G01*
X116769000Y-77200000D01*
G75*
G02*
X116669000Y-77100000I0J100000D01*
G01*
G37*
%TD.AperFunction*%
%TO.P,U1,11*%
%TO.N,/P3_2*%
%TA.AperFunction,SMDPad,CuDef*%
G36*
G01*
X116669000Y-76450000D02*
X116669000Y-76250000D01*
G75*
G02*
X116769000Y-76150000I100000J0D01*
G01*
X118044000Y-76150000D01*
G75*
G02*
X118144000Y-76250000I0J-100000D01*
G01*
X118144000Y-76450000D01*
G75*
G02*
X118044000Y-76550000I-100000J0D01*
G01*
X116769000Y-76550000D01*
G75*
G02*
X116669000Y-76450000I0J100000D01*
G01*
G37*
%TD.AperFunction*%
%TO.P,U1,10*%
%TO.N,/P3_1*%
%TA.AperFunction,SMDPad,CuDef*%
G36*
G01*
X116669000Y-75800000D02*
X116669000Y-75600000D01*
G75*
G02*
X116769000Y-75500000I100000J0D01*
G01*
X118044000Y-75500000D01*
G75*
G02*
X118144000Y-75600000I0J-100000D01*
G01*
X118144000Y-75800000D01*
G75*
G02*
X118044000Y-75900000I-100000J0D01*
G01*
X116769000Y-75900000D01*
G75*
G02*
X116669000Y-75800000I0J100000D01*
G01*
G37*
%TD.AperFunction*%
%TO.P,U1,9*%
%TO.N,/P2_3*%
%TA.AperFunction,SMDPad,CuDef*%
G36*
G01*
X116669000Y-75150000D02*
X116669000Y-74950000D01*
G75*
G02*
X116769000Y-74850000I100000J0D01*
G01*
X118044000Y-74850000D01*
G75*
G02*
X118144000Y-74950000I0J-100000D01*
G01*
X118144000Y-75150000D01*
G75*
G02*
X118044000Y-75250000I-100000J0D01*
G01*
X116769000Y-75250000D01*
G75*
G02*
X116669000Y-75150000I0J100000D01*
G01*
G37*
%TD.AperFunction*%
%TO.P,U1,8*%
%TO.N,/P2_2*%
%TA.AperFunction,SMDPad,CuDef*%
G36*
G01*
X116669000Y-74500000D02*
X116669000Y-74300000D01*
G75*
G02*
X116769000Y-74200000I100000J0D01*
G01*
X118044000Y-74200000D01*
G75*
G02*
X118144000Y-74300000I0J-100000D01*
G01*
X118144000Y-74500000D01*
G75*
G02*
X118044000Y-74600000I-100000J0D01*
G01*
X116769000Y-74600000D01*
G75*
G02*
X116669000Y-74500000I0J100000D01*
G01*
G37*
%TD.AperFunction*%
%TO.P,U1,7*%
%TO.N,/P2_1*%
%TA.AperFunction,SMDPad,CuDef*%
G36*
G01*
X116669000Y-73850000D02*
X116669000Y-73650000D01*
G75*
G02*
X116769000Y-73550000I100000J0D01*
G01*
X118044000Y-73550000D01*
G75*
G02*
X118144000Y-73650000I0J-100000D01*
G01*
X118144000Y-73850000D01*
G75*
G02*
X118044000Y-73950000I-100000J0D01*
G01*
X116769000Y-73950000D01*
G75*
G02*
X116669000Y-73850000I0J100000D01*
G01*
G37*
%TD.AperFunction*%
%TO.P,U1,6*%
%TO.N,/P1_3*%
%TA.AperFunction,SMDPad,CuDef*%
G36*
G01*
X116669000Y-73200000D02*
X116669000Y-73000000D01*
G75*
G02*
X116769000Y-72900000I100000J0D01*
G01*
X118044000Y-72900000D01*
G75*
G02*
X118144000Y-73000000I0J-100000D01*
G01*
X118144000Y-73200000D01*
G75*
G02*
X118044000Y-73300000I-100000J0D01*
G01*
X116769000Y-73300000D01*
G75*
G02*
X116669000Y-73200000I0J100000D01*
G01*
G37*
%TD.AperFunction*%
%TO.P,U1,5*%
%TO.N,/P1_2*%
%TA.AperFunction,SMDPad,CuDef*%
G36*
G01*
X116669000Y-72550000D02*
X116669000Y-72350000D01*
G75*
G02*
X116769000Y-72250000I100000J0D01*
G01*
X118044000Y-72250000D01*
G75*
G02*
X118144000Y-72350000I0J-100000D01*
G01*
X118144000Y-72550000D01*
G75*
G02*
X118044000Y-72650000I-100000J0D01*
G01*
X116769000Y-72650000D01*
G75*
G02*
X116669000Y-72550000I0J100000D01*
G01*
G37*
%TD.AperFunction*%
%TO.P,U1,4*%
%TO.N,/P1_1*%
%TA.AperFunction,SMDPad,CuDef*%
G36*
G01*
X116669000Y-71900000D02*
X116669000Y-71700000D01*
G75*
G02*
X116769000Y-71600000I100000J0D01*
G01*
X118044000Y-71600000D01*
G75*
G02*
X118144000Y-71700000I0J-100000D01*
G01*
X118144000Y-71900000D01*
G75*
G02*
X118044000Y-72000000I-100000J0D01*
G01*
X116769000Y-72000000D01*
G75*
G02*
X116669000Y-71900000I0J100000D01*
G01*
G37*
%TD.AperFunction*%
%TO.P,U1,3*%
%TO.N,/A2*%
%TA.AperFunction,SMDPad,CuDef*%
G36*
G01*
X116669000Y-71250000D02*
X116669000Y-71050000D01*
G75*
G02*
X116769000Y-70950000I100000J0D01*
G01*
X118044000Y-70950000D01*
G75*
G02*
X118144000Y-71050000I0J-100000D01*
G01*
X118144000Y-71250000D01*
G75*
G02*
X118044000Y-71350000I-100000J0D01*
G01*
X116769000Y-71350000D01*
G75*
G02*
X116669000Y-71250000I0J100000D01*
G01*
G37*
%TD.AperFunction*%
%TO.P,U1,2*%
%TO.N,/A1*%
%TA.AperFunction,SMDPad,CuDef*%
G36*
G01*
X116669000Y-70600000D02*
X116669000Y-70400000D01*
G75*
G02*
X116769000Y-70300000I100000J0D01*
G01*
X118044000Y-70300000D01*
G75*
G02*
X118144000Y-70400000I0J-100000D01*
G01*
X118144000Y-70600000D01*
G75*
G02*
X118044000Y-70700000I-100000J0D01*
G01*
X116769000Y-70700000D01*
G75*
G02*
X116669000Y-70600000I0J100000D01*
G01*
G37*
%TD.AperFunction*%
%TO.P,U1,1*%
%TO.N,/~INT*%
%TA.AperFunction,SMDPad,CuDef*%
G36*
G01*
X116669000Y-69950000D02*
X116669000Y-69750000D01*
G75*
G02*
X116769000Y-69650000I100000J0D01*
G01*
X118044000Y-69650000D01*
G75*
G02*
X118144000Y-69750000I0J-100000D01*
G01*
X118144000Y-69950000D01*
G75*
G02*
X118044000Y-70050000I-100000J0D01*
G01*
X116769000Y-70050000D01*
G75*
G02*
X116669000Y-69950000I0J100000D01*
G01*
G37*
%TD.AperFunction*%
%TD*%
%TO.P,R2,2*%
%TO.N,+3V3*%
%TA.AperFunction,SMDPad,CuDef*%
G36*
G01*
X109951000Y-68817500D02*
X109951000Y-68342500D01*
G75*
G02*
X110188500Y-68105000I237500J0D01*
G01*
X110763500Y-68105000D01*
G75*
G02*
X111001000Y-68342500I0J-237500D01*
G01*
X111001000Y-68817500D01*
G75*
G02*
X110763500Y-69055000I-237500J0D01*
G01*
X110188500Y-69055000D01*
G75*
G02*
X109951000Y-68817500I0J237500D01*
G01*
G37*
%TD.AperFunction*%
%TO.P,R2,1*%
%TO.N,/~INT*%
%TA.AperFunction,SMDPad,CuDef*%
G36*
G01*
X108201000Y-68817500D02*
X108201000Y-68342500D01*
G75*
G02*
X108438500Y-68105000I237500J0D01*
G01*
X109013500Y-68105000D01*
G75*
G02*
X109251000Y-68342500I0J-237500D01*
G01*
X109251000Y-68817500D01*
G75*
G02*
X109013500Y-69055000I-237500J0D01*
G01*
X108438500Y-69055000D01*
G75*
G02*
X108201000Y-68817500I0J237500D01*
G01*
G37*
%TD.AperFunction*%
%TD*%
D11*
%TO.P,J8,1*%
%TO.N,/~INT*%
X108712000Y-72009000D03*
%TD*%
D12*
%TO.P,J1,2*%
%TO.N,GND*%
X114046000Y-63627000D03*
D11*
%TO.P,J1,1*%
%TO.N,+3V3*%
X114046000Y-61087000D03*
%TD*%
D13*
%TO.P,SW1,1*%
%TO.N,/SW1*%
X128501000Y-72517000D03*
%TO.P,SW1,2*%
%TO.N,+3V3*%
X128501000Y-68017000D03*
%TO.P,SW1,1*%
%TO.N,/SW1*%
X135001000Y-72517000D03*
%TO.P,SW1,2*%
%TO.N,+3V3*%
X135001000Y-68017000D03*
%TD*%
D12*
%TO.P,J7,4*%
%TO.N,GND*%
X134620000Y-90170000D03*
%TO.P,J7,3*%
%TO.N,/P5_3*%
X134620000Y-87630000D03*
%TO.P,J7,2*%
%TO.N,/P5_2*%
X134620000Y-85090000D03*
D11*
%TO.P,J7,1*%
%TO.N,/P5_1*%
X134620000Y-82550000D03*
%TD*%
D12*
%TO.P,J6,4*%
%TO.N,GND*%
X127508000Y-90170000D03*
%TO.P,J6,3*%
%TO.N,/P4_3*%
X127508000Y-87630000D03*
%TO.P,J6,2*%
%TO.N,/P4_2*%
X127508000Y-85090000D03*
D11*
%TO.P,J6,1*%
%TO.N,/P4_1*%
X127508000Y-82550000D03*
%TD*%
D12*
%TO.P,J5,4*%
%TO.N,GND*%
X120142000Y-90170000D03*
%TO.P,J5,3*%
%TO.N,/P3_3*%
X120142000Y-87630000D03*
%TO.P,J5,2*%
%TO.N,/P3_2*%
X120142000Y-85090000D03*
D11*
%TO.P,J5,1*%
%TO.N,/P3_1*%
X120142000Y-82550000D03*
%TD*%
D12*
%TO.P,J4,4*%
%TO.N,GND*%
X113030000Y-90170000D03*
%TO.P,J4,3*%
%TO.N,/P2_3*%
X113030000Y-87630000D03*
%TO.P,J4,2*%
%TO.N,/P2_2*%
X113030000Y-85090000D03*
D11*
%TO.P,J4,1*%
%TO.N,/P2_1*%
X113030000Y-82550000D03*
%TD*%
D12*
%TO.P,J3,4*%
%TO.N,GND*%
X105410000Y-90170000D03*
%TO.P,J3,3*%
%TO.N,/P1_3*%
X105410000Y-87630000D03*
%TO.P,J3,2*%
%TO.N,/P1_2*%
X105410000Y-85090000D03*
D11*
%TO.P,J3,1*%
%TO.N,/P1_1*%
X105410000Y-82550000D03*
%TD*%
D12*
%TO.P,J2,2*%
%TO.N,/SDA*%
X125730000Y-64135000D03*
D11*
%TO.P,J2,1*%
%TO.N,/SCL*%
X125730000Y-61595000D03*
%TD*%
D14*
%TO.N,/A0*%
X125349000Y-70993000D03*
%TO.N,/A1*%
X114215287Y-70424990D03*
%TO.N,/A2*%
X112267994Y-73660000D03*
%TD*%
D15*
%TO.N,+3V3*%
X126668000Y-69850000D02*
X128501000Y-68017000D01*
X123131500Y-69850000D02*
X126668000Y-69850000D01*
X128501000Y-68017000D02*
X135001000Y-68017000D01*
X114046000Y-61087000D02*
X114046000Y-60452000D01*
X115316000Y-59182000D02*
X126873000Y-59182000D01*
X114046000Y-60452000D02*
X115316000Y-59182000D01*
X128501000Y-60810000D02*
X128501000Y-68017000D01*
X126873000Y-59182000D02*
X128501000Y-60810000D01*
X110476000Y-64657000D02*
X114046000Y-61087000D01*
X110476000Y-68580000D02*
X110476000Y-64657000D01*
%TO.N,GND*%
X117406500Y-85793500D02*
X113030000Y-90170000D01*
X117406500Y-77000000D02*
X117406500Y-85793500D01*
%TO.N,/A0*%
X123131500Y-71800000D02*
X124542000Y-71800000D01*
X124542000Y-71800000D02*
X125349000Y-70993000D01*
%TO.N,/A1*%
X117406500Y-70500000D02*
X114290297Y-70500000D01*
X114290297Y-70500000D02*
X114215287Y-70424990D01*
%TO.N,/A2*%
X117406500Y-71150000D02*
X114777994Y-71150000D01*
X114777994Y-71150000D02*
X112267994Y-73660000D01*
%TO.N,/SDA*%
X122192962Y-70500000D02*
X123131500Y-70500000D01*
X122068990Y-70376028D02*
X122192962Y-70500000D01*
X122068990Y-67796010D02*
X122068990Y-70376028D01*
X125730000Y-64135000D02*
X122068990Y-67796010D01*
%TO.N,/SCL*%
X122204000Y-71150000D02*
X123131500Y-71150000D01*
X121618981Y-70564981D02*
X122204000Y-71150000D01*
X121618981Y-65706019D02*
X121618981Y-70564981D01*
X125730000Y-61595000D02*
X121618981Y-65706019D01*
%TO.N,/P1_3*%
X105410000Y-87630000D02*
X114782024Y-78257976D01*
X114782024Y-76158805D02*
X114993957Y-75946872D01*
X114782024Y-78257976D02*
X114782024Y-76158805D01*
X114993957Y-75946872D02*
X114993957Y-74775043D01*
X114993957Y-74775043D02*
X116669000Y-73100000D01*
X116669000Y-73100000D02*
X117406500Y-73100000D01*
%TO.N,/P1_2*%
X105410000Y-85090000D02*
X106259999Y-84240001D01*
X106259999Y-84240001D02*
X106259999Y-84044419D01*
X114543946Y-75760472D02*
X114543946Y-74575054D01*
X114543946Y-74575054D02*
X116669000Y-72450000D01*
X116669000Y-72450000D02*
X117406500Y-72450000D01*
X106259999Y-84044419D02*
X114543946Y-75760472D01*
%TO.N,/P1_1*%
X114093935Y-74375065D02*
X116669000Y-71800000D01*
X116669000Y-71800000D02*
X117406500Y-71800000D01*
X106864000Y-82550000D02*
X114093935Y-75320065D01*
X114093935Y-75320065D02*
X114093935Y-74375065D01*
X105410000Y-82550000D02*
X106864000Y-82550000D01*
%TO.N,/P2_3*%
X116132057Y-84527943D02*
X113879999Y-86780001D01*
X116669000Y-75050000D02*
X116343990Y-75375010D01*
X113879999Y-86780001D02*
X113030000Y-87630000D01*
X116343990Y-76506072D02*
X116132057Y-76718005D01*
X116343990Y-75375010D02*
X116343990Y-76506072D01*
X117406500Y-75050000D02*
X116669000Y-75050000D01*
X116132057Y-76718005D02*
X116132057Y-84527943D01*
%TO.N,/P2_2*%
X115682046Y-76531605D02*
X115893979Y-76319672D01*
X113030000Y-85090000D02*
X115682046Y-82437954D01*
X116669000Y-74400000D02*
X117406500Y-74400000D01*
X115893979Y-76319672D02*
X115893979Y-75175021D01*
X115682046Y-82437954D02*
X115682046Y-76531605D01*
X115893979Y-75175021D02*
X116669000Y-74400000D01*
%TO.N,/P2_1*%
X113030000Y-82550000D02*
X115232035Y-80347965D01*
X115443968Y-76133272D02*
X115443968Y-74975032D01*
X115232035Y-80347965D02*
X115232035Y-76345205D01*
X116669000Y-73750000D02*
X117406500Y-73750000D01*
X115232035Y-76345205D02*
X115443968Y-76133272D01*
X115443968Y-74975032D02*
X116669000Y-73750000D01*
%TO.N,/P5_3*%
X136245011Y-86004989D02*
X134620000Y-87630000D01*
X136245011Y-81253599D02*
X136245011Y-86004989D01*
X135916402Y-80924990D02*
X136245011Y-81253599D01*
X134137989Y-80924989D02*
X135916402Y-80924990D01*
X126313000Y-73100000D02*
X134137989Y-80924989D01*
X123131500Y-73100000D02*
X126313000Y-73100000D01*
%TO.N,/P5_2*%
X135795001Y-83914999D02*
X134620000Y-85090000D01*
X135795001Y-81439999D02*
X135795001Y-83914999D01*
X135730001Y-81374999D02*
X135795001Y-81439999D01*
X125885000Y-73750000D02*
X133509999Y-81374999D01*
X133509999Y-81374999D02*
X135730001Y-81374999D01*
X123131500Y-73750000D02*
X125885000Y-73750000D01*
%TO.N,/P5_1*%
X133520000Y-82550000D02*
X134620000Y-82550000D01*
X125494990Y-74524990D02*
X133520000Y-82550000D01*
X123165990Y-74524990D02*
X125494990Y-74524990D01*
X123131500Y-74490500D02*
X123165990Y-74524990D01*
X123131500Y-74400000D02*
X123131500Y-74490500D01*
%TO.N,/P4_3*%
X129133011Y-86004989D02*
X127508000Y-87630000D01*
X129133011Y-79727191D02*
X129133011Y-86004989D01*
X124455820Y-75050000D02*
X129133011Y-79727191D01*
X123131500Y-75050000D02*
X124455820Y-75050000D01*
%TO.N,/P4_2*%
X124469410Y-75700000D02*
X123131500Y-75700000D01*
X128683001Y-79913591D02*
X124469410Y-75700000D01*
X128683001Y-83914999D02*
X128683001Y-79913591D01*
X127508000Y-85090000D02*
X128683001Y-83914999D01*
%TO.N,/P4_1*%
X123131500Y-76350000D02*
X124483000Y-76350000D01*
X127508000Y-79375000D02*
X127508000Y-82550000D01*
X124483000Y-76350000D02*
X127508000Y-79375000D01*
%TO.N,/P3_3*%
X121793000Y-77597000D02*
X122382127Y-77043127D01*
X120142000Y-87630000D02*
X121793000Y-86233000D01*
X122382127Y-77043127D02*
X123131500Y-77000000D01*
X121793000Y-86233000D02*
X121793000Y-77597000D01*
%TO.N,/P3_2*%
X117406500Y-76350000D02*
X116840000Y-76350000D01*
X118966999Y-83914999D02*
X120142000Y-85090000D01*
X118966999Y-77221941D02*
X118966999Y-83914999D01*
X118095058Y-76350000D02*
X118966999Y-77221941D01*
X117406500Y-76350000D02*
X118095058Y-76350000D01*
%TO.N,/P3_1*%
X120142000Y-77698000D02*
X120142000Y-82550000D01*
X118144000Y-75700000D02*
X120142000Y-77698000D01*
X117406500Y-75700000D02*
X118144000Y-75700000D01*
%TO.N,/~INT*%
X109971000Y-69650000D02*
X117206500Y-69650000D01*
X108712000Y-70909000D02*
X109971000Y-69650000D01*
X108712000Y-72009000D02*
X108712000Y-70909000D01*
X117206500Y-69650000D02*
X117406500Y-69850000D01*
X108726000Y-71995000D02*
X108712000Y-72009000D01*
X108726000Y-68580000D02*
X108726000Y-71995000D01*
%TO.N,/SW1*%
X135382000Y-72898000D02*
X135001000Y-72517000D01*
X128501000Y-72517000D02*
X135001000Y-72517000D01*
X123198500Y-72517000D02*
X123131500Y-72450000D01*
X128501000Y-72517000D02*
X123198500Y-72517000D01*
%TD*%
M02*
