M48
; DRILL file {KiCad (5.1.6)-1} date 09/04/20 22:07:06
; FORMAT={-:-/ absolute / inch / decimal}
; #@! TF.CreationDate,2020-09-04T22:07:06+02:00
; #@! TF.GenerationSoftware,Kicad,Pcbnew,(5.1.6)-1
; #@! TF.FileFunction,Plated,1,2,PTH
FMAT,2
INCH
T1C0.0157
T2C0.0236
T3C0.0394
T4C0.0433
T5C0.1693
%
G90
G05
T1
X4.3065Y-2.52
X4.335Y-2.44
X4.78Y-2.8215
T2
X4.123Y-2.85
X4.1602Y-2.7602
X4.1602Y-2.9398
X4.25Y-2.723
X4.25Y-2.977
X4.3398Y-2.7602
X4.3398Y-2.9398
X4.377Y-2.85
X5.098Y-2.85
X5.1352Y-2.7602
X5.1352Y-2.9398
X5.225Y-2.723
X5.225Y-2.977
X5.3148Y-2.7602
X5.3148Y-2.9398
X5.352Y-2.85
T3
X5.3Y-3.25
X5.3Y-3.35
X5.3Y-3.45
X5.3Y-3.55
X4.45Y-3.25
X4.45Y-3.35
X4.45Y-3.45
X4.45Y-3.55
X4.15Y-2.29
X4.73Y-3.25
X4.73Y-3.35
X4.73Y-3.45
X4.73Y-3.55
X5.2Y-2.525
X5.3Y-2.525
X4.15Y-3.25
X4.15Y-3.35
X4.15Y-3.45
X4.15Y-3.55
X5.2Y-2.295
X5.3Y-2.295
X5.02Y-3.25
X5.02Y-3.35
X5.02Y-3.45
X5.02Y-3.55
T4
X4.625Y-2.275
X4.625Y-2.4522
X4.8809Y-2.275
X4.8809Y-2.4522
T5
X4.25Y-2.85
X5.225Y-2.85
T0
M30
