%TF.GenerationSoftware,KiCad,Pcbnew,(5.1.6)-1*%
%TF.CreationDate,2020-09-14T23:39:59+02:00*%
%TF.ProjectId,gpioexpander,6770696f-6578-4706-916e-6465722e6b69,rev?*%
%TF.SameCoordinates,Original*%
%TF.FileFunction,Paste,Bot*%
%TF.FilePolarity,Positive*%
%FSLAX46Y46*%
G04 Gerber Fmt 4.6, Leading zero omitted, Abs format (unit mm)*
G04 Created by KiCad (PCBNEW (5.1.6)-1) date 2020-09-14 23:39:59*
%MOMM*%
%LPD*%
G01*
G04 APERTURE LIST*
G04 APERTURE END LIST*
%TO.C,R4*%
G36*
G01*
X119564999Y-65737000D02*
X120465001Y-65737000D01*
G75*
G02*
X120715000Y-65986999I0J-249999D01*
G01*
X120715000Y-66637001D01*
G75*
G02*
X120465001Y-66887000I-249999J0D01*
G01*
X119564999Y-66887000D01*
G75*
G02*
X119315000Y-66637001I0J249999D01*
G01*
X119315000Y-65986999D01*
G75*
G02*
X119564999Y-65737000I249999J0D01*
G01*
G37*
G36*
G01*
X119564999Y-63687000D02*
X120465001Y-63687000D01*
G75*
G02*
X120715000Y-63936999I0J-249999D01*
G01*
X120715000Y-64587001D01*
G75*
G02*
X120465001Y-64837000I-249999J0D01*
G01*
X119564999Y-64837000D01*
G75*
G02*
X119315000Y-64587001I0J249999D01*
G01*
X119315000Y-63936999D01*
G75*
G02*
X119564999Y-63687000I249999J0D01*
G01*
G37*
%TD*%
%TO.C,R8*%
G36*
G01*
X117798001Y-61009000D02*
X116897999Y-61009000D01*
G75*
G02*
X116648000Y-60759001I0J249999D01*
G01*
X116648000Y-60108999D01*
G75*
G02*
X116897999Y-59859000I249999J0D01*
G01*
X117798001Y-59859000D01*
G75*
G02*
X118048000Y-60108999I0J-249999D01*
G01*
X118048000Y-60759001D01*
G75*
G02*
X117798001Y-61009000I-249999J0D01*
G01*
G37*
G36*
G01*
X117798001Y-63059000D02*
X116897999Y-63059000D01*
G75*
G02*
X116648000Y-62809001I0J249999D01*
G01*
X116648000Y-62158999D01*
G75*
G02*
X116897999Y-61909000I249999J0D01*
G01*
X117798001Y-61909000D01*
G75*
G02*
X118048000Y-62158999I0J-249999D01*
G01*
X118048000Y-62809001D01*
G75*
G02*
X117798001Y-63059000I-249999J0D01*
G01*
G37*
%TD*%
%TO.C,R7*%
G36*
G01*
X120465001Y-61009000D02*
X119564999Y-61009000D01*
G75*
G02*
X119315000Y-60759001I0J249999D01*
G01*
X119315000Y-60108999D01*
G75*
G02*
X119564999Y-59859000I249999J0D01*
G01*
X120465001Y-59859000D01*
G75*
G02*
X120715000Y-60108999I0J-249999D01*
G01*
X120715000Y-60759001D01*
G75*
G02*
X120465001Y-61009000I-249999J0D01*
G01*
G37*
G36*
G01*
X120465001Y-63059000D02*
X119564999Y-63059000D01*
G75*
G02*
X119315000Y-62809001I0J249999D01*
G01*
X119315000Y-62158999D01*
G75*
G02*
X119564999Y-61909000I249999J0D01*
G01*
X120465001Y-61909000D01*
G75*
G02*
X120715000Y-62158999I0J-249999D01*
G01*
X120715000Y-62809001D01*
G75*
G02*
X120465001Y-63059000I-249999J0D01*
G01*
G37*
%TD*%
%TO.C,R5*%
G36*
G01*
X116897999Y-65728000D02*
X117798001Y-65728000D01*
G75*
G02*
X118048000Y-65977999I0J-249999D01*
G01*
X118048000Y-66628001D01*
G75*
G02*
X117798001Y-66878000I-249999J0D01*
G01*
X116897999Y-66878000D01*
G75*
G02*
X116648000Y-66628001I0J249999D01*
G01*
X116648000Y-65977999D01*
G75*
G02*
X116897999Y-65728000I249999J0D01*
G01*
G37*
G36*
G01*
X116897999Y-63678000D02*
X117798001Y-63678000D01*
G75*
G02*
X118048000Y-63927999I0J-249999D01*
G01*
X118048000Y-64578001D01*
G75*
G02*
X117798001Y-64828000I-249999J0D01*
G01*
X116897999Y-64828000D01*
G75*
G02*
X116648000Y-64578001I0J249999D01*
G01*
X116648000Y-63927999D01*
G75*
G02*
X116897999Y-63678000I249999J0D01*
G01*
G37*
%TD*%
%TO.C,R3*%
G36*
G01*
X122358999Y-65737000D02*
X123259001Y-65737000D01*
G75*
G02*
X123509000Y-65986999I0J-249999D01*
G01*
X123509000Y-66637001D01*
G75*
G02*
X123259001Y-66887000I-249999J0D01*
G01*
X122358999Y-66887000D01*
G75*
G02*
X122109000Y-66637001I0J249999D01*
G01*
X122109000Y-65986999D01*
G75*
G02*
X122358999Y-65737000I249999J0D01*
G01*
G37*
G36*
G01*
X122358999Y-63687000D02*
X123259001Y-63687000D01*
G75*
G02*
X123509000Y-63936999I0J-249999D01*
G01*
X123509000Y-64587001D01*
G75*
G02*
X123259001Y-64837000I-249999J0D01*
G01*
X122358999Y-64837000D01*
G75*
G02*
X122109000Y-64587001I0J249999D01*
G01*
X122109000Y-63936999D01*
G75*
G02*
X122358999Y-63687000I249999J0D01*
G01*
G37*
%TD*%
%TO.C,R6*%
G36*
G01*
X123259001Y-61018000D02*
X122358999Y-61018000D01*
G75*
G02*
X122109000Y-60768001I0J249999D01*
G01*
X122109000Y-60117999D01*
G75*
G02*
X122358999Y-59868000I249999J0D01*
G01*
X123259001Y-59868000D01*
G75*
G02*
X123509000Y-60117999I0J-249999D01*
G01*
X123509000Y-60768001D01*
G75*
G02*
X123259001Y-61018000I-249999J0D01*
G01*
G37*
G36*
G01*
X123259001Y-63068000D02*
X122358999Y-63068000D01*
G75*
G02*
X122109000Y-62818001I0J249999D01*
G01*
X122109000Y-62167999D01*
G75*
G02*
X122358999Y-61918000I249999J0D01*
G01*
X123259001Y-61918000D01*
G75*
G02*
X123509000Y-62167999I0J-249999D01*
G01*
X123509000Y-62818001D01*
G75*
G02*
X123259001Y-63068000I-249999J0D01*
G01*
G37*
%TD*%
%TO.C,R1*%
G36*
G01*
X134157000Y-76978500D02*
X134157000Y-77453500D01*
G75*
G02*
X133919500Y-77691000I-237500J0D01*
G01*
X133344500Y-77691000D01*
G75*
G02*
X133107000Y-77453500I0J237500D01*
G01*
X133107000Y-76978500D01*
G75*
G02*
X133344500Y-76741000I237500J0D01*
G01*
X133919500Y-76741000D01*
G75*
G02*
X134157000Y-76978500I0J-237500D01*
G01*
G37*
G36*
G01*
X135907000Y-76978500D02*
X135907000Y-77453500D01*
G75*
G02*
X135669500Y-77691000I-237500J0D01*
G01*
X135094500Y-77691000D01*
G75*
G02*
X134857000Y-77453500I0J237500D01*
G01*
X134857000Y-76978500D01*
G75*
G02*
X135094500Y-76741000I237500J0D01*
G01*
X135669500Y-76741000D01*
G75*
G02*
X135907000Y-76978500I0J-237500D01*
G01*
G37*
%TD*%
M02*
