%TF.GenerationSoftware,KiCad,Pcbnew,(5.1.6)-1*%
%TF.CreationDate,2020-09-04T22:07:04+02:00*%
%TF.ProjectId,gpioexpander,6770696f-6578-4706-916e-6465722e6b69,rev?*%
%TF.SameCoordinates,Original*%
%TF.FileFunction,Copper,L2,Bot*%
%TF.FilePolarity,Positive*%
%FSLAX46Y46*%
G04 Gerber Fmt 4.6, Leading zero omitted, Abs format (unit mm)*
G04 Created by KiCad (PCBNEW (5.1.6)-1) date 2020-09-04 22:07:04*
%MOMM*%
%LPD*%
G01*
G04 APERTURE LIST*
%TA.AperFunction,ComponentPad*%
%ADD10C,0.900000*%
%TD*%
%TA.AperFunction,ComponentPad*%
%ADD11C,8.600000*%
%TD*%
%TA.AperFunction,ComponentPad*%
%ADD12R,1.700000X1.700000*%
%TD*%
%TA.AperFunction,ComponentPad*%
%ADD13O,1.700000X1.700000*%
%TD*%
%TA.AperFunction,ComponentPad*%
%ADD14C,2.000000*%
%TD*%
%TA.AperFunction,ViaPad*%
%ADD15C,0.800000*%
%TD*%
%TA.AperFunction,Conductor*%
%ADD16C,0.250000*%
%TD*%
%TA.AperFunction,Conductor*%
%ADD17C,0.254000*%
%TD*%
G04 APERTURE END LIST*
%TO.P,R8,2*%
%TO.N,+3V3*%
%TA.AperFunction,SMDPad,CuDef*%
G36*
G01*
X112210001Y-57843000D02*
X111309999Y-57843000D01*
G75*
G02*
X111060000Y-57593001I0J249999D01*
G01*
X111060000Y-56942999D01*
G75*
G02*
X111309999Y-56693000I249999J0D01*
G01*
X112210001Y-56693000D01*
G75*
G02*
X112460000Y-56942999I0J-249999D01*
G01*
X112460000Y-57593001D01*
G75*
G02*
X112210001Y-57843000I-249999J0D01*
G01*
G37*
%TD.AperFunction*%
%TO.P,R8,1*%
%TO.N,/A2*%
%TA.AperFunction,SMDPad,CuDef*%
G36*
G01*
X112210001Y-59893000D02*
X111309999Y-59893000D01*
G75*
G02*
X111060000Y-59643001I0J249999D01*
G01*
X111060000Y-58992999D01*
G75*
G02*
X111309999Y-58743000I249999J0D01*
G01*
X112210001Y-58743000D01*
G75*
G02*
X112460000Y-58992999I0J-249999D01*
G01*
X112460000Y-59643001D01*
G75*
G02*
X112210001Y-59893000I-249999J0D01*
G01*
G37*
%TD.AperFunction*%
%TD*%
%TO.P,R7,2*%
%TO.N,+3V3*%
%TA.AperFunction,SMDPad,CuDef*%
G36*
G01*
X109924001Y-57852000D02*
X109023999Y-57852000D01*
G75*
G02*
X108774000Y-57602001I0J249999D01*
G01*
X108774000Y-56951999D01*
G75*
G02*
X109023999Y-56702000I249999J0D01*
G01*
X109924001Y-56702000D01*
G75*
G02*
X110174000Y-56951999I0J-249999D01*
G01*
X110174000Y-57602001D01*
G75*
G02*
X109924001Y-57852000I-249999J0D01*
G01*
G37*
%TD.AperFunction*%
%TO.P,R7,1*%
%TO.N,/A1*%
%TA.AperFunction,SMDPad,CuDef*%
G36*
G01*
X109924001Y-59902000D02*
X109023999Y-59902000D01*
G75*
G02*
X108774000Y-59652001I0J249999D01*
G01*
X108774000Y-59001999D01*
G75*
G02*
X109023999Y-58752000I249999J0D01*
G01*
X109924001Y-58752000D01*
G75*
G02*
X110174000Y-59001999I0J-249999D01*
G01*
X110174000Y-59652001D01*
G75*
G02*
X109924001Y-59902000I-249999J0D01*
G01*
G37*
%TD.AperFunction*%
%TD*%
%TO.P,R5,2*%
%TO.N,GND*%
%TA.AperFunction,SMDPad,CuDef*%
G36*
G01*
X106112000Y-63557999D02*
X106112000Y-64458001D01*
G75*
G02*
X105862001Y-64708000I-249999J0D01*
G01*
X105211999Y-64708000D01*
G75*
G02*
X104962000Y-64458001I0J249999D01*
G01*
X104962000Y-63557999D01*
G75*
G02*
X105211999Y-63308000I249999J0D01*
G01*
X105862001Y-63308000D01*
G75*
G02*
X106112000Y-63557999I0J-249999D01*
G01*
G37*
%TD.AperFunction*%
%TO.P,R5,1*%
%TO.N,/A2*%
%TA.AperFunction,SMDPad,CuDef*%
G36*
G01*
X108162000Y-63557999D02*
X108162000Y-64458001D01*
G75*
G02*
X107912001Y-64708000I-249999J0D01*
G01*
X107261999Y-64708000D01*
G75*
G02*
X107012000Y-64458001I0J249999D01*
G01*
X107012000Y-63557999D01*
G75*
G02*
X107261999Y-63308000I249999J0D01*
G01*
X107912001Y-63308000D01*
G75*
G02*
X108162000Y-63557999I0J-249999D01*
G01*
G37*
%TD.AperFunction*%
%TD*%
%TO.P,R4,2*%
%TO.N,GND*%
%TA.AperFunction,SMDPad,CuDef*%
G36*
G01*
X106094000Y-61525999D02*
X106094000Y-62426001D01*
G75*
G02*
X105844001Y-62676000I-249999J0D01*
G01*
X105193999Y-62676000D01*
G75*
G02*
X104944000Y-62426001I0J249999D01*
G01*
X104944000Y-61525999D01*
G75*
G02*
X105193999Y-61276000I249999J0D01*
G01*
X105844001Y-61276000D01*
G75*
G02*
X106094000Y-61525999I0J-249999D01*
G01*
G37*
%TD.AperFunction*%
%TO.P,R4,1*%
%TO.N,/A1*%
%TA.AperFunction,SMDPad,CuDef*%
G36*
G01*
X108144000Y-61525999D02*
X108144000Y-62426001D01*
G75*
G02*
X107894001Y-62676000I-249999J0D01*
G01*
X107243999Y-62676000D01*
G75*
G02*
X106994000Y-62426001I0J249999D01*
G01*
X106994000Y-61525999D01*
G75*
G02*
X107243999Y-61276000I249999J0D01*
G01*
X107894001Y-61276000D01*
G75*
G02*
X108144000Y-61525999I0J-249999D01*
G01*
G37*
%TD.AperFunction*%
%TD*%
%TO.P,R3,2*%
%TO.N,GND*%
%TA.AperFunction,SMDPad,CuDef*%
G36*
G01*
X106112000Y-65716999D02*
X106112000Y-66617001D01*
G75*
G02*
X105862001Y-66867000I-249999J0D01*
G01*
X105211999Y-66867000D01*
G75*
G02*
X104962000Y-66617001I0J249999D01*
G01*
X104962000Y-65716999D01*
G75*
G02*
X105211999Y-65467000I249999J0D01*
G01*
X105862001Y-65467000D01*
G75*
G02*
X106112000Y-65716999I0J-249999D01*
G01*
G37*
%TD.AperFunction*%
%TO.P,R3,1*%
%TO.N,/A0*%
%TA.AperFunction,SMDPad,CuDef*%
G36*
G01*
X108162000Y-65716999D02*
X108162000Y-66617001D01*
G75*
G02*
X107912001Y-66867000I-249999J0D01*
G01*
X107261999Y-66867000D01*
G75*
G02*
X107012000Y-66617001I0J249999D01*
G01*
X107012000Y-65716999D01*
G75*
G02*
X107261999Y-65467000I249999J0D01*
G01*
X107912001Y-65467000D01*
G75*
G02*
X108162000Y-65716999I0J-249999D01*
G01*
G37*
%TD.AperFunction*%
%TD*%
%TO.P,R6,2*%
%TO.N,+3V3*%
%TA.AperFunction,SMDPad,CuDef*%
G36*
G01*
X114496001Y-57852000D02*
X113595999Y-57852000D01*
G75*
G02*
X113346000Y-57602001I0J249999D01*
G01*
X113346000Y-56951999D01*
G75*
G02*
X113595999Y-56702000I249999J0D01*
G01*
X114496001Y-56702000D01*
G75*
G02*
X114746000Y-56951999I0J-249999D01*
G01*
X114746000Y-57602001D01*
G75*
G02*
X114496001Y-57852000I-249999J0D01*
G01*
G37*
%TD.AperFunction*%
%TO.P,R6,1*%
%TO.N,/A0*%
%TA.AperFunction,SMDPad,CuDef*%
G36*
G01*
X114496001Y-59902000D02*
X113595999Y-59902000D01*
G75*
G02*
X113346000Y-59652001I0J249999D01*
G01*
X113346000Y-59001999D01*
G75*
G02*
X113595999Y-58752000I249999J0D01*
G01*
X114496001Y-58752000D01*
G75*
G02*
X114746000Y-59001999I0J-249999D01*
G01*
X114746000Y-59652001D01*
G75*
G02*
X114496001Y-59902000I-249999J0D01*
G01*
G37*
%TD.AperFunction*%
%TD*%
D10*
%TO.P,H2,1*%
%TO.N,GND*%
X110230419Y-70109581D03*
X107950000Y-69165000D03*
X105669581Y-70109581D03*
X104725000Y-72390000D03*
X105669581Y-74670419D03*
X107950000Y-75615000D03*
X110230419Y-74670419D03*
X111175000Y-72390000D03*
D11*
X107950000Y-72390000D03*
%TD*%
D10*
%TO.P,H1,1*%
%TO.N,GND*%
X134995419Y-70109581D03*
X132715000Y-69165000D03*
X130434581Y-70109581D03*
X129490000Y-72390000D03*
X130434581Y-74670419D03*
X132715000Y-75615000D03*
X134995419Y-74670419D03*
X135940000Y-72390000D03*
D11*
X132715000Y-72390000D03*
%TD*%
%TO.P,R1,2*%
%TO.N,GND*%
%TA.AperFunction,SMDPad,CuDef*%
G36*
G01*
X128366000Y-58276500D02*
X128366000Y-57801500D01*
G75*
G02*
X128603500Y-57564000I237500J0D01*
G01*
X129178500Y-57564000D01*
G75*
G02*
X129416000Y-57801500I0J-237500D01*
G01*
X129416000Y-58276500D01*
G75*
G02*
X129178500Y-58514000I-237500J0D01*
G01*
X128603500Y-58514000D01*
G75*
G02*
X128366000Y-58276500I0J237500D01*
G01*
G37*
%TD.AperFunction*%
%TO.P,R1,1*%
%TO.N,Net-(R1-Pad1)*%
%TA.AperFunction,SMDPad,CuDef*%
G36*
G01*
X126616000Y-58276500D02*
X126616000Y-57801500D01*
G75*
G02*
X126853500Y-57564000I237500J0D01*
G01*
X127428500Y-57564000D01*
G75*
G02*
X127666000Y-57801500I0J-237500D01*
G01*
X127666000Y-58276500D01*
G75*
G02*
X127428500Y-58514000I-237500J0D01*
G01*
X126853500Y-58514000D01*
G75*
G02*
X126616000Y-58276500I0J237500D01*
G01*
G37*
%TD.AperFunction*%
%TD*%
D12*
%TO.P,J8,1*%
%TO.N,Net-(J8-Pad1)*%
X105410000Y-58166000D03*
%TD*%
D13*
%TO.P,J1,2*%
%TO.N,GND*%
X134620000Y-58293000D03*
D12*
%TO.P,J1,1*%
%TO.N,+3V3*%
X132080000Y-58293000D03*
%TD*%
D14*
%TO.P,SW1,1*%
%TO.N,Net-(R1-Pad1)*%
X123975000Y-57785000D03*
%TO.P,SW1,2*%
%TO.N,+3V3*%
X123975000Y-62285000D03*
%TO.P,SW1,1*%
%TO.N,Net-(R1-Pad1)*%
X117475000Y-57785000D03*
%TO.P,SW1,2*%
%TO.N,+3V3*%
X117475000Y-62285000D03*
%TD*%
D13*
%TO.P,J7,4*%
%TO.N,GND*%
X134620000Y-90170000D03*
%TO.P,J7,3*%
%TO.N,Net-(J7-Pad3)*%
X134620000Y-87630000D03*
%TO.P,J7,2*%
%TO.N,Net-(J7-Pad2)*%
X134620000Y-85090000D03*
D12*
%TO.P,J7,1*%
%TO.N,Net-(J7-Pad1)*%
X134620000Y-82550000D03*
%TD*%
D13*
%TO.P,J6,4*%
%TO.N,GND*%
X127508000Y-90170000D03*
%TO.P,J6,3*%
%TO.N,Net-(J6-Pad3)*%
X127508000Y-87630000D03*
%TO.P,J6,2*%
%TO.N,Net-(J6-Pad2)*%
X127508000Y-85090000D03*
D12*
%TO.P,J6,1*%
%TO.N,Net-(J6-Pad1)*%
X127508000Y-82550000D03*
%TD*%
D13*
%TO.P,J5,4*%
%TO.N,GND*%
X120142000Y-90170000D03*
%TO.P,J5,3*%
%TO.N,Net-(J5-Pad3)*%
X120142000Y-87630000D03*
%TO.P,J5,2*%
%TO.N,Net-(J5-Pad2)*%
X120142000Y-85090000D03*
D12*
%TO.P,J5,1*%
%TO.N,Net-(J5-Pad1)*%
X120142000Y-82550000D03*
%TD*%
D13*
%TO.P,J4,4*%
%TO.N,GND*%
X113030000Y-90170000D03*
%TO.P,J4,3*%
%TO.N,Net-(J4-Pad3)*%
X113030000Y-87630000D03*
%TO.P,J4,2*%
%TO.N,Net-(J4-Pad2)*%
X113030000Y-85090000D03*
D12*
%TO.P,J4,1*%
%TO.N,Net-(J4-Pad1)*%
X113030000Y-82550000D03*
%TD*%
D13*
%TO.P,J3,4*%
%TO.N,GND*%
X105410000Y-90170000D03*
%TO.P,J3,3*%
%TO.N,Net-(J3-Pad3)*%
X105410000Y-87630000D03*
%TO.P,J3,2*%
%TO.N,Net-(J3-Pad2)*%
X105410000Y-85090000D03*
D12*
%TO.P,J3,1*%
%TO.N,Net-(J3-Pad1)*%
X105410000Y-82550000D03*
%TD*%
D13*
%TO.P,J2,2*%
%TO.N,Net-(J2-Pad2)*%
X132080000Y-64135000D03*
D12*
%TO.P,J2,1*%
%TO.N,Net-(J2-Pad1)*%
X134620000Y-64135000D03*
%TD*%
D15*
%TO.N,/A0*%
X121412000Y-71664990D03*
%TO.N,/A2*%
X109383990Y-64008000D03*
%TO.N,/A1*%
X110109000Y-61976000D03*
%TD*%
D16*
%TO.N,+3V3*%
X123975000Y-62285000D02*
X117475000Y-62285000D01*
X111769000Y-57277000D02*
X111760000Y-57268000D01*
X114046000Y-57277000D02*
X111769000Y-57277000D01*
X117475000Y-60706000D02*
X114046000Y-57277000D01*
X117475000Y-62285000D02*
X117475000Y-60706000D01*
X111751000Y-57277000D02*
X109347000Y-57277000D01*
X111760000Y-57268000D02*
X111751000Y-57277000D01*
%TO.N,GND*%
X105519000Y-63990000D02*
X105537000Y-64008000D01*
X105519000Y-61976000D02*
X105519000Y-63990000D01*
X105537000Y-64008000D02*
X105537000Y-66167000D01*
X105537000Y-69977000D02*
X107950000Y-72390000D01*
X105537000Y-66167000D02*
X105537000Y-69977000D01*
%TO.N,Net-(R1-Pad1)*%
X124229000Y-58039000D02*
X123975000Y-57785000D01*
X127141000Y-58039000D02*
X124229000Y-58039000D01*
%TO.N,/A0*%
X114046000Y-59327000D02*
X114046000Y-62287002D01*
X110236000Y-66167000D02*
X107587000Y-66167000D01*
X114046000Y-62287002D02*
X114046000Y-62357000D01*
X114046000Y-62357000D02*
X110236000Y-66167000D01*
X121412000Y-71099305D02*
X121412000Y-71664990D01*
X114046000Y-62287002D02*
X121412000Y-69653002D01*
X121412000Y-69653002D02*
X121412000Y-71099305D01*
%TO.N,/A2*%
X109531002Y-64008000D02*
X107587000Y-64008000D01*
X111760000Y-61779002D02*
X109531002Y-64008000D01*
X111760000Y-59318000D02*
X111760000Y-61779002D01*
X109531002Y-64008000D02*
X109383990Y-64008000D01*
%TO.N,/A1*%
X107569000Y-61976000D02*
X107569000Y-62103000D01*
X107569000Y-61976000D02*
X110109000Y-61976000D01*
X109474000Y-60071000D02*
X107569000Y-61976000D01*
X109474000Y-59327000D02*
X109474000Y-60071000D01*
%TD*%
D17*
%TO.N,GND*%
G36*
X108203528Y-56612149D02*
G01*
X108152992Y-56778745D01*
X108135928Y-56951999D01*
X108135928Y-57602001D01*
X108152992Y-57775255D01*
X108203528Y-57941851D01*
X108285595Y-58095387D01*
X108396038Y-58229962D01*
X108483816Y-58302000D01*
X108396038Y-58374038D01*
X108285595Y-58508613D01*
X108203528Y-58662149D01*
X108152992Y-58828745D01*
X108135928Y-59001999D01*
X108135928Y-59652001D01*
X108152992Y-59825255D01*
X108203528Y-59991851D01*
X108285595Y-60145387D01*
X108303272Y-60166926D01*
X107832271Y-60637928D01*
X107243999Y-60637928D01*
X107070745Y-60654992D01*
X106904149Y-60705528D01*
X106750613Y-60787595D01*
X106616038Y-60898038D01*
X106610658Y-60904594D01*
X106545185Y-60824815D01*
X106448494Y-60745463D01*
X106338180Y-60686498D01*
X106218482Y-60650188D01*
X106094000Y-60637928D01*
X105804750Y-60641000D01*
X105646000Y-60799750D01*
X105646000Y-61849000D01*
X105666000Y-61849000D01*
X105666000Y-62103000D01*
X105646000Y-62103000D01*
X105646000Y-63152250D01*
X105664000Y-63170250D01*
X105664000Y-63881000D01*
X105684000Y-63881000D01*
X105684000Y-64135000D01*
X105664000Y-64135000D01*
X105664000Y-66040000D01*
X105684000Y-66040000D01*
X105684000Y-66294000D01*
X105664000Y-66294000D01*
X105664000Y-67343250D01*
X105822750Y-67502000D01*
X106112000Y-67505072D01*
X106236482Y-67492812D01*
X106356180Y-67456502D01*
X106466494Y-67397537D01*
X106563185Y-67318185D01*
X106628658Y-67238406D01*
X106634038Y-67244962D01*
X106768613Y-67355405D01*
X106922149Y-67437472D01*
X107088745Y-67488008D01*
X107210356Y-67499986D01*
X107049079Y-67513649D01*
X106115062Y-67783107D01*
X105251560Y-68229606D01*
X105138946Y-68304851D01*
X104646787Y-68907182D01*
X107950000Y-72210395D01*
X111253213Y-68907182D01*
X110761054Y-68304851D01*
X109910067Y-67834937D01*
X108983757Y-67540071D01*
X108202754Y-67452365D01*
X108251851Y-67437472D01*
X108405387Y-67355405D01*
X108539962Y-67244962D01*
X108650405Y-67110387D01*
X108732472Y-66956851D01*
X108741527Y-66927000D01*
X110198678Y-66927000D01*
X110236000Y-66930676D01*
X110273322Y-66927000D01*
X110273333Y-66927000D01*
X110384986Y-66916003D01*
X110528247Y-66872546D01*
X110660276Y-66801974D01*
X110776001Y-66707001D01*
X110799804Y-66677997D01*
X114080999Y-63396802D01*
X120652000Y-69967804D01*
X120652001Y-70961278D01*
X120608063Y-71005216D01*
X120494795Y-71174734D01*
X120416774Y-71363092D01*
X120377000Y-71563051D01*
X120377000Y-71766929D01*
X120416774Y-71966888D01*
X120494795Y-72155246D01*
X120608063Y-72324764D01*
X120752226Y-72468927D01*
X120921744Y-72582195D01*
X121110102Y-72660216D01*
X121310061Y-72699990D01*
X121513939Y-72699990D01*
X121713898Y-72660216D01*
X121902256Y-72582195D01*
X122071774Y-72468927D01*
X122215937Y-72324764D01*
X122217596Y-72322281D01*
X127756586Y-72322281D01*
X127838649Y-73290921D01*
X128108107Y-74224938D01*
X128554606Y-75088440D01*
X128629851Y-75201054D01*
X129232182Y-75693213D01*
X132535395Y-72390000D01*
X129232182Y-69086787D01*
X128629851Y-69578946D01*
X128159937Y-70429933D01*
X127865071Y-71356243D01*
X127756586Y-72322281D01*
X122217596Y-72322281D01*
X122329205Y-72155246D01*
X122407226Y-71966888D01*
X122447000Y-71766929D01*
X122447000Y-71563051D01*
X122407226Y-71363092D01*
X122329205Y-71174734D01*
X122215937Y-71005216D01*
X122172000Y-70961279D01*
X122172000Y-69690324D01*
X122175676Y-69653001D01*
X122172000Y-69615678D01*
X122172000Y-69615669D01*
X122161003Y-69504016D01*
X122117546Y-69360755D01*
X122082019Y-69294290D01*
X122046974Y-69228725D01*
X121975799Y-69141999D01*
X121952001Y-69113001D01*
X121923004Y-69089204D01*
X121740982Y-68907182D01*
X129411787Y-68907182D01*
X132715000Y-72210395D01*
X136018213Y-68907182D01*
X135526054Y-68304851D01*
X134675067Y-67834937D01*
X133748757Y-67540071D01*
X132782719Y-67431586D01*
X131814079Y-67513649D01*
X130880062Y-67783107D01*
X130016560Y-68229606D01*
X129903946Y-68304851D01*
X129411787Y-68907182D01*
X121740982Y-68907182D01*
X116822540Y-63988740D01*
X130595000Y-63988740D01*
X130595000Y-64281260D01*
X130652068Y-64568158D01*
X130764010Y-64838411D01*
X130926525Y-65081632D01*
X131133368Y-65288475D01*
X131376589Y-65450990D01*
X131646842Y-65562932D01*
X131933740Y-65620000D01*
X132226260Y-65620000D01*
X132513158Y-65562932D01*
X132783411Y-65450990D01*
X133026632Y-65288475D01*
X133158487Y-65156620D01*
X133180498Y-65229180D01*
X133239463Y-65339494D01*
X133318815Y-65436185D01*
X133415506Y-65515537D01*
X133525820Y-65574502D01*
X133645518Y-65610812D01*
X133770000Y-65623072D01*
X135470000Y-65623072D01*
X135594482Y-65610812D01*
X135714180Y-65574502D01*
X135824494Y-65515537D01*
X135921185Y-65436185D01*
X136000537Y-65339494D01*
X136059502Y-65229180D01*
X136095812Y-65109482D01*
X136108072Y-64985000D01*
X136108072Y-63285000D01*
X136095812Y-63160518D01*
X136059502Y-63040820D01*
X136000537Y-62930506D01*
X135921185Y-62833815D01*
X135824494Y-62754463D01*
X135714180Y-62695498D01*
X135594482Y-62659188D01*
X135470000Y-62646928D01*
X133770000Y-62646928D01*
X133645518Y-62659188D01*
X133525820Y-62695498D01*
X133415506Y-62754463D01*
X133318815Y-62833815D01*
X133239463Y-62930506D01*
X133180498Y-63040820D01*
X133158487Y-63113380D01*
X133026632Y-62981525D01*
X132783411Y-62819010D01*
X132513158Y-62707068D01*
X132226260Y-62650000D01*
X131933740Y-62650000D01*
X131646842Y-62707068D01*
X131376589Y-62819010D01*
X131133368Y-62981525D01*
X130926525Y-63188368D01*
X130764010Y-63431589D01*
X130652068Y-63701842D01*
X130595000Y-63988740D01*
X116822540Y-63988740D01*
X114806000Y-61972201D01*
X114806000Y-60481527D01*
X114835851Y-60472472D01*
X114989387Y-60390405D01*
X115123962Y-60279962D01*
X115234405Y-60145387D01*
X115316472Y-59991851D01*
X115367008Y-59825255D01*
X115380676Y-59686478D01*
X116598475Y-60904277D01*
X116432748Y-61015013D01*
X116205013Y-61242748D01*
X116026082Y-61510537D01*
X115902832Y-61808088D01*
X115840000Y-62123967D01*
X115840000Y-62446033D01*
X115902832Y-62761912D01*
X116026082Y-63059463D01*
X116205013Y-63327252D01*
X116432748Y-63554987D01*
X116700537Y-63733918D01*
X116998088Y-63857168D01*
X117313967Y-63920000D01*
X117636033Y-63920000D01*
X117951912Y-63857168D01*
X118249463Y-63733918D01*
X118517252Y-63554987D01*
X118744987Y-63327252D01*
X118923918Y-63059463D01*
X118929909Y-63045000D01*
X122520091Y-63045000D01*
X122526082Y-63059463D01*
X122705013Y-63327252D01*
X122932748Y-63554987D01*
X123200537Y-63733918D01*
X123498088Y-63857168D01*
X123813967Y-63920000D01*
X124136033Y-63920000D01*
X124451912Y-63857168D01*
X124749463Y-63733918D01*
X125017252Y-63554987D01*
X125244987Y-63327252D01*
X125423918Y-63059463D01*
X125547168Y-62761912D01*
X125610000Y-62446033D01*
X125610000Y-62123967D01*
X125547168Y-61808088D01*
X125423918Y-61510537D01*
X125244987Y-61242748D01*
X125017252Y-61015013D01*
X124749463Y-60836082D01*
X124451912Y-60712832D01*
X124136033Y-60650000D01*
X123813967Y-60650000D01*
X123498088Y-60712832D01*
X123200537Y-60836082D01*
X122932748Y-61015013D01*
X122705013Y-61242748D01*
X122526082Y-61510537D01*
X122520091Y-61525000D01*
X118929909Y-61525000D01*
X118923918Y-61510537D01*
X118744987Y-61242748D01*
X118517252Y-61015013D01*
X118249463Y-60836082D01*
X118235000Y-60830091D01*
X118235000Y-60743322D01*
X118238676Y-60705999D01*
X118235000Y-60668676D01*
X118235000Y-60668667D01*
X118224003Y-60557014D01*
X118180546Y-60413753D01*
X118109974Y-60281724D01*
X118015001Y-60165999D01*
X117986003Y-60142201D01*
X117251346Y-59407544D01*
X117313967Y-59420000D01*
X117636033Y-59420000D01*
X117951912Y-59357168D01*
X118249463Y-59233918D01*
X118517252Y-59054987D01*
X118744987Y-58827252D01*
X118923918Y-58559463D01*
X119047168Y-58261912D01*
X119110000Y-57946033D01*
X119110000Y-57623967D01*
X119047168Y-57308088D01*
X118923918Y-57010537D01*
X118744987Y-56742748D01*
X118517252Y-56515013D01*
X118517233Y-56515000D01*
X122932767Y-56515000D01*
X122932748Y-56515013D01*
X122705013Y-56742748D01*
X122526082Y-57010537D01*
X122402832Y-57308088D01*
X122340000Y-57623967D01*
X122340000Y-57946033D01*
X122402832Y-58261912D01*
X122526082Y-58559463D01*
X122705013Y-58827252D01*
X122932748Y-59054987D01*
X123200537Y-59233918D01*
X123498088Y-59357168D01*
X123813967Y-59420000D01*
X124136033Y-59420000D01*
X124451912Y-59357168D01*
X124749463Y-59233918D01*
X125017252Y-59054987D01*
X125244987Y-58827252D01*
X125263864Y-58799000D01*
X126155080Y-58799000D01*
X126234377Y-58895623D01*
X126367058Y-59004512D01*
X126518433Y-59085423D01*
X126682684Y-59135248D01*
X126853500Y-59152072D01*
X127428500Y-59152072D01*
X127599316Y-59135248D01*
X127763567Y-59085423D01*
X127914942Y-59004512D01*
X127938839Y-58984901D01*
X128011506Y-59044537D01*
X128121820Y-59103502D01*
X128241518Y-59139812D01*
X128366000Y-59152072D01*
X128605250Y-59149000D01*
X128764000Y-58990250D01*
X128764000Y-58166000D01*
X129018000Y-58166000D01*
X129018000Y-58990250D01*
X129176750Y-59149000D01*
X129416000Y-59152072D01*
X129540482Y-59139812D01*
X129660180Y-59103502D01*
X129770494Y-59044537D01*
X129867185Y-58965185D01*
X129946537Y-58868494D01*
X130005502Y-58758180D01*
X130041812Y-58638482D01*
X130054072Y-58514000D01*
X130051000Y-58324750D01*
X129892250Y-58166000D01*
X129018000Y-58166000D01*
X128764000Y-58166000D01*
X128744000Y-58166000D01*
X128744000Y-57912000D01*
X128764000Y-57912000D01*
X128764000Y-57087750D01*
X129018000Y-57087750D01*
X129018000Y-57912000D01*
X129892250Y-57912000D01*
X130051000Y-57753250D01*
X130054072Y-57564000D01*
X130042155Y-57443000D01*
X130591928Y-57443000D01*
X130591928Y-59143000D01*
X130604188Y-59267482D01*
X130640498Y-59387180D01*
X130699463Y-59497494D01*
X130778815Y-59594185D01*
X130875506Y-59673537D01*
X130985820Y-59732502D01*
X131105518Y-59768812D01*
X131230000Y-59781072D01*
X132930000Y-59781072D01*
X133054482Y-59768812D01*
X133174180Y-59732502D01*
X133284494Y-59673537D01*
X133381185Y-59594185D01*
X133460537Y-59497494D01*
X133519502Y-59387180D01*
X133543966Y-59306534D01*
X133619731Y-59390588D01*
X133853080Y-59564641D01*
X134115901Y-59689825D01*
X134263110Y-59734476D01*
X134493000Y-59613155D01*
X134493000Y-58420000D01*
X134747000Y-58420000D01*
X134747000Y-59613155D01*
X134976890Y-59734476D01*
X135124099Y-59689825D01*
X135386920Y-59564641D01*
X135620269Y-59390588D01*
X135815178Y-59174355D01*
X135964157Y-58924252D01*
X136061481Y-58649891D01*
X135940814Y-58420000D01*
X134747000Y-58420000D01*
X134493000Y-58420000D01*
X134473000Y-58420000D01*
X134473000Y-58166000D01*
X134493000Y-58166000D01*
X134493000Y-56972845D01*
X134747000Y-56972845D01*
X134747000Y-58166000D01*
X135940814Y-58166000D01*
X136061481Y-57936109D01*
X135964157Y-57661748D01*
X135815178Y-57411645D01*
X135620269Y-57195412D01*
X135386920Y-57021359D01*
X135124099Y-56896175D01*
X134976890Y-56851524D01*
X134747000Y-56972845D01*
X134493000Y-56972845D01*
X134263110Y-56851524D01*
X134115901Y-56896175D01*
X133853080Y-57021359D01*
X133619731Y-57195412D01*
X133543966Y-57279466D01*
X133519502Y-57198820D01*
X133460537Y-57088506D01*
X133381185Y-56991815D01*
X133284494Y-56912463D01*
X133174180Y-56853498D01*
X133054482Y-56817188D01*
X132930000Y-56804928D01*
X131230000Y-56804928D01*
X131105518Y-56817188D01*
X130985820Y-56853498D01*
X130875506Y-56912463D01*
X130778815Y-56991815D01*
X130699463Y-57088506D01*
X130640498Y-57198820D01*
X130604188Y-57318518D01*
X130591928Y-57443000D01*
X130042155Y-57443000D01*
X130041812Y-57439518D01*
X130005502Y-57319820D01*
X129946537Y-57209506D01*
X129867185Y-57112815D01*
X129770494Y-57033463D01*
X129660180Y-56974498D01*
X129540482Y-56938188D01*
X129416000Y-56925928D01*
X129176750Y-56929000D01*
X129018000Y-57087750D01*
X128764000Y-57087750D01*
X128605250Y-56929000D01*
X128366000Y-56925928D01*
X128241518Y-56938188D01*
X128121820Y-56974498D01*
X128011506Y-57033463D01*
X127938839Y-57093099D01*
X127914942Y-57073488D01*
X127763567Y-56992577D01*
X127599316Y-56942752D01*
X127428500Y-56925928D01*
X126853500Y-56925928D01*
X126682684Y-56942752D01*
X126518433Y-56992577D01*
X126367058Y-57073488D01*
X126234377Y-57182377D01*
X126155080Y-57279000D01*
X125535119Y-57279000D01*
X125423918Y-57010537D01*
X125244987Y-56742748D01*
X125017252Y-56515013D01*
X125017233Y-56515000D01*
X137033000Y-56515000D01*
X137033000Y-69996360D01*
X136875394Y-69691560D01*
X136800149Y-69578946D01*
X136197818Y-69086787D01*
X132894605Y-72390000D01*
X136197818Y-75693213D01*
X136800149Y-75201054D01*
X137033000Y-74779374D01*
X137033000Y-92583000D01*
X103505000Y-92583000D01*
X103505000Y-90526890D01*
X103968524Y-90526890D01*
X104013175Y-90674099D01*
X104138359Y-90936920D01*
X104312412Y-91170269D01*
X104528645Y-91365178D01*
X104778748Y-91514157D01*
X105053109Y-91611481D01*
X105283000Y-91490814D01*
X105283000Y-90297000D01*
X105537000Y-90297000D01*
X105537000Y-91490814D01*
X105766891Y-91611481D01*
X106041252Y-91514157D01*
X106291355Y-91365178D01*
X106507588Y-91170269D01*
X106681641Y-90936920D01*
X106806825Y-90674099D01*
X106851476Y-90526890D01*
X111588524Y-90526890D01*
X111633175Y-90674099D01*
X111758359Y-90936920D01*
X111932412Y-91170269D01*
X112148645Y-91365178D01*
X112398748Y-91514157D01*
X112673109Y-91611481D01*
X112903000Y-91490814D01*
X112903000Y-90297000D01*
X113157000Y-90297000D01*
X113157000Y-91490814D01*
X113386891Y-91611481D01*
X113661252Y-91514157D01*
X113911355Y-91365178D01*
X114127588Y-91170269D01*
X114301641Y-90936920D01*
X114426825Y-90674099D01*
X114471476Y-90526890D01*
X118700524Y-90526890D01*
X118745175Y-90674099D01*
X118870359Y-90936920D01*
X119044412Y-91170269D01*
X119260645Y-91365178D01*
X119510748Y-91514157D01*
X119785109Y-91611481D01*
X120015000Y-91490814D01*
X120015000Y-90297000D01*
X120269000Y-90297000D01*
X120269000Y-91490814D01*
X120498891Y-91611481D01*
X120773252Y-91514157D01*
X121023355Y-91365178D01*
X121239588Y-91170269D01*
X121413641Y-90936920D01*
X121538825Y-90674099D01*
X121583476Y-90526890D01*
X126066524Y-90526890D01*
X126111175Y-90674099D01*
X126236359Y-90936920D01*
X126410412Y-91170269D01*
X126626645Y-91365178D01*
X126876748Y-91514157D01*
X127151109Y-91611481D01*
X127381000Y-91490814D01*
X127381000Y-90297000D01*
X127635000Y-90297000D01*
X127635000Y-91490814D01*
X127864891Y-91611481D01*
X128139252Y-91514157D01*
X128389355Y-91365178D01*
X128605588Y-91170269D01*
X128779641Y-90936920D01*
X128904825Y-90674099D01*
X128949476Y-90526890D01*
X133178524Y-90526890D01*
X133223175Y-90674099D01*
X133348359Y-90936920D01*
X133522412Y-91170269D01*
X133738645Y-91365178D01*
X133988748Y-91514157D01*
X134263109Y-91611481D01*
X134493000Y-91490814D01*
X134493000Y-90297000D01*
X134747000Y-90297000D01*
X134747000Y-91490814D01*
X134976891Y-91611481D01*
X135251252Y-91514157D01*
X135501355Y-91365178D01*
X135717588Y-91170269D01*
X135891641Y-90936920D01*
X136016825Y-90674099D01*
X136061476Y-90526890D01*
X135940155Y-90297000D01*
X134747000Y-90297000D01*
X134493000Y-90297000D01*
X133299845Y-90297000D01*
X133178524Y-90526890D01*
X128949476Y-90526890D01*
X128828155Y-90297000D01*
X127635000Y-90297000D01*
X127381000Y-90297000D01*
X126187845Y-90297000D01*
X126066524Y-90526890D01*
X121583476Y-90526890D01*
X121462155Y-90297000D01*
X120269000Y-90297000D01*
X120015000Y-90297000D01*
X118821845Y-90297000D01*
X118700524Y-90526890D01*
X114471476Y-90526890D01*
X114350155Y-90297000D01*
X113157000Y-90297000D01*
X112903000Y-90297000D01*
X111709845Y-90297000D01*
X111588524Y-90526890D01*
X106851476Y-90526890D01*
X106730155Y-90297000D01*
X105537000Y-90297000D01*
X105283000Y-90297000D01*
X104089845Y-90297000D01*
X103968524Y-90526890D01*
X103505000Y-90526890D01*
X103505000Y-81700000D01*
X103921928Y-81700000D01*
X103921928Y-83400000D01*
X103934188Y-83524482D01*
X103970498Y-83644180D01*
X104029463Y-83754494D01*
X104108815Y-83851185D01*
X104205506Y-83930537D01*
X104315820Y-83989502D01*
X104388380Y-84011513D01*
X104256525Y-84143368D01*
X104094010Y-84386589D01*
X103982068Y-84656842D01*
X103925000Y-84943740D01*
X103925000Y-85236260D01*
X103982068Y-85523158D01*
X104094010Y-85793411D01*
X104256525Y-86036632D01*
X104463368Y-86243475D01*
X104637760Y-86360000D01*
X104463368Y-86476525D01*
X104256525Y-86683368D01*
X104094010Y-86926589D01*
X103982068Y-87196842D01*
X103925000Y-87483740D01*
X103925000Y-87776260D01*
X103982068Y-88063158D01*
X104094010Y-88333411D01*
X104256525Y-88576632D01*
X104463368Y-88783475D01*
X104645534Y-88905195D01*
X104528645Y-88974822D01*
X104312412Y-89169731D01*
X104138359Y-89403080D01*
X104013175Y-89665901D01*
X103968524Y-89813110D01*
X104089845Y-90043000D01*
X105283000Y-90043000D01*
X105283000Y-90023000D01*
X105537000Y-90023000D01*
X105537000Y-90043000D01*
X106730155Y-90043000D01*
X106851476Y-89813110D01*
X106806825Y-89665901D01*
X106681641Y-89403080D01*
X106507588Y-89169731D01*
X106291355Y-88974822D01*
X106174466Y-88905195D01*
X106356632Y-88783475D01*
X106563475Y-88576632D01*
X106725990Y-88333411D01*
X106837932Y-88063158D01*
X106895000Y-87776260D01*
X106895000Y-87483740D01*
X106837932Y-87196842D01*
X106725990Y-86926589D01*
X106563475Y-86683368D01*
X106356632Y-86476525D01*
X106182240Y-86360000D01*
X106356632Y-86243475D01*
X106563475Y-86036632D01*
X106725990Y-85793411D01*
X106837932Y-85523158D01*
X106895000Y-85236260D01*
X106895000Y-84943740D01*
X106837932Y-84656842D01*
X106725990Y-84386589D01*
X106563475Y-84143368D01*
X106431620Y-84011513D01*
X106504180Y-83989502D01*
X106614494Y-83930537D01*
X106711185Y-83851185D01*
X106790537Y-83754494D01*
X106849502Y-83644180D01*
X106885812Y-83524482D01*
X106898072Y-83400000D01*
X106898072Y-81700000D01*
X111541928Y-81700000D01*
X111541928Y-83400000D01*
X111554188Y-83524482D01*
X111590498Y-83644180D01*
X111649463Y-83754494D01*
X111728815Y-83851185D01*
X111825506Y-83930537D01*
X111935820Y-83989502D01*
X112008380Y-84011513D01*
X111876525Y-84143368D01*
X111714010Y-84386589D01*
X111602068Y-84656842D01*
X111545000Y-84943740D01*
X111545000Y-85236260D01*
X111602068Y-85523158D01*
X111714010Y-85793411D01*
X111876525Y-86036632D01*
X112083368Y-86243475D01*
X112257760Y-86360000D01*
X112083368Y-86476525D01*
X111876525Y-86683368D01*
X111714010Y-86926589D01*
X111602068Y-87196842D01*
X111545000Y-87483740D01*
X111545000Y-87776260D01*
X111602068Y-88063158D01*
X111714010Y-88333411D01*
X111876525Y-88576632D01*
X112083368Y-88783475D01*
X112265534Y-88905195D01*
X112148645Y-88974822D01*
X111932412Y-89169731D01*
X111758359Y-89403080D01*
X111633175Y-89665901D01*
X111588524Y-89813110D01*
X111709845Y-90043000D01*
X112903000Y-90043000D01*
X112903000Y-90023000D01*
X113157000Y-90023000D01*
X113157000Y-90043000D01*
X114350155Y-90043000D01*
X114471476Y-89813110D01*
X114426825Y-89665901D01*
X114301641Y-89403080D01*
X114127588Y-89169731D01*
X113911355Y-88974822D01*
X113794466Y-88905195D01*
X113976632Y-88783475D01*
X114183475Y-88576632D01*
X114345990Y-88333411D01*
X114457932Y-88063158D01*
X114515000Y-87776260D01*
X114515000Y-87483740D01*
X114457932Y-87196842D01*
X114345990Y-86926589D01*
X114183475Y-86683368D01*
X113976632Y-86476525D01*
X113802240Y-86360000D01*
X113976632Y-86243475D01*
X114183475Y-86036632D01*
X114345990Y-85793411D01*
X114457932Y-85523158D01*
X114515000Y-85236260D01*
X114515000Y-84943740D01*
X114457932Y-84656842D01*
X114345990Y-84386589D01*
X114183475Y-84143368D01*
X114051620Y-84011513D01*
X114124180Y-83989502D01*
X114234494Y-83930537D01*
X114331185Y-83851185D01*
X114410537Y-83754494D01*
X114469502Y-83644180D01*
X114505812Y-83524482D01*
X114518072Y-83400000D01*
X114518072Y-81700000D01*
X118653928Y-81700000D01*
X118653928Y-83400000D01*
X118666188Y-83524482D01*
X118702498Y-83644180D01*
X118761463Y-83754494D01*
X118840815Y-83851185D01*
X118937506Y-83930537D01*
X119047820Y-83989502D01*
X119120380Y-84011513D01*
X118988525Y-84143368D01*
X118826010Y-84386589D01*
X118714068Y-84656842D01*
X118657000Y-84943740D01*
X118657000Y-85236260D01*
X118714068Y-85523158D01*
X118826010Y-85793411D01*
X118988525Y-86036632D01*
X119195368Y-86243475D01*
X119369760Y-86360000D01*
X119195368Y-86476525D01*
X118988525Y-86683368D01*
X118826010Y-86926589D01*
X118714068Y-87196842D01*
X118657000Y-87483740D01*
X118657000Y-87776260D01*
X118714068Y-88063158D01*
X118826010Y-88333411D01*
X118988525Y-88576632D01*
X119195368Y-88783475D01*
X119377534Y-88905195D01*
X119260645Y-88974822D01*
X119044412Y-89169731D01*
X118870359Y-89403080D01*
X118745175Y-89665901D01*
X118700524Y-89813110D01*
X118821845Y-90043000D01*
X120015000Y-90043000D01*
X120015000Y-90023000D01*
X120269000Y-90023000D01*
X120269000Y-90043000D01*
X121462155Y-90043000D01*
X121583476Y-89813110D01*
X121538825Y-89665901D01*
X121413641Y-89403080D01*
X121239588Y-89169731D01*
X121023355Y-88974822D01*
X120906466Y-88905195D01*
X121088632Y-88783475D01*
X121295475Y-88576632D01*
X121457990Y-88333411D01*
X121569932Y-88063158D01*
X121627000Y-87776260D01*
X121627000Y-87483740D01*
X121569932Y-87196842D01*
X121457990Y-86926589D01*
X121295475Y-86683368D01*
X121088632Y-86476525D01*
X120914240Y-86360000D01*
X121088632Y-86243475D01*
X121295475Y-86036632D01*
X121457990Y-85793411D01*
X121569932Y-85523158D01*
X121627000Y-85236260D01*
X121627000Y-84943740D01*
X121569932Y-84656842D01*
X121457990Y-84386589D01*
X121295475Y-84143368D01*
X121163620Y-84011513D01*
X121236180Y-83989502D01*
X121346494Y-83930537D01*
X121443185Y-83851185D01*
X121522537Y-83754494D01*
X121581502Y-83644180D01*
X121617812Y-83524482D01*
X121630072Y-83400000D01*
X121630072Y-81700000D01*
X126019928Y-81700000D01*
X126019928Y-83400000D01*
X126032188Y-83524482D01*
X126068498Y-83644180D01*
X126127463Y-83754494D01*
X126206815Y-83851185D01*
X126303506Y-83930537D01*
X126413820Y-83989502D01*
X126486380Y-84011513D01*
X126354525Y-84143368D01*
X126192010Y-84386589D01*
X126080068Y-84656842D01*
X126023000Y-84943740D01*
X126023000Y-85236260D01*
X126080068Y-85523158D01*
X126192010Y-85793411D01*
X126354525Y-86036632D01*
X126561368Y-86243475D01*
X126735760Y-86360000D01*
X126561368Y-86476525D01*
X126354525Y-86683368D01*
X126192010Y-86926589D01*
X126080068Y-87196842D01*
X126023000Y-87483740D01*
X126023000Y-87776260D01*
X126080068Y-88063158D01*
X126192010Y-88333411D01*
X126354525Y-88576632D01*
X126561368Y-88783475D01*
X126743534Y-88905195D01*
X126626645Y-88974822D01*
X126410412Y-89169731D01*
X126236359Y-89403080D01*
X126111175Y-89665901D01*
X126066524Y-89813110D01*
X126187845Y-90043000D01*
X127381000Y-90043000D01*
X127381000Y-90023000D01*
X127635000Y-90023000D01*
X127635000Y-90043000D01*
X128828155Y-90043000D01*
X128949476Y-89813110D01*
X128904825Y-89665901D01*
X128779641Y-89403080D01*
X128605588Y-89169731D01*
X128389355Y-88974822D01*
X128272466Y-88905195D01*
X128454632Y-88783475D01*
X128661475Y-88576632D01*
X128823990Y-88333411D01*
X128935932Y-88063158D01*
X128993000Y-87776260D01*
X128993000Y-87483740D01*
X128935932Y-87196842D01*
X128823990Y-86926589D01*
X128661475Y-86683368D01*
X128454632Y-86476525D01*
X128280240Y-86360000D01*
X128454632Y-86243475D01*
X128661475Y-86036632D01*
X128823990Y-85793411D01*
X128935932Y-85523158D01*
X128993000Y-85236260D01*
X128993000Y-84943740D01*
X128935932Y-84656842D01*
X128823990Y-84386589D01*
X128661475Y-84143368D01*
X128529620Y-84011513D01*
X128602180Y-83989502D01*
X128712494Y-83930537D01*
X128809185Y-83851185D01*
X128888537Y-83754494D01*
X128947502Y-83644180D01*
X128983812Y-83524482D01*
X128996072Y-83400000D01*
X128996072Y-81700000D01*
X133131928Y-81700000D01*
X133131928Y-83400000D01*
X133144188Y-83524482D01*
X133180498Y-83644180D01*
X133239463Y-83754494D01*
X133318815Y-83851185D01*
X133415506Y-83930537D01*
X133525820Y-83989502D01*
X133598380Y-84011513D01*
X133466525Y-84143368D01*
X133304010Y-84386589D01*
X133192068Y-84656842D01*
X133135000Y-84943740D01*
X133135000Y-85236260D01*
X133192068Y-85523158D01*
X133304010Y-85793411D01*
X133466525Y-86036632D01*
X133673368Y-86243475D01*
X133847760Y-86360000D01*
X133673368Y-86476525D01*
X133466525Y-86683368D01*
X133304010Y-86926589D01*
X133192068Y-87196842D01*
X133135000Y-87483740D01*
X133135000Y-87776260D01*
X133192068Y-88063158D01*
X133304010Y-88333411D01*
X133466525Y-88576632D01*
X133673368Y-88783475D01*
X133855534Y-88905195D01*
X133738645Y-88974822D01*
X133522412Y-89169731D01*
X133348359Y-89403080D01*
X133223175Y-89665901D01*
X133178524Y-89813110D01*
X133299845Y-90043000D01*
X134493000Y-90043000D01*
X134493000Y-90023000D01*
X134747000Y-90023000D01*
X134747000Y-90043000D01*
X135940155Y-90043000D01*
X136061476Y-89813110D01*
X136016825Y-89665901D01*
X135891641Y-89403080D01*
X135717588Y-89169731D01*
X135501355Y-88974822D01*
X135384466Y-88905195D01*
X135566632Y-88783475D01*
X135773475Y-88576632D01*
X135935990Y-88333411D01*
X136047932Y-88063158D01*
X136105000Y-87776260D01*
X136105000Y-87483740D01*
X136047932Y-87196842D01*
X135935990Y-86926589D01*
X135773475Y-86683368D01*
X135566632Y-86476525D01*
X135392240Y-86360000D01*
X135566632Y-86243475D01*
X135773475Y-86036632D01*
X135935990Y-85793411D01*
X136047932Y-85523158D01*
X136105000Y-85236260D01*
X136105000Y-84943740D01*
X136047932Y-84656842D01*
X135935990Y-84386589D01*
X135773475Y-84143368D01*
X135641620Y-84011513D01*
X135714180Y-83989502D01*
X135824494Y-83930537D01*
X135921185Y-83851185D01*
X136000537Y-83754494D01*
X136059502Y-83644180D01*
X136095812Y-83524482D01*
X136108072Y-83400000D01*
X136108072Y-81700000D01*
X136095812Y-81575518D01*
X136059502Y-81455820D01*
X136000537Y-81345506D01*
X135921185Y-81248815D01*
X135824494Y-81169463D01*
X135714180Y-81110498D01*
X135594482Y-81074188D01*
X135470000Y-81061928D01*
X133770000Y-81061928D01*
X133645518Y-81074188D01*
X133525820Y-81110498D01*
X133415506Y-81169463D01*
X133318815Y-81248815D01*
X133239463Y-81345506D01*
X133180498Y-81455820D01*
X133144188Y-81575518D01*
X133131928Y-81700000D01*
X128996072Y-81700000D01*
X128983812Y-81575518D01*
X128947502Y-81455820D01*
X128888537Y-81345506D01*
X128809185Y-81248815D01*
X128712494Y-81169463D01*
X128602180Y-81110498D01*
X128482482Y-81074188D01*
X128358000Y-81061928D01*
X126658000Y-81061928D01*
X126533518Y-81074188D01*
X126413820Y-81110498D01*
X126303506Y-81169463D01*
X126206815Y-81248815D01*
X126127463Y-81345506D01*
X126068498Y-81455820D01*
X126032188Y-81575518D01*
X126019928Y-81700000D01*
X121630072Y-81700000D01*
X121617812Y-81575518D01*
X121581502Y-81455820D01*
X121522537Y-81345506D01*
X121443185Y-81248815D01*
X121346494Y-81169463D01*
X121236180Y-81110498D01*
X121116482Y-81074188D01*
X120992000Y-81061928D01*
X119292000Y-81061928D01*
X119167518Y-81074188D01*
X119047820Y-81110498D01*
X118937506Y-81169463D01*
X118840815Y-81248815D01*
X118761463Y-81345506D01*
X118702498Y-81455820D01*
X118666188Y-81575518D01*
X118653928Y-81700000D01*
X114518072Y-81700000D01*
X114505812Y-81575518D01*
X114469502Y-81455820D01*
X114410537Y-81345506D01*
X114331185Y-81248815D01*
X114234494Y-81169463D01*
X114124180Y-81110498D01*
X114004482Y-81074188D01*
X113880000Y-81061928D01*
X112180000Y-81061928D01*
X112055518Y-81074188D01*
X111935820Y-81110498D01*
X111825506Y-81169463D01*
X111728815Y-81248815D01*
X111649463Y-81345506D01*
X111590498Y-81455820D01*
X111554188Y-81575518D01*
X111541928Y-81700000D01*
X106898072Y-81700000D01*
X106885812Y-81575518D01*
X106849502Y-81455820D01*
X106790537Y-81345506D01*
X106711185Y-81248815D01*
X106614494Y-81169463D01*
X106504180Y-81110498D01*
X106384482Y-81074188D01*
X106260000Y-81061928D01*
X104560000Y-81061928D01*
X104435518Y-81074188D01*
X104315820Y-81110498D01*
X104205506Y-81169463D01*
X104108815Y-81248815D01*
X104029463Y-81345506D01*
X103970498Y-81455820D01*
X103934188Y-81575518D01*
X103921928Y-81700000D01*
X103505000Y-81700000D01*
X103505000Y-75872818D01*
X104646787Y-75872818D01*
X105138946Y-76475149D01*
X105989933Y-76945063D01*
X106916243Y-77239929D01*
X107882281Y-77348414D01*
X108850921Y-77266351D01*
X109784938Y-76996893D01*
X110648440Y-76550394D01*
X110761054Y-76475149D01*
X111253213Y-75872818D01*
X129411787Y-75872818D01*
X129903946Y-76475149D01*
X130754933Y-76945063D01*
X131681243Y-77239929D01*
X132647281Y-77348414D01*
X133615921Y-77266351D01*
X134549938Y-76996893D01*
X135413440Y-76550394D01*
X135526054Y-76475149D01*
X136018213Y-75872818D01*
X132715000Y-72569605D01*
X129411787Y-75872818D01*
X111253213Y-75872818D01*
X107950000Y-72569605D01*
X104646787Y-75872818D01*
X103505000Y-75872818D01*
X103505000Y-74538029D01*
X103789606Y-75088440D01*
X103864851Y-75201054D01*
X104467182Y-75693213D01*
X107770395Y-72390000D01*
X108129605Y-72390000D01*
X111432818Y-75693213D01*
X112035149Y-75201054D01*
X112505063Y-74350067D01*
X112799929Y-73423757D01*
X112908414Y-72457719D01*
X112826351Y-71489079D01*
X112556893Y-70555062D01*
X112110394Y-69691560D01*
X112035149Y-69578946D01*
X111432818Y-69086787D01*
X108129605Y-72390000D01*
X107770395Y-72390000D01*
X104467182Y-69086787D01*
X103864851Y-69578946D01*
X103505000Y-70230615D01*
X103505000Y-66867000D01*
X104323928Y-66867000D01*
X104336188Y-66991482D01*
X104372498Y-67111180D01*
X104431463Y-67221494D01*
X104510815Y-67318185D01*
X104607506Y-67397537D01*
X104717820Y-67456502D01*
X104837518Y-67492812D01*
X104962000Y-67505072D01*
X105251250Y-67502000D01*
X105410000Y-67343250D01*
X105410000Y-66294000D01*
X104485750Y-66294000D01*
X104327000Y-66452750D01*
X104323928Y-66867000D01*
X103505000Y-66867000D01*
X103505000Y-64708000D01*
X104323928Y-64708000D01*
X104336188Y-64832482D01*
X104372498Y-64952180D01*
X104431463Y-65062494D01*
X104451985Y-65087500D01*
X104431463Y-65112506D01*
X104372498Y-65222820D01*
X104336188Y-65342518D01*
X104323928Y-65467000D01*
X104327000Y-65881250D01*
X104485750Y-66040000D01*
X105410000Y-66040000D01*
X105410000Y-64135000D01*
X104485750Y-64135000D01*
X104327000Y-64293750D01*
X104323928Y-64708000D01*
X103505000Y-64708000D01*
X103505000Y-62676000D01*
X104305928Y-62676000D01*
X104318188Y-62800482D01*
X104354498Y-62920180D01*
X104401887Y-63008838D01*
X104372498Y-63063820D01*
X104336188Y-63183518D01*
X104323928Y-63308000D01*
X104327000Y-63722250D01*
X104485750Y-63881000D01*
X105410000Y-63881000D01*
X105410000Y-62831750D01*
X105392000Y-62813750D01*
X105392000Y-62103000D01*
X104467750Y-62103000D01*
X104309000Y-62261750D01*
X104305928Y-62676000D01*
X103505000Y-62676000D01*
X103505000Y-61276000D01*
X104305928Y-61276000D01*
X104309000Y-61690250D01*
X104467750Y-61849000D01*
X105392000Y-61849000D01*
X105392000Y-60799750D01*
X105233250Y-60641000D01*
X104944000Y-60637928D01*
X104819518Y-60650188D01*
X104699820Y-60686498D01*
X104589506Y-60745463D01*
X104492815Y-60824815D01*
X104413463Y-60921506D01*
X104354498Y-61031820D01*
X104318188Y-61151518D01*
X104305928Y-61276000D01*
X103505000Y-61276000D01*
X103505000Y-57316000D01*
X103921928Y-57316000D01*
X103921928Y-59016000D01*
X103934188Y-59140482D01*
X103970498Y-59260180D01*
X104029463Y-59370494D01*
X104108815Y-59467185D01*
X104205506Y-59546537D01*
X104315820Y-59605502D01*
X104435518Y-59641812D01*
X104560000Y-59654072D01*
X106260000Y-59654072D01*
X106384482Y-59641812D01*
X106504180Y-59605502D01*
X106614494Y-59546537D01*
X106711185Y-59467185D01*
X106790537Y-59370494D01*
X106849502Y-59260180D01*
X106885812Y-59140482D01*
X106898072Y-59016000D01*
X106898072Y-57316000D01*
X106885812Y-57191518D01*
X106849502Y-57071820D01*
X106790537Y-56961506D01*
X106711185Y-56864815D01*
X106614494Y-56785463D01*
X106504180Y-56726498D01*
X106384482Y-56690188D01*
X106260000Y-56677928D01*
X104560000Y-56677928D01*
X104435518Y-56690188D01*
X104315820Y-56726498D01*
X104205506Y-56785463D01*
X104108815Y-56864815D01*
X104029463Y-56961506D01*
X103970498Y-57071820D01*
X103934188Y-57191518D01*
X103921928Y-57316000D01*
X103505000Y-57316000D01*
X103505000Y-56515000D01*
X108255455Y-56515000D01*
X108203528Y-56612149D01*
G37*
X108203528Y-56612149D02*
X108152992Y-56778745D01*
X108135928Y-56951999D01*
X108135928Y-57602001D01*
X108152992Y-57775255D01*
X108203528Y-57941851D01*
X108285595Y-58095387D01*
X108396038Y-58229962D01*
X108483816Y-58302000D01*
X108396038Y-58374038D01*
X108285595Y-58508613D01*
X108203528Y-58662149D01*
X108152992Y-58828745D01*
X108135928Y-59001999D01*
X108135928Y-59652001D01*
X108152992Y-59825255D01*
X108203528Y-59991851D01*
X108285595Y-60145387D01*
X108303272Y-60166926D01*
X107832271Y-60637928D01*
X107243999Y-60637928D01*
X107070745Y-60654992D01*
X106904149Y-60705528D01*
X106750613Y-60787595D01*
X106616038Y-60898038D01*
X106610658Y-60904594D01*
X106545185Y-60824815D01*
X106448494Y-60745463D01*
X106338180Y-60686498D01*
X106218482Y-60650188D01*
X106094000Y-60637928D01*
X105804750Y-60641000D01*
X105646000Y-60799750D01*
X105646000Y-61849000D01*
X105666000Y-61849000D01*
X105666000Y-62103000D01*
X105646000Y-62103000D01*
X105646000Y-63152250D01*
X105664000Y-63170250D01*
X105664000Y-63881000D01*
X105684000Y-63881000D01*
X105684000Y-64135000D01*
X105664000Y-64135000D01*
X105664000Y-66040000D01*
X105684000Y-66040000D01*
X105684000Y-66294000D01*
X105664000Y-66294000D01*
X105664000Y-67343250D01*
X105822750Y-67502000D01*
X106112000Y-67505072D01*
X106236482Y-67492812D01*
X106356180Y-67456502D01*
X106466494Y-67397537D01*
X106563185Y-67318185D01*
X106628658Y-67238406D01*
X106634038Y-67244962D01*
X106768613Y-67355405D01*
X106922149Y-67437472D01*
X107088745Y-67488008D01*
X107210356Y-67499986D01*
X107049079Y-67513649D01*
X106115062Y-67783107D01*
X105251560Y-68229606D01*
X105138946Y-68304851D01*
X104646787Y-68907182D01*
X107950000Y-72210395D01*
X111253213Y-68907182D01*
X110761054Y-68304851D01*
X109910067Y-67834937D01*
X108983757Y-67540071D01*
X108202754Y-67452365D01*
X108251851Y-67437472D01*
X108405387Y-67355405D01*
X108539962Y-67244962D01*
X108650405Y-67110387D01*
X108732472Y-66956851D01*
X108741527Y-66927000D01*
X110198678Y-66927000D01*
X110236000Y-66930676D01*
X110273322Y-66927000D01*
X110273333Y-66927000D01*
X110384986Y-66916003D01*
X110528247Y-66872546D01*
X110660276Y-66801974D01*
X110776001Y-66707001D01*
X110799804Y-66677997D01*
X114080999Y-63396802D01*
X120652000Y-69967804D01*
X120652001Y-70961278D01*
X120608063Y-71005216D01*
X120494795Y-71174734D01*
X120416774Y-71363092D01*
X120377000Y-71563051D01*
X120377000Y-71766929D01*
X120416774Y-71966888D01*
X120494795Y-72155246D01*
X120608063Y-72324764D01*
X120752226Y-72468927D01*
X120921744Y-72582195D01*
X121110102Y-72660216D01*
X121310061Y-72699990D01*
X121513939Y-72699990D01*
X121713898Y-72660216D01*
X121902256Y-72582195D01*
X122071774Y-72468927D01*
X122215937Y-72324764D01*
X122217596Y-72322281D01*
X127756586Y-72322281D01*
X127838649Y-73290921D01*
X128108107Y-74224938D01*
X128554606Y-75088440D01*
X128629851Y-75201054D01*
X129232182Y-75693213D01*
X132535395Y-72390000D01*
X129232182Y-69086787D01*
X128629851Y-69578946D01*
X128159937Y-70429933D01*
X127865071Y-71356243D01*
X127756586Y-72322281D01*
X122217596Y-72322281D01*
X122329205Y-72155246D01*
X122407226Y-71966888D01*
X122447000Y-71766929D01*
X122447000Y-71563051D01*
X122407226Y-71363092D01*
X122329205Y-71174734D01*
X122215937Y-71005216D01*
X122172000Y-70961279D01*
X122172000Y-69690324D01*
X122175676Y-69653001D01*
X122172000Y-69615678D01*
X122172000Y-69615669D01*
X122161003Y-69504016D01*
X122117546Y-69360755D01*
X122082019Y-69294290D01*
X122046974Y-69228725D01*
X121975799Y-69141999D01*
X121952001Y-69113001D01*
X121923004Y-69089204D01*
X121740982Y-68907182D01*
X129411787Y-68907182D01*
X132715000Y-72210395D01*
X136018213Y-68907182D01*
X135526054Y-68304851D01*
X134675067Y-67834937D01*
X133748757Y-67540071D01*
X132782719Y-67431586D01*
X131814079Y-67513649D01*
X130880062Y-67783107D01*
X130016560Y-68229606D01*
X129903946Y-68304851D01*
X129411787Y-68907182D01*
X121740982Y-68907182D01*
X116822540Y-63988740D01*
X130595000Y-63988740D01*
X130595000Y-64281260D01*
X130652068Y-64568158D01*
X130764010Y-64838411D01*
X130926525Y-65081632D01*
X131133368Y-65288475D01*
X131376589Y-65450990D01*
X131646842Y-65562932D01*
X131933740Y-65620000D01*
X132226260Y-65620000D01*
X132513158Y-65562932D01*
X132783411Y-65450990D01*
X133026632Y-65288475D01*
X133158487Y-65156620D01*
X133180498Y-65229180D01*
X133239463Y-65339494D01*
X133318815Y-65436185D01*
X133415506Y-65515537D01*
X133525820Y-65574502D01*
X133645518Y-65610812D01*
X133770000Y-65623072D01*
X135470000Y-65623072D01*
X135594482Y-65610812D01*
X135714180Y-65574502D01*
X135824494Y-65515537D01*
X135921185Y-65436185D01*
X136000537Y-65339494D01*
X136059502Y-65229180D01*
X136095812Y-65109482D01*
X136108072Y-64985000D01*
X136108072Y-63285000D01*
X136095812Y-63160518D01*
X136059502Y-63040820D01*
X136000537Y-62930506D01*
X135921185Y-62833815D01*
X135824494Y-62754463D01*
X135714180Y-62695498D01*
X135594482Y-62659188D01*
X135470000Y-62646928D01*
X133770000Y-62646928D01*
X133645518Y-62659188D01*
X133525820Y-62695498D01*
X133415506Y-62754463D01*
X133318815Y-62833815D01*
X133239463Y-62930506D01*
X133180498Y-63040820D01*
X133158487Y-63113380D01*
X133026632Y-62981525D01*
X132783411Y-62819010D01*
X132513158Y-62707068D01*
X132226260Y-62650000D01*
X131933740Y-62650000D01*
X131646842Y-62707068D01*
X131376589Y-62819010D01*
X131133368Y-62981525D01*
X130926525Y-63188368D01*
X130764010Y-63431589D01*
X130652068Y-63701842D01*
X130595000Y-63988740D01*
X116822540Y-63988740D01*
X114806000Y-61972201D01*
X114806000Y-60481527D01*
X114835851Y-60472472D01*
X114989387Y-60390405D01*
X115123962Y-60279962D01*
X115234405Y-60145387D01*
X115316472Y-59991851D01*
X115367008Y-59825255D01*
X115380676Y-59686478D01*
X116598475Y-60904277D01*
X116432748Y-61015013D01*
X116205013Y-61242748D01*
X116026082Y-61510537D01*
X115902832Y-61808088D01*
X115840000Y-62123967D01*
X115840000Y-62446033D01*
X115902832Y-62761912D01*
X116026082Y-63059463D01*
X116205013Y-63327252D01*
X116432748Y-63554987D01*
X116700537Y-63733918D01*
X116998088Y-63857168D01*
X117313967Y-63920000D01*
X117636033Y-63920000D01*
X117951912Y-63857168D01*
X118249463Y-63733918D01*
X118517252Y-63554987D01*
X118744987Y-63327252D01*
X118923918Y-63059463D01*
X118929909Y-63045000D01*
X122520091Y-63045000D01*
X122526082Y-63059463D01*
X122705013Y-63327252D01*
X122932748Y-63554987D01*
X123200537Y-63733918D01*
X123498088Y-63857168D01*
X123813967Y-63920000D01*
X124136033Y-63920000D01*
X124451912Y-63857168D01*
X124749463Y-63733918D01*
X125017252Y-63554987D01*
X125244987Y-63327252D01*
X125423918Y-63059463D01*
X125547168Y-62761912D01*
X125610000Y-62446033D01*
X125610000Y-62123967D01*
X125547168Y-61808088D01*
X125423918Y-61510537D01*
X125244987Y-61242748D01*
X125017252Y-61015013D01*
X124749463Y-60836082D01*
X124451912Y-60712832D01*
X124136033Y-60650000D01*
X123813967Y-60650000D01*
X123498088Y-60712832D01*
X123200537Y-60836082D01*
X122932748Y-61015013D01*
X122705013Y-61242748D01*
X122526082Y-61510537D01*
X122520091Y-61525000D01*
X118929909Y-61525000D01*
X118923918Y-61510537D01*
X118744987Y-61242748D01*
X118517252Y-61015013D01*
X118249463Y-60836082D01*
X118235000Y-60830091D01*
X118235000Y-60743322D01*
X118238676Y-60705999D01*
X118235000Y-60668676D01*
X118235000Y-60668667D01*
X118224003Y-60557014D01*
X118180546Y-60413753D01*
X118109974Y-60281724D01*
X118015001Y-60165999D01*
X117986003Y-60142201D01*
X117251346Y-59407544D01*
X117313967Y-59420000D01*
X117636033Y-59420000D01*
X117951912Y-59357168D01*
X118249463Y-59233918D01*
X118517252Y-59054987D01*
X118744987Y-58827252D01*
X118923918Y-58559463D01*
X119047168Y-58261912D01*
X119110000Y-57946033D01*
X119110000Y-57623967D01*
X119047168Y-57308088D01*
X118923918Y-57010537D01*
X118744987Y-56742748D01*
X118517252Y-56515013D01*
X118517233Y-56515000D01*
X122932767Y-56515000D01*
X122932748Y-56515013D01*
X122705013Y-56742748D01*
X122526082Y-57010537D01*
X122402832Y-57308088D01*
X122340000Y-57623967D01*
X122340000Y-57946033D01*
X122402832Y-58261912D01*
X122526082Y-58559463D01*
X122705013Y-58827252D01*
X122932748Y-59054987D01*
X123200537Y-59233918D01*
X123498088Y-59357168D01*
X123813967Y-59420000D01*
X124136033Y-59420000D01*
X124451912Y-59357168D01*
X124749463Y-59233918D01*
X125017252Y-59054987D01*
X125244987Y-58827252D01*
X125263864Y-58799000D01*
X126155080Y-58799000D01*
X126234377Y-58895623D01*
X126367058Y-59004512D01*
X126518433Y-59085423D01*
X126682684Y-59135248D01*
X126853500Y-59152072D01*
X127428500Y-59152072D01*
X127599316Y-59135248D01*
X127763567Y-59085423D01*
X127914942Y-59004512D01*
X127938839Y-58984901D01*
X128011506Y-59044537D01*
X128121820Y-59103502D01*
X128241518Y-59139812D01*
X128366000Y-59152072D01*
X128605250Y-59149000D01*
X128764000Y-58990250D01*
X128764000Y-58166000D01*
X129018000Y-58166000D01*
X129018000Y-58990250D01*
X129176750Y-59149000D01*
X129416000Y-59152072D01*
X129540482Y-59139812D01*
X129660180Y-59103502D01*
X129770494Y-59044537D01*
X129867185Y-58965185D01*
X129946537Y-58868494D01*
X130005502Y-58758180D01*
X130041812Y-58638482D01*
X130054072Y-58514000D01*
X130051000Y-58324750D01*
X129892250Y-58166000D01*
X129018000Y-58166000D01*
X128764000Y-58166000D01*
X128744000Y-58166000D01*
X128744000Y-57912000D01*
X128764000Y-57912000D01*
X128764000Y-57087750D01*
X129018000Y-57087750D01*
X129018000Y-57912000D01*
X129892250Y-57912000D01*
X130051000Y-57753250D01*
X130054072Y-57564000D01*
X130042155Y-57443000D01*
X130591928Y-57443000D01*
X130591928Y-59143000D01*
X130604188Y-59267482D01*
X130640498Y-59387180D01*
X130699463Y-59497494D01*
X130778815Y-59594185D01*
X130875506Y-59673537D01*
X130985820Y-59732502D01*
X131105518Y-59768812D01*
X131230000Y-59781072D01*
X132930000Y-59781072D01*
X133054482Y-59768812D01*
X133174180Y-59732502D01*
X133284494Y-59673537D01*
X133381185Y-59594185D01*
X133460537Y-59497494D01*
X133519502Y-59387180D01*
X133543966Y-59306534D01*
X133619731Y-59390588D01*
X133853080Y-59564641D01*
X134115901Y-59689825D01*
X134263110Y-59734476D01*
X134493000Y-59613155D01*
X134493000Y-58420000D01*
X134747000Y-58420000D01*
X134747000Y-59613155D01*
X134976890Y-59734476D01*
X135124099Y-59689825D01*
X135386920Y-59564641D01*
X135620269Y-59390588D01*
X135815178Y-59174355D01*
X135964157Y-58924252D01*
X136061481Y-58649891D01*
X135940814Y-58420000D01*
X134747000Y-58420000D01*
X134493000Y-58420000D01*
X134473000Y-58420000D01*
X134473000Y-58166000D01*
X134493000Y-58166000D01*
X134493000Y-56972845D01*
X134747000Y-56972845D01*
X134747000Y-58166000D01*
X135940814Y-58166000D01*
X136061481Y-57936109D01*
X135964157Y-57661748D01*
X135815178Y-57411645D01*
X135620269Y-57195412D01*
X135386920Y-57021359D01*
X135124099Y-56896175D01*
X134976890Y-56851524D01*
X134747000Y-56972845D01*
X134493000Y-56972845D01*
X134263110Y-56851524D01*
X134115901Y-56896175D01*
X133853080Y-57021359D01*
X133619731Y-57195412D01*
X133543966Y-57279466D01*
X133519502Y-57198820D01*
X133460537Y-57088506D01*
X133381185Y-56991815D01*
X133284494Y-56912463D01*
X133174180Y-56853498D01*
X133054482Y-56817188D01*
X132930000Y-56804928D01*
X131230000Y-56804928D01*
X131105518Y-56817188D01*
X130985820Y-56853498D01*
X130875506Y-56912463D01*
X130778815Y-56991815D01*
X130699463Y-57088506D01*
X130640498Y-57198820D01*
X130604188Y-57318518D01*
X130591928Y-57443000D01*
X130042155Y-57443000D01*
X130041812Y-57439518D01*
X130005502Y-57319820D01*
X129946537Y-57209506D01*
X129867185Y-57112815D01*
X129770494Y-57033463D01*
X129660180Y-56974498D01*
X129540482Y-56938188D01*
X129416000Y-56925928D01*
X129176750Y-56929000D01*
X129018000Y-57087750D01*
X128764000Y-57087750D01*
X128605250Y-56929000D01*
X128366000Y-56925928D01*
X128241518Y-56938188D01*
X128121820Y-56974498D01*
X128011506Y-57033463D01*
X127938839Y-57093099D01*
X127914942Y-57073488D01*
X127763567Y-56992577D01*
X127599316Y-56942752D01*
X127428500Y-56925928D01*
X126853500Y-56925928D01*
X126682684Y-56942752D01*
X126518433Y-56992577D01*
X126367058Y-57073488D01*
X126234377Y-57182377D01*
X126155080Y-57279000D01*
X125535119Y-57279000D01*
X125423918Y-57010537D01*
X125244987Y-56742748D01*
X125017252Y-56515013D01*
X125017233Y-56515000D01*
X137033000Y-56515000D01*
X137033000Y-69996360D01*
X136875394Y-69691560D01*
X136800149Y-69578946D01*
X136197818Y-69086787D01*
X132894605Y-72390000D01*
X136197818Y-75693213D01*
X136800149Y-75201054D01*
X137033000Y-74779374D01*
X137033000Y-92583000D01*
X103505000Y-92583000D01*
X103505000Y-90526890D01*
X103968524Y-90526890D01*
X104013175Y-90674099D01*
X104138359Y-90936920D01*
X104312412Y-91170269D01*
X104528645Y-91365178D01*
X104778748Y-91514157D01*
X105053109Y-91611481D01*
X105283000Y-91490814D01*
X105283000Y-90297000D01*
X105537000Y-90297000D01*
X105537000Y-91490814D01*
X105766891Y-91611481D01*
X106041252Y-91514157D01*
X106291355Y-91365178D01*
X106507588Y-91170269D01*
X106681641Y-90936920D01*
X106806825Y-90674099D01*
X106851476Y-90526890D01*
X111588524Y-90526890D01*
X111633175Y-90674099D01*
X111758359Y-90936920D01*
X111932412Y-91170269D01*
X112148645Y-91365178D01*
X112398748Y-91514157D01*
X112673109Y-91611481D01*
X112903000Y-91490814D01*
X112903000Y-90297000D01*
X113157000Y-90297000D01*
X113157000Y-91490814D01*
X113386891Y-91611481D01*
X113661252Y-91514157D01*
X113911355Y-91365178D01*
X114127588Y-91170269D01*
X114301641Y-90936920D01*
X114426825Y-90674099D01*
X114471476Y-90526890D01*
X118700524Y-90526890D01*
X118745175Y-90674099D01*
X118870359Y-90936920D01*
X119044412Y-91170269D01*
X119260645Y-91365178D01*
X119510748Y-91514157D01*
X119785109Y-91611481D01*
X120015000Y-91490814D01*
X120015000Y-90297000D01*
X120269000Y-90297000D01*
X120269000Y-91490814D01*
X120498891Y-91611481D01*
X120773252Y-91514157D01*
X121023355Y-91365178D01*
X121239588Y-91170269D01*
X121413641Y-90936920D01*
X121538825Y-90674099D01*
X121583476Y-90526890D01*
X126066524Y-90526890D01*
X126111175Y-90674099D01*
X126236359Y-90936920D01*
X126410412Y-91170269D01*
X126626645Y-91365178D01*
X126876748Y-91514157D01*
X127151109Y-91611481D01*
X127381000Y-91490814D01*
X127381000Y-90297000D01*
X127635000Y-90297000D01*
X127635000Y-91490814D01*
X127864891Y-91611481D01*
X128139252Y-91514157D01*
X128389355Y-91365178D01*
X128605588Y-91170269D01*
X128779641Y-90936920D01*
X128904825Y-90674099D01*
X128949476Y-90526890D01*
X133178524Y-90526890D01*
X133223175Y-90674099D01*
X133348359Y-90936920D01*
X133522412Y-91170269D01*
X133738645Y-91365178D01*
X133988748Y-91514157D01*
X134263109Y-91611481D01*
X134493000Y-91490814D01*
X134493000Y-90297000D01*
X134747000Y-90297000D01*
X134747000Y-91490814D01*
X134976891Y-91611481D01*
X135251252Y-91514157D01*
X135501355Y-91365178D01*
X135717588Y-91170269D01*
X135891641Y-90936920D01*
X136016825Y-90674099D01*
X136061476Y-90526890D01*
X135940155Y-90297000D01*
X134747000Y-90297000D01*
X134493000Y-90297000D01*
X133299845Y-90297000D01*
X133178524Y-90526890D01*
X128949476Y-90526890D01*
X128828155Y-90297000D01*
X127635000Y-90297000D01*
X127381000Y-90297000D01*
X126187845Y-90297000D01*
X126066524Y-90526890D01*
X121583476Y-90526890D01*
X121462155Y-90297000D01*
X120269000Y-90297000D01*
X120015000Y-90297000D01*
X118821845Y-90297000D01*
X118700524Y-90526890D01*
X114471476Y-90526890D01*
X114350155Y-90297000D01*
X113157000Y-90297000D01*
X112903000Y-90297000D01*
X111709845Y-90297000D01*
X111588524Y-90526890D01*
X106851476Y-90526890D01*
X106730155Y-90297000D01*
X105537000Y-90297000D01*
X105283000Y-90297000D01*
X104089845Y-90297000D01*
X103968524Y-90526890D01*
X103505000Y-90526890D01*
X103505000Y-81700000D01*
X103921928Y-81700000D01*
X103921928Y-83400000D01*
X103934188Y-83524482D01*
X103970498Y-83644180D01*
X104029463Y-83754494D01*
X104108815Y-83851185D01*
X104205506Y-83930537D01*
X104315820Y-83989502D01*
X104388380Y-84011513D01*
X104256525Y-84143368D01*
X104094010Y-84386589D01*
X103982068Y-84656842D01*
X103925000Y-84943740D01*
X103925000Y-85236260D01*
X103982068Y-85523158D01*
X104094010Y-85793411D01*
X104256525Y-86036632D01*
X104463368Y-86243475D01*
X104637760Y-86360000D01*
X104463368Y-86476525D01*
X104256525Y-86683368D01*
X104094010Y-86926589D01*
X103982068Y-87196842D01*
X103925000Y-87483740D01*
X103925000Y-87776260D01*
X103982068Y-88063158D01*
X104094010Y-88333411D01*
X104256525Y-88576632D01*
X104463368Y-88783475D01*
X104645534Y-88905195D01*
X104528645Y-88974822D01*
X104312412Y-89169731D01*
X104138359Y-89403080D01*
X104013175Y-89665901D01*
X103968524Y-89813110D01*
X104089845Y-90043000D01*
X105283000Y-90043000D01*
X105283000Y-90023000D01*
X105537000Y-90023000D01*
X105537000Y-90043000D01*
X106730155Y-90043000D01*
X106851476Y-89813110D01*
X106806825Y-89665901D01*
X106681641Y-89403080D01*
X106507588Y-89169731D01*
X106291355Y-88974822D01*
X106174466Y-88905195D01*
X106356632Y-88783475D01*
X106563475Y-88576632D01*
X106725990Y-88333411D01*
X106837932Y-88063158D01*
X106895000Y-87776260D01*
X106895000Y-87483740D01*
X106837932Y-87196842D01*
X106725990Y-86926589D01*
X106563475Y-86683368D01*
X106356632Y-86476525D01*
X106182240Y-86360000D01*
X106356632Y-86243475D01*
X106563475Y-86036632D01*
X106725990Y-85793411D01*
X106837932Y-85523158D01*
X106895000Y-85236260D01*
X106895000Y-84943740D01*
X106837932Y-84656842D01*
X106725990Y-84386589D01*
X106563475Y-84143368D01*
X106431620Y-84011513D01*
X106504180Y-83989502D01*
X106614494Y-83930537D01*
X106711185Y-83851185D01*
X106790537Y-83754494D01*
X106849502Y-83644180D01*
X106885812Y-83524482D01*
X106898072Y-83400000D01*
X106898072Y-81700000D01*
X111541928Y-81700000D01*
X111541928Y-83400000D01*
X111554188Y-83524482D01*
X111590498Y-83644180D01*
X111649463Y-83754494D01*
X111728815Y-83851185D01*
X111825506Y-83930537D01*
X111935820Y-83989502D01*
X112008380Y-84011513D01*
X111876525Y-84143368D01*
X111714010Y-84386589D01*
X111602068Y-84656842D01*
X111545000Y-84943740D01*
X111545000Y-85236260D01*
X111602068Y-85523158D01*
X111714010Y-85793411D01*
X111876525Y-86036632D01*
X112083368Y-86243475D01*
X112257760Y-86360000D01*
X112083368Y-86476525D01*
X111876525Y-86683368D01*
X111714010Y-86926589D01*
X111602068Y-87196842D01*
X111545000Y-87483740D01*
X111545000Y-87776260D01*
X111602068Y-88063158D01*
X111714010Y-88333411D01*
X111876525Y-88576632D01*
X112083368Y-88783475D01*
X112265534Y-88905195D01*
X112148645Y-88974822D01*
X111932412Y-89169731D01*
X111758359Y-89403080D01*
X111633175Y-89665901D01*
X111588524Y-89813110D01*
X111709845Y-90043000D01*
X112903000Y-90043000D01*
X112903000Y-90023000D01*
X113157000Y-90023000D01*
X113157000Y-90043000D01*
X114350155Y-90043000D01*
X114471476Y-89813110D01*
X114426825Y-89665901D01*
X114301641Y-89403080D01*
X114127588Y-89169731D01*
X113911355Y-88974822D01*
X113794466Y-88905195D01*
X113976632Y-88783475D01*
X114183475Y-88576632D01*
X114345990Y-88333411D01*
X114457932Y-88063158D01*
X114515000Y-87776260D01*
X114515000Y-87483740D01*
X114457932Y-87196842D01*
X114345990Y-86926589D01*
X114183475Y-86683368D01*
X113976632Y-86476525D01*
X113802240Y-86360000D01*
X113976632Y-86243475D01*
X114183475Y-86036632D01*
X114345990Y-85793411D01*
X114457932Y-85523158D01*
X114515000Y-85236260D01*
X114515000Y-84943740D01*
X114457932Y-84656842D01*
X114345990Y-84386589D01*
X114183475Y-84143368D01*
X114051620Y-84011513D01*
X114124180Y-83989502D01*
X114234494Y-83930537D01*
X114331185Y-83851185D01*
X114410537Y-83754494D01*
X114469502Y-83644180D01*
X114505812Y-83524482D01*
X114518072Y-83400000D01*
X114518072Y-81700000D01*
X118653928Y-81700000D01*
X118653928Y-83400000D01*
X118666188Y-83524482D01*
X118702498Y-83644180D01*
X118761463Y-83754494D01*
X118840815Y-83851185D01*
X118937506Y-83930537D01*
X119047820Y-83989502D01*
X119120380Y-84011513D01*
X118988525Y-84143368D01*
X118826010Y-84386589D01*
X118714068Y-84656842D01*
X118657000Y-84943740D01*
X118657000Y-85236260D01*
X118714068Y-85523158D01*
X118826010Y-85793411D01*
X118988525Y-86036632D01*
X119195368Y-86243475D01*
X119369760Y-86360000D01*
X119195368Y-86476525D01*
X118988525Y-86683368D01*
X118826010Y-86926589D01*
X118714068Y-87196842D01*
X118657000Y-87483740D01*
X118657000Y-87776260D01*
X118714068Y-88063158D01*
X118826010Y-88333411D01*
X118988525Y-88576632D01*
X119195368Y-88783475D01*
X119377534Y-88905195D01*
X119260645Y-88974822D01*
X119044412Y-89169731D01*
X118870359Y-89403080D01*
X118745175Y-89665901D01*
X118700524Y-89813110D01*
X118821845Y-90043000D01*
X120015000Y-90043000D01*
X120015000Y-90023000D01*
X120269000Y-90023000D01*
X120269000Y-90043000D01*
X121462155Y-90043000D01*
X121583476Y-89813110D01*
X121538825Y-89665901D01*
X121413641Y-89403080D01*
X121239588Y-89169731D01*
X121023355Y-88974822D01*
X120906466Y-88905195D01*
X121088632Y-88783475D01*
X121295475Y-88576632D01*
X121457990Y-88333411D01*
X121569932Y-88063158D01*
X121627000Y-87776260D01*
X121627000Y-87483740D01*
X121569932Y-87196842D01*
X121457990Y-86926589D01*
X121295475Y-86683368D01*
X121088632Y-86476525D01*
X120914240Y-86360000D01*
X121088632Y-86243475D01*
X121295475Y-86036632D01*
X121457990Y-85793411D01*
X121569932Y-85523158D01*
X121627000Y-85236260D01*
X121627000Y-84943740D01*
X121569932Y-84656842D01*
X121457990Y-84386589D01*
X121295475Y-84143368D01*
X121163620Y-84011513D01*
X121236180Y-83989502D01*
X121346494Y-83930537D01*
X121443185Y-83851185D01*
X121522537Y-83754494D01*
X121581502Y-83644180D01*
X121617812Y-83524482D01*
X121630072Y-83400000D01*
X121630072Y-81700000D01*
X126019928Y-81700000D01*
X126019928Y-83400000D01*
X126032188Y-83524482D01*
X126068498Y-83644180D01*
X126127463Y-83754494D01*
X126206815Y-83851185D01*
X126303506Y-83930537D01*
X126413820Y-83989502D01*
X126486380Y-84011513D01*
X126354525Y-84143368D01*
X126192010Y-84386589D01*
X126080068Y-84656842D01*
X126023000Y-84943740D01*
X126023000Y-85236260D01*
X126080068Y-85523158D01*
X126192010Y-85793411D01*
X126354525Y-86036632D01*
X126561368Y-86243475D01*
X126735760Y-86360000D01*
X126561368Y-86476525D01*
X126354525Y-86683368D01*
X126192010Y-86926589D01*
X126080068Y-87196842D01*
X126023000Y-87483740D01*
X126023000Y-87776260D01*
X126080068Y-88063158D01*
X126192010Y-88333411D01*
X126354525Y-88576632D01*
X126561368Y-88783475D01*
X126743534Y-88905195D01*
X126626645Y-88974822D01*
X126410412Y-89169731D01*
X126236359Y-89403080D01*
X126111175Y-89665901D01*
X126066524Y-89813110D01*
X126187845Y-90043000D01*
X127381000Y-90043000D01*
X127381000Y-90023000D01*
X127635000Y-90023000D01*
X127635000Y-90043000D01*
X128828155Y-90043000D01*
X128949476Y-89813110D01*
X128904825Y-89665901D01*
X128779641Y-89403080D01*
X128605588Y-89169731D01*
X128389355Y-88974822D01*
X128272466Y-88905195D01*
X128454632Y-88783475D01*
X128661475Y-88576632D01*
X128823990Y-88333411D01*
X128935932Y-88063158D01*
X128993000Y-87776260D01*
X128993000Y-87483740D01*
X128935932Y-87196842D01*
X128823990Y-86926589D01*
X128661475Y-86683368D01*
X128454632Y-86476525D01*
X128280240Y-86360000D01*
X128454632Y-86243475D01*
X128661475Y-86036632D01*
X128823990Y-85793411D01*
X128935932Y-85523158D01*
X128993000Y-85236260D01*
X128993000Y-84943740D01*
X128935932Y-84656842D01*
X128823990Y-84386589D01*
X128661475Y-84143368D01*
X128529620Y-84011513D01*
X128602180Y-83989502D01*
X128712494Y-83930537D01*
X128809185Y-83851185D01*
X128888537Y-83754494D01*
X128947502Y-83644180D01*
X128983812Y-83524482D01*
X128996072Y-83400000D01*
X128996072Y-81700000D01*
X133131928Y-81700000D01*
X133131928Y-83400000D01*
X133144188Y-83524482D01*
X133180498Y-83644180D01*
X133239463Y-83754494D01*
X133318815Y-83851185D01*
X133415506Y-83930537D01*
X133525820Y-83989502D01*
X133598380Y-84011513D01*
X133466525Y-84143368D01*
X133304010Y-84386589D01*
X133192068Y-84656842D01*
X133135000Y-84943740D01*
X133135000Y-85236260D01*
X133192068Y-85523158D01*
X133304010Y-85793411D01*
X133466525Y-86036632D01*
X133673368Y-86243475D01*
X133847760Y-86360000D01*
X133673368Y-86476525D01*
X133466525Y-86683368D01*
X133304010Y-86926589D01*
X133192068Y-87196842D01*
X133135000Y-87483740D01*
X133135000Y-87776260D01*
X133192068Y-88063158D01*
X133304010Y-88333411D01*
X133466525Y-88576632D01*
X133673368Y-88783475D01*
X133855534Y-88905195D01*
X133738645Y-88974822D01*
X133522412Y-89169731D01*
X133348359Y-89403080D01*
X133223175Y-89665901D01*
X133178524Y-89813110D01*
X133299845Y-90043000D01*
X134493000Y-90043000D01*
X134493000Y-90023000D01*
X134747000Y-90023000D01*
X134747000Y-90043000D01*
X135940155Y-90043000D01*
X136061476Y-89813110D01*
X136016825Y-89665901D01*
X135891641Y-89403080D01*
X135717588Y-89169731D01*
X135501355Y-88974822D01*
X135384466Y-88905195D01*
X135566632Y-88783475D01*
X135773475Y-88576632D01*
X135935990Y-88333411D01*
X136047932Y-88063158D01*
X136105000Y-87776260D01*
X136105000Y-87483740D01*
X136047932Y-87196842D01*
X135935990Y-86926589D01*
X135773475Y-86683368D01*
X135566632Y-86476525D01*
X135392240Y-86360000D01*
X135566632Y-86243475D01*
X135773475Y-86036632D01*
X135935990Y-85793411D01*
X136047932Y-85523158D01*
X136105000Y-85236260D01*
X136105000Y-84943740D01*
X136047932Y-84656842D01*
X135935990Y-84386589D01*
X135773475Y-84143368D01*
X135641620Y-84011513D01*
X135714180Y-83989502D01*
X135824494Y-83930537D01*
X135921185Y-83851185D01*
X136000537Y-83754494D01*
X136059502Y-83644180D01*
X136095812Y-83524482D01*
X136108072Y-83400000D01*
X136108072Y-81700000D01*
X136095812Y-81575518D01*
X136059502Y-81455820D01*
X136000537Y-81345506D01*
X135921185Y-81248815D01*
X135824494Y-81169463D01*
X135714180Y-81110498D01*
X135594482Y-81074188D01*
X135470000Y-81061928D01*
X133770000Y-81061928D01*
X133645518Y-81074188D01*
X133525820Y-81110498D01*
X133415506Y-81169463D01*
X133318815Y-81248815D01*
X133239463Y-81345506D01*
X133180498Y-81455820D01*
X133144188Y-81575518D01*
X133131928Y-81700000D01*
X128996072Y-81700000D01*
X128983812Y-81575518D01*
X128947502Y-81455820D01*
X128888537Y-81345506D01*
X128809185Y-81248815D01*
X128712494Y-81169463D01*
X128602180Y-81110498D01*
X128482482Y-81074188D01*
X128358000Y-81061928D01*
X126658000Y-81061928D01*
X126533518Y-81074188D01*
X126413820Y-81110498D01*
X126303506Y-81169463D01*
X126206815Y-81248815D01*
X126127463Y-81345506D01*
X126068498Y-81455820D01*
X126032188Y-81575518D01*
X126019928Y-81700000D01*
X121630072Y-81700000D01*
X121617812Y-81575518D01*
X121581502Y-81455820D01*
X121522537Y-81345506D01*
X121443185Y-81248815D01*
X121346494Y-81169463D01*
X121236180Y-81110498D01*
X121116482Y-81074188D01*
X120992000Y-81061928D01*
X119292000Y-81061928D01*
X119167518Y-81074188D01*
X119047820Y-81110498D01*
X118937506Y-81169463D01*
X118840815Y-81248815D01*
X118761463Y-81345506D01*
X118702498Y-81455820D01*
X118666188Y-81575518D01*
X118653928Y-81700000D01*
X114518072Y-81700000D01*
X114505812Y-81575518D01*
X114469502Y-81455820D01*
X114410537Y-81345506D01*
X114331185Y-81248815D01*
X114234494Y-81169463D01*
X114124180Y-81110498D01*
X114004482Y-81074188D01*
X113880000Y-81061928D01*
X112180000Y-81061928D01*
X112055518Y-81074188D01*
X111935820Y-81110498D01*
X111825506Y-81169463D01*
X111728815Y-81248815D01*
X111649463Y-81345506D01*
X111590498Y-81455820D01*
X111554188Y-81575518D01*
X111541928Y-81700000D01*
X106898072Y-81700000D01*
X106885812Y-81575518D01*
X106849502Y-81455820D01*
X106790537Y-81345506D01*
X106711185Y-81248815D01*
X106614494Y-81169463D01*
X106504180Y-81110498D01*
X106384482Y-81074188D01*
X106260000Y-81061928D01*
X104560000Y-81061928D01*
X104435518Y-81074188D01*
X104315820Y-81110498D01*
X104205506Y-81169463D01*
X104108815Y-81248815D01*
X104029463Y-81345506D01*
X103970498Y-81455820D01*
X103934188Y-81575518D01*
X103921928Y-81700000D01*
X103505000Y-81700000D01*
X103505000Y-75872818D01*
X104646787Y-75872818D01*
X105138946Y-76475149D01*
X105989933Y-76945063D01*
X106916243Y-77239929D01*
X107882281Y-77348414D01*
X108850921Y-77266351D01*
X109784938Y-76996893D01*
X110648440Y-76550394D01*
X110761054Y-76475149D01*
X111253213Y-75872818D01*
X129411787Y-75872818D01*
X129903946Y-76475149D01*
X130754933Y-76945063D01*
X131681243Y-77239929D01*
X132647281Y-77348414D01*
X133615921Y-77266351D01*
X134549938Y-76996893D01*
X135413440Y-76550394D01*
X135526054Y-76475149D01*
X136018213Y-75872818D01*
X132715000Y-72569605D01*
X129411787Y-75872818D01*
X111253213Y-75872818D01*
X107950000Y-72569605D01*
X104646787Y-75872818D01*
X103505000Y-75872818D01*
X103505000Y-74538029D01*
X103789606Y-75088440D01*
X103864851Y-75201054D01*
X104467182Y-75693213D01*
X107770395Y-72390000D01*
X108129605Y-72390000D01*
X111432818Y-75693213D01*
X112035149Y-75201054D01*
X112505063Y-74350067D01*
X112799929Y-73423757D01*
X112908414Y-72457719D01*
X112826351Y-71489079D01*
X112556893Y-70555062D01*
X112110394Y-69691560D01*
X112035149Y-69578946D01*
X111432818Y-69086787D01*
X108129605Y-72390000D01*
X107770395Y-72390000D01*
X104467182Y-69086787D01*
X103864851Y-69578946D01*
X103505000Y-70230615D01*
X103505000Y-66867000D01*
X104323928Y-66867000D01*
X104336188Y-66991482D01*
X104372498Y-67111180D01*
X104431463Y-67221494D01*
X104510815Y-67318185D01*
X104607506Y-67397537D01*
X104717820Y-67456502D01*
X104837518Y-67492812D01*
X104962000Y-67505072D01*
X105251250Y-67502000D01*
X105410000Y-67343250D01*
X105410000Y-66294000D01*
X104485750Y-66294000D01*
X104327000Y-66452750D01*
X104323928Y-66867000D01*
X103505000Y-66867000D01*
X103505000Y-64708000D01*
X104323928Y-64708000D01*
X104336188Y-64832482D01*
X104372498Y-64952180D01*
X104431463Y-65062494D01*
X104451985Y-65087500D01*
X104431463Y-65112506D01*
X104372498Y-65222820D01*
X104336188Y-65342518D01*
X104323928Y-65467000D01*
X104327000Y-65881250D01*
X104485750Y-66040000D01*
X105410000Y-66040000D01*
X105410000Y-64135000D01*
X104485750Y-64135000D01*
X104327000Y-64293750D01*
X104323928Y-64708000D01*
X103505000Y-64708000D01*
X103505000Y-62676000D01*
X104305928Y-62676000D01*
X104318188Y-62800482D01*
X104354498Y-62920180D01*
X104401887Y-63008838D01*
X104372498Y-63063820D01*
X104336188Y-63183518D01*
X104323928Y-63308000D01*
X104327000Y-63722250D01*
X104485750Y-63881000D01*
X105410000Y-63881000D01*
X105410000Y-62831750D01*
X105392000Y-62813750D01*
X105392000Y-62103000D01*
X104467750Y-62103000D01*
X104309000Y-62261750D01*
X104305928Y-62676000D01*
X103505000Y-62676000D01*
X103505000Y-61276000D01*
X104305928Y-61276000D01*
X104309000Y-61690250D01*
X104467750Y-61849000D01*
X105392000Y-61849000D01*
X105392000Y-60799750D01*
X105233250Y-60641000D01*
X104944000Y-60637928D01*
X104819518Y-60650188D01*
X104699820Y-60686498D01*
X104589506Y-60745463D01*
X104492815Y-60824815D01*
X104413463Y-60921506D01*
X104354498Y-61031820D01*
X104318188Y-61151518D01*
X104305928Y-61276000D01*
X103505000Y-61276000D01*
X103505000Y-57316000D01*
X103921928Y-57316000D01*
X103921928Y-59016000D01*
X103934188Y-59140482D01*
X103970498Y-59260180D01*
X104029463Y-59370494D01*
X104108815Y-59467185D01*
X104205506Y-59546537D01*
X104315820Y-59605502D01*
X104435518Y-59641812D01*
X104560000Y-59654072D01*
X106260000Y-59654072D01*
X106384482Y-59641812D01*
X106504180Y-59605502D01*
X106614494Y-59546537D01*
X106711185Y-59467185D01*
X106790537Y-59370494D01*
X106849502Y-59260180D01*
X106885812Y-59140482D01*
X106898072Y-59016000D01*
X106898072Y-57316000D01*
X106885812Y-57191518D01*
X106849502Y-57071820D01*
X106790537Y-56961506D01*
X106711185Y-56864815D01*
X106614494Y-56785463D01*
X106504180Y-56726498D01*
X106384482Y-56690188D01*
X106260000Y-56677928D01*
X104560000Y-56677928D01*
X104435518Y-56690188D01*
X104315820Y-56726498D01*
X104205506Y-56785463D01*
X104108815Y-56864815D01*
X104029463Y-56961506D01*
X103970498Y-57071820D01*
X103934188Y-57191518D01*
X103921928Y-57316000D01*
X103505000Y-57316000D01*
X103505000Y-56515000D01*
X108255455Y-56515000D01*
X108203528Y-56612149D01*
%TD*%
M02*
