%TF.GenerationSoftware,KiCad,Pcbnew,(5.1.6)-1*%
%TF.CreationDate,2020-09-14T23:39:59+02:00*%
%TF.ProjectId,gpioexpander,6770696f-6578-4706-916e-6465722e6b69,rev?*%
%TF.SameCoordinates,Original*%
%TF.FileFunction,Soldermask,Bot*%
%TF.FilePolarity,Negative*%
%FSLAX46Y46*%
G04 Gerber Fmt 4.6, Leading zero omitted, Abs format (unit mm)*
G04 Created by KiCad (PCBNEW (5.1.6)-1) date 2020-09-14 23:39:59*
%MOMM*%
%LPD*%
G01*
G04 APERTURE LIST*
%ADD10C,6.500000*%
%ADD11R,1.800000X1.800000*%
%ADD12O,1.800000X1.800000*%
%ADD13C,2.100000*%
G04 APERTURE END LIST*
%TO.C,R4*%
G36*
G01*
X119536738Y-65687000D02*
X120493262Y-65687000D01*
G75*
G02*
X120765000Y-65958738I0J-271738D01*
G01*
X120765000Y-66665262D01*
G75*
G02*
X120493262Y-66937000I-271738J0D01*
G01*
X119536738Y-66937000D01*
G75*
G02*
X119265000Y-66665262I0J271738D01*
G01*
X119265000Y-65958738D01*
G75*
G02*
X119536738Y-65687000I271738J0D01*
G01*
G37*
G36*
G01*
X119536738Y-63637000D02*
X120493262Y-63637000D01*
G75*
G02*
X120765000Y-63908738I0J-271738D01*
G01*
X120765000Y-64615262D01*
G75*
G02*
X120493262Y-64887000I-271738J0D01*
G01*
X119536738Y-64887000D01*
G75*
G02*
X119265000Y-64615262I0J271738D01*
G01*
X119265000Y-63908738D01*
G75*
G02*
X119536738Y-63637000I271738J0D01*
G01*
G37*
%TD*%
D10*
%TO.C,H2*%
X107315000Y-62230000D03*
%TD*%
%TO.C,H1*%
X133223000Y-62230000D03*
%TD*%
%TO.C,R8*%
G36*
G01*
X117826262Y-61059000D02*
X116869738Y-61059000D01*
G75*
G02*
X116598000Y-60787262I0J271738D01*
G01*
X116598000Y-60080738D01*
G75*
G02*
X116869738Y-59809000I271738J0D01*
G01*
X117826262Y-59809000D01*
G75*
G02*
X118098000Y-60080738I0J-271738D01*
G01*
X118098000Y-60787262D01*
G75*
G02*
X117826262Y-61059000I-271738J0D01*
G01*
G37*
G36*
G01*
X117826262Y-63109000D02*
X116869738Y-63109000D01*
G75*
G02*
X116598000Y-62837262I0J271738D01*
G01*
X116598000Y-62130738D01*
G75*
G02*
X116869738Y-61859000I271738J0D01*
G01*
X117826262Y-61859000D01*
G75*
G02*
X118098000Y-62130738I0J-271738D01*
G01*
X118098000Y-62837262D01*
G75*
G02*
X117826262Y-63109000I-271738J0D01*
G01*
G37*
%TD*%
%TO.C,R7*%
G36*
G01*
X120493262Y-61059000D02*
X119536738Y-61059000D01*
G75*
G02*
X119265000Y-60787262I0J271738D01*
G01*
X119265000Y-60080738D01*
G75*
G02*
X119536738Y-59809000I271738J0D01*
G01*
X120493262Y-59809000D01*
G75*
G02*
X120765000Y-60080738I0J-271738D01*
G01*
X120765000Y-60787262D01*
G75*
G02*
X120493262Y-61059000I-271738J0D01*
G01*
G37*
G36*
G01*
X120493262Y-63109000D02*
X119536738Y-63109000D01*
G75*
G02*
X119265000Y-62837262I0J271738D01*
G01*
X119265000Y-62130738D01*
G75*
G02*
X119536738Y-61859000I271738J0D01*
G01*
X120493262Y-61859000D01*
G75*
G02*
X120765000Y-62130738I0J-271738D01*
G01*
X120765000Y-62837262D01*
G75*
G02*
X120493262Y-63109000I-271738J0D01*
G01*
G37*
%TD*%
%TO.C,R5*%
G36*
G01*
X116869738Y-65678000D02*
X117826262Y-65678000D01*
G75*
G02*
X118098000Y-65949738I0J-271738D01*
G01*
X118098000Y-66656262D01*
G75*
G02*
X117826262Y-66928000I-271738J0D01*
G01*
X116869738Y-66928000D01*
G75*
G02*
X116598000Y-66656262I0J271738D01*
G01*
X116598000Y-65949738D01*
G75*
G02*
X116869738Y-65678000I271738J0D01*
G01*
G37*
G36*
G01*
X116869738Y-63628000D02*
X117826262Y-63628000D01*
G75*
G02*
X118098000Y-63899738I0J-271738D01*
G01*
X118098000Y-64606262D01*
G75*
G02*
X117826262Y-64878000I-271738J0D01*
G01*
X116869738Y-64878000D01*
G75*
G02*
X116598000Y-64606262I0J271738D01*
G01*
X116598000Y-63899738D01*
G75*
G02*
X116869738Y-63628000I271738J0D01*
G01*
G37*
%TD*%
%TO.C,R3*%
G36*
G01*
X122330738Y-65687000D02*
X123287262Y-65687000D01*
G75*
G02*
X123559000Y-65958738I0J-271738D01*
G01*
X123559000Y-66665262D01*
G75*
G02*
X123287262Y-66937000I-271738J0D01*
G01*
X122330738Y-66937000D01*
G75*
G02*
X122059000Y-66665262I0J271738D01*
G01*
X122059000Y-65958738D01*
G75*
G02*
X122330738Y-65687000I271738J0D01*
G01*
G37*
G36*
G01*
X122330738Y-63637000D02*
X123287262Y-63637000D01*
G75*
G02*
X123559000Y-63908738I0J-271738D01*
G01*
X123559000Y-64615262D01*
G75*
G02*
X123287262Y-64887000I-271738J0D01*
G01*
X122330738Y-64887000D01*
G75*
G02*
X122059000Y-64615262I0J271738D01*
G01*
X122059000Y-63908738D01*
G75*
G02*
X122330738Y-63637000I271738J0D01*
G01*
G37*
%TD*%
%TO.C,R6*%
G36*
G01*
X123287262Y-61068000D02*
X122330738Y-61068000D01*
G75*
G02*
X122059000Y-60796262I0J271738D01*
G01*
X122059000Y-60089738D01*
G75*
G02*
X122330738Y-59818000I271738J0D01*
G01*
X123287262Y-59818000D01*
G75*
G02*
X123559000Y-60089738I0J-271738D01*
G01*
X123559000Y-60796262D01*
G75*
G02*
X123287262Y-61068000I-271738J0D01*
G01*
G37*
G36*
G01*
X123287262Y-63118000D02*
X122330738Y-63118000D01*
G75*
G02*
X122059000Y-62846262I0J271738D01*
G01*
X122059000Y-62139738D01*
G75*
G02*
X122330738Y-61868000I271738J0D01*
G01*
X123287262Y-61868000D01*
G75*
G02*
X123559000Y-62139738I0J-271738D01*
G01*
X123559000Y-62846262D01*
G75*
G02*
X123287262Y-63118000I-271738J0D01*
G01*
G37*
%TD*%
%TO.C,R1*%
G36*
G01*
X134207000Y-76953500D02*
X134207000Y-77478500D01*
G75*
G02*
X133944500Y-77741000I-262500J0D01*
G01*
X133319500Y-77741000D01*
G75*
G02*
X133057000Y-77478500I0J262500D01*
G01*
X133057000Y-76953500D01*
G75*
G02*
X133319500Y-76691000I262500J0D01*
G01*
X133944500Y-76691000D01*
G75*
G02*
X134207000Y-76953500I0J-262500D01*
G01*
G37*
G36*
G01*
X135957000Y-76953500D02*
X135957000Y-77478500D01*
G75*
G02*
X135694500Y-77741000I-262500J0D01*
G01*
X135069500Y-77741000D01*
G75*
G02*
X134807000Y-77478500I0J262500D01*
G01*
X134807000Y-76953500D01*
G75*
G02*
X135069500Y-76691000I262500J0D01*
G01*
X135694500Y-76691000D01*
G75*
G02*
X135957000Y-76953500I0J-262500D01*
G01*
G37*
%TD*%
D11*
%TO.C,J8*%
X108712000Y-72009000D03*
%TD*%
D12*
%TO.C,J1*%
X114046000Y-63627000D03*
D11*
X114046000Y-61087000D03*
%TD*%
D13*
%TO.C,SW1*%
X128501000Y-72517000D03*
X128501000Y-68017000D03*
X135001000Y-72517000D03*
X135001000Y-68017000D03*
%TD*%
D12*
%TO.C,J7*%
X134620000Y-90170000D03*
X134620000Y-87630000D03*
X134620000Y-85090000D03*
D11*
X134620000Y-82550000D03*
%TD*%
D12*
%TO.C,J6*%
X127508000Y-90170000D03*
X127508000Y-87630000D03*
X127508000Y-85090000D03*
D11*
X127508000Y-82550000D03*
%TD*%
D12*
%TO.C,J5*%
X120142000Y-90170000D03*
X120142000Y-87630000D03*
X120142000Y-85090000D03*
D11*
X120142000Y-82550000D03*
%TD*%
D12*
%TO.C,J4*%
X113030000Y-90170000D03*
X113030000Y-87630000D03*
X113030000Y-85090000D03*
D11*
X113030000Y-82550000D03*
%TD*%
D12*
%TO.C,J3*%
X105410000Y-90170000D03*
X105410000Y-87630000D03*
X105410000Y-85090000D03*
D11*
X105410000Y-82550000D03*
%TD*%
D12*
%TO.C,J2*%
X125730000Y-64135000D03*
D11*
X125730000Y-61595000D03*
%TD*%
M02*
